<?xml version="1.0" encoding="UTF-8"?><svg xmlns="http://www.w3.org/2000/svg" viewBox="0 0 909.54 254.5"><defs><style>.d{fill:#f637ed;}</style></defs><g id="a"/><g id="b"><g id="c"><g><g><path class="d" d="M194.83,0c3.77,0,7.79,.2,12.09,.62,26.16,2.56,56.41,26.52,60.1,72.43v15.28c-3.43,43.95-36.6,98.15-133.51,166.16C36.59,186.49,3.43,132.29,0,88.34v-15.28C3.68,27.14,33.93,3.18,60.09,.62c4.3-.42,8.32-.62,12.09-.62,30.22,0,44.73,13.07,61.32,32.86C150.11,13.07,164.6,0,194.83,0m0,29.22c-17.37,0-24.61,5.32-38.95,22.42l-22.37,26.67-22.38-26.67c-14.34-17.1-21.59-22.42-38.95-22.42-2.84,0-5.96,.16-9.26,.49-12.07,1.18-30.86,14.04-33.72,44.61v12.79c3.55,38.39,38.61,82.52,104.3,131.37,65.69-48.85,100.75-92.99,104.31-131.37v-12.79c-2.87-30.57-21.66-43.43-33.73-44.61-3.3-.32-6.41-.49-9.25-.49h0Z"/><rect class="d" x="14.44" y="15.64" width="128.74" height="164.84" rx="64.37" ry="64.37"/><rect class="d" x="121.53" y="12.03" width="128.74" height="164.84" rx="64.37" ry="64.37"/><rect class="d" x="61.36" y="61.36" width="128.74" height="164.84" rx="64.37" ry="64.37"/></g><g><path class="d" d="M516.09,0c3.77,0,7.79,.2,12.09,.62,26.16,2.56,56.41,26.52,60.1,72.43v15.28c-3.43,43.95-36.6,98.15-133.51,166.16-96.92-68.01-130.08-122.22-133.51-166.16v-15.28C324.94,27.14,355.19,3.18,381.35,.62c4.3-.42,8.32-.62,12.09-.62,30.22,0,44.73,13.07,61.32,32.86C471.37,13.07,485.86,0,516.09,0m0,29.22c-17.37,0-24.61,5.32-38.95,22.42l-22.37,26.67-22.38-26.67c-14.34-17.1-21.59-22.42-38.95-22.42-2.84,0-5.96,.16-9.26,.49-12.07,1.18-30.86,14.04-33.72,44.61v12.79c3.55,38.39,38.61,82.52,104.3,131.37,65.69-48.85,100.75-92.99,104.31-131.37v-12.79c-2.87-30.57-21.66-43.43-33.73-44.61-3.3-.32-6.41-.49-9.25-.49h0Z"/><rect class="d" x="335.7" y="15.64" width="128.74" height="164.84" rx="64.37" ry="64.37"/><rect class="d" x="442.79" y="12.03" width="128.74" height="164.84" rx="64.37" ry="64.37"/><rect class="d" x="382.63" y="61.36" width="128.74" height="164.84" rx="64.37" ry="64.37"/></g><g><path class="d" d="M837.35,0c3.77,0,7.79,.2,12.09,.62,26.16,2.56,56.41,26.52,60.1,72.43v15.28c-3.43,43.95-36.6,98.15-133.51,166.16-96.92-68.01-130.08-122.22-133.51-166.16v-15.28c3.68-45.92,33.93-69.88,60.09-72.43,4.3-.42,8.32-.62,12.09-.62,30.22,0,44.73,13.07,61.32,32.86,16.6-19.79,31.09-32.86,61.32-32.86m0,29.22c-17.37,0-24.61,5.32-38.95,22.42l-22.37,26.67-22.38-26.67c-14.34-17.1-21.59-22.42-38.95-22.42-2.84,0-5.96,.16-9.26,.49-12.07,1.18-30.86,14.04-33.72,44.61v12.79c3.55,38.39,38.61,82.52,104.3,131.37,65.69-48.85,100.75-92.99,104.31-131.37v-12.79c-2.87-30.57-21.66-43.43-33.73-44.61-3.3-.32-6.41-.49-9.25-.49h0Z"/><rect class="d" x="656.96" y="15.64" width="128.74" height="164.84" rx="64.37" ry="64.37"/><rect class="d" x="764.05" y="12.03" width="128.74" height="164.84" rx="64.37" ry="64.37"/><rect class="d" x="703.89" y="61.36" width="128.74" height="164.84" rx="64.37" ry="64.37"/></g></g></g></g></svg>