<?xml version="1.0" encoding="UTF-8"?><svg xmlns="http://www.w3.org/2000/svg" viewBox="0 0 2458 1442.19"><defs><style>.d,.e,.f,.g{stroke:#000;stroke-miterlimit:10;}.d,.e,.g{fill:#fff;}.d,.f,.g{stroke-width:5px;}.h{letter-spacing:.01em;}.e{stroke-width:4px;}.e,.g{font-family:Cortado, Cortado;font-size:121px;}.i{letter-spacing:0em;}.j{letter-spacing:0em;}.k{letter-spacing:.04em;}.f{fill:none;}.l{letter-spacing:.03em;}.m{letter-spacing:.03em;}.n{letter-spacing:.02em;}.o{letter-spacing:.05em;}.p{letter-spacing:.05em;}.q{letter-spacing:.06em;}.r{letter-spacing:.06em;}.s{letter-spacing:0em;}.t{letter-spacing:-.03em;}.u{letter-spacing:-.03em;}.v{letter-spacing:-.01em;}.w{letter-spacing:-.01em;}.x{letter-spacing:.07em;}.y{letter-spacing:.02em;}</style></defs><g id="a"/><g id="b"><g id="c"><g><line class="f" x1="665" y1="1074.19" x2="771" y2="1068.19"/><g><rect class="f" x="2.5" y="2.5" width="2453" height="1437.19"/><g><text class="g" transform="translate(163.82 251.1)"><tspan class="s" x="0" y="0">H</tspan><tspan x="75.02" y="0">ow to play</tspan></text><line class="d" x1="154" y1="300.19" x2="670" y2="300.19"/></g><text class="e" transform="translate(129.87 491.35)"><tspan class="o" x="0" y="0">C</tspan><tspan class="m" x="69.21" y="0">A</tspan><tspan class="n" x="143.26" y="0">RO</tspan><tspan class="p" x="290.15" y="0">L</tspan><tspan class="y" x="355.13" y="0">INE </tspan><tspan class="t" x="554.53" y="0">L</tspan><tspan class="i" x="609.83" y="0">O</tspan><tspan class="o" x="685.7" y="0">V</tspan><tspan class="l" x="754.91" y="0">E</tspan><tspan class="y" x="820.49" y="0">S </tspan><tspan class="l" x="896.6" y="0">BR</tspan><tspan class="n" x="1041.07" y="0">I</tspan><tspan class="l" x="1080.03" y="0">G</tspan><tspan class="i" x="1153.48" y="0">H</tspan><tspan class="n" x="1230.55" y="0">T CO</tspan><tspan class="u" x="1460.81" y="0">L</tspan><tspan class="y" x="1516.11" y="0">O</tspan><tspan class="m" x="1593.19" y="0">R</tspan><tspan class="n" x="1665.42" y="0">S. </tspan><tspan class="k" x="0" y="181">C</tspan><tspan class="o" x="68" y="181">L</tspan><tspan class="y" x="132.98" y="181">I</tspan><tspan class="x" x="171.94" y="181">C</tspan><tspan class="n" x="243.57" y="181">K ON 5 </tspan><tspan class="l" x="576.19" y="181">BR</tspan><tspan class="n" x="721.87" y="181">I</tspan><tspan class="m" x="760.83" y="181">G</tspan><tspan class="j" x="834.27" y="181">H</tspan><tspan class="y" x="911.35" y="181">T </tspan><tspan class="l" x="998.95" y="181">G</tspan><tspan class="q" x="1072.4" y="181">E</tspan><tspan class="y" x="1141.61" y="181">MS TO </tspan><tspan class="x" x="1472.78" y="181">C</tspan><tspan class="n" x="1544.41" y="181">H</tspan><tspan class="m" x="1622.7" y="181">A</tspan><tspan class="n" x="1696.75" y="181">N</tspan><tspan class="l" x="1772.61" y="181">G</tspan><tspan class="n" x="1846.06" y="181">E </tspan><tspan class="n" x="0" y="362">H</tspan><tspan class="q" x="78.29" y="362">E</tspan><tspan class="y" x="147.5" y="362">R DR</tspan><tspan class="l" x="385.02" y="362">E</tspan><tspan class="y" x="450.6" y="362">SS. BUT BE</tspan><tspan class="v" x="983.59" y="362">W</tspan><tspan class="l" x="1071.56" y="362">A</tspan><tspan class="y" x="1145.61" y="362">RE OF D</tspan><tspan class="m" x="1533.29" y="362">AR</tspan><tspan class="n" x="1679.57" y="362">K </tspan><tspan class="l" x="1767.18" y="362">G</tspan><tspan class="r" x="1840.62" y="362">E</tspan><tspan class="n" x="1909.83" y="362">MS, </tspan><tspan class="m" x="0" y="543">T</tspan><tspan class="n" x="68.61" y="543">H</tspan><tspan class="p" x="146.89" y="543">E</tspan><tspan class="y" x="214.89" y="543">Y </tspan><tspan class="m" x="294.63" y="543">A</tspan><tspan class="y" x="368.68" y="543">RE SO </tspan><tspan class="h" x="676.26" y="543">L</tspan><tspan class="n" x="737" y="543">A</tspan><tspan class="w" x="809.84" y="543">S</tspan><tspan class="n" x="862.11" y="543">T </tspan><tspan class="r" x="949.72" y="543">S</tspan><tspan class="k" x="1010.46" y="543">E</tspan><tspan class="y" x="1077.25" y="543">ASON!</tspan></text></g></g></g></g></svg>