<?xml version="1.0" encoding="UTF-8"?><svg xmlns="http://www.w3.org/2000/svg" viewBox="0 0 1840.85 718.17"><defs><style>.d,.e,.f{fill:#00b200;stroke:#fff;stroke-miterlimit:10;}.d,.f{stroke-width:5px;}.g{letter-spacing:.05em;}.h{letter-spacing:-.03em;}.i{letter-spacing:0em;}.e{stroke-width:4px;}.e,.f{font-family:Cortado, Cortado;font-size:300px;}.j{letter-spacing:.02em;}.k{letter-spacing:0em;}.l{letter-spacing:0em;}</style></defs><g id="a"/><g id="b"><g id="c"><g><text class="f" transform="translate(25.05 250)"><tspan class="k" x="0" y="0">R</tspan><tspan x="165" y="0">UN</tspan><tspan class="h" x="530.99" y="0">W</tspan><tspan class="k" x="743.99" y="0">A</tspan><tspan class="l" x="916.49" y="0">Y </tspan><tspan class="g" x="0" y="360">C</tspan><tspan x="172.49" y="360">H</tspan><tspan class="i" x="361.49" y="360">A</tspan><tspan x="539.99" y="360">M</tspan><tspan class="j" x="758.99" y="360">E</tspan><tspan x="919.48" y="360">LE</tspan></text><path class="d" d="M1390.04,405.38c-84.75,59.29-99.31,158.85-59.79,207.62,32.07,39.59,98.42,44.06,145.63,24.3,55.75-23.33,102.42-87.82,85.49-146.78-9.31-32.43-37.48-61.86-74.02-71.43-44.29-11.61-80.02,11.42-89.18,17.32-32.49,20.94-61.66,61.74-57.7,109,.58,6.87,5.97,61.58,47.37,79.34,35.74,15.34,72.4-7.96,91.95-20.38,20.15-12.81,69.02-43.85,62.53-88.49-5.39-37.09-46.37-65.42-85.64-64.13-35.96,1.18-57.9,26.78-60.62,30.07-19.74,23.82-33.08,67.79-9.15,94.74,20.69,23.31,57.75,20.92,80.92,10.58,5.41-2.41,45.75-21.19,43.39-55.96-1.78-26.26-27.23-51.69-54.47-48.73-16.71,1.82-31.3,14.02-37.42,29.35-7.72,19.36-3.34,47.25,12.9,53.44,14.33,5.46,37.64-6.09,47.67-31.76"/><text class="e" transform="translate(1577.73 620.17)"><tspan x="0" y="0">N</tspan></text></g></g></g></svg>