<?xml version="1.0" encoding="UTF-8"?><svg xmlns="http://www.w3.org/2000/svg" viewBox="0 0 614.91 818.5"><defs><style>.d,.e,.f{fill:#00b100;}.g,.h,.i,.j,.e,.k,.l,.m,.n,.o,.p,.q,.f,.r{stroke-miterlimit:10;}.g,.e,.k,.m,.o,.p,.q,.f{stroke:#000;}.g,.l,.m{stroke-width:2px;}.g,.o{fill:#a9f6a3;}.h{stroke:#b9c5b9;}.h,.i{stroke-width:.25px;}.h,.j{fill:#b5d7b5;}.i{fill:#0edccc;stroke:#f3f2ee;}.j{stroke-width:.5px;}.j,.r{stroke:#0e0f0e;}.k,.r{fill:#333;}.l{stroke:#097f09;}.l,.m,.n{fill:none;}.n{stroke:#00b100;stroke-width:11px;}.o,.p,.q,.f{stroke-width:3px;}.p{fill:#cd8632;}.q{fill:#fff;}.r{stroke-width:.75px;}</style></defs><g id="a"/><g id="b"><g id="c"><g><path class="n" d="M211.74,660.89c58.11,91.07,157.15,137.08,245.1,116.35,71.74-16.91,162.84-84.53,151.64-169.76-7.65-58.15-61.79-115.87-131.61-119.21-81.35-3.89-132.8,68.49-145.91,121.12-3.36,13.5-14.76,59.22,11.44,87.74,28.54,31.07,83.49,21.89,115.4,5.72,26.58-13.47,70.03-48.46,59.13-81.06-7.6-22.73-39.59-38.19-77.25-36.24"/><g><polygon class="j" points="8.26 187.71 .64 202.09 13.92 194.17 8.26 187.71"/><polygon class="j" points="13.5 192.95 5.88 207.33 19.16 199.41 13.5 192.95"/><polygon class="j" points="18.74 198.19 11.12 212.57 24.4 204.65 18.74 198.19"/><polygon class="j" points="23.98 203.43 16.36 217.81 29.64 209.89 23.98 203.43"/><polygon class="j" points="29.33 208.21 20.13 221.63 34.22 215.27 29.33 208.21"/><polygon class="j" points="33.95 214.01 24.74 227.43 38.83 221.07 33.95 214.01"/><polygon class="j" points="38.56 219.81 29.35 233.23 43.44 226.87 38.56 219.81"/><polygon class="j" points="43.17 225.61 33.96 239.03 48.05 232.67 43.17 225.61"/><polygon class="j" points="48.2 232.37 36.65 243.84 51.68 240.22 48.2 232.37"/><polygon class="j" points="51.65 238.93 40.09 250.4 55.12 246.78 51.65 238.93"/><polygon class="j" points="55.09 245.49 43.54 256.96 58.57 253.34 55.09 245.49"/><polygon class="j" points="58.54 252.05 46.98 263.52 62.01 259.9 58.54 252.05"/><polygon class="j" points="62.18 258.57 50.62 270.03 65.65 266.42 62.18 258.57"/><polygon class="j" points="65.62 265.13 54.06 276.59 69.1 272.98 65.62 265.13"/><polygon class="j" points="69.07 271.69 57.51 283.15 72.54 279.54 69.07 271.69"/><polygon class="j" points="72.51 278.25 60.95 289.71 75.99 286.1 72.51 278.25"/><polygon class="j" points="76.15 284.76 64.59 296.23 79.62 292.62 76.15 284.76"/><polygon class="j" points="79.59 291.32 68.04 302.79 83.07 299.18 79.59 291.32"/><polygon class="j" points="83.04 297.88 71.48 309.35 86.51 305.74 83.04 297.88"/><polygon class="j" points="86.48 304.44 74.93 315.91 89.96 312.3 86.48 304.44"/><polygon class="j" points="90.12 310.96 78.56 322.43 93.6 318.82 90.12 310.96"/><polygon class="j" points="93.56 317.52 82.01 328.99 97.04 325.38 93.56 317.52"/><polygon class="j" points="97.01 324.08 85.45 335.55 100.49 331.94 97.01 324.08"/><polygon class="j" points="100.45 330.64 88.9 342.11 103.93 338.5 100.45 330.64"/><polygon class="j" points="104.53 337.2 93.9 349.53 108.6 344.77 104.53 337.2"/><polygon class="j" points="108.47 343.48 97.84 355.81 112.55 351.04 108.47 343.48"/><polygon class="j" points="112.42 349.75 101.79 362.08 116.49 357.31 112.42 349.75"/><polygon class="j" points="116.36 356.02 105.73 368.35 120.44 363.58 116.36 356.02"/><polygon class="j" points="120.09 361.91 110.93 375.37 125 368.96 120.09 361.91"/><polygon class="j" points="124.72 367.69 115.56 381.15 129.63 374.74 124.72 367.69"/><polygon class="j" points="129.36 373.47 120.2 386.93 134.27 380.52 129.36 373.47"/><polygon class="j" points="133.99 379.26 124.83 392.72 138.9 386.31 133.99 379.26"/><polygon class="j" points="138.87 383.6 131.33 398.02 144.56 390.03 138.87 383.6"/><polygon class="j" points="144.14 388.81 136.6 403.23 149.83 395.24 144.14 388.81"/><polygon class="j" points="149.41 394.02 141.86 408.44 155.1 400.45 149.41 394.02"/></g><path class="d" d="M214.7,421.57c15.88,18.37,33.12,35.31,50.73,51.93l3.3,3.1c1.56,1.42,1.65,4.25-.21,5.39-2.44,1.78-4.89,3.53-7.31,5.34-9.78,7.13-19.34,14.5-28.02,23-4.33,4.28-8.57,8.69-12.32,13.76l-7.2-9.6c20.06-7.76,36.93-20.96,53.75-33.96,.96-.56,.63-1.9,0-2.47-10.32-8.82-20.79-17.52-31.48-25.92-9.52-7.46-19.16-14.79-29.24-21.63l8-8.95h0Z"/><path class="d" d="M195.97,426.65c-21.39,13.66-41.48,29.03-61.29,44.79l-.85,.69c-.99,.82-1.27,2.59-.28,3.51l1.6,1.55,3.22,3.08c8.6,8.26,17.33,16.31,27.07,23.25,4.89,3.47,9.91,6.81,15.48,9.54l-8.2,8.76c-10.07-16.91-24.43-30.21-38.8-43.32l-1.65-1.5c-1.88-1.66-1.59-4.82,.22-6.41l.85-.75c10.06-8.8,20.01-17.77,29.71-26.99,8.62-8.22,17.13-16.56,25.22-25.41l7.7,9.21h0Z"/><path class="d" d="M247,818.48c-5.84,.81-14.83-29.35-20.1-67.36-5.26-38.01-4.8-69.48,1.03-70.29,5.84-.81,24.9,136.84,19.07,137.65Z"/><path class="d" d="M178.88,818.48c-5.84,.81-14.83-29.35-20.1-67.36-5.26-38.01-4.8-69.48,1.03-70.29,5.84-.81,24.9,136.84,19.07,137.65Z"/><path class="e" d="M180.78,412.5l-47.79,302.39c-1.91,12.07,7.42,22.98,19.63,22.98h88.9c12.04,0,21.32-10.62,19.7-22.56l-41.11-302.39c-3.08-22.68-35.76-23.04-39.33-.42Z"/><path class="k" d="M177.37,441.41l-53.84,275.52c-2.15,10.99,8.36,20.94,22.12,20.94h100.16c13.57,0,24.02-9.68,22.19-20.55l-46.32-275.52c-3.47-20.67-40.28-20.99-44.31-.39Z"/><g><circle class="l" cx="229.41" cy="511.1" r="1.21"/><circle class="l" cx="227.22" cy="506.48" r="1.89"/><circle class="l" cx="227.35" cy="500.41" r="1.89"/><line class="l" x1="230.56" y1="510.73" x2="239.99" y2="502.49"/><line class="l" x1="229.04" y1="505.98" x2="239.99" y2="502.49"/><line class="l" x1="229.17" y1="499.91" x2="239.99" y2="502.49"/><circle class="l" cx="231.79" cy="515.58" r="1.36"/><line class="l" x1="239.99" y1="502.49" x2="232.37" y2="514.92"/></g><g><circle class="l" cx="167.99" cy="509.45" r="1.21"/><circle class="l" cx="170.18" cy="504.83" r="1.89"/><circle class="l" cx="170.06" cy="498.76" r="1.89"/><line class="l" x1="166.84" y1="509.09" x2="157.41" y2="500.84"/><line class="l" x1="168.36" y1="504.33" x2="157.41" y2="500.84"/><line class="l" x1="168.23" y1="498.26" x2="157.41" y2="500.84"/><circle class="l" cx="165.61" cy="513.93" r="1.36"/><line class="l" x1="157.41" y1="500.84" x2="165.03" y2="513.27"/></g><rect class="p" x="200.97" y="2.6" width="144.96" height="464.56" rx="71.29" ry="71.29"/><path class="f" d="M10.81,193.44C-55.41,144.14,255.16-17.07,282.69,3.26c27.53,20.33-9.49,325.93-82.58,389.65C127.01,456.64,77.03,242.75,10.81,193.44Z"/><circle class="q" cx="200.69" cy="101.55" r="54.14"/><circle class="o" cx="200.98" cy="101.93" r="24.35"/><path class="q" d="M113.87,69.41s-1.49-60.26,53.16-29.43"/><path class="g" d="M146.68,34.15c-.14,17.57-27.8,15.61-27.8,15.61,0,0,4.3-12.24,9.66-15.61,11.3-7.1,18.14,0,18.14,0Z"/><path class="r" d="M207.95,458.44l-8.56-.76c-7.43-.97-10.64-9.28-5.59-14.43l8.23-8.38"/><path class="r" d="M185.97,457.94l-5.26-.6c-7.92-.9-11.34-8.56-5.95-13.31l10.42-9.17"/><path class="m" d="M2.03,179.9s67.98-60.62,121.85,35.29"/><polygon class="h" points="171.15 395.34 168.43 397.65 165.07 396.45 164.43 392.94 167.15 390.63 170.51 391.83 171.15 395.34"/><polygon class="h" points="179.88 390.1 177.16 392.41 173.8 391.21 173.16 387.7 175.88 385.39 179.24 386.59 179.88 390.1"/><polygon class="h" points="178.13 398.83 175.41 401.14 172.05 399.94 171.41 396.43 174.13 394.12 177.49 395.32 178.13 398.83"/><polygon class="h" points="186.87 395.34 184.15 397.65 180.79 396.45 180.15 392.94 182.87 390.63 186.23 391.83 186.87 395.34"/><polygon class="h" points="193.85 391.84 191.13 394.15 187.77 392.95 187.13 389.44 189.85 387.13 193.21 388.33 193.85 391.84"/><polygon class="h" points="186.87 386.6 184.15 388.92 180.79 387.71 180.15 384.2 182.87 381.89 186.23 383.09 186.87 386.6"/><polygon class="h" points="200.84 386.6 198.12 388.92 194.76 387.71 194.12 384.2 196.84 381.89 200.2 383.09 200.84 386.6"/><polygon class="h" points="188.61 377.87 185.89 380.18 182.53 378.98 181.89 375.47 184.61 373.16 187.97 374.36 188.61 377.87"/><polygon class="h" points="193.85 383.11 191.13 385.42 187.77 384.22 187.13 380.71 189.85 378.4 193.21 379.6 193.85 383.11"/><polygon class="h" points="199.09 379.62 196.37 381.93 193.01 380.73 192.37 377.22 195.09 374.91 198.45 376.11 199.09 379.62"/><polygon class="h" points="179.88 381.37 177.16 383.68 173.8 382.47 173.16 378.96 175.88 376.65 179.24 377.85 179.88 381.37"/><polygon class="h" points="172.89 377.87 170.17 380.18 166.81 378.98 166.17 375.47 168.89 373.16 172.25 374.36 172.89 377.87"/><polygon class="h" points="171.15 386.6 168.43 388.92 165.07 387.71 164.43 384.2 167.15 381.89 170.51 383.09 171.15 386.6"/><polygon class="h" points="162.42 391.84 159.7 394.15 156.33 392.95 155.69 389.44 158.41 387.13 161.78 388.33 162.42 391.84"/><polygon class="h" points="164.16 381.37 161.44 383.68 158.08 382.47 157.44 378.96 160.16 376.65 163.52 377.85 164.16 381.37"/><polygon class="h" points="155.43 386.6 152.71 388.92 149.35 387.71 148.71 384.2 151.43 381.89 154.79 383.09 155.43 386.6"/><polygon class="h" points="160.67 374.38 157.95 376.69 154.59 375.49 153.95 371.98 156.67 369.67 160.03 370.87 160.67 374.38"/><polygon class="h" points="169.4 369.14 166.68 371.45 163.32 370.25 162.68 366.74 165.4 364.43 168.76 365.63 169.4 369.14"/><polygon class="h" points="169.4 360.41 166.68 362.72 163.32 361.52 162.68 358.01 165.4 355.7 168.76 356.9 169.4 360.41"/><polygon class="h" points="162.42 356.91 159.7 359.22 156.33 358.02 155.69 354.51 158.41 352.2 161.78 353.4 162.42 356.91"/><polygon class="h" points="160.67 365.65 157.95 367.96 154.59 366.76 153.95 363.25 156.67 360.94 160.03 362.14 160.67 365.65"/><polygon class="h" points="151.94 370.89 149.22 373.2 145.86 372 145.22 368.48 147.94 366.17 151.3 367.38 151.94 370.89"/><polygon class="h" points="153.68 360.41 150.96 362.72 147.6 361.52 146.96 358.01 149.68 355.7 153.04 356.9 153.68 360.41"/><polygon class="h" points="144.95 365.65 142.23 367.96 138.87 366.76 138.23 363.25 140.95 360.94 144.31 362.14 144.95 365.65"/><polygon class="h" points="130.98 362.15 128.26 364.46 124.9 363.26 124.26 359.75 126.98 357.44 130.34 358.64 130.98 362.15"/><polygon class="h" points="192.11 367.39 189.39 369.7 186.02 368.5 185.38 364.99 188.1 362.68 191.47 363.88 192.11 367.39"/><polygon class="h" points="200.84 362.15 198.12 364.46 194.76 363.26 194.12 359.75 196.84 357.44 200.2 358.64 200.84 362.15"/><polygon class="h" points="199.09 370.89 196.37 373.2 193.01 372 192.37 368.48 195.09 366.17 198.45 367.38 199.09 370.89"/><polygon class="h" points="207.82 367.39 205.1 369.7 201.74 368.5 201.1 364.99 203.82 362.68 207.18 363.88 207.82 367.39"/><polygon class="h" points="207.82 377.87 205.1 380.18 201.74 378.98 201.1 375.47 203.82 373.16 207.18 374.36 207.82 377.87"/><polygon class="h" points="214.81 363.9 212.09 366.21 208.73 365.01 208.09 361.5 210.81 359.19 214.17 360.39 214.81 363.9"/><polygon class="h" points="214.81 372.63 212.09 374.94 208.73 373.74 208.09 370.23 210.81 367.92 214.17 369.12 214.81 372.63"/><polygon class="h" points="207.82 358.66 205.1 360.97 201.74 359.77 201.1 356.26 203.82 353.95 207.18 355.15 207.82 358.66"/><polygon class="h" points="221.8 358.66 219.08 360.97 215.72 359.77 215.07 356.26 217.8 353.95 221.16 355.15 221.8 358.66"/><polygon class="h" points="209.57 349.93 206.85 352.24 203.49 351.04 202.85 347.53 205.57 345.22 208.93 346.42 209.57 349.93"/><polygon class="h" points="204.33 337.7 201.61 340.01 198.25 338.81 197.61 335.3 200.33 332.99 203.69 334.19 204.33 337.7"/><polygon class="h" points="216.56 348.18 213.84 350.49 210.48 349.29 209.84 345.78 212.56 343.47 215.92 344.67 216.56 348.18"/><polygon class="h" points="214.81 355.17 212.09 357.48 208.73 356.28 208.09 352.77 210.81 350.46 214.17 351.66 214.81 355.17"/><polygon class="h" points="200.84 353.42 198.12 355.73 194.76 354.53 194.12 351.02 196.84 348.71 200.2 349.91 200.84 353.42"/><polygon class="h" points="193.85 349.93 191.13 352.24 187.77 351.04 187.13 347.53 189.85 345.22 193.21 346.42 193.85 349.93"/><polygon class="h" points="192.11 358.66 189.39 360.97 186.02 359.77 185.38 356.26 188.1 353.95 191.47 355.15 192.11 358.66"/><polygon class="h" points="183.37 363.9 180.65 366.21 177.29 365.01 176.65 361.5 179.37 359.19 182.73 360.39 183.37 363.9"/><polygon class="h" points="176.39 367.39 173.67 369.7 170.31 368.5 169.67 364.99 172.39 362.68 175.75 363.88 176.39 367.39"/><polygon class="h" points="181.63 372.63 178.91 374.94 175.55 373.74 174.91 370.23 177.63 367.92 180.99 369.12 181.63 372.63"/><polygon class="h" points="185.12 353.42 182.4 355.73 179.04 354.53 178.4 351.02 181.12 348.71 184.48 349.91 185.12 353.42"/><polygon class="h" points="176.39 358.66 173.67 360.97 170.31 359.77 169.67 356.26 172.39 353.95 175.75 355.15 176.39 358.66"/><polygon class="h" points="160.67 348.18 157.95 350.49 154.59 349.29 153.95 345.78 156.67 343.47 160.03 344.67 160.67 348.18"/><polygon class="h" points="169.4 342.94 166.68 345.25 163.32 344.05 162.68 340.54 165.4 338.23 168.76 339.43 169.4 342.94"/><polygon class="h" points="167.66 351.68 164.94 353.99 161.57 352.78 160.93 349.27 163.65 346.96 167.02 348.16 167.66 351.68"/><polygon class="h" points="176.39 348.18 173.67 350.49 170.31 349.29 169.67 345.78 172.39 343.47 175.75 344.67 176.39 348.18"/><polygon class="h" points="183.37 344.69 180.65 347 177.29 345.8 176.65 342.29 179.37 339.98 182.73 341.18 183.37 344.69"/><polygon class="h" points="176.39 339.45 173.67 341.76 170.31 340.56 169.67 337.05 172.39 334.74 175.75 335.94 176.39 339.45"/><polygon class="h" points="190.36 339.45 187.64 341.76 184.28 340.56 183.64 337.05 186.36 334.74 189.72 335.94 190.36 339.45"/><polygon class="h" points="197.35 342.94 194.63 345.25 191.26 344.05 190.62 340.54 193.34 338.23 196.71 339.43 197.35 342.94"/><polygon class="h" points="178.13 330.72 175.41 333.03 172.05 331.83 171.41 328.32 174.13 326.01 177.49 327.21 178.13 330.72"/><polygon class="h" points="183.37 335.96 180.65 338.27 177.29 337.07 176.65 333.56 179.37 331.25 182.73 332.45 183.37 335.96"/><polygon class="h" points="169.4 334.21 166.68 336.52 163.32 335.32 162.68 331.81 165.4 329.5 168.76 330.7 169.4 334.21"/><polygon class="h" points="162.42 330.72 159.7 333.03 156.33 331.83 155.69 328.32 158.41 326.01 161.78 327.21 162.42 330.72"/><polygon class="h" points="160.67 339.45 157.95 341.76 154.59 340.56 153.95 337.05 156.67 334.74 160.03 335.94 160.67 339.45"/><polygon class="h" points="151.94 344.69 149.22 347 145.86 345.8 145.22 342.29 147.94 339.98 151.3 341.18 151.94 344.69"/><polygon class="h" points="153.68 334.21 150.96 336.52 147.6 335.32 146.96 331.81 149.68 329.5 153.04 330.7 153.68 334.21"/><polygon class="h" points="144.95 339.45 142.23 341.76 138.87 340.56 138.23 337.05 140.95 334.74 144.31 335.94 144.95 339.45"/><polygon class="h" points="195.6 332.46 192.88 334.77 189.52 333.57 188.88 330.06 191.6 327.75 194.96 328.95 195.6 332.46"/><polygon class="h" points="204.33 323.73 201.61 326.04 198.25 324.84 197.61 321.33 200.33 319.02 203.69 320.22 204.33 323.73"/><polygon class="h" points="204.33 330.72 201.61 333.03 198.25 331.83 197.61 328.32 200.33 326.01 203.69 327.21 204.33 330.72"/><polygon class="h" points="204.33 346.44 201.61 348.75 198.25 347.55 197.61 344.03 200.33 341.72 203.69 342.92 204.33 346.44"/><polygon class="h" points="213.06 325.48 210.34 327.79 206.98 326.59 206.34 323.08 209.06 320.77 212.42 321.97 213.06 325.48"/><polygon class="h" points="211.32 334.21 208.6 336.52 205.24 335.32 204.6 331.81 207.32 329.5 210.68 330.7 211.32 334.21"/><polygon class="h" points="228.78 335.96 226.06 338.27 222.7 337.07 222.06 333.56 224.78 331.25 228.14 332.45 228.78 335.96"/><polygon class="h" points="218.3 311.51 215.58 313.82 212.22 312.62 211.58 309.1 214.3 306.79 217.66 308 218.3 311.51"/><polygon class="h" points="218.3 320.24 215.58 322.55 212.22 321.35 211.58 317.84 214.3 315.53 217.66 316.73 218.3 320.24"/><polygon class="h" points="225.42 348.8 223.93 352.04 220.38 352.37 218.31 349.46 219.8 346.22 223.36 345.89 225.42 348.8"/><polygon class="h" points="230.28 342.68 228.79 345.93 225.23 346.26 223.17 343.34 224.66 340.1 228.22 339.77 230.28 342.68"/><polygon class="h" points="213 340.88 211.51 344.13 207.96 344.46 205.89 341.55 207.38 338.3 210.94 337.97 213 340.88"/><polygon class="h" points="220.43 331.49 218.94 334.73 215.38 335.06 213.32 332.15 214.81 328.91 218.36 328.58 220.43 331.49"/><polygon class="h" points="221.35 340.01 219.86 343.25 216.31 343.58 214.24 340.67 215.73 337.43 219.29 337.09 221.35 340.01"/><polygon class="h" points="235.32 329.53 233.83 332.77 230.28 333.1 228.22 330.19 229.71 326.95 233.26 326.62 235.32 329.53"/><polygon class="h" points="209.57 315 206.85 317.31 203.49 316.11 202.85 312.6 205.57 310.29 208.93 311.49 209.57 315"/><polygon class="h" points="202.59 316.75 199.86 319.06 196.5 317.85 195.86 314.34 198.58 312.03 201.94 313.23 202.59 316.75"/><polygon class="h" points="195.6 323.73 192.88 326.04 189.52 324.84 188.88 321.33 191.6 319.02 194.96 320.22 195.6 323.73"/><polygon class="h" points="186.87 328.97 184.15 331.28 180.79 330.08 180.15 326.57 182.87 324.26 186.23 325.46 186.87 328.97"/><polygon class="h" points="193.85 315 191.13 317.31 187.77 316.11 187.13 312.6 189.85 310.29 193.21 311.49 193.85 315"/><polygon class="h" points="186.87 320.24 184.15 322.55 180.79 321.35 180.15 317.84 182.87 315.53 186.23 316.73 186.87 320.24"/><polygon class="h" points="164.16 320.24 161.44 322.55 158.08 321.35 157.44 317.84 160.16 315.53 163.52 316.73 164.16 320.24"/><polygon class="h" points="172.89 315 170.17 317.31 166.81 316.11 166.17 312.6 168.89 310.29 172.25 311.49 172.89 315"/><polygon class="h" points="171.15 323.73 168.43 326.04 165.07 324.84 164.43 321.33 167.15 319.02 170.51 320.22 171.15 323.73"/><polygon class="h" points="179.88 320.24 177.16 322.55 173.8 321.35 173.16 317.84 175.88 315.53 179.24 316.73 179.88 320.24"/><polygon class="h" points="186.87 311.51 184.15 313.82 180.79 312.62 180.15 309.1 182.87 306.79 186.23 308 186.87 311.51"/><polygon class="h" points="179.88 311.51 177.16 313.82 173.8 312.62 173.16 309.1 175.88 306.79 179.24 308 179.88 311.51"/><polygon class="h" points="195.6 306.27 192.88 308.58 189.52 307.38 188.88 303.87 191.6 301.55 194.96 302.76 195.6 306.27"/><polygon class="h" points="181.63 302.77 178.91 305.08 175.55 303.88 174.91 300.37 177.63 298.06 180.99 299.26 181.63 302.77"/><polygon class="h" points="188.61 302.77 185.89 305.08 182.53 303.88 181.89 300.37 184.61 298.06 187.97 299.26 188.61 302.77"/><polygon class="h" points="172.89 306.27 170.17 308.58 166.81 307.38 166.17 303.87 168.89 301.55 172.25 302.76 172.89 306.27"/><polygon class="h" points="165.91 302.77 163.19 305.08 159.83 303.88 159.19 300.37 161.91 298.06 165.27 299.26 165.91 302.77"/><polygon class="h" points="164.16 311.51 161.44 313.82 158.08 312.62 157.44 309.1 160.16 306.79 163.52 308 164.16 311.51"/><polygon class="h" points="155.43 316.75 152.71 319.06 149.35 317.85 148.71 314.34 151.43 312.03 154.79 313.23 155.43 316.75"/><polygon class="h" points="157.18 306.27 154.46 308.58 151.1 307.38 150.45 303.87 153.18 301.55 156.54 302.76 157.18 306.27"/><polygon class="h" points="148.44 311.51 145.72 313.82 142.36 312.62 141.72 309.1 144.44 306.79 147.8 308 148.44 311.51"/><polygon class="h" points="139.71 299.28 136.99 301.59 133.63 300.39 132.99 296.88 135.71 294.57 139.07 295.77 139.71 299.28"/><polygon class="h" points="148.44 294.04 145.72 296.35 142.36 295.15 141.72 291.64 144.44 289.33 147.8 290.53 148.44 294.04"/><polygon class="h" points="146.7 302.77 143.98 305.08 140.62 303.88 139.98 300.37 142.7 298.06 146.06 299.26 146.7 302.77"/><polygon class="h" points="155.43 299.28 152.71 301.59 149.35 300.39 148.71 296.88 151.43 294.57 154.79 295.77 155.43 299.28"/><polygon class="h" points="162.42 295.79 159.7 298.1 156.33 296.9 155.69 293.39 158.41 291.08 161.78 292.28 162.42 295.79"/><polygon class="h" points="155.43 290.55 152.71 292.86 149.35 291.66 148.71 288.15 151.43 285.84 154.79 287.04 155.43 290.55"/><polygon class="h" points="169.4 290.55 166.68 292.86 163.32 291.66 162.68 288.15 165.4 285.84 168.76 287.04 169.4 290.55"/><polygon class="h" points="171.15 283.56 168.43 285.87 165.07 284.67 164.43 281.16 167.15 278.85 170.51 280.05 171.15 283.56"/><polygon class="h" points="176.39 295.79 173.67 298.1 170.31 296.9 169.67 293.39 172.39 291.08 175.75 292.28 176.39 295.79"/><polygon class="h" points="157.18 281.82 154.46 284.13 151.1 282.93 150.45 279.41 153.18 277.1 156.54 278.31 157.18 281.82"/><polygon class="h" points="162.42 287.06 159.7 289.37 156.33 288.16 155.69 284.65 158.41 282.34 161.78 283.54 162.42 287.06"/><polygon class="h" points="148.44 285.31 145.72 287.62 142.36 286.42 141.72 282.91 144.44 280.6 147.8 281.8 148.44 285.31"/><polygon class="h" points="165.91 276.58 163.19 278.89 159.83 277.69 159.19 274.17 161.91 271.86 165.27 273.07 165.91 276.58"/><polygon class="h" points="139.71 290.55 136.99 292.86 133.63 291.66 132.99 288.15 135.71 285.84 139.07 287.04 139.71 290.55"/><polygon class="h" points="130.98 295.79 128.26 298.1 124.9 296.9 124.26 293.39 126.98 291.08 130.34 292.28 130.98 295.79"/><polygon class="h" points="132.73 285.31 130.01 287.62 126.64 286.42 126 282.91 128.72 280.6 132.09 281.8 132.73 285.31"/><polygon class="h" points="123.99 290.55 121.27 292.86 117.91 291.66 117.27 288.15 119.99 285.84 123.35 287.04 123.99 290.55"/><polygon class="h" points="115.26 287.06 112.54 289.37 109.18 288.16 108.54 284.65 111.26 282.34 114.62 283.54 115.26 287.06"/><polygon class="h" points="195.6 297.53 192.88 299.84 189.52 298.64 188.88 295.13 191.6 292.82 194.96 294.02 195.6 297.53"/><polygon class="h" points="204.33 292.29 201.61 294.61 198.25 293.4 197.61 289.89 200.33 287.58 203.69 288.78 204.33 292.29"/><polygon class="h" points="202.59 301.03 199.86 303.34 196.5 302.14 195.86 298.63 198.58 296.32 201.94 297.52 202.59 301.03"/><polygon class="h" points="202.59 308.01 199.86 310.32 196.5 309.12 195.86 305.61 198.58 303.3 201.94 304.5 202.59 308.01"/><polygon class="h" points="211.32 297.53 208.6 299.84 205.24 298.64 204.6 295.13 207.32 292.82 210.68 294.02 211.32 297.53"/><polygon class="h" points="211.32 306.27 208.6 308.58 205.24 307.38 204.6 303.87 207.32 301.55 210.68 302.76 211.32 306.27"/><polygon class="h" points="218.3 302.77 215.58 305.08 212.22 303.88 211.58 300.37 214.3 298.06 217.66 299.26 218.3 302.77"/><polygon class="h" points="218.3 294.04 215.58 296.35 212.22 295.15 211.58 291.64 214.3 289.33 217.66 290.53 218.3 294.04"/><polygon class="h" points="211.32 288.8 208.6 291.11 205.24 289.91 204.6 286.4 207.32 284.09 210.68 285.29 211.32 288.8"/><polygon class="h" points="221.8 278.32 219.08 280.63 215.72 279.43 215.07 275.92 217.8 273.61 221.16 274.81 221.8 278.32"/><polygon class="h" points="213.06 280.07 210.34 282.38 206.98 281.18 206.34 277.67 209.06 275.36 212.42 276.56 213.06 280.07"/><polygon class="h" points="218.3 285.31 215.58 287.62 212.22 286.42 211.58 282.91 214.3 280.6 217.66 281.8 218.3 285.31"/><polygon class="h" points="204.33 283.56 201.61 285.87 198.25 284.67 197.61 281.16 200.33 278.85 203.69 280.05 204.33 283.56"/><polygon class="h" points="197.35 280.07 194.63 282.38 191.26 281.18 190.62 277.67 193.34 275.36 196.71 276.56 197.35 280.07"/><polygon class="h" points="195.6 288.8 192.88 291.11 189.52 289.91 188.88 286.4 191.6 284.09 194.96 285.29 195.6 288.8"/><polygon class="h" points="186.87 294.04 184.15 296.35 180.79 295.15 180.15 291.64 182.87 289.33 186.23 290.53 186.87 294.04"/><polygon class="h" points="188.61 283.56 185.89 285.87 182.53 284.67 181.89 281.16 184.61 278.85 187.97 280.05 188.61 283.56"/><polygon class="h" points="179.88 288.8 177.16 291.11 173.8 289.91 173.16 286.4 175.88 284.09 179.24 285.29 179.88 288.8"/><polygon class="h" points="179.88 280.07 177.16 282.38 173.8 281.18 173.16 277.67 175.88 275.36 179.24 276.56 179.88 280.07"/><polygon class="h" points="188.61 274.83 185.89 277.14 182.53 275.94 181.89 272.43 184.61 270.12 187.97 271.32 188.61 274.83"/><polygon class="h" points="181.63 269.59 178.91 271.9 175.55 270.7 174.91 267.19 177.63 264.88 180.99 266.08 181.63 269.59"/><polygon class="h" points="172.89 274.83 170.17 277.14 166.81 275.94 166.17 272.43 168.89 270.12 172.25 271.32 172.89 274.83"/><polygon class="h" points="199.09 271.34 196.37 273.65 193.01 272.45 192.37 268.94 195.09 266.63 198.45 267.83 199.09 271.34"/><polygon class="h" points="207.82 266.1 205.1 268.41 201.74 267.21 201.1 263.7 203.82 261.39 207.18 262.59 207.82 266.1"/><polygon class="h" points="206.08 274.83 203.36 277.14 200 275.94 199.36 272.43 202.08 270.12 205.44 271.32 206.08 274.83"/><polygon class="h" points="214.81 271.34 212.09 273.65 208.73 272.45 208.09 268.94 210.81 266.63 214.17 267.83 214.81 271.34"/><polygon class="h" points="223.54 269.59 220.82 271.9 217.46 270.7 216.82 267.19 219.54 264.88 222.9 266.08 223.54 269.59"/><polygon class="h" points="214.81 262.6 212.09 264.91 208.73 263.71 208.09 260.2 210.81 257.89 214.17 259.09 214.81 262.6"/><polygon class="h" points="228.78 262.6 226.06 264.91 222.7 263.71 222.06 260.2 224.78 257.89 228.14 259.09 228.78 262.6"/><polygon class="h" points="234.02 267.84 231.3 270.15 227.94 268.95 227.3 265.44 230.02 263.13 233.38 264.33 234.02 267.84"/><polygon class="h" points="230.53 274.83 227.81 277.14 224.45 275.94 223.81 272.43 226.53 270.12 229.89 271.32 230.53 274.83"/><polygon class="h" points="216.56 253.87 213.84 256.18 210.48 254.98 209.84 251.47 212.56 249.16 215.92 250.36 216.56 253.87"/><polygon class="h" points="221.8 259.11 219.08 261.42 215.72 260.22 215.07 256.71 217.8 254.4 221.16 255.6 221.8 259.11"/><polygon class="h" points="207.82 257.37 205.1 259.68 201.74 258.47 201.1 254.96 203.82 252.65 207.18 253.85 207.82 257.37"/><polygon class="h" points="209.57 250.38 206.85 252.69 203.49 251.49 202.85 247.98 205.57 245.67 208.93 246.87 209.57 250.38"/><polygon class="h" points="200.84 253.87 198.12 256.18 194.76 254.98 194.12 251.47 196.84 249.16 200.2 250.36 200.84 253.87"/><polygon class="h" points="193.85 246.89 191.13 249.2 187.77 248 187.13 244.48 189.85 242.17 193.21 243.38 193.85 246.89"/><polygon class="h" points="199.09 262.6 196.37 264.91 193.01 263.71 192.37 260.2 195.09 257.89 198.45 259.09 199.09 262.6"/><polygon class="h" points="190.36 267.84 187.64 270.15 184.28 268.95 183.64 265.44 186.36 263.13 189.72 264.33 190.36 267.84"/><polygon class="h" points="192.11 257.37 189.39 259.68 186.02 258.47 185.38 254.96 188.1 252.65 191.47 253.85 192.11 257.37"/><polygon class="h" points="186.87 250.38 184.15 252.69 180.79 251.49 180.15 247.98 182.87 245.67 186.23 246.87 186.87 250.38"/><polygon class="h" points="183.37 262.6 180.65 264.91 177.29 263.71 176.65 260.2 179.37 257.89 182.73 259.09 183.37 262.6"/><polygon class="h" points="179.88 253.87 177.16 256.18 173.8 254.98 173.16 251.47 175.88 249.16 179.24 250.36 179.88 253.87"/><polygon class="h" points="169.4 250.38 166.68 252.69 163.32 251.49 162.68 247.98 165.4 245.67 168.76 246.87 169.4 250.38"/><polygon class="h" points="171.15 243.39 168.43 245.7 165.07 244.5 164.43 240.99 167.15 238.68 170.51 239.88 171.15 243.39"/><polygon class="h" points="143.2 269.59 140.48 271.9 137.12 270.7 136.48 267.19 139.2 264.88 142.56 266.08 143.2 269.59"/><polygon class="h" points="151.94 264.35 149.22 266.66 145.86 265.46 145.22 261.95 147.94 259.64 151.3 260.84 151.94 264.35"/><polygon class="h" points="150.19 273.08 147.47 275.39 144.11 274.19 143.47 270.68 146.19 268.37 149.55 269.57 150.19 273.08"/><polygon class="h" points="136.22 276.58 133.5 278.89 130.14 277.69 129.5 274.17 132.22 271.86 135.58 273.07 136.22 276.58"/><polygon class="h" points="144.95 278.32 142.23 280.63 138.87 279.43 138.23 275.92 140.95 273.61 144.31 274.81 144.95 278.32"/><polygon class="h" points="158.92 269.59 156.2 271.9 152.84 270.7 152.2 267.19 154.92 264.88 158.28 266.08 158.92 269.59"/><polygon class="h" points="165.91 266.1 163.19 268.41 159.83 267.21 159.19 263.7 161.91 261.39 165.27 262.59 165.91 266.1"/><polygon class="h" points="158.92 260.86 156.2 263.17 152.84 261.97 152.2 258.46 154.92 256.15 158.28 257.35 158.92 260.86"/><polygon class="h" points="171.06 262.88 167.5 262.59 165.98 259.36 168.01 256.43 171.57 256.72 173.09 259.95 171.06 262.88"/><polygon class="h" points="160.67 252.13 157.95 254.44 154.59 253.24 153.95 249.72 156.67 247.41 160.03 248.61 160.67 252.13"/><polygon class="h" points="165.91 257.37 163.19 259.68 159.83 258.47 159.19 254.96 161.91 252.65 165.27 253.85 165.91 257.37"/><polygon class="h" points="151.94 255.62 149.22 257.93 145.86 256.73 145.22 253.22 147.94 250.91 151.3 252.11 151.94 255.62"/><polygon class="h" points="144.95 252.13 142.23 254.44 138.87 253.24 138.23 249.72 140.95 247.41 144.31 248.61 144.95 252.13"/><polygon class="h" points="143.2 260.86 140.48 263.17 137.12 261.97 136.48 258.46 139.2 256.15 142.56 257.35 143.2 260.86"/><polygon class="h" points="134.47 266.1 131.75 268.41 128.39 267.21 127.75 263.7 130.47 261.39 133.83 262.59 134.47 266.1"/><polygon class="h" points="136.22 255.62 133.5 257.93 130.14 256.73 129.5 253.22 132.22 250.91 135.58 252.11 136.22 255.62"/><polygon class="h" points="127.49 260.86 124.77 263.17 121.41 261.97 120.76 258.46 123.49 256.15 126.85 257.35 127.49 260.86"/><polygon class="h" points="106.53 255.62 103.81 257.93 100.45 256.73 99.81 253.22 102.53 250.91 105.89 252.11 106.53 255.62"/><polygon class="h" points="115.26 250.38 112.54 252.69 109.18 251.49 108.54 247.98 111.26 245.67 114.62 246.87 115.26 250.38"/><polygon class="h" points="113.51 259.11 110.79 261.42 107.43 260.22 106.79 256.71 109.51 254.4 112.87 255.6 113.51 259.11"/><polygon class="h" points="122.25 255.62 119.53 257.93 116.17 256.73 115.53 253.22 118.25 250.91 121.61 252.11 122.25 255.62"/><polygon class="h" points="129.23 252.13 126.51 254.44 123.15 253.24 122.51 249.72 125.23 247.41 128.59 248.61 129.23 252.13"/><polygon class="h" points="122.25 246.89 119.53 249.2 116.17 248 115.53 244.48 118.25 242.17 121.61 243.38 122.25 246.89"/><polygon class="h" points="136.22 246.89 133.5 249.2 130.14 248 129.5 244.48 132.22 242.17 135.58 243.38 136.22 246.89"/><polygon class="h" points="123.99 238.15 121.27 240.46 117.91 239.26 117.27 235.75 119.99 233.44 123.35 234.64 123.99 238.15"/><polygon class="h" points="129.23 243.39 126.51 245.7 123.15 244.5 122.51 240.99 125.23 238.68 128.59 239.88 129.23 243.39"/><polygon class="h" points="115.26 241.65 112.54 243.96 109.18 242.76 108.54 239.25 111.26 236.94 114.62 238.14 115.26 241.65"/><polygon class="h" points="108.28 238.15 105.55 240.46 102.19 239.26 101.55 235.75 104.27 233.44 107.63 234.64 108.28 238.15"/><polygon class="h" points="106.53 246.89 103.81 249.2 100.45 248 99.81 244.48 102.53 242.17 105.89 243.38 106.53 246.89"/><polygon class="h" points="97.8 252.13 95.08 254.44 91.72 253.24 91.07 249.72 93.79 247.41 97.16 248.61 97.8 252.13"/><polygon class="h" points="99.54 241.65 96.82 243.96 93.46 242.76 92.82 239.25 95.54 236.94 98.9 238.14 99.54 241.65"/><polygon class="h" points="99.54 232.91 96.82 235.22 93.46 234.02 92.82 230.51 95.54 228.2 98.9 229.4 99.54 232.91"/><polygon class="h" points="90.81 246.89 88.09 249.2 84.73 248 84.09 244.48 86.81 242.17 90.17 243.38 90.81 246.89"/><polygon class="h" points="104.78 274.83 102.06 277.14 98.7 275.94 98.06 272.43 100.78 270.12 104.14 271.32 104.78 274.83"/><polygon class="h" points="113.51 269.59 110.79 271.9 107.43 270.7 106.79 267.19 109.51 264.88 112.87 266.08 113.51 269.59"/><polygon class="h" points="111.77 278.32 109.05 280.63 105.69 279.43 105.05 275.92 107.77 273.61 111.13 274.81 111.77 278.32"/><polygon class="h" points="120.5 274.83 117.78 277.14 114.42 275.94 113.78 272.43 116.5 270.12 119.86 271.32 120.5 274.83"/><polygon class="h" points="123.99 281.82 121.27 284.13 117.91 282.93 117.27 279.41 119.99 277.1 123.35 278.31 123.99 281.82"/><polygon class="h" points="129.23 273.08 126.51 275.39 123.15 274.19 122.51 270.68 125.23 268.37 128.59 269.57 129.23 273.08"/><polygon class="h" points="120.5 266.1 117.78 268.41 114.42 267.21 113.78 263.7 116.5 261.39 119.86 262.59 120.5 266.1"/><polygon class="h" points="104.78 266.1 102.06 268.41 98.7 267.21 98.06 263.7 100.78 261.39 104.14 262.59 104.78 266.1"/><polygon class="h" points="96.05 271.34 93.33 273.65 89.97 272.45 89.33 268.94 92.05 266.63 95.41 267.83 96.05 271.34"/><polygon class="h" points="84.81 276.33 81.43 277.45 78.76 275.08 79.48 271.59 82.87 270.46 85.53 272.83 84.81 276.33"/><polygon class="h" points="89.99 282.18 86.6 283.3 83.93 280.93 84.65 277.44 88.04 276.31 90.71 278.68 89.99 282.18"/><polygon class="h" points="78.02 269.82 74.64 270.95 71.97 268.58 72.69 265.08 76.07 263.95 78.74 266.33 78.02 269.82"/><polygon class="h" points="107.52 292.05 104.13 293.17 101.46 290.8 102.18 287.3 105.57 286.18 108.24 288.55 107.52 292.05"/><polygon class="h" points="112.69 297.9 109.3 299.02 106.64 296.65 107.36 293.16 110.74 292.03 113.41 294.4 112.69 297.9"/><polygon class="h" points="121.42 299.64 118.04 300.77 115.37 298.4 116.09 294.9 119.47 293.78 122.14 296.15 121.42 299.64"/><polygon class="h" points="100.73 285.54 97.34 286.66 94.67 284.29 95.39 280.8 98.78 279.67 101.45 282.04 100.73 285.54"/><polygon class="h" points="100.91 298.45 97.74 300.09 94.74 298.17 94.9 294.6 98.07 292.96 101.08 294.89 100.91 298.45"/><polygon class="h" points="106.93 303.43 103.76 305.07 100.76 303.14 100.92 299.58 104.09 297.94 107.1 299.86 106.93 303.43"/><polygon class="h" points="93.19 293.09 90.02 294.73 87.01 292.8 87.18 289.24 90.35 287.6 93.35 289.52 93.19 293.09"/><polygon class="h" points="109.64 319.41 106.47 321.05 103.47 319.13 103.63 315.56 106.8 313.92 109.81 315.85 109.64 319.41"/><polygon class="h" points="115.67 324.39 112.5 326.03 109.49 324.1 109.66 320.54 112.83 318.9 115.83 320.82 115.67 324.39"/><polygon class="h" points="124.4 327.88 121.23 329.52 118.22 327.59 118.39 324.03 121.56 322.39 124.56 324.31 124.4 327.88"/><polygon class="h" points="112.17 331.37 109 333.01 106 331.09 106.16 327.52 109.33 325.88 112.34 327.81 112.17 331.37"/><polygon class="h" points="101.92 314.05 98.75 315.69 95.74 313.76 95.91 310.2 99.08 308.56 102.08 310.48 101.92 314.05"/><polygon class="h" points="121.87 315.92 118.7 317.56 115.69 315.63 115.86 312.07 119.03 310.43 122.03 312.35 121.87 315.92"/><polygon class="h" points="127.89 320.89 124.72 322.53 121.72 320.61 121.88 317.04 125.05 315.4 128.06 317.33 127.89 320.89"/><polygon class="h" points="114.14 310.55 110.97 312.19 107.97 310.27 108.13 306.7 111.3 305.06 114.31 306.99 114.14 310.55"/><polygon class="h" points="130.6 310.68 127.43 312.32 124.43 310.4 124.59 306.83 127.76 305.19 130.77 307.12 130.6 310.68"/><polygon class="h" points="136.62 315.65 133.45 317.29 130.45 315.37 130.61 311.8 133.78 310.16 136.79 312.09 136.62 315.65"/><polygon class="h" points="140.12 308.67 136.95 310.31 133.94 308.38 134.11 304.82 137.28 303.18 140.28 305.1 140.12 308.67"/><polygon class="h" points="134.88 326.13 131.71 327.77 128.7 325.85 128.87 322.28 132.04 320.64 135.04 322.57 134.88 326.13"/><polygon class="h" points="140.12 333.12 136.95 334.76 133.94 332.83 134.11 329.27 137.28 327.63 140.28 329.55 140.12 333.12"/><polygon class="h" points="143.61 322.64 140.44 324.28 137.44 322.35 137.6 318.79 140.77 317.15 143.77 319.07 143.61 322.64"/><polygon class="h" points="147.1 331.37 143.93 333.01 140.93 331.09 141.09 327.52 144.26 325.88 147.27 327.81 147.1 331.37"/><polygon class="h" points="154.09 326.13 150.92 327.77 147.91 325.85 148.08 322.28 151.25 320.64 154.25 322.57 154.09 326.13"/><polygon class="h" points="122.88 305.31 119.71 306.95 116.7 305.03 116.87 301.46 120.04 299.82 123.04 301.75 122.88 305.31"/><polygon class="h" points="130.6 340.37 127.43 342.01 124.43 340.09 124.59 336.52 127.76 334.88 130.77 336.81 130.6 340.37"/><polygon class="h" points="136.62 345.34 133.45 346.98 130.45 345.06 130.61 341.49 133.78 339.85 136.79 341.78 136.62 345.34"/><polygon class="h" points="131.38 333.12 128.21 334.76 125.21 332.83 125.37 329.27 128.54 327.63 131.55 329.55 131.38 333.12"/><polygon class="h" points="122.88 335.01 119.71 336.65 116.7 334.72 116.87 331.15 120.04 329.51 123.04 331.44 122.88 335.01"/><polygon class="h" points="130.6 350.85 127.43 352.49 124.43 350.56 124.59 347 127.76 345.36 130.77 347.28 130.6 350.85"/><polygon class="h" points="136.62 355.82 133.45 357.46 130.45 355.54 130.61 351.97 133.78 350.33 136.79 352.26 136.62 355.82"/><polygon class="h" points="145.36 352.33 142.19 353.97 139.18 352.04 139.35 348.48 142.52 346.84 145.52 348.76 145.36 352.33"/><polygon class="h" points="122.88 345.48 119.71 347.12 116.7 345.2 116.87 341.63 120.04 339.99 123.04 341.92 122.88 345.48"/><polygon class="h" points="142.45 377.62 139.06 378.75 136.39 376.38 137.11 372.88 140.5 371.76 143.17 374.13 142.45 377.62"/><polygon class="h" points="147.62 383.48 144.23 384.6 141.57 382.23 142.29 378.73 145.67 377.61 148.34 379.98 147.62 383.48"/><polygon class="h" points="135.66 371.12 132.27 372.24 129.6 369.87 130.32 366.38 133.71 365.25 136.38 367.62 135.66 371.12"/><polygon class="h" points="89.06 266.1 86.34 268.41 82.98 267.21 82.34 263.7 85.06 261.39 88.42 262.59 89.06 266.1"/><polygon class="h" points="76.84 248.63 74.12 250.94 70.76 249.74 70.12 246.23 72.84 243.92 76.2 245.12 76.84 248.63"/><polygon class="h" points="69.85 243.39 67.13 245.7 63.77 244.5 63.13 240.99 65.85 238.68 69.21 239.88 69.85 243.39"/><polygon class="h" points="76.84 259.11 74.12 261.42 70.76 260.22 70.12 256.71 72.84 254.4 76.2 255.6 76.84 259.11"/><polygon class="h" points="69.85 253.87 67.13 256.18 63.77 254.98 63.13 251.47 65.85 249.16 69.21 250.36 69.85 253.87"/><polygon class="h" points="90.81 259.11 88.09 261.42 84.73 260.22 84.09 256.71 86.81 254.4 90.17 255.6 90.81 259.11"/><polygon class="h" points="83.82 253.87 81.1 256.18 77.74 254.98 77.1 251.47 79.82 249.16 83.18 250.36 83.82 253.87"/><polygon class="h" points="73.35 236.41 70.63 238.72 67.26 237.52 66.62 234.01 69.34 231.7 72.71 232.9 73.35 236.41"/><polygon class="h" points="82.08 231.17 79.36 233.48 76 232.28 75.36 228.77 78.08 226.46 81.44 227.66 82.08 231.17"/><polygon class="h" points="80.33 239.9 77.61 242.21 74.25 241.01 73.61 237.5 76.33 235.19 79.69 236.39 80.33 239.9"/><polygon class="h" points="89.06 236.41 86.34 238.72 82.98 237.52 82.34 234.01 85.06 231.7 88.42 232.9 89.06 236.41"/><polygon class="h" points="89.06 227.68 86.34 229.99 82.98 228.78 82.34 225.27 85.06 222.96 88.42 224.16 89.06 227.68"/><polygon class="h" points="82.08 222.44 79.36 224.75 76 223.55 75.36 220.03 78.08 217.72 81.44 218.92 82.08 222.44"/><polygon class="h" points="75.09 218.94 72.37 221.25 69.01 220.05 68.37 216.54 71.09 214.23 74.45 215.43 75.09 218.94"/><polygon class="h" points="73.35 227.68 70.63 229.99 67.26 228.78 66.62 225.27 69.34 222.96 72.71 224.16 73.35 227.68"/><polygon class="h" points="64.61 232.91 61.89 235.22 58.53 234.02 57.89 230.51 60.61 228.2 63.97 229.4 64.61 232.91"/><polygon class="h" points="66.36 222.44 63.64 224.75 60.28 223.55 59.64 220.03 62.36 217.72 65.72 218.92 66.36 222.44"/><polygon class="h" points="92.56 208.46 89.84 210.77 86.48 209.57 85.84 206.06 88.56 203.75 91.92 204.95 92.56 208.46"/><polygon class="h" points="83.82 211.96 81.1 214.27 77.74 213.07 77.1 209.56 79.82 207.24 83.18 208.45 83.82 211.96"/><polygon class="h" points="76.84 206.72 74.12 209.03 70.76 207.83 70.12 204.32 72.84 202.01 76.2 203.21 76.84 206.72"/><polygon class="h" points="68.11 210.21 65.39 212.52 62.02 211.32 61.38 207.81 64.1 205.5 67.47 206.7 68.11 210.21"/><polygon class="h" points="62.87 203.22 60.15 205.53 56.79 204.33 56.14 200.82 58.87 198.51 62.23 199.71 62.87 203.22"/><polygon class="h" points="54.13 206.72 51.41 209.03 48.05 207.83 47.41 204.32 50.13 202.01 53.49 203.21 54.13 206.72"/><polygon class="h" points="54.13 194.49 51.41 196.8 48.05 195.6 47.41 192.09 50.13 189.78 53.49 190.98 54.13 194.49"/><polygon class="h" points="61.12 215.45 58.4 217.76 55.04 216.56 54.4 213.05 57.12 210.74 60.48 211.94 61.12 215.45"/><polygon class="h" points="47.15 218.94 44.43 221.25 41.07 220.05 40.43 216.54 43.15 214.23 46.51 215.43 47.15 218.94"/><polygon class="h" points="54.13 215.45 51.41 217.76 48.05 216.56 47.41 213.05 50.13 210.74 53.49 211.94 54.13 215.45"/><polygon class="h" points="48.89 199.73 46.17 202.04 42.81 200.84 42.17 197.33 44.89 195.02 48.25 196.22 48.89 199.73"/><polygon class="h" points="40.16 203.22 37.44 205.53 34.08 204.33 33.44 200.82 36.16 198.51 39.52 199.71 40.16 203.22"/><polygon class="h" points="45.4 210.21 42.68 212.52 39.32 211.32 38.68 207.81 41.4 205.5 44.76 206.7 45.4 210.21"/><polygon class="h" points="61.12 239.9 58.4 242.21 55.04 241.01 54.4 237.5 57.12 235.19 60.48 236.39 61.12 239.9"/><polygon class="h" points="31.43 194.49 28.71 196.8 25.35 195.6 24.71 192.09 27.43 189.78 30.79 190.98 31.43 194.49"/><polygon class="h" points="33.18 201.48 30.46 203.79 27.1 202.59 26.45 199.08 29.18 196.77 32.54 197.97 33.18 201.48"/><polygon class="h" points="24.44 192.75 21.72 195.06 18.36 193.85 17.72 190.34 20.44 188.03 23.8 189.23 24.44 192.75"/><polygon class="h" points="17.46 187.51 14.74 189.82 11.38 188.62 10.74 185.1 13.46 182.79 16.82 184 17.46 187.51"/><polygon class="h" points="19.2 178.77 16.48 181.08 13.12 179.88 12.48 176.37 15.2 174.06 18.56 175.26 19.2 178.77"/><polygon class="h" points="55.88 232.91 53.16 235.22 49.8 234.02 49.16 230.51 51.88 228.2 55.24 229.4 55.88 232.91"/><polygon class="h" points="57.63 224.18 54.91 226.49 51.55 225.29 50.91 221.78 53.63 219.47 56.99 220.67 57.63 224.18"/><polygon class="h" points="106.53 227.68 103.81 229.99 100.45 228.78 99.81 225.27 102.53 222.96 105.89 224.16 106.53 227.68"/><polygon class="h" points="115.26 222.44 112.54 224.75 109.18 223.55 108.54 220.03 111.26 217.72 114.62 218.92 115.26 222.44"/><polygon class="h" points="113.51 231.17 110.79 233.48 107.43 232.28 106.79 228.77 109.51 226.46 112.87 227.66 113.51 231.17"/><polygon class="h" points="122.25 227.68 119.53 229.99 116.17 228.78 115.53 225.27 118.25 222.96 121.61 224.16 122.25 227.68"/><polygon class="h" points="122.25 218.94 119.53 221.25 116.17 220.05 115.53 216.54 118.25 214.23 121.61 215.43 122.25 218.94"/><polygon class="h" points="115.26 213.7 112.54 216.01 109.18 214.81 108.54 211.3 111.26 208.99 114.62 210.19 115.26 213.7"/><polygon class="h" points="108.28 210.21 105.55 212.52 102.19 211.32 101.55 207.81 104.27 205.5 107.63 206.7 108.28 210.21"/><polygon class="h" points="111.77 203.22 109.05 205.53 105.69 204.33 105.05 200.82 107.77 198.51 111.13 199.71 111.77 203.22"/><polygon class="h" points="104.78 199.73 102.06 202.04 98.7 200.84 98.06 197.33 100.78 195.02 104.14 196.22 104.78 199.73"/><polygon class="h" points="101.29 204.97 98.57 207.28 95.21 206.08 94.57 202.57 97.29 200.26 100.65 201.46 101.29 204.97"/><polygon class="h" points="94.3 201.48 91.58 203.79 88.22 202.59 87.58 199.08 90.3 196.77 93.66 197.97 94.3 201.48"/><polygon class="h" points="85.57 201.48 82.85 203.79 79.49 202.59 78.85 199.08 81.57 196.77 84.93 197.97 85.57 201.48"/><polygon class="h" points="78.58 197.98 75.86 200.3 72.5 199.09 71.86 195.58 74.58 193.27 77.94 194.47 78.58 197.98"/><polygon class="h" points="69.85 197.98 67.13 200.3 63.77 199.09 63.13 195.58 65.85 193.27 69.21 194.47 69.85 197.98"/><polygon class="h" points="62.87 194.49 60.15 196.8 56.79 195.6 56.14 192.09 58.87 189.78 62.23 190.98 62.87 194.49"/><polygon class="h" points="43.66 192.75 40.93 195.06 37.57 193.85 36.93 190.34 39.65 188.03 43.01 189.23 43.66 192.75"/><polygon class="h" points="36.67 189.25 33.95 191.56 30.59 190.36 29.95 186.85 32.67 184.54 36.03 185.74 36.67 189.25"/><polygon class="h" points="106.53 218.94 103.81 221.25 100.45 220.05 99.81 216.54 102.53 214.23 105.89 215.43 106.53 218.94"/><polygon class="h" points="97.8 224.18 95.08 226.49 91.72 225.29 91.07 221.78 93.79 219.47 97.16 220.67 97.8 224.18"/><polygon class="h" points="99.54 213.7 96.82 216.01 93.46 214.81 92.82 211.3 95.54 208.99 98.9 210.19 99.54 213.7"/><polygon class="h" points="90.81 218.94 88.09 221.25 84.73 220.05 84.09 216.54 86.81 214.23 90.17 215.43 90.81 218.94"/><polygon class="h" points="63.68 159.6 60.89 157.39 61.41 153.86 64.73 152.54 67.52 154.76 67 158.29 63.68 159.6"/><polygon class="h" points="63.26 171.53 60.46 169.31 60.98 165.78 64.3 164.47 67.1 166.68 66.57 170.22 63.26 171.53"/><polygon class="h" points="71.99 175.02 69.19 172.8 69.71 169.27 73.03 167.96 75.83 170.18 75.31 173.71 71.99 175.02"/><polygon class="h" points="59.76 187.25 56.97 185.03 57.49 181.5 60.81 180.19 63.6 182.4 63.08 185.93 59.76 187.25"/><polygon class="h" points="59.76 178.51 56.97 176.3 57.49 172.77 60.81 171.45 63.6 173.67 63.08 177.2 59.76 178.51"/><polygon class="h" points="54.52 171.53 51.73 169.31 52.25 165.78 55.57 164.47 58.36 166.68 57.84 170.22 54.52 171.53"/><polygon class="h" points="70.24 183.75 67.45 181.54 67.97 178.01 71.29 176.69 74.08 178.91 73.56 182.44 70.24 183.75"/><polygon class="h" points="78.98 180.31 76.18 178.1 76.71 174.57 80.02 173.25 82.82 175.47 82.3 179 78.98 180.31"/><polygon class="h" points="85.97 185.55 83.17 183.34 83.69 179.81 87.01 178.49 89.81 180.71 89.28 184.24 85.97 185.55"/><polygon class="h" points="79.09 165.44 76.29 163.23 76.82 159.7 80.13 158.38 82.93 160.6 82.41 164.13 79.09 165.44"/><polygon class="h" points="81.15 157.91 78.36 155.69 78.88 152.16 82.2 150.85 84.99 153.07 84.47 156.6 81.15 157.91"/><polygon class="h" points="72.25 157.9 69.45 155.68 69.97 152.15 73.29 150.84 76.09 153.06 75.57 156.59 72.25 157.9"/><polygon class="h" points="65.41 150.36 62.61 148.14 63.13 144.61 66.45 143.3 69.25 145.52 68.72 149.05 65.41 150.36"/><polygon class="h" points="61.91 141.63 59.12 139.41 59.64 135.88 62.96 134.57 65.75 136.78 65.23 140.31 61.91 141.63"/><polygon class="h" points="76.02 150.03 73.23 147.81 73.75 144.28 77.07 142.97 79.86 145.18 79.34 148.71 76.02 150.03"/><polygon class="h" points="84.59 148.32 81.79 146.11 82.31 142.58 85.63 141.26 88.43 143.48 87.91 147.01 84.59 148.32"/><polygon class="h" points="70.93 142.49 68.13 140.27 68.65 136.74 71.97 135.42 74.77 137.64 74.25 141.17 70.93 142.49"/><polygon class="h" points="74.31 132.04 71.51 129.83 72.03 126.3 75.35 124.98 78.15 127.2 77.63 130.73 74.31 132.04"/><polygon class="h" points="69.07 118.07 66.27 115.86 66.79 112.32 70.11 111.01 72.91 113.23 72.39 116.76 69.07 118.07"/><polygon class="h" points="76.05 123.31 73.26 121.09 73.78 117.56 77.1 116.25 79.89 118.47 79.37 122 76.05 123.31"/><polygon class="h" points="82.89 130.85 80.1 128.64 80.62 125.11 83.94 123.79 86.74 126.01 86.21 129.54 82.89 130.85"/><polygon class="h" points="100.36 116.88 97.56 114.67 98.09 111.13 101.4 109.82 104.2 112.04 103.68 115.57 100.36 116.88"/><polygon class="h" points="67 134.34 64.21 132.12 64.73 128.59 68.05 127.28 70.84 129.49 70.32 133.02 67 134.34"/><polygon class="h" points="79.12 138.73 76.32 136.51 76.84 132.98 80.16 131.67 82.96 133.88 82.44 137.42 79.12 138.73"/><polygon class="h" points="87.68 137.03 84.89 134.81 85.41 131.28 88.73 129.96 91.52 132.18 91 135.71 87.68 137.03"/><polygon class="h" points="91.46 129.15 88.66 126.93 89.19 123.4 92.5 122.09 95.3 124.31 94.78 127.84 91.46 129.15"/><polygon class="h" points="93.52 121.62 90.73 119.4 91.25 115.87 94.57 114.56 97.36 116.77 96.84 120.31 93.52 121.62"/><polygon class="h" points="81.12 118.12 78.33 115.9 78.85 112.37 82.17 111.05 84.97 113.27 84.44 116.8 81.12 118.12"/><polygon class="h" points="74.28 110.57 71.49 108.36 72.01 104.82 75.33 103.51 78.12 105.73 77.6 109.26 74.28 110.57"/><polygon class="h" points="88.39 113.73 85.6 111.52 86.12 107.99 89.44 106.67 92.23 108.89 91.71 112.42 88.39 113.73"/><polygon class="h" points="95.38 108.5 92.58 106.28 93.11 102.75 96.42 101.43 99.22 103.65 98.7 107.18 95.38 108.5"/><polygon class="h" points="105.6 95.93 102.8 93.71 103.32 90.18 106.64 88.86 109.44 91.08 108.92 94.61 105.6 95.93"/><polygon class="h" points="102.26 104.15 99.46 101.94 99.98 98.41 103.3 97.09 106.1 99.31 105.57 102.84 102.26 104.15"/><polygon class="h" points="89.86 100.65 87.06 98.43 87.58 94.9 90.9 93.59 93.7 95.81 93.18 99.34 89.86 100.65"/><polygon class="h" points="97.13 96.27 94.33 94.05 94.85 90.52 98.17 89.21 100.97 91.43 100.44 94.96 97.13 96.27"/><polygon class="h" points="116.34 96.27 113.54 94.05 114.06 90.52 117.38 89.21 120.18 91.43 119.66 94.96 116.34 96.27"/><polygon class="h" points="126.56 83.7 123.76 81.48 124.28 77.95 127.6 76.64 130.4 78.86 129.88 82.39 126.56 83.7"/><polygon class="h" points="123.21 91.93 120.42 89.71 120.94 86.18 124.26 84.87 127.05 87.08 126.53 90.62 123.21 91.93"/><polygon class="h" points="110.81 88.43 108.02 86.21 108.54 82.68 111.86 81.36 114.66 83.58 114.13 87.11 110.81 88.43"/><polygon class="h" points="118.08 84.04 115.29 81.83 115.81 78.3 119.13 76.98 121.92 79.2 121.4 82.73 118.08 84.04"/><polygon class="h" points="114.59 117.23 111.79 115.01 112.32 111.48 115.64 110.17 118.43 112.38 117.91 115.91 114.59 117.23"/><polygon class="h" points="124.81 104.66 122.01 102.44 122.54 98.91 125.85 97.6 128.65 99.81 128.13 103.34 124.81 104.66"/><polygon class="h" points="121.47 112.89 118.67 110.67 119.19 107.14 122.51 105.82 125.31 108.04 124.79 111.57 121.47 112.89"/><polygon class="h" points="109.07 109.38 106.27 107.17 106.79 103.64 110.11 102.32 112.91 104.54 112.39 108.07 109.07 109.38"/><polygon class="h" points="116.34 105 113.54 102.79 114.06 99.25 117.38 97.94 120.18 100.16 119.66 103.69 116.34 105"/><polygon class="h" points="81.55 106.19 78.76 103.97 79.28 100.44 82.6 99.13 85.39 101.35 84.87 104.88 81.55 106.19"/><polygon class="h" points="91.09 154.15 88.29 151.94 88.82 148.41 92.13 147.09 94.93 149.31 94.41 152.84 91.09 154.15"/><polygon class="h" points="97.93 161.7 95.14 159.48 95.66 155.95 98.98 154.64 101.77 156.85 101.25 160.38 97.93 161.7"/><polygon class="h" points="89.03 161.69 86.23 159.47 86.75 155.94 90.07 154.63 92.87 156.84 92.35 160.37 89.03 161.69"/><polygon class="h" points="27.01 159.6 24.21 157.39 24.73 153.86 28.05 152.54 30.85 154.76 30.33 158.29 27.01 159.6"/><polygon class="h" points="18.27 161.35 15.48 159.13 16 155.6 19.32 154.29 22.12 156.51 21.59 160.04 18.27 161.35"/><polygon class="h" points="13.04 168.34 10.24 166.12 10.76 162.59 14.08 161.28 16.88 163.49 16.35 167.02 13.04 168.34"/><polygon class="h" points="30.07 175.02 27.28 172.8 27.8 169.27 31.12 167.96 33.91 170.18 33.39 173.71 30.07 175.02"/><polygon class="h" points="23.09 178.51 20.29 176.3 20.81 172.77 24.13 171.45 26.93 173.67 26.41 177.2 23.09 178.51"/><polygon class="h" points="31.82 183.75 29.02 181.54 29.55 178.01 32.86 176.69 35.66 178.91 35.14 182.44 31.82 183.75"/><polygon class="h" points="23.09 187.25 20.29 185.03 20.81 181.5 24.13 180.19 26.93 182.4 26.41 185.93 23.09 187.25"/><polygon class="h" points="52.78 188.99 49.98 186.78 50.5 183.25 53.82 181.93 56.62 184.15 56.1 187.68 52.78 188.99"/><polygon class="h" points="44.04 187.25 41.25 185.03 41.77 181.5 45.09 180.19 47.89 182.4 47.36 185.93 44.04 187.25"/><polygon class="h" points="51.03 182.01 48.23 179.79 48.76 176.26 52.08 174.95 54.87 177.16 54.35 180.69 51.03 182.01"/><polygon class="h" points="40.55 180.26 37.76 178.04 38.28 174.51 41.6 173.2 44.39 175.42 43.87 178.95 40.55 180.26"/><polygon class="h" points="73.73 190.74 70.94 188.52 71.46 184.99 74.78 183.68 77.58 185.9 77.05 189.43 73.73 190.74"/><polygon class="h" points="66.75 190.74 63.95 188.52 64.47 184.99 67.79 183.68 70.59 185.9 70.07 189.43 66.75 190.74"/><polygon class="h" points="89.45 195.98 86.66 193.76 87.18 190.23 90.5 188.92 93.29 191.14 92.77 194.67 89.45 195.98"/><polygon class="h" points="82.47 194.23 79.67 192.02 80.19 188.48 83.51 187.17 86.31 189.39 85.79 192.92 82.47 194.23"/><polygon class="h" points="115.06 194.24 111.71 193.03 111.07 189.52 113.8 187.22 117.16 188.43 117.79 191.94 115.06 194.24"/><polygon class="h" points="38.64 173.32 35.84 171.1 36.36 167.57 39.68 166.26 42.48 168.47 41.96 172.01 38.64 173.32"/><polygon class="h" points="47.54 175.07 44.75 172.86 45.27 169.33 48.59 168.01 51.38 170.23 50.86 173.76 47.54 175.07"/><polygon class="h" points="44.48 157.91 41.68 155.69 42.2 152.16 45.52 150.85 48.32 153.07 47.8 156.6 44.48 157.91"/><polygon class="h" points="35.57 157.9 32.78 155.68 33.3 152.15 36.62 150.84 39.41 153.06 38.89 156.59 35.57 157.9"/><polygon class="h" points="30.48 152.11 27.68 149.89 28.2 146.36 31.52 145.04 34.32 147.26 33.79 150.79 30.48 152.11"/><polygon class="h" points="32.22 143.37 29.43 141.16 29.95 137.63 33.27 136.31 36.06 138.53 35.54 142.06 32.22 143.37"/><polygon class="h" points="40.95 141.63 38.16 139.41 38.68 135.88 42 134.57 44.8 136.78 44.27 140.31 40.95 141.63"/><polygon class="h" points="49.69 139.88 46.89 137.66 47.41 134.13 50.73 132.82 53.53 135.04 53.01 138.57 49.69 139.88"/><polygon class="h" points="44.45 132.89 41.65 130.68 42.17 127.15 45.49 125.83 48.29 128.05 47.77 131.58 44.45 132.89"/><polygon class="h" points="51.43 127.65 48.64 125.44 49.16 121.91 52.48 120.59 55.27 122.81 54.75 126.34 51.43 127.65"/><polygon class="h" points="58.42 134.64 55.62 132.42 56.15 128.89 59.46 127.58 62.26 129.8 61.74 133.33 58.42 134.64"/><polygon class="h" points="58.42 120.67 55.62 118.45 56.15 114.92 59.46 113.61 62.26 115.83 61.74 119.36 58.42 120.67"/><polygon class="h" points="63.66 127.65 60.86 125.44 61.38 121.91 64.7 120.59 67.5 122.81 66.98 126.34 63.66 127.65"/><polygon class="h" points="39.35 150.03 36.55 147.81 37.07 144.28 40.39 142.97 43.19 145.18 42.67 148.71 39.35 150.03"/><polygon class="h" points="47.91 148.32 45.12 146.11 45.64 142.58 48.96 141.26 51.75 143.48 51.23 147.01 47.91 148.32"/><polygon class="h" points="52.35 158.19 49.55 155.98 50.08 152.45 53.4 151.13 56.19 153.35 55.67 156.88 52.35 158.19"/><polygon class="h" points="57.59 152.96 54.79 150.74 55.32 147.21 58.63 145.89 61.43 148.11 60.91 151.64 57.59 152.96"/><polygon class="h" points="55.84 145.97 53.05 143.75 53.57 140.22 56.89 138.91 59.68 141.13 59.16 144.66 55.84 145.97"/><polygon class="h" points="94.16 169.57 91.36 167.35 91.88 163.82 95.2 162.51 98 164.73 97.47 168.26 94.16 169.57"/><polygon class="h" points="102.72 167.87 99.92 165.65 100.45 162.12 103.77 160.81 106.56 163.02 106.04 166.55 102.72 167.87"/><polygon class="h" points="106.5 159.99 103.7 157.78 104.22 154.25 107.54 152.93 110.34 155.15 109.82 158.68 106.5 159.99"/><polygon class="h" points="99.65 152.45 96.86 150.23 97.38 146.7 100.7 145.39 103.5 147.61 102.97 151.14 99.65 152.45"/><polygon class="h" points="92.81 144.91 90.02 142.69 90.54 139.16 93.86 137.85 96.65 140.06 96.13 143.6 92.81 144.91"/><polygon class="h" points="103.43 144.58 100.63 142.36 101.16 138.83 104.48 137.52 107.27 139.73 106.75 143.26 103.43 144.58"/><polygon class="h" points="96.59 137.03 93.79 134.82 94.31 131.29 97.63 129.97 100.43 132.19 99.91 135.72 96.59 137.03"/><polygon class="h" points="106.92 137.59 104.13 135.37 104.65 131.84 107.97 130.53 110.76 132.75 110.24 136.28 106.92 137.59"/><polygon class="h" points="100.08 130.05 97.29 127.83 97.81 124.3 101.13 122.99 103.92 125.21 103.4 128.74 100.08 130.05"/><polygon class="h" points="112.16 130.61 109.37 128.39 109.89 124.86 113.21 123.54 116 125.76 115.48 129.29 112.16 130.61"/><polygon class="h" points="105.32 123.06 102.52 120.85 103.05 117.31 106.37 116 109.16 118.22 108.64 121.75 105.32 123.06"/><polygon class="h" points="120.62 169.96 117.32 168.6 116.85 165.07 119.67 162.89 122.97 164.24 123.45 167.78 120.62 169.96"/><polygon class="h" points="120.55 178.81 117.25 177.45 116.77 173.92 119.6 171.74 122.9 173.09 123.38 176.63 120.55 178.81"/><polygon class="h" points="126.08 196.15 122.78 194.8 122.31 191.26 125.14 189.08 128.44 190.44 128.91 193.97 126.08 196.15"/><polygon class="h" points="122.59 189.17 119.29 187.81 118.82 184.27 121.64 182.09 124.94 183.45 125.42 186.99 122.59 189.17"/><polygon class="h" points="131.32 201.39 128.02 200.04 127.55 196.5 130.37 194.32 133.68 195.68 134.15 199.21 131.32 201.39"/><polygon class="h" points="132.74 193.02 131.62 189.64 133.99 186.97 137.49 187.69 138.61 191.08 136.24 193.75 132.74 193.02"/><polygon class="h" points="145.9 189.69 142.6 188.34 142.12 184.8 144.95 182.62 148.25 183.98 148.72 187.51 145.9 189.69"/><polygon class="h" points="139.09 175.32 138.45 171.81 141.17 169.5 144.53 170.7 145.17 174.21 142.45 176.52 139.09 175.32"/><polygon class="h" points="132.1 177.07 131.46 173.56 134.18 171.25 137.54 172.45 138.18 175.96 135.46 178.27 132.1 177.07"/><polygon class="h" points="133.85 184.06 133.21 180.55 135.93 178.24 139.29 179.44 139.93 182.95 137.21 185.26 133.85 184.06"/><polygon class="h" points="125.11 182.31 124.47 178.8 127.19 176.49 130.56 177.69 131.2 181.2 128.48 183.51 125.11 182.31"/><polygon class="h" points="136.94 170.49 133.64 169.13 133.17 165.59 135.99 163.41 139.29 164.77 139.77 168.31 136.94 170.49"/><polygon class="h" points="128.38 172.94 125.08 171.58 124.61 168.05 127.43 165.87 130.73 167.22 131.21 170.76 128.38 172.94"/><polygon class="h" points="114.48 164.09 111.18 162.73 110.7 159.2 113.53 157.02 116.83 158.38 117.31 161.91 114.48 164.09"/><polygon class="h" points="113.63 183.93 110.33 182.58 109.86 179.04 112.69 176.86 115.99 178.22 116.46 181.75 113.63 183.93"/><polygon class="h" points="112.73 174.57 109.43 173.21 108.96 169.68 111.78 167.5 115.08 168.85 115.56 172.39 112.73 174.57"/><polygon class="h" points="104 178.06 100.7 176.71 100.23 173.17 103.05 170.99 106.35 172.35 106.83 175.88 104 178.06"/><polygon class="h" points="99.66 194.41 96.36 193.05 95.89 189.52 98.71 187.34 102.01 188.7 102.49 192.23 99.66 194.41"/><polygon class="h" points="94.42 189.17 91.12 187.81 90.65 184.28 93.47 182.1 96.78 183.46 97.25 186.99 94.42 189.17"/><polygon class="h" points="129.83 164.33 126.53 162.97 126.06 159.44 128.88 157.26 132.18 158.61 132.66 162.15 129.83 164.33"/><polygon class="h" points="137.59 160.32 134.29 158.97 133.82 155.43 136.64 153.25 139.94 154.61 140.42 158.15 137.59 160.32"/><polygon class="h" points="121.17 158.97 117.87 157.62 117.39 154.08 120.22 151.9 123.52 153.26 124 156.79 121.17 158.97"/><polygon class="h" points="122.47 142.14 119.17 140.78 118.7 137.25 121.52 135.07 124.82 136.42 125.3 139.96 122.47 142.14"/><polygon class="h" points="117.23 136.9 113.93 135.54 113.46 132.01 116.28 129.83 119.58 131.19 120.06 134.72 117.23 136.9"/><polygon class="h" points="131.13 144 127.83 142.65 127.36 139.11 130.18 136.93 133.48 138.29 133.96 141.83 131.13 144"/><polygon class="h" points="120.82 149.95 117.52 148.59 117.05 145.06 119.88 142.88 123.18 144.23 123.65 147.77 120.82 149.95"/><polygon class="h" points="113.84 146.46 110.54 145.1 110.06 141.56 112.89 139.38 116.19 140.74 116.66 144.28 113.84 146.46"/><polygon class="h" points="113.84 155.19 110.54 153.83 110.06 150.3 112.89 148.12 116.19 149.47 116.66 153.01 113.84 155.19"/><polygon class="h" points="129.68 152.62 126.38 151.26 125.91 147.72 128.73 145.54 132.03 146.9 132.51 150.44 129.68 152.62"/><polygon class="h" points="137.44 148.61 134.14 147.25 133.66 143.72 136.49 141.54 139.79 142.89 140.27 146.43 137.44 148.61"/><polygon class="h" points="138.89 140 135.59 138.64 135.12 135.1 137.94 132.92 141.24 134.28 141.72 137.82 138.89 140"/><polygon class="h" points="138.79 132.19 135.49 130.83 135.02 127.29 137.84 125.11 141.14 126.47 141.62 130.01 138.79 132.19"/><polygon class="h" points="138.79 123.46 135.49 122.1 135.02 118.56 137.84 116.38 141.14 117.74 141.62 121.28 138.79 123.46"/><polygon class="h" points="149.27 137.43 145.97 136.07 145.49 132.53 148.32 130.35 151.62 131.71 152.1 135.25 149.27 137.43"/><polygon class="h" points="145.88 129.52 142.58 128.16 142.1 124.63 144.93 122.45 148.23 123.8 148.7 127.34 145.88 129.52"/><polygon class="h" points="140.54 114.72 137.24 113.37 136.76 109.83 139.59 107.65 142.89 109.01 143.36 112.54 140.54 114.72"/><polygon class="h" points="131.91 117.29 128.6 115.94 128.13 112.4 130.96 110.22 134.26 111.58 134.73 115.12 131.91 117.29"/><polygon class="h" points="131.8 109.49 128.5 108.13 128.03 104.59 130.86 102.41 134.16 103.77 134.63 107.31 131.8 109.49"/><polygon class="h" points="140.64 106.82 137.34 105.46 136.86 101.92 139.69 99.74 142.99 101.1 143.46 104.64 140.64 106.82"/><polygon class="h" points="140.54 99.01 137.24 97.65 136.76 94.11 139.59 91.93 142.89 93.29 143.36 96.83 140.54 99.01"/><polygon class="h" points="131.8 97.26 128.5 95.9 128.03 92.36 130.86 90.19 134.16 91.54 134.63 95.08 131.8 97.26"/><polygon class="h" points="142.38 91.1 139.08 89.74 138.61 86.2 141.43 84.02 144.74 85.38 145.21 88.92 142.38 91.1"/><polygon class="h" points="133.65 89.35 130.35 87.99 129.88 84.46 132.7 82.28 136 83.63 136.48 87.17 133.65 89.35"/><polygon class="h" points="144.03 83.29 140.73 81.93 140.25 78.39 143.08 76.21 146.38 77.57 146.86 81.11 144.03 83.29"/><polygon class="h" points="128.3 74.97 125.51 72.75 126.03 69.22 129.35 67.91 132.14 70.12 131.62 73.65 128.3 74.97"/><polygon class="h" points="135.4 80.62 132.1 79.26 131.62 75.72 134.45 73.54 137.75 74.9 138.22 78.44 135.4 80.62"/><polygon class="h" points="147.52 76.3 144.22 74.94 143.75 71.41 146.57 69.23 149.87 70.59 150.35 74.12 147.52 76.3"/><polygon class="h" points="138.79 72.81 135.49 71.45 135.02 67.91 137.84 65.73 141.14 67.09 141.62 70.63 138.79 72.81"/><polygon class="h" points="144.03 65.82 140.73 64.47 140.25 60.93 143.08 58.75 146.38 60.11 146.86 63.64 144.03 65.82"/><polygon class="h" points="152.76 69.32 149.46 67.96 148.99 64.42 151.81 62.24 155.11 63.6 155.59 67.14 152.76 69.32"/><polygon class="h" points="152.76 60.58 149.46 59.23 148.99 55.69 151.81 53.51 155.11 54.87 155.59 58.4 152.76 60.58"/><polygon class="h" points="161.49 57.09 158.19 55.73 157.72 52.2 160.55 50.02 163.85 51.37 164.32 54.91 161.49 57.09"/><polygon class="h" points="168.48 53.6 165.18 52.24 164.71 48.7 167.53 46.52 170.83 47.88 171.31 51.42 168.48 53.6"/><polygon class="h" points="175.47 50.1 172.17 48.75 171.69 45.21 174.52 43.03 177.82 44.39 178.29 47.93 175.47 50.1"/><polygon class="h" points="182.45 46.61 179.15 45.25 178.68 41.72 181.5 39.54 184.8 40.89 185.28 44.43 182.45 46.61"/><polygon class="h" points="191.18 44.87 187.88 43.51 187.41 39.97 190.24 37.79 193.54 39.15 194.01 42.69 191.18 44.87"/><polygon class="h" points="199.92 43.12 196.62 41.76 196.14 38.22 198.97 36.04 202.27 37.4 202.74 40.94 199.92 43.12"/><polygon class="h" points="210.4 43.12 207.1 41.76 206.62 38.22 209.45 36.04 212.75 37.4 213.22 40.94 210.4 43.12"/><polygon class="h" points="219.13 46.61 215.83 45.25 215.35 41.72 218.18 39.54 221.48 40.89 221.95 44.43 219.13 46.61"/><polygon class="h" points="220.88 37.88 217.57 36.52 217.1 32.98 219.93 30.8 223.23 32.16 223.7 35.7 220.88 37.88"/><polygon class="h" points="222.62 29.15 219.32 27.79 218.85 24.25 221.67 22.07 224.97 23.43 225.45 26.97 222.62 29.15"/><polygon class="h" points="231.35 25.65 228.05 24.3 227.58 20.76 230.4 18.58 233.71 19.94 234.18 23.47 231.35 25.65"/><polygon class="h" points="231.35 34.39 228.05 33.03 227.58 29.49 230.4 27.31 233.71 28.67 234.18 32.21 231.35 34.39"/><polygon class="h" points="229.61 43.12 226.31 41.76 225.83 38.22 228.66 36.04 231.96 37.4 232.43 40.94 229.61 43.12"/><polygon class="h" points="231.35 51.85 228.05 50.49 227.58 46.96 230.4 44.78 233.71 46.13 234.18 49.67 231.35 51.85"/><polygon class="h" points="238.34 55.34 235.04 53.99 234.56 50.45 237.39 48.27 240.69 49.63 241.17 53.16 238.34 55.34"/><polygon class="h" points="243.58 60.58 240.28 59.23 239.8 55.69 242.63 53.51 245.93 54.87 246.41 58.4 243.58 60.58"/><polygon class="h" points="238.34 41.37 235.04 40.01 234.56 36.48 237.39 34.3 240.69 35.66 241.17 39.19 238.34 41.37"/><polygon class="h" points="240.09 34.39 236.79 33.03 236.31 29.49 239.14 27.31 242.44 28.67 242.91 32.21 240.09 34.39"/><polygon class="h" points="246.42 45.23 245.92 48.77 242.6 50.1 239.79 47.9 240.29 44.37 243.6 43.03 246.42 45.23"/><polygon class="h" points="251.65 38.25 251.15 41.78 247.84 43.12 245.03 40.92 245.53 37.38 248.84 36.05 251.65 38.25"/><polygon class="h" points="255.8 48.36 252.5 47 252.03 43.46 254.86 41.28 258.16 42.64 258.63 46.18 255.8 48.36"/><polygon class="h" points="248.82 55.34 245.52 53.99 245.04 50.45 247.87 48.27 251.17 49.63 251.64 53.16 248.82 55.34"/><polygon class="h" points="259.3 55.34 256 53.99 255.52 50.45 258.35 48.27 261.65 49.63 262.12 53.16 259.3 55.34"/><polygon class="h" points="268.03 53.6 264.73 52.24 264.25 48.7 267.08 46.52 270.38 47.88 270.86 51.42 268.03 53.6"/><polygon class="h" points="245.33 29.15 242.03 27.79 241.55 24.25 244.38 22.07 247.68 23.43 248.15 26.97 245.33 29.15"/><polygon class="h" points="250.57 36.13 247.26 34.78 246.79 31.24 249.62 29.06 252.92 30.42 253.39 33.95 250.57 36.13"/><polygon class="h" points="257.55 41.37 254.25 40.01 253.78 36.48 256.6 34.3 259.9 35.66 260.38 39.19 257.55 41.37"/><polygon class="h" points="264.54 46.61 261.24 45.25 260.76 41.72 263.59 39.54 266.89 40.89 267.36 44.43 264.54 46.61"/><polygon class="h" points="248.82 20.41 245.52 19.06 245.04 15.52 247.87 13.34 251.17 14.7 251.64 18.23 248.82 20.41"/><polygon class="h" points="240.09 22.16 236.79 20.8 236.31 17.27 239.14 15.09 242.44 16.44 242.91 19.98 240.09 22.16"/><polygon class="h" points="254.06 27.4 250.76 26.04 250.28 22.51 253.11 20.33 256.41 21.68 256.88 25.22 254.06 27.4"/><polygon class="h" points="261.04 32.64 257.74 31.28 257.27 27.75 260.09 25.57 263.4 26.92 263.87 30.46 261.04 32.64"/><polygon class="h" points="268.03 37.88 264.73 36.52 264.25 32.98 267.08 30.8 270.38 32.16 270.86 35.7 268.03 37.88"/><polygon class="h" points="266.28 13.43 262.98 12.07 262.51 8.53 265.33 6.35 268.64 7.71 269.11 11.25 266.28 13.43"/><polygon class="h" points="264.54 23.91 261.24 22.55 260.76 19.01 263.59 16.83 266.89 18.19 267.36 21.73 264.54 23.91"/><polygon class="h" points="257.55 16.92 254.25 15.56 253.78 12.03 256.6 9.85 259.9 11.2 260.38 14.74 257.55 16.92"/><polygon class="h" points="271.52 29.15 268.22 27.79 267.75 24.25 270.57 22.07 273.87 23.43 274.35 26.97 271.52 29.15"/><polygon class="h" points="276.76 36.13 273.46 34.78 272.99 31.24 275.81 29.06 279.11 30.42 279.59 33.95 276.76 36.13"/><polygon class="h" points="273.27 44.87 269.97 43.51 269.49 39.97 272.32 37.79 275.62 39.15 276.1 42.69 273.27 44.87"/><polygon class="h" points="285.49 41.37 282.19 40.01 281.72 36.48 284.55 34.3 287.85 35.66 288.32 39.19 285.49 41.37"/><polygon class="h" points="282 50.1 278.7 48.75 278.23 45.21 281.05 43.03 284.35 44.39 284.83 47.93 282 50.1"/><polygon class="h" points="285.49 60.58 282.19 59.23 281.72 55.69 284.55 53.51 287.85 54.87 288.32 58.4 285.49 60.58"/><polygon class="h" points="282 69.32 278.7 67.96 278.23 64.42 281.05 62.24 284.35 63.6 284.83 67.14 282 69.32"/><polygon class="h" points="285.49 78.05 282.19 76.69 281.72 73.15 284.55 70.97 287.85 72.33 288.32 75.87 285.49 78.05"/><polygon class="h" points="282 86.78 278.7 85.42 278.23 81.89 281.05 79.71 284.35 81.06 284.83 84.6 282 86.78"/><polygon class="h" points="275.02 76.3 271.72 74.94 271.24 71.41 274.07 69.23 277.37 70.59 277.84 74.12 275.02 76.3"/><polygon class="h" points="271.52 85.03 268.22 83.68 267.75 80.14 270.57 77.96 273.87 79.32 274.35 82.85 271.52 85.03"/><polygon class="h" points="264.54 81.54 261.24 80.18 260.76 76.65 263.59 74.47 266.89 75.82 267.36 79.36 264.54 81.54"/><polygon class="h" points="262.79 90.27 259.49 88.92 259.02 85.38 261.84 83.2 265.14 84.56 265.62 88.09 262.79 90.27"/><polygon class="h" points="271.52 93.77 268.22 92.41 267.75 88.87 270.57 86.69 273.87 88.05 274.35 91.59 271.52 93.77"/><polygon class="h" points="280.26 95.51 276.95 94.16 276.48 90.62 279.31 88.44 282.61 89.8 283.08 93.33 280.26 95.51"/><polygon class="h" points="283.75 104.25 280.45 102.89 279.97 99.35 282.8 97.17 286.1 98.53 286.57 102.07 283.75 104.25"/><polygon class="h" points="280.26 112.98 276.95 111.62 276.48 108.08 279.31 105.9 282.61 107.26 283.08 110.8 280.26 112.98"/><polygon class="h" points="282 121.71 278.7 120.35 278.23 116.82 281.05 114.64 284.35 115.99 284.83 119.53 282 121.71"/><polygon class="h" points="264.54 100.75 261.24 99.4 260.76 95.86 263.59 93.68 266.89 95.04 267.36 98.57 264.54 100.75"/><polygon class="h" points="264.54 109.49 261.24 108.13 260.76 104.59 263.59 102.41 266.89 103.77 267.36 107.31 264.54 109.49"/><polygon class="h" points="262.79 119.96 259.49 118.61 259.02 115.07 261.84 112.89 265.14 114.25 265.62 117.78 262.79 119.96"/><polygon class="h" points="275.02 104.25 271.72 102.89 271.24 99.35 274.07 97.17 277.37 98.53 277.84 102.07 275.02 104.25"/><polygon class="h" points="271.52 112.98 268.22 111.62 267.75 108.08 270.57 105.9 273.87 107.26 274.35 110.8 271.52 112.98"/><polygon class="h" points="271.52 123.46 268.22 122.1 267.75 118.56 270.57 116.38 273.87 117.74 274.35 121.28 271.52 123.46"/><polygon class="h" points="280.26 132.19 276.95 130.83 276.48 127.29 279.31 125.11 282.61 126.47 283.08 130.01 280.26 132.19"/><polygon class="h" points="276.76 140.92 273.46 139.56 272.99 136.03 275.81 133.85 279.11 135.2 279.59 138.74 276.76 140.92"/><polygon class="h" points="278.51 149.65 275.21 148.3 274.73 144.76 277.56 142.58 280.86 143.94 281.34 147.47 278.51 149.65"/><polygon class="h" points="261.04 137.43 257.74 136.07 257.27 132.53 260.09 130.35 263.4 131.71 263.87 135.25 261.04 137.43"/><polygon class="h" points="252.31 140.92 249.01 139.56 248.54 136.03 251.36 133.85 254.66 135.2 255.14 138.74 252.31 140.92"/><polygon class="h" points="261.04 128.7 257.74 127.34 257.27 123.8 260.09 121.62 263.4 122.98 263.87 126.52 261.04 128.7"/><polygon class="h" points="259.3 147.91 256 146.55 255.52 143.01 258.35 140.83 261.65 142.19 262.12 145.73 259.3 147.91"/><polygon class="h" points="271.52 132.19 268.22 130.83 267.75 127.29 270.57 125.11 273.87 126.47 274.35 130.01 271.52 132.19"/><polygon class="h" points="268.03 140.92 264.73 139.56 264.25 136.03 267.08 133.85 270.38 135.2 270.86 138.74 268.03 140.92"/><polygon class="h" points="268.03 151.4 264.73 150.04 264.25 146.51 267.08 144.33 270.38 145.68 270.86 149.22 268.03 151.4"/><polygon class="h" points="275.02 160.13 271.72 158.78 271.24 155.24 274.07 153.06 277.37 154.42 277.84 157.95 275.02 160.13"/><polygon class="h" points="271.52 168.87 268.22 167.51 267.75 163.97 270.57 161.79 273.87 163.15 274.35 166.69 271.52 168.87"/><polygon class="h" points="273.27 177.6 269.97 176.24 269.49 172.7 272.32 170.52 275.62 171.88 276.1 175.42 273.27 177.6"/><polygon class="h" points="255.8 165.37 252.5 164.01 252.03 160.48 254.86 158.3 258.16 159.66 258.63 163.19 255.8 165.37"/><polygon class="h" points="257.55 156.64 254.25 155.28 253.78 151.75 256.6 149.57 259.9 150.92 260.38 154.46 257.55 156.64"/><polygon class="h" points="248.82 168.87 245.52 167.51 245.04 163.97 247.87 161.79 251.17 163.15 251.64 166.69 248.82 168.87"/><polygon class="h" points="254.06 175.85 250.76 174.49 250.28 170.96 253.11 168.78 256.41 170.13 256.88 173.67 254.06 175.85"/><polygon class="h" points="266.28 160.13 262.98 158.78 262.51 155.24 265.33 153.06 268.64 154.42 269.11 157.95 266.28 160.13"/><polygon class="h" points="262.79 168.87 259.49 167.51 259.02 163.97 261.84 161.79 265.14 163.15 265.62 166.69 262.79 168.87"/><polygon class="h" points="262.79 179.34 259.49 177.99 259.02 174.45 261.84 172.27 265.14 173.63 265.62 177.16 262.79 179.34"/><polygon class="h" points="275.02 57.09 271.72 55.73 271.24 52.2 274.07 50.02 277.37 51.37 277.84 54.91 275.02 57.09"/><polygon class="h" points="271.52 65.82 268.22 64.47 267.75 60.93 270.57 58.75 273.87 60.11 274.35 63.64 271.52 65.82"/><polygon class="h" points="266.28 72.81 262.98 71.45 262.51 67.91 265.33 65.73 268.64 67.09 269.11 70.63 266.28 72.81"/><polygon class="h" points="264.54 62.33 261.24 60.97 260.76 57.44 263.59 55.26 266.89 56.61 267.36 60.15 264.54 62.33"/><polygon class="h" points="248.82 67.57 245.52 66.21 245.04 62.67 247.87 60.5 251.17 61.85 251.64 65.39 248.82 67.57"/><polygon class="h" points="257.55 78.05 254.25 76.69 253.78 73.15 256.6 70.97 259.9 72.33 260.38 75.87 257.55 78.05"/><polygon class="h" points="257.55 69.32 254.25 67.96 253.78 64.42 256.6 62.24 259.9 63.6 260.38 67.14 257.55 69.32"/><polygon class="h" points="254.06 62.33 250.76 60.97 250.28 57.44 253.11 55.26 256.41 56.61 256.88 60.15 254.06 62.33"/><polygon class="h" points="285.49 32.64 282.19 31.28 281.72 27.75 284.55 25.57 287.85 26.92 288.32 30.46 285.49 32.64"/><polygon class="h" points="280.26 25.65 276.95 24.3 276.48 20.76 279.31 18.58 282.61 19.94 283.08 23.47 280.26 25.65"/><polygon class="h" points="271.52 20.41 268.22 19.06 267.75 15.52 270.57 13.34 273.87 14.7 274.35 18.23 271.52 20.41"/><polygon class="h" points="275.02 11.68 271.72 10.32 271.24 6.79 274.07 4.61 277.37 5.97 277.84 9.5 275.02 11.68"/><polygon class="h" points="282 16.92 278.7 15.56 278.23 12.03 281.05 9.85 284.35 11.2 284.83 14.74 282 16.92"/><polygon class="h" points="203.41 36.13 200.11 34.78 199.64 31.24 202.46 29.06 205.76 30.42 206.24 33.95 203.41 36.13"/><polygon class="h" points="212.14 34.39 208.84 33.03 208.37 29.49 211.19 27.31 214.49 28.67 214.97 32.21 212.14 34.39"/><polygon class="h" points="130.23 134.64 126.93 133.29 126.45 129.75 129.28 127.57 132.58 128.93 133.06 132.46 130.23 134.64"/><polygon class="h" points="121.57 129.29 118.27 127.93 117.79 124.39 120.62 122.21 123.92 123.57 124.39 127.11 121.57 129.29"/><polygon class="h" points="131.68 126.03 128.38 124.67 127.91 121.14 130.73 118.96 134.03 120.32 134.51 123.85 131.68 126.03"/><polygon class="h" points="123.02 120.68 119.72 119.32 119.24 115.78 122.07 113.6 125.37 114.96 125.85 118.5 123.02 120.68"/><polygon class="h" points="145.45 167.62 142.15 166.26 141.68 162.73 144.5 160.55 147.8 161.91 148.28 165.44 145.45 167.62"/><polygon class="h" points="157.61 169.49 154.3 168.13 153.83 164.59 156.66 162.41 159.96 163.77 160.43 167.31 157.61 169.49"/><polygon class="h" points="147.13 181.71 143.83 180.35 143.35 176.82 146.18 174.64 149.48 175.99 149.95 179.53 147.13 181.71"/><polygon class="h" points="150.79 173.69 147.49 172.33 147.02 168.79 149.84 166.61 153.14 167.97 153.62 171.51 150.79 173.69"/><polygon class="h" points="154.41 186.83 151.11 185.47 150.63 181.93 153.46 179.75 156.76 181.11 157.23 184.65 154.41 186.83"/><polygon class="h" points="157.9 178.1 154.6 176.74 154.13 173.2 156.95 171.02 160.25 172.38 160.73 175.92 157.9 178.1"/><polygon class="h" points="163.91 184.57 160.61 183.21 160.14 179.67 162.96 177.5 166.27 178.85 166.74 182.39 163.91 184.57"/><polygon class="h" points="172.35 181.2 169.05 179.84 168.58 176.3 171.4 174.12 174.7 175.48 175.18 179.02 172.35 181.2"/><polygon class="h" points="167.11 175.96 163.81 174.6 163.34 171.06 166.16 168.88 169.46 170.24 169.94 173.78 167.11 175.96"/><polygon class="h" points="181.08 177.71 177.78 176.35 177.31 172.81 180.13 170.63 183.43 171.99 183.91 175.53 181.08 177.71"/><polygon class="h" points="189.82 177.71 186.52 176.35 186.04 172.81 188.87 170.63 192.17 171.99 192.64 175.53 189.82 177.71"/><polygon class="h" points="186.32 170.72 183.02 169.36 182.55 165.82 185.37 163.64 188.67 165 189.15 168.54 186.32 170.72"/><polygon class="h" points="198.55 170.72 195.25 169.36 194.77 165.82 197.6 163.64 200.9 165 201.37 168.54 198.55 170.72"/><polygon class="h" points="191.56 165.48 188.26 164.12 187.79 160.58 190.61 158.41 193.91 159.76 194.39 163.3 191.56 165.48"/><polygon class="h" points="181.08 163.73 177.78 162.38 177.31 158.84 180.13 156.66 183.43 158.02 183.91 161.55 181.08 163.73"/><polygon class="h" points="174.1 160.24 170.8 158.88 170.32 155.35 173.15 153.17 176.45 154.52 176.92 158.06 174.1 160.24"/><polygon class="h" points="175.84 170.72 172.54 169.36 172.07 165.82 174.89 163.64 178.2 165 178.67 168.54 175.84 170.72"/><polygon class="h" points="167.11 167.23 163.81 165.87 163.34 162.33 166.16 160.15 169.46 161.51 169.94 165.05 167.11 167.23"/><polygon class="h" points="167.11 155 163.81 153.64 163.34 150.11 166.16 147.93 169.46 149.28 169.94 152.82 167.11 155"/><polygon class="h" points="160.13 161.99 156.82 160.63 156.35 157.09 159.18 154.91 162.48 156.27 162.95 159.81 160.13 161.99"/><polygon class="h" points="212.52 170.72 209.22 169.36 208.74 165.82 211.57 163.64 214.87 165 215.35 168.54 212.52 170.72"/><polygon class="h" points="205.53 167.23 202.23 165.87 201.76 162.33 204.58 160.15 207.89 161.51 208.36 165.05 205.53 167.23"/><polygon class="h" points="151.46 161.87 148.16 160.51 147.69 156.98 150.52 154.8 153.82 156.15 154.29 159.69 151.46 161.87"/><polygon class="h" points="153.21 154.88 149.91 153.53 149.44 149.99 152.26 147.81 155.56 149.17 156.04 152.7 153.21 154.88"/><polygon class="h" points="144.55 154.77 141.25 153.41 140.77 149.87 143.6 147.69 146.9 149.05 147.38 152.59 144.55 154.77"/><polygon class="h" points="159.9 151.51 156.6 150.16 156.13 146.62 158.95 144.44 162.25 145.8 162.73 149.33 159.9 151.51"/><polygon class="h" points="154.66 146.27 151.36 144.92 150.89 141.38 153.71 139.2 157.01 140.56 157.49 144.09 154.66 146.27"/><polygon class="h" points="146 146.16 142.7 144.8 142.23 141.26 145.05 139.08 148.35 140.44 148.83 143.98 146 146.16"/><polygon class="h" points="144.95 239.9 142.23 242.21 138.87 241.01 138.23 237.5 140.95 235.19 144.31 236.39 144.95 239.9"/><polygon class="h" points="153.68 234.66 150.96 236.97 147.6 235.77 146.96 232.26 149.68 229.95 153.04 231.15 153.68 234.66"/><polygon class="h" points="151.94 243.39 149.22 245.7 145.86 244.5 145.22 240.99 147.94 238.68 151.3 239.88 151.94 243.39"/><polygon class="h" points="160.67 239.9 157.95 242.21 154.59 241.01 153.95 237.5 156.67 235.19 160.03 236.39 160.67 239.9"/><polygon class="h" points="167.66 236.41 164.94 238.72 161.57 237.52 160.93 234.01 163.65 231.7 167.02 232.9 167.66 236.41"/><polygon class="h" points="160.67 231.17 157.95 233.48 154.59 232.28 153.95 228.77 156.67 226.46 160.03 227.66 160.67 231.17"/><polygon class="h" points="174.64 231.17 171.92 233.48 168.56 232.28 167.92 228.77 170.64 226.46 174 227.66 174.64 231.17"/><polygon class="h" points="176.39 238.15 173.67 240.46 170.31 239.26 169.67 235.75 172.39 233.44 175.75 234.64 176.39 238.15"/><polygon class="h" points="162.42 222.44 159.7 224.75 156.33 223.55 155.69 220.03 158.41 217.72 161.78 218.92 162.42 222.44"/><polygon class="h" points="167.66 227.68 164.94 229.99 161.57 228.78 160.93 225.27 163.65 222.96 167.02 224.16 167.66 227.68"/><polygon class="h" points="153.68 225.93 150.96 228.24 147.6 227.04 146.96 223.53 149.68 221.22 153.04 222.42 153.68 225.93"/><polygon class="h" points="146.7 222.44 143.98 224.75 140.62 223.55 139.98 220.03 142.7 217.72 146.06 218.92 146.7 222.44"/><polygon class="h" points="144.95 231.17 142.23 233.48 138.87 232.28 138.23 228.77 140.95 226.46 144.31 227.66 144.95 231.17"/><polygon class="h" points="136.22 236.41 133.5 238.72 130.14 237.52 129.5 234.01 132.22 231.7 135.58 232.9 136.22 236.41"/><polygon class="h" points="137.97 225.93 135.24 228.24 131.88 227.04 131.24 223.53 133.96 221.22 137.32 222.42 137.97 225.93"/><polygon class="h" points="155.43 208.46 152.71 210.77 149.35 209.57 148.71 206.06 151.43 203.75 154.79 204.95 155.43 208.46"/><polygon class="h" points="157.18 199.73 154.46 202.04 151.1 200.84 150.45 197.33 153.18 195.02 156.54 196.22 157.18 199.73"/><polygon class="h" points="153.68 217.2 150.96 219.51 147.6 218.31 146.96 214.79 149.68 212.48 153.04 213.69 153.68 217.2"/><polygon class="h" points="146.7 211.96 143.98 214.27 140.62 213.07 139.98 209.56 142.7 207.24 146.06 208.45 146.7 211.96"/><polygon class="h" points="137.97 210.21 135.24 212.52 131.88 211.32 131.24 207.81 133.96 205.5 137.32 206.7 137.97 210.21"/><polygon class="h" points="130.98 206.72 128.26 209.03 124.9 207.83 124.26 204.32 126.98 202.01 130.34 203.21 130.98 206.72"/><polygon class="h" points="125.74 201.48 123.02 203.79 119.66 202.59 119.02 199.08 121.74 196.77 125.1 197.97 125.74 201.48"/><polygon class="h" points="143.2 203.22 140.48 205.53 137.12 204.33 136.48 200.82 139.2 198.51 142.56 199.71 143.2 203.22"/><polygon class="h" points="150.19 201.48 147.47 203.79 144.11 202.59 143.47 199.08 146.19 196.77 149.55 197.97 150.19 201.48"/><polygon class="h" points="144.95 196.24 142.23 198.55 138.87 197.35 138.23 193.84 140.95 191.53 144.31 192.73 144.95 196.24"/><polygon class="h" points="151.94 194.49 149.22 196.8 145.86 195.6 145.22 192.09 147.94 189.78 151.3 190.98 151.94 194.49"/><polygon class="h" points="160.67 192.75 157.95 195.06 154.59 193.85 153.95 190.34 156.67 188.03 160.03 189.23 160.67 192.75"/><polygon class="h" points="167.81 190.44 165.5 193.16 161.99 192.52 160.78 189.16 163.09 186.44 166.6 187.08 167.81 190.44"/><polygon class="h" points="136.22 218.94 133.5 221.25 130.14 220.05 129.5 216.54 132.22 214.23 135.58 215.43 136.22 218.94"/><polygon class="h" points="129.23 231.17 126.51 233.48 123.15 232.28 122.51 228.77 125.23 226.46 128.59 227.66 129.23 231.17"/><polygon class="h" points="129.23 222.44 126.51 224.75 123.15 223.55 122.51 220.03 125.23 217.72 128.59 218.92 129.23 222.44"/><polygon class="h" points="200.84 239.9 198.12 242.21 194.76 241.01 194.12 237.5 196.84 235.19 200.2 236.39 200.84 239.9"/><polygon class="h" points="209.57 234.66 206.85 236.97 203.49 235.77 202.85 232.26 205.57 229.95 208.93 231.15 209.57 234.66"/><polygon class="h" points="207.82 243.39 205.1 245.7 201.74 244.5 201.1 240.99 203.82 238.68 207.18 239.88 207.82 243.39"/><polygon class="h" points="216.56 239.9 213.84 242.21 210.48 241.01 209.84 237.5 212.56 235.19 215.92 236.39 216.56 239.9"/><polygon class="h" points="223.54 236.41 220.82 238.72 217.46 237.52 216.82 234.01 219.54 231.7 222.9 232.9 223.54 236.41"/><polygon class="h" points="216.56 231.17 213.84 233.48 210.48 232.28 209.84 228.77 212.56 226.46 215.92 227.66 216.56 231.17"/><polygon class="h" points="230.53 231.17 227.81 233.48 224.45 232.28 223.81 228.77 226.53 226.46 229.89 227.66 230.53 231.17"/><polygon class="h" points="218.3 222.44 215.58 224.75 212.22 223.55 211.58 220.03 214.3 217.72 217.66 218.92 218.3 222.44"/><polygon class="h" points="223.54 227.68 220.82 229.99 217.46 228.78 216.82 225.27 219.54 222.96 222.9 224.16 223.54 227.68"/><polygon class="h" points="209.57 225.93 206.85 228.24 203.49 227.04 202.85 223.53 205.57 221.22 208.93 222.42 209.57 225.93"/><polygon class="h" points="202.59 222.44 199.86 224.75 196.5 223.55 195.86 220.03 198.58 217.72 201.94 218.92 202.59 222.44"/><polygon class="h" points="200.84 231.17 198.12 233.48 194.76 232.28 194.12 228.77 196.84 226.46 200.2 227.66 200.84 231.17"/><polygon class="h" points="192.11 236.41 189.39 238.72 186.02 237.52 185.38 234.01 188.1 231.7 191.47 232.9 192.11 236.41"/><polygon class="h" points="183.37 241.65 180.65 243.96 177.29 242.76 176.65 239.25 179.37 236.94 182.73 238.14 183.37 241.65"/><polygon class="h" points="193.85 225.93 191.13 228.24 187.77 227.04 187.13 223.53 189.85 221.22 193.21 222.42 193.85 225.93"/><polygon class="h" points="171.15 217.2 168.43 219.51 165.07 218.31 164.43 214.79 167.15 212.48 170.51 213.69 171.15 217.2"/><polygon class="h" points="179.88 211.96 177.16 214.27 173.8 213.07 173.16 209.56 175.88 207.24 179.24 208.45 179.88 211.96"/><polygon class="h" points="178.13 222.44 175.41 224.75 172.05 223.55 171.41 220.03 174.13 217.72 177.49 218.92 178.13 222.44"/><polygon class="h" points="186.87 220.69 184.15 223 180.79 221.8 180.15 218.29 182.87 215.98 186.23 217.18 186.87 220.69"/><polygon class="h" points="193.85 215.45 191.13 217.76 187.77 216.56 187.13 213.05 189.85 210.74 193.21 211.94 193.85 215.45"/><polygon class="h" points="186.87 208.46 184.15 210.77 180.79 209.57 180.15 206.06 182.87 203.75 186.23 204.95 186.87 208.46"/><polygon class="h" points="201.77 210 202.66 213.46 200.11 215.96 196.68 215 195.79 211.54 198.34 209.05 201.77 210"/><polygon class="h" points="200.03 203.02 200.92 206.47 198.37 208.97 194.93 208.01 194.04 204.56 196.59 202.06 200.03 203.02"/><polygon class="h" points="188.61 199.73 185.89 202.04 182.53 200.84 181.89 197.33 184.61 195.02 187.97 196.22 188.61 199.73"/><polygon class="h" points="181.63 194.49 178.91 196.8 175.55 195.6 174.91 192.09 177.63 189.78 180.99 190.98 181.63 194.49"/><polygon class="h" points="176.39 189.25 173.67 191.56 170.31 190.36 169.67 186.85 172.39 184.54 175.75 185.74 176.39 189.25"/><polygon class="h" points="185.12 184.01 182.4 186.32 179.04 185.12 178.4 181.61 181.12 179.3 184.48 180.5 185.12 184.01"/><polygon class="h" points="193.85 204.97 191.13 207.28 187.77 206.08 187.13 202.57 189.85 200.26 193.21 201.46 193.85 204.97"/><polygon class="h" points="179.88 203.22 177.16 205.53 173.8 204.33 173.16 200.82 175.88 198.51 179.24 199.71 179.88 203.22"/><polygon class="h" points="172.89 199.73 170.17 202.04 166.81 200.84 166.17 197.33 168.89 195.02 172.25 196.22 172.89 199.73"/><polygon class="h" points="171.15 208.46 168.43 210.77 165.07 209.57 164.43 206.06 167.15 203.75 170.51 204.95 171.15 208.46"/><polygon class="h" points="162.42 213.7 159.7 216.01 156.33 214.81 155.69 211.3 158.41 208.99 161.78 210.19 162.42 213.7"/><polygon class="h" points="164.16 203.22 161.44 205.53 158.08 204.33 157.44 200.82 160.16 198.51 163.52 199.71 164.16 203.22"/><polygon class="h" points="185.12 231.17 182.4 233.48 179.04 232.28 178.4 228.77 181.12 226.46 184.48 227.66 185.12 231.17"/><polygon class="h" points="254.98 248.51 256.1 251.89 253.73 254.56 250.23 253.84 249.11 250.45 251.48 247.78 254.98 248.51"/><polygon class="h" points="258.47 255.49 259.59 258.88 257.22 261.54 253.72 260.82 252.6 257.43 254.98 254.77 258.47 255.49"/><polygon class="h" points="254.98 267.72 256.1 271.1 253.73 273.77 250.23 273.05 249.11 269.66 251.48 266.99 254.98 267.72"/><polygon class="h" points="253.39 238.45 254.52 241.83 252.14 244.5 248.65 243.78 247.53 240.39 249.9 237.72 253.39 238.45"/><polygon class="h" points="260.83 243.34 261.96 246.73 259.58 249.39 256.09 248.67 254.97 245.28 257.34 242.62 260.83 243.34"/><polygon class="h" points="260.87 233.93 261.99 237.32 259.62 239.99 256.12 239.26 255 235.88 257.37 233.21 260.87 233.93"/><polygon class="h" points="260.25 226.15 261.37 229.53 259 232.2 255.5 231.48 254.38 228.09 256.75 225.42 260.25 226.15"/><polygon class="h" points="252.77 230.66 253.9 234.05 251.52 236.71 248.03 235.99 246.91 232.6 249.28 229.94 252.77 230.66"/><polygon class="h" points="258.01 217.71 259.13 221.09 256.76 223.76 253.26 223.04 252.14 219.65 254.52 216.98 258.01 217.71"/><polygon class="h" points="265.49 217.41 266.61 220.8 264.24 223.47 260.74 222.75 259.62 219.36 261.99 216.69 265.49 217.41"/><polygon class="h" points="263.25 208.97 264.37 212.36 262 215.03 258.5 214.31 257.38 210.92 259.75 208.25 263.25 208.97"/><polygon class="h" points="270.24 205.48 271.36 208.87 268.98 211.53 265.49 210.81 264.37 207.42 266.74 204.76 270.24 205.48"/><polygon class="h" points="245.33 225.77 246.45 229.16 244.08 231.82 240.59 231.1 239.46 227.71 241.84 225.05 245.33 225.77"/><polygon class="h" points="252.15 222.87 253.28 226.26 250.9 228.93 247.41 228.21 246.29 224.82 248.66 222.15 252.15 222.87"/><polygon class="h" points="245.3 235.17 246.42 238.56 244.05 241.23 240.55 240.5 239.43 237.12 241.8 234.45 245.3 235.17"/><polygon class="h" points="239.44 240.34 240.56 243.73 238.19 246.39 234.69 245.67 233.57 242.28 235.95 239.62 239.44 240.34"/><polygon class="h" points="246.88 245.23 248 248.62 245.63 251.29 242.14 250.56 241.01 247.18 243.39 244.51 246.88 245.23"/><polygon class="h" points="246.72 253.55 247.84 256.93 245.47 259.6 241.97 258.88 240.85 255.49 243.22 252.82 246.72 253.55"/><polygon class="h" points="251.96 260.53 253.08 263.92 250.71 266.59 247.21 265.86 246.09 262.47 248.46 259.81 251.96 260.53"/><polygon class="h" points="251.96 274.5 253.08 277.89 250.71 280.56 247.21 279.83 246.09 276.45 248.46 273.78 251.96 274.5"/><polygon class="h" points="246.72 267.52 247.84 270.91 245.47 273.57 241.97 272.85 240.85 269.46 243.22 266.8 246.72 267.52"/><polygon class="h" points="239.41 249.75 240.53 253.13 238.16 255.8 234.66 255.08 233.54 251.69 235.91 249.02 239.41 249.75"/><polygon class="h" points="230.71 238.59 231.83 241.98 229.46 244.65 225.96 243.93 224.84 240.54 227.21 237.87 230.71 238.59"/><polygon class="h" points="237.69 231.61 238.82 235 236.44 237.66 232.95 236.94 231.83 233.55 234.2 230.89 237.69 231.61"/><polygon class="h" points="225.43 248 226.56 251.39 224.18 254.05 220.69 253.33 219.57 249.94 221.94 247.28 225.43 248"/><polygon class="h" points="232.42 246.25 233.54 249.64 231.17 252.31 227.67 251.58 226.55 248.2 228.93 245.53 232.42 246.25"/><polygon class="h" points="232.42 253.24 233.54 256.63 231.17 259.29 227.67 258.57 226.55 255.18 228.93 252.52 232.42 253.24"/><polygon class="h" points="221.94 241.01 223.06 244.4 220.69 247.07 217.2 246.34 216.07 242.96 218.45 240.29 221.94 241.01"/><polygon class="h" points="239.24 258.06 240.37 261.45 237.99 264.11 234.5 263.39 233.38 260 235.75 257.34 239.24 258.06"/><polygon class="h" points="239.24 268.54 240.37 271.93 237.99 274.59 234.5 273.87 233.38 270.48 235.75 267.81 239.24 268.54"/><polygon class="h" points="234.02 307.89 235.14 311.27 232.77 313.94 229.27 313.22 228.15 309.83 230.52 307.16 234.02 307.89"/><polygon class="h" points="237.51 314.87 238.64 318.26 236.26 320.93 232.77 320.2 231.64 316.82 234.02 314.15 237.51 314.87"/><polygon class="h" points="239.42 292.59 240.54 295.97 238.17 298.64 234.68 297.92 233.55 294.53 235.93 291.86 239.42 292.59"/><polygon class="h" points="241.62 307.96 242.75 311.35 240.37 314.01 236.88 313.29 235.76 309.9 238.13 307.24 241.62 307.96"/><polygon class="h" points="241.62 300.97 242.75 304.36 240.37 307.03 236.88 306.3 235.76 302.92 238.13 300.25 241.62 300.97"/><polygon class="h" points="246.9 293.31 248.02 296.7 245.65 299.37 242.15 298.64 241.03 295.26 243.4 292.59 246.9 293.31"/><polygon class="h" points="248.64 286.33 249.77 289.72 247.39 292.38 243.9 291.66 242.78 288.27 245.15 285.61 248.64 286.33"/><polygon class="h" points="246.28 278.54 247.4 281.93 245.03 284.6 241.53 283.87 240.41 280.48 242.78 277.82 246.28 278.54"/><polygon class="h" points="238.8 284.8 239.92 288.19 237.55 290.85 234.06 290.13 232.93 286.74 235.31 284.08 238.8 284.8"/><polygon class="h" points="231.36 279.91 232.48 283.3 230.11 285.96 226.61 285.24 225.49 281.85 227.87 279.19 231.36 279.91"/><polygon class="h" points="238.18 277.01 239.3 280.4 236.93 283.07 233.44 282.35 232.31 278.96 234.69 276.29 238.18 277.01"/><polygon class="h" points="231.33 289.31 232.45 292.7 230.07 295.37 226.58 294.65 225.46 291.26 227.83 288.59 231.33 289.31"/><polygon class="h" points="224.34 285.82 225.46 289.21 223.09 291.87 219.59 291.15 218.47 287.76 220.84 285.1 224.34 285.82"/><polygon class="h" points="225.47 294.48 226.59 297.87 224.22 300.53 220.72 299.81 219.6 296.42 221.97 293.76 225.47 294.48"/><polygon class="h" points="232.91 299.37 234.03 302.76 231.66 305.43 228.16 304.7 227.04 301.32 229.42 298.65 232.91 299.37"/><polygon class="h" points="231 319.91 232.12 323.3 229.75 325.97 226.26 325.24 225.13 321.86 227.51 319.19 231 319.91"/><polygon class="h" points="224.02 323.4 225.14 326.79 222.76 329.46 219.27 328.74 218.15 325.35 220.52 322.68 224.02 323.4"/><polygon class="h" points="225.43 303.89 226.56 307.27 224.18 309.94 220.69 309.22 219.57 305.83 221.94 303.16 225.43 303.89"/><polygon class="h" points="227.02 313.95 228.14 317.33 225.77 320 222.27 319.28 221.15 315.89 223.52 313.22 227.02 313.95"/><polygon class="h" points="251.48 208.34 252.61 211.72 250.23 214.39 246.74 213.67 245.62 210.28 247.99 207.61 251.48 208.34"/><polygon class="h" points="249.9 198.28 251.02 201.66 248.65 204.33 245.15 203.61 244.03 200.22 246.41 197.55 249.9 198.28"/><polygon class="h" points="257.34 203.17 258.46 206.56 256.09 209.22 252.6 208.5 251.47 205.11 253.85 202.45 257.34 203.17"/><polygon class="h" points="257.38 193.76 258.5 197.15 256.13 199.82 252.63 199.1 251.51 195.71 253.88 193.04 257.38 193.76"/><polygon class="h" points="256.76 185.98 257.88 189.37 255.51 192.03 252.01 191.31 250.89 187.92 253.26 185.26 256.76 185.98"/><polygon class="h" points="264.33 199.68 265.45 203.06 263.08 205.73 259.58 205.01 258.46 201.62 260.83 198.95 264.33 199.68"/><polygon class="h" points="264.36 190.27 265.48 193.66 263.11 196.32 259.62 195.6 258.49 192.21 260.87 189.55 264.36 190.27"/><polygon class="h" points="265.49 180.74 266.61 184.13 264.24 186.79 260.74 186.07 259.62 182.68 261.99 180.02 265.49 180.74"/><polygon class="h" points="271.31 197.93 272.44 201.32 270.06 203.98 266.57 203.26 265.45 199.87 267.82 197.21 271.31 197.93"/><polygon class="h" points="273.09 190.27 274.22 193.66 271.84 196.32 268.35 195.6 267.23 192.21 269.6 189.55 273.09 190.27"/><polygon class="h" points="274.22 180.74 275.34 184.13 272.97 186.79 269.48 186.07 268.35 182.68 270.73 180.02 274.22 180.74"/><polygon class="h" points="249.28 190.49 250.4 193.88 248.03 196.54 244.53 195.82 243.41 192.43 245.79 189.77 249.28 190.49"/><polygon class="h" points="254.52 177.54 255.64 180.93 253.27 183.59 249.77 182.87 248.65 179.48 251.02 176.82 254.52 177.54"/><polygon class="h" points="241.84 185.6 242.96 188.99 240.59 191.65 237.09 190.93 235.97 187.54 238.34 184.88 241.84 185.6"/><polygon class="h" points="248.66 182.7 249.78 186.09 247.41 188.76 243.91 188.04 242.79 184.65 245.17 181.98 248.66 182.7"/><polygon class="h" points="241.8 195 242.93 198.39 240.55 201.06 237.06 200.34 235.94 196.95 238.31 194.28 241.8 195"/><polygon class="h" points="235.95 200.17 237.07 203.56 234.7 206.22 231.2 205.5 230.08 202.11 232.45 199.45 235.95 200.17"/><polygon class="h" points="243.39 205.06 244.51 208.45 242.14 211.12 238.64 210.39 237.52 207.01 239.89 204.34 243.39 205.06"/><polygon class="h" points="244.97 215.12 246.1 218.51 243.72 221.18 240.23 220.45 239.11 217.07 241.48 214.4 244.97 215.12"/><polygon class="h" points="235.91 209.58 237.04 212.96 234.66 215.63 231.17 214.91 230.05 211.52 232.42 208.85 235.91 209.58"/><polygon class="h" points="237.5 219.64 238.62 223.02 236.25 225.69 232.75 224.97 231.63 221.58 234 218.91 237.5 219.64"/><polygon class="h" points="233.11 182.11 234.23 185.49 231.86 188.16 228.36 187.44 227.24 184.05 229.61 181.38 233.11 182.11"/><polygon class="h" points="233.07 191.51 234.19 194.9 231.82 197.56 228.33 196.84 227.2 193.45 229.58 190.79 233.07 191.51"/><polygon class="h" points="227.22 196.68 228.34 200.07 225.96 202.73 222.47 202.01 221.35 198.62 223.72 195.96 227.22 196.68"/><polygon class="h" points="227.18 206.08 228.3 209.47 225.93 212.14 222.43 211.41 221.31 208.03 223.69 205.36 227.18 206.08"/><polygon class="h" points="228.77 216.14 229.89 219.53 227.51 222.2 224.02 221.47 222.9 218.09 225.27 215.42 228.77 216.14"/><polygon class="h" points="222.63 176.87 223.75 180.25 221.38 182.92 217.88 182.2 216.76 178.81 219.13 176.14 222.63 176.87"/><polygon class="h" points="222.63 168.13 223.75 171.52 221.38 174.19 217.88 173.47 216.76 170.08 219.13 167.41 222.63 168.13"/><polygon class="h" points="222.63 159.4 223.75 162.79 221.38 165.46 217.88 164.73 216.76 161.34 219.13 158.68 222.63 159.4"/><polygon class="h" points="231.36 155.91 232.48 159.3 230.11 161.96 226.61 161.24 225.49 157.85 227.87 155.19 231.36 155.91"/><polygon class="h" points="238.35 148.92 239.47 152.31 237.1 154.98 233.6 154.25 232.48 150.87 234.85 148.2 238.35 148.92"/><polygon class="h" points="233.11 164.64 234.23 168.03 231.86 170.69 228.36 169.97 227.24 166.58 229.61 163.92 233.11 164.64"/><polygon class="h" points="236.6 173.37 237.72 176.76 235.35 179.43 231.85 178.7 230.73 175.32 233.1 172.65 236.6 173.37"/><polygon class="h" points="229.61 173.37 230.74 176.76 228.36 179.43 224.87 178.7 223.75 175.32 226.12 172.65 229.61 173.37"/><polygon class="h" points="222.59 186.27 223.72 189.66 221.34 192.32 217.85 191.6 216.73 188.21 219.1 185.55 222.59 186.27"/><polygon class="h" points="216.74 191.44 217.86 194.83 215.49 197.49 211.99 196.77 210.87 193.38 213.24 190.72 216.74 191.44"/><polygon class="h" points="216.7 200.84 217.82 204.23 215.45 206.9 211.96 206.18 210.83 202.79 213.21 200.12 216.7 200.84"/><polygon class="h" points="208 187.95 209.13 191.33 206.75 194 203.26 193.28 202.14 189.89 204.51 187.22 208 187.95"/><polygon class="h" points="207.97 197.35 209.09 200.74 206.72 203.4 203.22 202.68 202.1 199.29 204.47 196.63 207.97 197.35"/><polygon class="h" points="207.97 206.08 209.09 209.47 206.72 212.14 203.22 211.41 202.1 208.03 204.47 205.36 207.97 206.08"/><polygon class="h" points="211.46 213.07 212.58 216.46 210.21 219.12 206.72 218.4 205.59 215.01 207.97 212.35 211.46 213.07"/><polygon class="h" points="199.27 186.2 200.39 189.59 198.02 192.25 194.53 191.53 193.4 188.14 195.78 185.48 199.27 186.2"/><polygon class="h" points="206.26 180.96 207.38 184.35 205.01 187.01 201.51 186.29 200.39 182.9 202.76 180.24 206.26 180.96"/><polygon class="h" points="192.29 187.95 193.41 191.33 191.04 194 187.54 193.28 186.42 189.89 188.79 187.22 192.29 187.95"/><polygon class="h" points="192.29 179.21 193.41 182.6 191.04 185.27 187.54 184.54 186.42 181.16 188.79 178.49 192.29 179.21"/><polygon class="h" points="199.27 173.97 200.39 177.36 198.02 180.03 194.53 179.31 193.4 175.92 195.78 173.25 199.27 173.97"/><polygon class="h" points="199.24 195.6 200.36 198.99 197.99 201.66 194.49 200.94 193.37 197.55 195.74 194.88 199.24 195.6"/><polygon class="h" points="214.99 172.23 216.11 175.62 213.74 178.28 210.24 177.56 209.12 174.17 211.49 171.51 214.99 172.23"/><polygon class="h" points="206.26 172.23 207.38 175.62 205.01 178.28 201.51 177.56 200.39 174.17 202.76 171.51 206.26 172.23"/><polygon class="h" points="214.96 181.63 216.08 185.02 213.7 187.69 210.21 186.96 209.09 183.58 211.46 180.91 214.96 181.63"/><polygon class="h" points="218.29 210.9 219.41 214.29 217.04 216.96 213.54 216.23 212.42 212.85 214.79 210.18 218.29 210.9"/><polygon class="h" points="248.83 141.94 249.95 145.32 247.57 147.99 244.08 147.27 242.96 143.88 245.33 141.21 248.83 141.94"/><polygon class="h" points="248.79 151.34 249.91 154.73 247.54 157.4 244.04 156.67 242.92 153.29 245.3 150.62 248.79 151.34"/><polygon class="h" points="241.91 155.73 244.11 159.62 240.54 162.33 234.77 161.13 232.56 157.24 236.13 154.53 241.91 155.73"/><polygon class="h" points="242.9 165.91 244.02 169.3 241.65 171.97 238.15 171.25 237.03 167.86 239.4 165.19 242.9 165.91"/><polygon class="h" points="244.48 175.97 245.61 179.36 243.23 182.03 239.74 181.31 238.62 177.92 240.99 175.25 244.48 175.97"/><path class="i" d="M232.56,179.79s-22.25,31.07,0,31.88c22.25,.81,0-31.88,0-31.88Z"/><path class="i" d="M240.23,141.8s-23.4,32.67,0,33.53c23.4,.86,0-33.53,0-33.53Z"/></g></g></g></svg>