<?xml version="1.0" encoding="UTF-8"?><svg xmlns="http://www.w3.org/2000/svg" viewBox="0 0 612.62 821.5"><defs><style>.d,.e,.f,.g{fill:#00b100;}.h,.i,.j,.k,.e,.l,.m,.n,.o,.p,.f,.g{stroke-miterlimit:10;}.h,.e,.n,.o,.p,.f{stroke:#000;}.h,.l{stroke-width:2px;}.h,.n{fill:#a9f6a3;}.i{stroke:#b9c5b9;stroke-width:.25px;}.i,.j{fill:#b5d7b5;}.j{stroke-width:.5px;}.j,.k,.g{stroke:#0e0f0e;}.k,.l,.m{fill:none;}.k,.g{stroke-width:.75px;}.l{stroke:#097f09;}.m{stroke:#00b100;stroke-width:11px;}.n,.o,.p,.f{stroke-width:3px;}.o{fill:#cd8632;}.p{fill:#fff;}</style></defs><g id="a"/><g id="b"><g id="c"><g><path class="m" d="M207.99,647.65c58.33,91.41,157.73,137.58,246,116.78,72-16.97,163.44-84.84,152.19-170.38-7.68-58.36-62.02-116.3-132.09-119.65-81.65-3.91-133.29,68.74-146.45,121.56-3.38,13.55-14.81,59.44,11.49,88.06,28.65,31.18,83.8,21.97,115.82,5.74,26.68-13.52,70.29-48.64,59.35-81.36-7.63-22.82-39.73-38.33-77.53-36.37"/><path class="d" d="M250.04,821.48c-5.86,.81-14.89-29.46-20.17-67.61-5.28-38.15-4.82-69.74,1.04-70.55,5.86-.81,24.99,137.35,19.14,138.16Z"/><path class="d" d="M181.68,821.48c-5.86,.81-14.89-29.46-20.17-67.61-5.28-38.15-4.82-69.74,1.04-70.55,5.86-.81,24.99,137.35,19.14,138.16Z"/><path class="e" d="M183.58,414.01l-47.96,303.5c-1.91,12.11,7.45,23.06,19.71,23.06h89.23c12.09,0,21.4-10.66,19.77-22.64l-41.26-303.5c-3.1-22.77-35.89-23.12-39.47-.43Z"/><path class="d" d="M217.61,423.13c15.94,18.43,33.25,35.43,50.93,52.11l3.31,3.11c1.56,1.43,1.65,4.26-.21,5.4-2.45,1.79-4.91,3.55-7.34,5.36-9.82,7.16-19.41,14.55-28.12,23.08-4.35,4.29-8.61,8.72-12.37,13.8l-7.2-9.6c20.13-7.8,37.06-21.06,53.94-34.1,.96-.56,.63-1.91,0-2.49-10.36-8.85-20.86-17.59-31.59-26.02-9.55-7.49-19.23-14.85-29.34-21.72l8-8.95h0Z"/><path class="d" d="M198.81,428.2c-21.47,13.72-41.62,29.15-61.51,44.97l-.85,.69c-1,.82-1.28,2.6-.29,3.53l1.61,1.55,3.23,3.09c8.63,8.29,17.39,16.37,27.17,23.34,4.91,3.48,9.94,6.84,15.53,9.59l-8.2,8.76c-10.12-16.96-24.53-30.31-38.96-43.46l-1.66-1.5c-1.88-1.66-1.6-4.83,.22-6.43l.86-.75c10.1-8.83,20.09-17.83,29.82-27.09,8.65-8.24,17.2-16.62,25.32-25.49l7.7,9.21h0Z"/><g><circle class="l" cx="232.39" cy="512.97" r="1.21"/><circle class="l" cx="230.19" cy="508.34" r="1.9"/><circle class="l" cx="230.32" cy="502.24" r="1.9"/><line class="l" x1="233.54" y1="512.6" x2="243.01" y2="504.33"/><line class="l" x1="232.02" y1="507.83" x2="243.01" y2="504.33"/><line class="l" x1="232.15" y1="501.74" x2="243.01" y2="504.33"/><circle class="l" cx="234.78" cy="517.47" r="1.37"/><line class="l" x1="243.01" y1="504.33" x2="235.36" y2="516.8"/></g><g><circle class="l" cx="170.75" cy="511.32" r="1.21"/><circle class="l" cx="172.94" cy="506.68" r="1.9"/><circle class="l" cx="172.82" cy="500.59" r="1.9"/><line class="l" x1="169.59" y1="510.95" x2="160.12" y2="502.67"/><line class="l" x1="171.11" y1="506.18" x2="160.12" y2="502.67"/><line class="l" x1="170.99" y1="500.08" x2="160.12" y2="502.67"/><circle class="l" cx="168.36" cy="515.82" r="1.37"/><line class="l" x1="160.12" y1="502.67" x2="167.77" y2="515.15"/></g><rect class="o" x="203.84" y="2.61" width="145.49" height="466.27" rx="71.56" ry="71.56"/><path class="f" d="M12.99,194.15C-53.48,144.67,258.23-17.14,285.86,3.27s-9.52,327.12-82.88,391.08C129.62,458.31,79.45,243.63,12.99,194.15Z"/><circle class="p" cx="203.56" cy="101.92" r="54.34"/><circle class="n" cx="203.86" cy="102.3" r="24.44"/><path class="f" d="M4.3,181.95s56.48-24.62,111.43-15.97c54.95,8.65,150.59,36.66,150.59,36.66"/><path class="p" d="M116.42,69.66s-1.5-60.48,53.36-29.54"/><path class="h" d="M149.36,34.27c-.14,17.64-27.9,15.67-27.9,15.67,0,0,4.31-12.28,9.7-15.67,11.34-7.12,18.21,0,18.21,0Z"/><path class="k" d="M216.11,458.36l-12.34-1.18c-10.71-1.51-15.35-14.41-8.06-22.4l11.88-13.01"/><path class="g" d="M183.53,457.86l-6.61-.93c-9.95-1.41-14.26-13.39-7.49-20.81l13.1-14.34"/><g><polygon class="j" points="8.29 189.33 .64 203.76 13.97 195.82 8.29 189.33"/><polygon class="j" points="13.55 194.59 5.9 209.02 19.23 201.08 13.55 194.59"/><polygon class="j" points="18.81 199.84 11.16 214.28 24.48 206.34 18.81 199.84"/><polygon class="j" points="24.07 205.1 16.42 219.54 29.74 211.59 24.07 205.1"/><polygon class="j" points="29.44 209.9 20.2 223.38 34.34 216.99 29.44 209.9"/><polygon class="j" points="34.07 215.72 24.83 229.2 38.97 222.81 34.07 215.72"/><polygon class="j" points="38.7 221.54 29.45 235.02 43.6 228.64 38.7 221.54"/><polygon class="j" points="43.32 227.36 34.08 240.84 48.23 234.46 43.32 227.36"/><polygon class="j" points="48.38 234.15 36.78 245.66 51.87 242.04 48.38 234.15"/><polygon class="j" points="51.84 240.74 40.24 252.25 55.32 248.62 51.84 240.74"/><polygon class="j" points="55.29 247.32 43.69 258.83 58.78 255.21 55.29 247.32"/><polygon class="j" points="58.75 253.91 47.15 265.41 62.24 261.79 58.75 253.91"/><polygon class="j" points="62.4 260.45 50.8 271.95 65.89 268.33 62.4 260.45"/><polygon class="j" points="65.86 267.03 54.26 278.54 69.35 274.91 65.86 267.03"/><polygon class="j" points="69.32 273.61 57.72 285.12 72.81 281.5 69.32 273.61"/><polygon class="j" points="72.77 280.2 61.18 291.71 76.26 288.08 72.77 280.2"/><polygon class="j" points="76.43 286.74 64.83 298.25 79.91 294.62 76.43 286.74"/><polygon class="j" points="79.88 293.32 68.28 304.83 83.37 301.21 79.88 293.32"/><polygon class="j" points="83.34 299.91 71.74 311.42 86.83 307.79 83.34 299.91"/><polygon class="j" points="86.8 306.49 75.2 318 90.29 314.38 86.8 306.49"/><polygon class="j" points="90.45 313.03 78.85 324.54 93.94 320.92 90.45 313.03"/><polygon class="j" points="93.91 319.62 82.31 331.13 97.39 327.5 93.91 319.62"/><polygon class="j" points="97.36 326.2 85.76 337.71 100.85 334.09 97.36 326.2"/><polygon class="j" points="100.82 332.79 89.22 344.29 104.31 340.67 100.82 332.79"/><polygon class="j" points="104.91 339.37 94.24 351.75 109 346.96 104.91 339.37"/><polygon class="j" points="108.87 345.67 98.2 358.04 112.96 353.26 108.87 345.67"/><polygon class="j" points="112.83 351.96 102.16 364.34 116.92 359.55 112.83 351.96"/><polygon class="j" points="116.79 358.26 106.12 370.64 120.88 365.85 116.79 358.26"/><polygon class="j" points="120.53 364.17 111.34 377.68 125.46 371.24 120.53 364.17"/><polygon class="j" points="125.18 369.97 115.99 383.48 130.11 377.05 125.18 369.97"/><polygon class="j" points="129.83 375.78 120.64 389.28 134.76 382.85 129.83 375.78"/><polygon class="j" points="134.48 381.58 125.29 395.09 139.41 388.65 134.48 381.58"/><polygon class="j" points="139.38 385.94 131.81 400.42 145.09 392.4 139.38 385.94"/><polygon class="j" points="144.67 391.17 137.1 405.65 150.38 397.62 144.67 391.17"/><polygon class="j" points="149.96 396.4 142.38 410.87 155.67 402.85 149.96 396.4"/></g><polygon class="i" points="172.32 398.59 169.59 400.91 166.22 399.7 165.58 396.18 168.31 393.86 171.68 395.06 172.32 398.59"/><polygon class="i" points="181.09 393.33 178.36 395.65 174.98 394.44 174.34 390.92 177.07 388.6 180.44 389.81 181.09 393.33"/><polygon class="i" points="181.09 400.34 178.36 402.66 174.98 401.45 174.34 397.93 177.07 395.61 180.44 396.82 181.09 400.34"/><polygon class="i" points="188.1 398.59 185.37 400.91 181.99 399.7 181.35 396.18 184.08 393.86 187.46 395.06 188.1 398.59"/><polygon class="i" points="195.11 395.08 192.38 397.4 189.01 396.2 188.36 392.67 191.09 390.35 194.47 391.56 195.11 395.08"/><polygon class="i" points="188.1 389.82 185.37 392.14 181.99 390.94 181.35 387.41 184.08 385.09 187.46 386.3 188.1 389.82"/><polygon class="i" points="202.12 389.82 199.39 392.14 196.02 390.94 195.37 387.41 198.11 385.09 201.48 386.3 202.12 389.82"/><polygon class="i" points="189.85 381.06 187.12 383.38 183.75 382.17 183.1 378.65 185.83 376.33 189.21 377.53 189.85 381.06"/><polygon class="i" points="195.11 386.32 192.38 388.64 189.01 387.43 188.36 383.91 191.09 381.59 194.47 382.79 195.11 386.32"/><polygon class="i" points="200.37 382.81 197.64 385.13 194.26 383.92 193.62 380.4 196.35 378.08 199.73 379.29 200.37 382.81"/><polygon class="i" points="181.09 384.56 178.36 386.88 174.98 385.68 174.34 382.15 177.07 379.84 180.44 381.04 181.09 384.56"/><polygon class="i" points="174.07 381.06 171.34 383.38 167.97 382.17 167.33 378.65 170.06 376.33 173.43 377.53 174.07 381.06"/><polygon class="i" points="172.32 389.82 169.59 392.14 166.22 390.94 165.58 387.41 168.31 385.09 171.68 386.3 172.32 389.82"/><polygon class="i" points="163.56 395.08 160.83 397.4 157.45 396.2 156.81 392.67 159.54 390.35 162.91 391.56 163.56 395.08"/><polygon class="i" points="165.31 384.56 162.58 386.88 159.21 385.68 158.56 382.15 161.29 379.84 164.67 381.04 165.31 384.56"/><polygon class="i" points="156.55 389.82 153.82 392.14 150.44 390.94 149.8 387.41 152.53 385.09 155.9 386.3 156.55 389.82"/><polygon class="i" points="161.8 377.55 159.07 379.87 155.7 378.67 155.06 375.14 157.79 372.82 161.16 374.03 161.8 377.55"/><polygon class="i" points="170.57 372.29 167.84 374.61 164.47 373.41 163.82 369.88 166.55 367.57 169.93 368.77 170.57 372.29"/><polygon class="i" points="170.57 363.53 167.84 365.85 164.47 364.64 163.82 361.12 166.55 358.8 169.93 360.01 170.57 363.53"/><polygon class="i" points="163.56 360.02 160.83 362.34 157.45 361.14 156.81 357.61 159.54 355.29 162.91 356.5 163.56 360.02"/><polygon class="i" points="161.8 368.79 159.07 371.11 155.7 369.9 155.06 366.38 157.79 364.06 161.16 365.26 161.8 368.79"/><polygon class="i" points="153.04 374.05 150.31 376.37 146.94 375.16 146.29 371.64 149.02 369.32 152.4 370.52 153.04 374.05"/><polygon class="i" points="154.79 365.28 152.06 367.6 148.69 366.4 148.05 362.87 150.78 360.55 154.15 361.76 154.79 365.28"/><polygon class="i" points="154.79 356.52 152.06 358.84 148.69 357.63 148.05 354.11 150.78 351.79 154.15 352.99 154.79 356.52"/><polygon class="i" points="146.03 370.54 143.3 372.86 139.92 371.65 139.28 368.13 142.01 365.81 145.39 367.02 146.03 370.54"/><polygon class="i" points="146.03 363.53 143.3 365.85 139.92 364.64 139.28 361.12 142.01 358.8 145.39 360.01 146.03 363.53"/><polygon class="i" points="135.51 365.28 132.78 367.6 129.41 366.4 128.76 362.87 131.5 360.55 134.87 361.76 135.51 365.28"/><polygon class="i" points="193.36 370.54 190.63 372.86 187.25 371.65 186.61 368.13 189.34 365.81 192.71 367.02 193.36 370.54"/><polygon class="i" points="202.12 365.28 199.39 367.6 196.02 366.4 195.37 362.87 198.11 360.55 201.48 361.76 202.12 365.28"/><polygon class="i" points="200.37 374.05 197.64 376.37 194.26 375.16 193.62 371.64 196.35 369.32 199.73 370.52 200.37 374.05"/><polygon class="i" points="209.13 370.54 206.4 372.86 203.03 371.65 202.39 368.13 205.12 365.81 208.49 367.02 209.13 370.54"/><polygon class="i" points="209.13 381.06 206.4 383.38 203.03 382.17 202.39 378.65 205.12 376.33 208.49 377.53 209.13 381.06"/><polygon class="i" points="216.14 367.04 213.41 369.35 210.04 368.15 209.4 364.63 212.13 362.31 215.5 363.51 216.14 367.04"/><polygon class="i" points="216.14 375.8 213.41 378.12 210.04 376.91 209.4 373.39 212.13 371.07 215.5 372.28 216.14 375.8"/><polygon class="i" points="209.13 361.78 206.4 364.1 203.03 362.89 202.39 359.37 205.12 357.05 208.49 358.25 209.13 361.78"/><polygon class="i" points="223.16 361.78 220.43 364.1 217.05 362.89 216.41 359.37 219.14 357.05 222.51 358.25 223.16 361.78"/><polygon class="i" points="210.89 353.01 208.16 355.33 204.78 354.13 204.14 350.6 206.87 348.28 210.24 349.49 210.89 353.01"/><polygon class="i" points="214.39 346 211.66 348.32 208.29 347.11 207.64 343.59 210.38 341.27 213.75 342.48 214.39 346"/><polygon class="i" points="217.9 351.26 215.17 353.58 211.79 352.37 211.15 348.85 213.88 346.53 217.25 347.74 217.9 351.26"/><polygon class="i" points="216.14 358.27 213.41 360.59 210.04 359.38 209.4 355.86 212.13 353.54 215.5 354.75 216.14 358.27"/><polygon class="i" points="202.12 356.52 199.39 358.84 196.02 357.63 195.37 354.11 198.11 351.79 201.48 352.99 202.12 356.52"/><polygon class="i" points="195.11 353.01 192.38 355.33 189.01 354.13 188.36 350.6 191.09 348.28 194.47 349.49 195.11 353.01"/><polygon class="i" points="193.36 361.78 190.63 364.1 187.25 362.89 186.61 359.37 189.34 357.05 192.71 358.25 193.36 361.78"/><polygon class="i" points="184.59 367.04 181.86 369.35 178.49 368.15 177.85 364.63 180.58 362.31 183.95 363.51 184.59 367.04"/><polygon class="i" points="177.58 370.54 174.85 372.86 171.48 371.65 170.83 368.13 173.56 365.81 176.94 367.02 177.58 370.54"/><polygon class="i" points="182.84 375.8 180.11 378.12 176.74 376.91 176.09 373.39 178.82 371.07 182.2 372.28 182.84 375.8"/><polygon class="i" points="186.35 356.52 183.61 358.84 180.24 357.63 179.6 354.11 182.33 351.79 185.7 352.99 186.35 356.52"/><polygon class="i" points="177.58 361.78 174.85 364.1 171.48 362.89 170.83 359.37 173.56 357.05 176.94 358.25 177.58 361.78"/><polygon class="i" points="161.8 351.26 159.07 353.58 155.7 352.37 155.06 348.85 157.79 346.53 161.16 347.74 161.8 351.26"/><polygon class="i" points="170.57 346 167.84 348.32 164.47 347.11 163.82 343.59 166.55 341.27 169.93 342.48 170.57 346"/><polygon class="i" points="168.82 354.77 166.09 357.08 162.71 355.88 162.07 352.35 164.8 350.04 168.17 351.24 168.82 354.77"/><polygon class="i" points="177.58 351.26 174.85 353.58 171.48 352.37 170.83 348.85 173.56 346.53 176.94 347.74 177.58 351.26"/><polygon class="i" points="184.59 347.75 181.86 350.07 178.49 348.87 177.85 345.34 180.58 343.02 183.95 344.23 184.59 347.75"/><polygon class="i" points="177.58 342.5 174.85 344.81 171.48 343.61 170.83 340.08 173.56 337.77 176.94 338.97 177.58 342.5"/><polygon class="i" points="191.6 342.5 188.87 344.81 185.5 343.61 184.86 340.08 187.59 337.77 190.96 338.97 191.6 342.5"/><polygon class="i" points="198.62 346 195.88 348.32 192.51 347.11 191.87 343.59 194.6 341.27 197.97 342.48 198.62 346"/><polygon class="i" points="179.33 333.73 176.6 336.05 173.23 334.84 172.59 331.32 175.32 329 178.69 330.21 179.33 333.73"/><polygon class="i" points="184.59 338.99 181.86 341.31 178.49 340.1 177.85 336.58 180.58 334.26 183.95 335.47 184.59 338.99"/><polygon class="i" points="170.57 337.24 167.84 339.56 164.47 338.35 163.82 334.83 166.55 332.51 169.93 333.71 170.57 337.24"/><polygon class="i" points="163.56 333.73 160.83 336.05 157.45 334.84 156.81 331.32 159.54 329 162.91 330.21 163.56 333.73"/><polygon class="i" points="161.8 342.5 159.07 344.81 155.7 343.61 155.06 340.08 157.79 337.77 161.16 338.97 161.8 342.5"/><polygon class="i" points="153.04 347.75 150.31 350.07 146.94 348.87 146.29 345.34 149.02 343.02 152.4 344.23 153.04 347.75"/><polygon class="i" points="154.79 337.24 152.06 339.56 148.69 338.35 148.05 334.83 150.78 332.51 154.15 333.71 154.79 337.24"/><polygon class="i" points="146.03 342.5 143.3 344.81 139.92 343.61 139.28 340.08 142.01 337.77 145.39 338.97 146.03 342.5"/><polygon class="i" points="202.12 337.24 199.39 339.56 196.02 338.35 195.37 334.83 198.11 332.51 201.48 333.71 202.12 337.24"/><polygon class="i" points="210.89 331.98 208.16 334.3 204.78 333.09 204.14 329.57 206.87 327.25 210.24 328.45 210.89 331.98"/><polygon class="i" points="209.13 340.74 206.4 343.06 203.03 341.86 202.39 338.33 205.12 336.01 208.49 337.22 209.13 340.74"/><polygon class="i" points="217.9 337.24 215.17 339.56 211.79 338.35 211.15 334.83 213.88 332.51 217.25 333.71 217.9 337.24"/><polygon class="i" points="224.91 333.73 222.18 336.05 218.81 334.84 218.16 331.32 220.89 329 224.27 330.21 224.91 333.73"/><polygon class="i" points="217.9 328.47 215.17 330.79 211.79 329.59 211.15 326.06 213.88 323.74 217.25 324.95 217.9 328.47"/><polygon class="i" points="231.92 328.47 229.19 330.79 225.82 329.59 225.17 326.06 227.9 323.74 231.28 324.95 231.92 328.47"/><polygon class="i" points="217.9 321.46 215.17 323.78 211.79 322.57 211.15 319.05 213.88 316.73 217.25 317.94 217.9 321.46"/><polygon class="i" points="224.91 324.97 222.18 327.28 218.81 326.08 218.16 322.56 220.89 320.24 224.27 321.44 224.91 324.97"/><polygon class="i" points="226.79 351.88 225.3 355.13 221.73 355.47 219.66 352.54 221.16 349.29 224.72 348.96 226.79 351.88"/><polygon class="i" points="231.67 345.74 230.17 348.99 226.61 349.33 224.54 346.4 226.03 343.15 229.6 342.82 231.67 345.74"/><polygon class="i" points="223.09 343.93 221.6 347.19 218.03 347.52 215.96 344.6 217.46 341.34 221.02 341.01 223.09 343.93"/><polygon class="i" points="235.8 338.01 234.31 341.27 230.74 341.6 228.67 338.68 230.17 335.42 233.73 335.09 235.8 338.01"/><polygon class="i" points="227.97 337.79 226.47 341.05 222.91 341.38 220.83 338.46 222.33 335.2 225.9 334.87 227.97 337.79"/><polygon class="i" points="238.49 329.03 236.99 332.29 233.42 332.62 231.35 329.69 232.85 326.44 236.41 326.11 238.49 329.03"/><polygon class="i" points="210.89 323.21 208.16 325.53 204.78 324.33 204.14 320.8 206.87 318.48 210.24 319.69 210.89 323.21"/><polygon class="i" points="203.87 319.71 201.14 322.03 197.77 320.82 197.13 317.3 199.86 314.98 203.23 316.18 203.87 319.71"/><polygon class="i" points="202.12 328.47 199.39 330.79 196.02 329.59 195.37 326.06 198.11 323.74 201.48 324.95 202.12 328.47"/><polygon class="i" points="193.36 333.73 190.63 336.05 187.25 334.84 186.61 331.32 189.34 329 192.71 330.21 193.36 333.73"/><polygon class="i" points="195.11 323.21 192.38 325.53 189.01 324.33 188.36 320.8 191.09 318.48 194.47 319.69 195.11 323.21"/><polygon class="i" points="186.35 328.47 183.61 330.79 180.24 329.59 179.6 326.06 182.33 323.74 185.7 324.95 186.35 328.47"/><polygon class="i" points="165.31 323.21 162.58 325.53 159.21 324.33 158.56 320.8 161.29 318.48 164.67 319.69 165.31 323.21"/><polygon class="i" points="174.07 317.95 171.34 320.27 167.97 319.07 167.33 315.54 170.06 313.23 173.43 314.43 174.07 317.95"/><polygon class="i" points="172.32 326.72 169.59 329.04 166.22 327.83 165.58 324.31 168.31 321.99 171.68 323.2 172.32 326.72"/><polygon class="i" points="181.09 323.21 178.36 325.53 174.98 324.33 174.34 320.8 177.07 318.48 180.44 319.69 181.09 323.21"/><polygon class="i" points="188.1 319.71 185.37 322.03 181.99 320.82 181.35 317.3 184.08 314.98 187.46 316.18 188.1 319.71"/><polygon class="i" points="181.09 314.45 178.36 316.77 174.98 315.56 174.34 312.04 177.07 309.72 180.44 310.92 181.09 314.45"/><polygon class="i" points="195.11 314.45 192.38 316.77 189.01 315.56 188.36 312.04 191.09 309.72 194.47 310.92 195.11 314.45"/><polygon class="i" points="182.84 305.68 180.11 308 176.74 306.8 176.09 303.27 178.82 300.96 182.2 302.16 182.84 305.68"/><polygon class="i" points="188.1 310.94 185.37 313.26 181.99 312.06 181.35 308.53 184.08 306.21 187.46 307.42 188.1 310.94"/><polygon class="i" points="174.07 309.19 171.34 311.51 167.97 310.3 167.33 306.78 170.06 304.46 173.43 305.67 174.07 309.19"/><polygon class="i" points="167.06 305.68 164.33 308 160.96 306.8 160.32 303.27 163.05 300.96 166.42 302.16 167.06 305.68"/><polygon class="i" points="165.31 314.45 162.58 316.77 159.21 315.56 158.56 312.04 161.29 309.72 164.67 310.92 165.31 314.45"/><polygon class="i" points="156.55 319.71 153.82 322.03 150.44 320.82 149.8 317.3 152.53 314.98 155.9 316.18 156.55 319.71"/><polygon class="i" points="158.3 309.19 155.57 311.51 152.2 310.3 151.55 306.78 154.28 304.46 157.66 305.67 158.3 309.19"/><polygon class="i" points="149.53 314.45 146.8 316.77 143.43 315.56 142.79 312.04 145.52 309.72 148.89 310.92 149.53 314.45"/><polygon class="i" points="140.77 302.18 138.04 304.5 134.67 303.29 134.02 299.77 136.75 297.45 140.13 298.65 140.77 302.18"/><polygon class="i" points="149.53 296.92 146.8 299.24 143.43 298.03 142.79 294.51 145.52 292.19 148.89 293.4 149.53 296.92"/><polygon class="i" points="147.78 305.68 145.05 308 141.68 306.8 141.03 303.27 143.77 300.96 147.14 302.16 147.78 305.68"/><polygon class="i" points="156.55 302.18 153.82 304.5 150.44 303.29 149.8 299.77 152.53 297.45 155.9 298.65 156.55 302.18"/><polygon class="i" points="163.56 298.67 160.83 300.99 157.45 299.79 156.81 296.26 159.54 293.94 162.91 295.15 163.56 298.67"/><polygon class="i" points="156.55 293.41 153.82 295.73 150.44 294.53 149.8 291 152.53 288.68 155.9 289.89 156.55 293.41"/><polygon class="i" points="170.57 293.41 167.84 295.73 164.47 294.53 163.82 291 166.55 288.68 169.93 289.89 170.57 293.41"/><polygon class="i" points="172.32 286.4 169.59 288.72 166.22 287.52 165.58 283.99 168.31 281.67 171.68 282.88 172.32 286.4"/><polygon class="i" points="177.58 298.67 174.85 300.99 171.48 299.79 170.83 296.26 173.56 293.94 176.94 295.15 177.58 298.67"/><polygon class="i" points="158.3 284.65 155.57 286.97 152.2 285.76 151.55 282.24 154.28 279.92 157.66 281.13 158.3 284.65"/><polygon class="i" points="163.56 289.91 160.83 292.23 157.45 291.02 156.81 287.5 159.54 285.18 162.91 286.38 163.56 289.91"/><polygon class="i" points="149.53 288.16 146.8 290.47 143.43 289.27 142.79 285.74 145.52 283.43 148.89 284.63 149.53 288.16"/><polygon class="i" points="167.06 279.39 164.33 281.71 160.96 280.5 160.32 276.98 163.05 274.66 166.42 275.87 167.06 279.39"/><polygon class="i" points="140.77 293.41 138.04 295.73 134.67 294.53 134.02 291 136.75 288.68 140.13 289.89 140.77 293.41"/><polygon class="i" points="132.01 298.67 129.27 300.99 125.9 299.79 125.26 296.26 127.99 293.94 131.36 295.15 132.01 298.67"/><polygon class="i" points="133.76 288.16 131.03 290.47 127.65 289.27 127.01 285.74 129.74 283.43 133.12 284.63 133.76 288.16"/><polygon class="i" points="124.99 293.41 122.26 295.73 118.89 294.53 118.25 291 120.98 288.68 124.35 289.89 124.99 293.41"/><polygon class="i" points="116.23 289.91 113.5 292.23 110.13 291.02 109.48 287.5 112.21 285.18 115.59 286.38 116.23 289.91"/><polygon class="i" points="195.11 305.68 192.38 308 189.01 306.8 188.36 303.27 191.09 300.96 194.47 302.16 195.11 305.68"/><polygon class="i" points="205.63 295.17 202.9 297.49 199.52 296.28 198.88 292.76 201.61 290.44 204.98 291.64 205.63 295.17"/><polygon class="i" points="203.87 303.93 201.14 306.25 197.77 305.04 197.13 301.52 199.86 299.2 203.23 300.41 203.87 303.93"/><polygon class="i" points="203.87 310.94 201.14 313.26 197.77 312.06 197.13 308.53 199.86 306.21 203.23 307.42 203.87 310.94"/><polygon class="i" points="212.64 300.43 209.91 302.74 206.53 301.54 205.89 298.02 208.62 295.7 212 296.9 212.64 300.43"/><polygon class="i" points="206.61 309.7 204.06 307.18 204.96 303.72 208.41 302.77 210.97 305.28 210.06 308.75 206.61 309.7"/><polygon class="i" points="210.12 316.71 207.56 314.2 208.47 310.73 211.92 309.78 214.47 312.29 213.57 315.76 210.12 316.71"/><polygon class="i" points="219.65 305.68 216.92 308 213.55 306.8 212.9 303.27 215.63 300.96 219.01 302.16 219.65 305.68"/><polygon class="i" points="219.65 296.92 216.92 299.24 213.55 298.03 212.9 294.51 215.63 292.19 219.01 293.4 219.65 296.92"/><polygon class="i" points="212.64 291.66 209.91 293.98 206.53 292.77 205.89 289.25 208.62 286.93 212 288.14 212.64 291.66"/><polygon class="i" points="223.16 281.14 220.43 283.46 217.05 282.26 216.41 278.73 219.14 276.41 222.51 277.62 223.16 281.14"/><polygon class="i" points="214.39 282.9 211.66 285.22 208.29 284.01 207.64 280.49 210.38 278.17 213.75 279.37 214.39 282.9"/><polygon class="i" points="219.65 288.16 216.92 290.47 213.55 289.27 212.9 285.74 215.63 283.43 219.01 284.63 219.65 288.16"/><polygon class="i" points="205.63 286.4 202.9 288.72 199.52 287.52 198.88 283.99 201.61 281.67 204.98 282.88 205.63 286.4"/><polygon class="i" points="198.62 282.9 195.88 285.22 192.51 284.01 191.87 280.49 194.6 278.17 197.97 279.37 198.62 282.9"/><polygon class="i" points="196.86 291.66 194.13 293.98 190.76 292.77 190.12 289.25 192.85 286.93 196.22 288.14 196.86 291.66"/><polygon class="i" points="196.86 298.67 194.13 300.99 190.76 299.79 190.12 296.26 192.85 293.94 196.22 295.15 196.86 298.67"/><polygon class="i" points="188.1 296.92 185.37 299.24 181.99 298.03 181.35 294.51 184.08 292.19 187.46 293.4 188.1 296.92"/><polygon class="i" points="189.85 286.4 187.12 288.72 183.75 287.52 183.1 283.99 185.83 281.67 189.21 282.88 189.85 286.4"/><polygon class="i" points="181.09 291.66 178.36 293.98 174.98 292.77 174.34 289.25 177.07 286.93 180.44 288.14 181.09 291.66"/><polygon class="i" points="181.09 282.9 178.36 285.22 174.98 284.01 174.34 280.49 177.07 278.17 180.44 279.37 181.09 282.9"/><polygon class="i" points="189.85 277.64 187.12 279.96 183.75 278.75 183.1 275.23 185.83 272.91 189.21 274.11 189.85 277.64"/><polygon class="i" points="182.84 272.38 180.11 274.7 176.74 273.49 176.09 269.97 178.82 267.65 182.2 268.86 182.84 272.38"/><polygon class="i" points="174.07 277.64 171.34 279.96 167.97 278.75 167.33 275.23 170.06 272.91 173.43 274.11 174.07 277.64"/><polygon class="i" points="200.37 274.13 197.64 276.45 194.26 275.25 193.62 271.72 196.35 269.4 199.73 270.61 200.37 274.13"/><polygon class="i" points="209.13 268.87 206.4 271.19 203.03 269.99 202.39 266.46 205.12 264.14 208.49 265.35 209.13 268.87"/><polygon class="i" points="207.38 277.64 204.65 279.96 201.28 278.75 200.63 275.23 203.36 272.91 206.74 274.11 207.38 277.64"/><polygon class="i" points="216.14 274.13 213.41 276.45 210.04 275.25 209.4 271.72 212.13 269.4 215.5 270.61 216.14 274.13"/><polygon class="i" points="223.16 270.63 220.43 272.95 217.05 271.74 216.41 268.22 219.14 265.9 222.51 267.1 223.16 270.63"/><polygon class="i" points="216.14 265.37 213.41 267.69 210.04 266.48 209.4 262.96 212.13 260.64 215.5 261.84 216.14 265.37"/><polygon class="i" points="230.17 265.37 227.44 267.69 224.06 266.48 223.42 262.96 226.15 260.64 229.52 261.84 230.17 265.37"/><polygon class="i" points="235.43 270.63 232.7 272.95 229.32 271.74 228.68 268.22 231.41 265.9 234.78 267.1 235.43 270.63"/><polygon class="i" points="231.92 277.64 229.19 279.96 225.82 278.75 225.17 275.23 227.9 272.91 231.28 274.11 231.92 277.64"/><polygon class="i" points="217.9 256.6 215.17 258.92 211.79 257.72 211.15 254.19 213.88 251.87 217.25 253.08 217.9 256.6"/><polygon class="i" points="223.16 261.86 220.43 264.18 217.05 262.98 216.41 259.45 219.14 257.13 222.51 258.34 223.16 261.86"/><polygon class="i" points="209.13 260.11 206.4 262.43 203.03 261.22 202.39 257.7 205.12 255.38 208.49 256.59 209.13 260.11"/><polygon class="i" points="210.89 253.1 208.16 255.42 204.78 254.21 204.14 250.69 206.87 248.37 210.24 249.57 210.89 253.1"/><polygon class="i" points="202.12 256.6 199.39 258.92 196.02 257.72 195.37 254.19 198.11 251.87 201.48 253.08 202.12 256.6"/><polygon class="i" points="198.62 249.59 195.88 251.91 192.51 250.71 191.87 247.18 194.6 244.86 197.97 246.07 198.62 249.59"/><polygon class="i" points="200.37 265.37 197.64 267.69 194.26 266.48 193.62 262.96 196.35 260.64 199.73 261.84 200.37 265.37"/><polygon class="i" points="191.6 270.63 188.87 272.95 185.5 271.74 184.86 268.22 187.59 265.9 190.96 267.1 191.6 270.63"/><polygon class="i" points="193.36 260.11 190.63 262.43 187.25 261.22 186.61 257.7 189.34 255.38 192.71 256.59 193.36 260.11"/><polygon class="i" points="188.1 253.1 185.37 255.42 181.99 254.21 181.35 250.69 184.08 248.37 187.46 249.57 188.1 253.1"/><polygon class="i" points="184.59 265.37 181.86 267.69 178.49 266.48 177.85 262.96 180.58 260.64 183.95 261.84 184.59 265.37"/><polygon class="i" points="181.09 256.6 178.36 258.92 174.98 257.72 174.34 254.19 177.07 251.87 180.44 253.08 181.09 256.6"/><polygon class="i" points="170.57 253.1 167.84 255.42 164.47 254.21 163.82 250.69 166.55 248.37 169.93 249.57 170.57 253.1"/><polygon class="i" points="172.32 246.09 169.59 248.4 166.22 247.2 165.58 243.68 168.31 241.36 171.68 242.56 172.32 246.09"/><polygon class="i" points="144.28 272.38 141.55 274.7 138.17 273.49 137.53 269.97 140.26 267.65 143.63 268.86 144.28 272.38"/><polygon class="i" points="153.04 267.12 150.31 269.44 146.94 268.23 146.29 264.71 149.02 262.39 152.4 263.6 153.04 267.12"/><polygon class="i" points="151.29 275.89 148.56 278.2 145.18 277 144.54 273.47 147.27 271.16 150.64 272.36 151.29 275.89"/><polygon class="i" points="137.26 279.39 134.53 281.71 131.16 280.5 130.52 276.98 133.25 274.66 136.62 275.87 137.26 279.39"/><polygon class="i" points="146.03 281.14 143.3 283.46 139.92 282.26 139.28 278.73 142.01 276.41 145.39 277.62 146.03 281.14"/><polygon class="i" points="160.05 272.38 157.32 274.7 153.95 273.49 153.31 269.97 156.04 267.65 159.41 268.86 160.05 272.38"/><polygon class="i" points="167.06 268.87 164.33 271.19 160.96 269.99 160.32 266.46 163.05 264.14 166.42 265.35 167.06 268.87"/><polygon class="i" points="160.05 263.61 157.32 265.93 153.95 264.73 153.31 261.2 156.04 258.89 159.41 260.09 160.05 263.61"/><polygon class="i" points="172.23 265.65 168.66 265.35 167.13 262.11 169.17 259.17 172.74 259.47 174.27 262.71 172.23 265.65"/><polygon class="i" points="161.8 254.85 159.07 257.17 155.7 255.96 155.06 252.44 157.79 250.12 161.16 251.33 161.8 254.85"/><polygon class="i" points="167.06 260.11 164.33 262.43 160.96 261.22 160.32 257.7 163.05 255.38 166.42 256.59 167.06 260.11"/><polygon class="i" points="153.04 258.36 150.31 260.67 146.94 259.47 146.29 255.95 149.02 253.63 152.4 254.83 153.04 258.36"/><polygon class="i" points="146.03 254.85 143.3 257.17 139.92 255.96 139.28 252.44 142.01 250.12 145.39 251.33 146.03 254.85"/><polygon class="i" points="144.28 263.61 141.55 265.93 138.17 264.73 137.53 261.2 140.26 258.89 143.63 260.09 144.28 263.61"/><polygon class="i" points="135.51 268.87 132.78 271.19 129.41 269.99 128.76 266.46 131.5 264.14 134.87 265.35 135.51 268.87"/><polygon class="i" points="137.26 258.36 134.53 260.67 131.16 259.47 130.52 255.95 133.25 253.63 136.62 254.83 137.26 258.36"/><polygon class="i" points="128.5 263.61 125.77 265.93 122.4 264.73 121.75 261.2 124.48 258.89 127.86 260.09 128.5 263.61"/><polygon class="i" points="107.46 258.36 104.73 260.67 101.36 259.47 100.72 255.95 103.45 253.63 106.82 254.83 107.46 258.36"/><polygon class="i" points="116.23 253.1 113.5 255.42 110.13 254.21 109.48 250.69 112.21 248.37 115.59 249.57 116.23 253.1"/><polygon class="i" points="114.48 261.86 111.75 264.18 108.37 262.98 107.73 259.45 110.46 257.13 113.83 258.34 114.48 261.86"/><polygon class="i" points="123.24 258.36 120.51 260.67 117.14 259.47 116.49 255.95 119.22 253.63 122.6 254.83 123.24 258.36"/><polygon class="i" points="130.25 254.85 127.52 257.17 124.15 255.96 123.51 252.44 126.24 250.12 129.61 251.33 130.25 254.85"/><polygon class="i" points="123.24 249.59 120.51 251.91 117.14 250.71 116.49 247.18 119.22 244.86 122.6 246.07 123.24 249.59"/><polygon class="i" points="137.26 249.59 134.53 251.91 131.16 250.71 130.52 247.18 133.25 244.86 136.62 246.07 137.26 249.59"/><polygon class="i" points="124.99 240.83 122.26 243.15 118.89 241.94 118.25 238.42 120.98 236.1 124.35 237.3 124.99 240.83"/><polygon class="i" points="130.25 246.09 127.52 248.4 124.15 247.2 123.51 243.68 126.24 241.36 129.61 242.56 130.25 246.09"/><polygon class="i" points="116.23 244.33 113.5 246.65 110.13 245.45 109.48 241.92 112.21 239.6 115.59 240.81 116.23 244.33"/><polygon class="i" points="109.22 240.83 106.49 243.15 103.11 241.94 102.47 238.42 105.2 236.1 108.57 237.3 109.22 240.83"/><polygon class="i" points="107.46 249.59 104.73 251.91 101.36 250.71 100.72 247.18 103.45 244.86 106.82 246.07 107.46 249.59"/><polygon class="i" points="98.7 254.85 95.97 257.17 92.6 255.96 91.95 252.44 94.68 250.12 98.06 251.33 98.7 254.85"/><polygon class="i" points="100.45 244.33 97.72 246.65 94.35 245.45 93.71 241.92 96.44 239.6 99.81 240.81 100.45 244.33"/><polygon class="i" points="100.45 235.57 97.72 237.89 94.35 236.68 93.71 233.16 96.44 230.84 99.81 232.04 100.45 235.57"/><polygon class="i" points="91.69 249.59 88.96 251.91 85.59 250.71 84.94 247.18 87.67 244.86 91.05 246.07 91.69 249.59"/><polygon class="i" points="105.71 277.64 102.98 279.96 99.61 278.75 98.97 275.23 101.7 272.91 105.07 274.11 105.71 277.64"/><polygon class="i" points="114.48 272.38 111.75 274.7 108.37 273.49 107.73 269.97 110.46 267.65 113.83 268.86 114.48 272.38"/><polygon class="i" points="112.72 281.14 109.99 283.46 106.62 282.26 105.98 278.73 108.71 276.41 112.08 277.62 112.72 281.14"/><polygon class="i" points="121.49 277.64 118.76 279.96 115.38 278.75 114.74 275.23 117.47 272.91 120.85 274.11 121.49 277.64"/><polygon class="i" points="124.99 284.65 122.26 286.97 118.89 285.76 118.25 282.24 120.98 279.92 124.35 281.13 124.99 284.65"/><polygon class="i" points="130.25 275.89 127.52 278.2 124.15 277 123.51 273.47 126.24 271.16 129.61 272.36 130.25 275.89"/><polygon class="i" points="121.49 268.87 118.76 271.19 115.38 269.99 114.74 266.46 117.47 264.14 120.85 265.35 121.49 268.87"/><polygon class="i" points="105.71 268.87 102.98 271.19 99.61 269.99 98.97 266.46 101.7 264.14 105.07 265.35 105.71 268.87"/><polygon class="i" points="96.95 274.13 94.22 276.45 90.84 275.25 90.2 271.72 92.93 269.4 96.3 270.61 96.95 274.13"/><polygon class="i" points="98.7 265.37 95.97 267.69 92.6 266.48 91.95 262.96 94.68 260.64 98.06 261.84 98.7 265.37"/><polygon class="i" points="85.67 279.14 82.27 280.27 79.59 277.89 80.32 274.38 83.72 273.25 86.39 275.63 85.67 279.14"/><polygon class="i" points="90.86 285.01 87.46 286.14 84.78 283.76 85.51 280.26 88.91 279.13 91.58 281.51 90.86 285.01"/><polygon class="i" points="78.85 272.61 75.45 273.74 72.78 271.36 73.5 267.85 76.9 266.72 79.58 269.1 78.85 272.61"/><polygon class="i" points="108.46 294.92 105.06 296.05 102.38 293.67 103.1 290.16 106.5 289.03 109.18 291.41 108.46 294.92"/><polygon class="i" points="113.65 300.79 110.25 301.92 107.57 299.54 108.29 296.03 111.69 294.9 114.37 297.28 113.65 300.79"/><polygon class="i" points="122.41 302.54 119.01 303.67 116.34 301.29 117.06 297.78 120.46 296.65 123.14 299.03 122.41 302.54"/><polygon class="i" points="98.14 283.13 94.74 284.26 92.06 281.88 92.78 278.37 96.18 277.24 98.86 279.62 98.14 283.13"/><polygon class="i" points="105.15 286.63 101.75 287.76 99.07 285.38 99.79 281.87 103.19 280.75 105.87 283.12 105.15 286.63"/><polygon class="i" points="99.89 293.65 96.49 294.77 93.81 292.39 94.53 288.89 97.93 287.76 100.61 290.14 99.89 293.65"/><polygon class="i" points="101.83 301.35 98.65 303 95.63 301.06 95.79 297.49 98.98 295.84 101.99 297.77 101.83 301.35"/><polygon class="i" points="107.87 306.34 104.69 307.99 101.67 306.05 101.84 302.48 105.02 300.83 108.04 302.76 107.87 306.34"/><polygon class="i" points="94.07 295.96 90.89 297.61 87.88 295.68 88.04 292.1 91.22 290.45 94.24 292.39 94.07 295.96"/><polygon class="i" points="110.59 322.38 107.41 324.03 104.39 322.1 104.56 318.52 107.74 316.87 110.76 318.81 110.59 322.38"/><polygon class="i" points="116.64 327.38 113.45 329.02 110.44 327.09 110.6 323.51 113.79 321.86 116.8 323.8 116.64 327.38"/><polygon class="i" points="125.4 330.88 122.22 332.53 119.2 330.6 119.37 327.02 122.55 325.37 125.57 327.3 125.4 330.88"/><polygon class="i" points="113.13 334.39 109.95 336.03 106.93 334.1 107.1 330.52 110.28 328.88 113.3 330.81 113.13 334.39"/><polygon class="i" points="106.34 315.25 103.16 316.89 100.15 314.96 100.31 311.38 103.49 309.74 106.51 311.67 106.34 315.25"/><polygon class="i" points="101.09 309.99 97.9 311.63 94.89 309.7 95.05 306.12 98.23 304.48 101.25 306.41 101.09 309.99"/><polygon class="i" points="122.86 318.88 119.68 320.52 116.66 318.59 116.83 315.01 120.01 313.37 123.03 315.3 122.86 318.88"/><polygon class="i" points="128.91 323.87 125.72 325.52 122.71 323.58 122.87 320.01 126.06 318.36 129.07 320.29 128.91 323.87"/><polygon class="i" points="115.11 313.49 111.93 315.14 108.91 313.21 109.08 309.63 112.26 307.98 115.27 309.92 115.11 313.49"/><polygon class="i" points="131.63 313.62 128.44 315.27 125.43 313.33 125.59 309.76 128.77 308.11 131.79 310.04 131.63 313.62"/><polygon class="i" points="137.67 318.61 134.49 320.26 131.47 318.32 131.64 314.75 134.82 313.1 137.84 315.03 137.67 318.61"/><polygon class="i" points="141.18 311.6 138 313.25 134.98 311.31 135.14 307.73 138.33 306.09 141.34 308.02 141.18 311.6"/><polygon class="i" points="135.92 329.13 132.74 330.77 129.72 328.84 129.89 325.26 133.07 323.62 136.08 325.55 135.92 329.13"/><polygon class="i" points="141.18 336.14 138 337.79 134.98 335.85 135.14 332.28 138.33 330.63 141.34 332.56 141.18 336.14"/><polygon class="i" points="144.68 325.62 141.5 327.27 138.48 325.34 138.65 321.76 141.83 320.11 144.85 322.04 144.68 325.62"/><polygon class="i" points="148.19 334.39 145.01 336.03 141.99 334.1 142.16 330.52 145.34 328.88 148.35 330.81 148.19 334.39"/><polygon class="i" points="155.2 329.13 152.02 330.77 149 328.84 149.17 325.26 152.35 323.62 155.36 325.55 155.2 329.13"/><polygon class="i" points="123.87 308.23 120.69 309.88 117.68 307.95 117.84 304.37 121.02 302.72 124.04 304.66 123.87 308.23"/><polygon class="i" points="131.63 343.42 128.44 345.06 125.43 343.13 125.59 339.55 128.77 337.91 131.79 339.84 131.63 343.42"/><polygon class="i" points="137.67 348.41 134.49 350.06 131.47 348.12 131.64 344.55 134.82 342.9 137.84 344.83 137.67 348.41"/><polygon class="i" points="132.41 336.14 129.23 337.79 126.21 335.85 126.38 332.28 129.56 330.63 132.58 332.56 132.41 336.14"/><polygon class="i" points="123.87 338.03 120.69 339.68 117.68 337.75 117.84 334.17 121.02 332.52 124.04 334.46 123.87 338.03"/><polygon class="i" points="131.63 353.94 128.44 355.58 125.43 353.65 125.59 350.07 128.77 348.43 131.79 350.36 131.63 353.94"/><polygon class="i" points="137.67 358.93 134.49 360.57 131.47 358.64 131.64 355.06 134.82 353.42 137.84 355.35 137.67 358.93"/><polygon class="i" points="146.44 355.42 143.25 357.07 140.24 355.14 140.4 351.56 143.58 349.91 146.6 351.84 146.44 355.42"/><polygon class="i" points="123.87 348.55 120.69 350.2 117.68 348.27 117.84 344.69 121.02 343.04 124.04 344.97 123.87 348.55"/><polygon class="i" points="118.61 343.29 115.43 344.94 112.42 343.01 112.58 339.43 115.76 337.78 118.78 339.71 118.61 343.29"/><polygon class="i" points="143.52 380.81 140.12 381.94 137.44 379.56 138.16 376.05 141.56 374.92 144.24 377.3 143.52 380.81"/><polygon class="i" points="148.71 386.68 145.31 387.81 142.63 385.43 143.35 381.92 146.75 380.79 149.43 383.17 148.71 386.68"/><polygon class="i" points="138.45 374.28 135.05 375.41 132.38 373.03 133.1 369.52 136.5 368.39 139.17 370.77 138.45 374.28"/><polygon class="i" points="89.94 268.87 87.21 271.19 83.83 269.99 83.19 266.46 85.92 264.14 89.29 265.35 89.94 268.87"/><polygon class="i" points="77.67 251.34 74.94 253.66 71.56 252.46 70.92 248.93 73.65 246.62 77.02 247.82 77.67 251.34"/><polygon class="i" points="70.65 246.09 67.92 248.4 64.55 247.2 63.91 243.68 66.64 241.36 70.01 242.56 70.65 246.09"/><polygon class="i" points="77.67 261.86 74.94 264.18 71.56 262.98 70.92 259.45 73.65 257.13 77.02 258.34 77.67 261.86"/><polygon class="i" points="70.65 256.6 67.92 258.92 64.55 257.72 63.91 254.19 66.64 251.87 70.01 253.08 70.65 256.6"/><polygon class="i" points="91.69 261.86 88.96 264.18 85.59 262.98 84.94 259.45 87.67 257.13 91.05 258.34 91.69 261.86"/><polygon class="i" points="84.68 256.6 81.95 258.92 78.57 257.72 77.93 254.19 80.66 251.87 84.03 253.08 84.68 256.6"/><polygon class="i" points="74.16 239.07 71.43 241.39 68.06 240.19 67.41 236.66 70.14 234.35 73.52 235.55 74.16 239.07"/><polygon class="i" points="82.92 233.82 80.19 236.13 76.82 234.93 76.18 231.41 78.91 229.09 82.28 230.29 82.92 233.82"/><polygon class="i" points="81.17 242.58 78.44 244.9 75.07 243.69 74.42 240.17 77.16 237.85 80.53 239.06 81.17 242.58"/><polygon class="i" points="89.94 239.07 87.21 241.39 83.83 240.19 83.19 236.66 85.92 234.35 89.29 235.55 89.94 239.07"/><polygon class="i" points="89.94 230.31 87.21 232.63 83.83 231.42 83.19 227.9 85.92 225.58 89.29 226.79 89.94 230.31"/><polygon class="i" points="82.92 225.05 80.19 227.37 76.82 226.16 76.18 222.64 78.91 220.32 82.28 221.53 82.92 225.05"/><polygon class="i" points="75.91 221.55 73.18 223.86 69.81 222.66 69.17 219.13 71.9 216.82 75.27 218.02 75.91 221.55"/><polygon class="i" points="74.16 230.31 71.43 232.63 68.06 231.42 67.41 227.9 70.14 225.58 73.52 226.79 74.16 230.31"/><polygon class="i" points="65.4 235.57 62.66 237.89 59.29 236.68 58.65 233.16 61.38 230.84 64.75 232.04 65.4 235.57"/><polygon class="i" points="67.15 225.05 64.42 227.37 61.04 226.16 60.4 222.64 63.13 220.32 66.51 221.53 67.15 225.05"/><polygon class="i" points="93.44 211.03 90.71 213.35 87.34 212.14 86.7 208.62 89.43 206.3 92.8 207.5 93.44 211.03"/><polygon class="i" points="91.69 202.26 88.96 204.58 85.59 203.38 84.94 199.85 87.67 197.53 91.05 198.74 91.69 202.26"/><polygon class="i" points="82.92 202.26 80.19 204.58 76.82 203.38 76.18 199.85 78.91 197.53 82.28 198.74 82.92 202.26"/><polygon class="i" points="84.68 214.53 81.95 216.85 78.57 215.65 77.93 212.12 80.66 209.8 84.03 211.01 84.68 214.53"/><polygon class="i" points="77.67 209.28 74.94 211.59 71.56 210.39 70.92 206.86 73.65 204.55 77.02 205.75 77.67 209.28"/><polygon class="i" points="68.9 212.78 66.17 215.1 62.8 213.89 62.15 210.37 64.89 208.05 68.26 209.26 68.9 212.78"/><polygon class="i" points="63.64 205.77 60.91 208.09 57.54 206.88 56.9 203.36 59.63 201.04 63 202.25 63.64 205.77"/><polygon class="i" points="54.88 209.28 52.15 211.59 48.77 210.39 48.13 206.86 50.86 204.55 54.24 205.75 54.88 209.28"/><polygon class="i" points="61.89 218.04 59.16 220.36 55.79 219.15 55.14 215.63 57.87 213.31 61.25 214.52 61.89 218.04"/><polygon class="i" points="53.13 221.55 50.39 223.86 47.02 222.66 46.38 219.13 49.11 216.82 52.48 218.02 53.13 221.55"/><polygon class="i" points="49.62 202.26 46.89 204.58 43.52 203.38 42.87 199.85 45.6 197.53 48.98 198.74 49.62 202.26"/><polygon class="i" points="40.85 205.77 38.12 208.09 34.75 206.88 34.11 203.36 36.84 201.04 40.21 202.25 40.85 205.77"/><polygon class="i" points="46.11 212.78 43.38 215.1 40.01 213.89 39.37 210.37 42.1 208.05 45.47 209.26 46.11 212.78"/><polygon class="i" points="61.89 242.58 59.16 244.9 55.79 243.69 55.14 240.17 57.87 237.85 61.25 239.06 61.89 242.58"/><polygon class="i" points="32.09 197 29.36 199.32 25.99 198.12 25.34 194.59 28.07 192.28 31.45 193.48 32.09 197"/><polygon class="i" points="33.84 204.02 31.11 206.34 27.74 205.13 27.1 201.61 29.83 199.29 33.2 200.49 33.84 204.02"/><polygon class="i" points="18.07 186.49 15.34 188.81 11.96 187.6 11.32 184.08 14.05 181.76 17.42 182.96 18.07 186.49"/><polygon class="i" points="25.08 193.5 22.35 195.82 18.98 194.61 18.33 191.09 21.06 188.77 24.44 189.98 25.08 193.5"/><polygon class="i" points="32.09 189.99 29.36 192.31 25.99 191.11 25.34 187.58 28.07 185.26 31.45 186.47 32.09 189.99"/><polygon class="i" points="58.38 230.31 55.65 232.63 52.28 231.42 51.64 227.9 54.37 225.58 57.74 226.79 58.38 230.31"/><polygon class="i" points="107.46 230.31 104.73 232.63 101.36 231.42 100.72 227.9 103.45 225.58 106.82 226.79 107.46 230.31"/><polygon class="i" points="116.23 225.05 113.5 227.37 110.13 226.16 109.48 222.64 112.21 220.32 115.59 221.53 116.23 225.05"/><polygon class="i" points="114.48 233.82 111.75 236.13 108.37 234.93 107.73 231.41 110.46 229.09 113.83 230.29 114.48 233.82"/><polygon class="i" points="123.24 230.31 120.51 232.63 117.14 231.42 116.49 227.9 119.22 225.58 122.6 226.79 123.24 230.31"/><polygon class="i" points="123.24 221.55 120.51 223.86 117.14 222.66 116.49 219.13 119.22 216.82 122.6 218.02 123.24 221.55"/><polygon class="i" points="116.23 216.29 113.5 218.61 110.13 217.4 109.48 213.88 112.21 211.56 115.59 212.76 116.23 216.29"/><polygon class="i" points="109.22 212.78 106.49 215.1 103.11 213.89 102.47 210.37 105.2 208.05 108.57 209.26 109.22 212.78"/><polygon class="i" points="107.46 221.55 104.73 223.86 101.36 222.66 100.72 219.13 103.45 216.82 106.82 218.02 107.46 221.55"/><polygon class="i" points="98.7 226.8 95.97 229.12 92.6 227.92 91.95 224.39 94.68 222.07 98.06 223.28 98.7 226.8"/><polygon class="i" points="100.45 216.29 97.72 218.61 94.35 217.4 93.71 213.88 96.44 211.56 99.81 212.76 100.45 216.29"/><polygon class="i" points="91.69 221.55 88.96 223.86 85.59 222.66 84.94 219.13 87.67 216.82 91.05 218.02 91.69 221.55"/><polygon class="i" points="64.46 161.99 61.66 159.76 62.18 156.22 65.51 154.9 68.32 157.13 67.79 160.67 64.46 161.99"/><polygon class="i" points="67.54 177.46 64.73 175.24 65.26 171.69 68.59 170.38 71.39 172.6 70.87 176.14 67.54 177.46"/><polygon class="i" points="60.53 184.47 57.72 182.25 58.24 178.71 61.58 177.39 64.38 179.61 63.86 183.16 60.53 184.47"/><polygon class="i" points="57.02 177.46 54.21 175.24 54.74 171.69 58.07 170.38 60.88 172.6 60.35 176.14 57.02 177.46"/><polygon class="i" points="71.04 186.23 68.24 184 68.76 180.46 72.09 179.14 74.9 181.37 74.38 184.91 71.04 186.23"/><polygon class="i" points="76.14 175.75 73.33 173.53 73.85 169.98 77.18 168.67 79.99 170.89 79.47 174.44 76.14 175.75"/><polygon class="i" points="85.07 175.76 82.27 173.54 82.79 169.99 86.12 168.68 88.93 170.9 88.4 174.45 85.07 175.76"/><polygon class="i" points="79.81 182.77 77.01 180.55 77.53 177.01 80.86 175.69 83.67 177.91 83.15 181.46 79.81 182.77"/><polygon class="i" points="86.83 188.03 84.02 185.81 84.54 182.26 87.87 180.95 90.68 183.17 90.16 186.72 86.83 188.03"/><polygon class="i" points="82 160.29 79.19 158.06 79.71 154.52 83.04 153.2 85.85 155.43 85.33 158.97 82 160.29"/><polygon class="i" points="73.06 160.28 70.25 158.05 70.78 154.51 74.11 153.19 76.91 155.42 76.39 158.96 73.06 160.28"/><polygon class="i" points="66.19 152.71 63.38 150.48 63.91 146.94 67.24 145.62 70.05 147.85 69.52 151.39 66.19 152.71"/><polygon class="i" points="62.68 143.95 59.88 141.72 60.4 138.18 63.73 136.86 66.54 139.08 66.02 142.63 62.68 143.95"/><polygon class="i" points="76.85 152.38 74.04 150.15 74.57 146.61 77.9 145.29 80.7 147.52 80.18 151.06 76.85 152.38"/><polygon class="i" points="85.44 150.67 82.64 148.44 83.16 144.9 86.49 143.58 89.3 145.81 88.77 149.35 85.44 150.67"/><polygon class="i" points="71.73 144.81 68.93 142.58 69.45 139.04 72.78 137.72 75.59 139.95 75.06 143.49 71.73 144.81"/><polygon class="i" points="75.12 134.33 72.32 132.1 72.84 128.56 76.17 127.24 78.98 129.47 78.45 133.01 75.12 134.33"/><polygon class="i" points="69.87 120.3 67.06 118.08 67.58 114.54 70.91 113.22 73.72 115.44 73.2 118.99 69.87 120.3"/><polygon class="i" points="76.88 125.56 74.07 123.34 74.59 119.79 77.93 118.48 80.73 120.7 80.21 124.25 76.88 125.56"/><polygon class="i" points="83.74 133.13 80.94 130.91 81.46 127.36 84.79 126.05 87.6 128.27 87.08 131.82 83.74 133.13"/><polygon class="i" points="101.27 119.11 98.47 116.89 98.99 113.34 102.32 112.02 105.13 114.25 104.6 117.79 101.27 119.11"/><polygon class="i" points="67.79 136.63 64.99 134.4 65.51 130.86 68.84 129.54 71.65 131.77 71.13 135.31 67.79 136.63"/><polygon class="i" points="79.95 141.04 77.15 138.81 77.67 135.27 81 133.95 83.81 136.18 83.29 139.72 79.95 141.04"/><polygon class="i" points="88.55 139.33 85.74 137.1 86.27 133.56 89.6 132.24 92.41 134.47 91.88 138.01 88.55 139.33"/><polygon class="i" points="92.34 131.42 89.53 129.2 90.06 125.66 93.39 124.34 96.2 126.56 95.67 130.11 92.34 131.42"/><polygon class="i" points="94.41 123.86 91.6 121.64 92.13 118.09 95.46 116.78 98.27 119 97.74 122.55 94.41 123.86"/><polygon class="i" points="81.97 120.35 79.16 118.12 79.68 114.58 83.02 113.26 85.82 115.49 85.3 119.03 81.97 120.35"/><polygon class="i" points="75.1 112.78 72.29 110.55 72.82 107.01 76.15 105.69 78.96 107.92 78.43 111.46 75.1 112.78"/><polygon class="i" points="89.26 115.95 86.46 113.73 86.98 110.18 90.31 108.86 93.12 111.09 92.59 114.63 89.26 115.95"/><polygon class="i" points="96.27 110.69 93.47 108.47 93.99 104.92 97.32 103.61 100.13 105.83 99.61 109.37 96.27 110.69"/><polygon class="i" points="106.53 98.08 103.73 95.85 104.25 92.31 107.58 90.99 110.39 93.21 109.86 96.76 106.53 98.08"/><polygon class="i" points="103.18 106.33 100.37 104.11 100.89 100.57 104.22 99.25 107.03 101.47 106.51 105.02 103.18 106.33"/><polygon class="i" points="90.73 102.82 87.93 100.59 88.45 97.05 91.78 95.73 94.59 97.96 94.06 101.5 90.73 102.82"/><polygon class="i" points="98.03 98.42 95.22 96.2 95.75 92.65 99.08 91.34 101.88 93.56 101.36 97.1 98.03 98.42"/><polygon class="i" points="117.31 98.42 114.5 96.2 115.03 92.65 118.36 91.34 121.16 93.56 120.64 97.1 117.31 98.42"/><polygon class="i" points="127.57 85.81 124.76 83.58 125.28 80.04 128.61 78.72 131.42 80.94 130.9 84.49 127.57 85.81"/><polygon class="i" points="124.21 94.06 121.4 91.84 121.93 88.3 125.26 86.98 128.07 89.2 127.54 92.75 124.21 94.06"/><polygon class="i" points="111.77 90.55 108.96 88.32 109.48 84.78 112.81 83.46 115.62 85.69 115.1 89.23 111.77 90.55"/><polygon class="i" points="119.06 86.15 116.26 83.93 116.78 80.38 120.11 79.07 122.92 81.29 122.39 84.83 119.06 86.15"/><polygon class="i" points="115.56 119.46 112.75 117.23 113.27 113.69 116.6 112.37 119.41 114.6 118.89 118.14 115.56 119.46"/><polygon class="i" points="125.81 106.84 123.01 104.61 123.53 101.07 126.86 99.75 129.67 101.98 129.14 105.52 125.81 106.84"/><polygon class="i" points="122.46 115.1 119.65 112.87 120.17 109.33 123.51 108.01 126.31 110.24 125.79 113.78 122.46 115.1"/><polygon class="i" points="110.01 111.58 107.21 109.36 107.73 105.81 111.06 104.5 113.87 106.72 113.34 110.27 110.01 111.58"/><polygon class="i" points="117.31 107.19 114.5 104.96 115.03 101.42 118.36 100.1 121.16 102.33 120.64 105.87 117.31 107.19"/><polygon class="i" points="82.4 108.38 79.59 106.16 80.11 102.61 83.44 101.29 86.25 103.52 85.73 107.06 82.4 108.38"/><polygon class="i" points="91.97 156.52 89.16 154.29 89.69 150.75 93.02 149.43 95.82 151.66 95.3 155.2 91.97 156.52"/><polygon class="i" points="27.65 161.99 24.84 159.76 25.37 156.22 28.7 154.9 31.51 157.13 30.98 160.67 27.65 161.99"/><polygon class="i" points="20.64 170.75 17.83 168.53 18.36 164.99 21.69 163.67 24.49 165.89 23.97 169.44 20.64 170.75"/><polygon class="i" points="22.39 154.98 19.59 152.75 20.11 149.21 23.44 147.89 26.25 150.12 25.72 153.66 22.39 154.98"/><polygon class="i" points="17.13 163.74 14.33 161.52 14.85 157.97 18.18 156.66 20.99 158.88 20.46 162.42 17.13 163.74"/><polygon class="i" points="11.88 174.26 9.07 172.03 9.59 168.49 12.92 167.17 15.73 169.4 15.21 172.94 11.88 174.26"/><polygon class="i" points="31.01 169.56 28.21 167.33 28.73 163.79 32.06 162.47 34.87 164.7 34.34 168.24 31.01 169.56"/><polygon class="i" points="32.48 186.23 29.67 184 30.2 180.46 33.53 179.14 36.34 181.37 35.81 184.91 32.48 186.23"/><polygon class="i" points="25.47 184.47 22.66 182.25 23.19 178.71 26.52 177.39 29.32 179.61 28.8 183.16 25.47 184.47"/><polygon class="i" points="53.52 191.49 50.71 189.26 51.23 185.72 54.56 184.4 57.37 186.62 56.85 190.17 53.52 191.49"/><polygon class="i" points="44.75 189.73 41.94 187.51 42.47 183.96 45.8 182.65 48.61 184.87 48.08 188.42 44.75 189.73"/><polygon class="i" points="51.76 184.47 48.96 182.25 49.48 178.71 52.81 177.39 55.62 179.61 55.09 183.16 51.76 184.47"/><polygon class="i" points="43 182.72 40.19 180.5 40.72 176.95 44.05 175.63 46.85 177.86 46.33 181.4 43 182.72"/><polygon class="i" points="74.55 193.24 71.74 191.01 72.27 187.47 75.6 186.15 78.41 188.38 77.88 191.92 74.55 193.24"/><polygon class="i" points="64.03 191.49 61.23 189.26 61.75 185.72 65.08 184.4 67.89 186.62 67.36 190.17 64.03 191.49"/><polygon class="i" points="71.04 203.76 68.24 201.53 68.76 197.99 72.09 196.67 74.9 198.89 74.38 202.44 71.04 203.76"/><polygon class="i" points="62.28 200.25 59.47 198.02 60 194.48 63.33 193.16 66.14 195.39 65.61 198.93 62.28 200.25"/><polygon class="i" points="50.79 195.2 53.72 193.14 56.97 194.65 57.29 198.22 54.36 200.27 51.11 198.77 50.79 195.2"/><polygon class="i" points="43.78 191.69 46.71 189.63 49.96 191.14 50.28 194.71 47.35 196.77 44.1 195.26 43.78 191.69"/><polygon class="i" points="35.02 195.2 37.95 193.14 41.19 194.65 41.51 198.22 38.58 200.27 35.33 198.77 35.02 195.2"/><polygon class="i" points="35.02 186.43 37.95 184.37 41.19 185.88 41.51 189.45 38.58 191.51 35.33 190 35.02 186.43"/><polygon class="i" points="93.83 198.5 91.03 196.27 91.55 192.73 94.88 191.41 97.69 193.64 97.16 197.18 93.83 198.5"/><polygon class="i" points="83.32 196.74 80.51 194.52 81.03 190.98 84.36 189.66 87.17 191.88 86.65 195.43 83.32 196.74"/><polygon class="i" points="116.03 196.75 112.66 195.54 112.03 192.02 114.76 189.7 118.13 190.92 118.77 194.44 116.03 196.75"/><polygon class="i" points="105.5 198.45 102.13 197.24 101.5 193.71 104.23 191.4 107.6 192.61 108.24 196.14 105.5 198.45"/><polygon class="i" points="39.61 166.1 36.8 163.87 37.33 160.33 40.66 159.01 43.46 161.24 42.94 164.78 39.61 166.1"/><polygon class="i" points="45.19 160.29 42.38 158.06 42.9 154.52 46.23 153.2 49.04 155.43 48.52 158.97 45.19 160.29"/><polygon class="i" points="32.74 156.77 29.93 154.55 30.46 151.01 33.79 149.69 36.6 151.91 36.07 155.46 32.74 156.77"/><polygon class="i" points="29.38 149.2 26.57 146.98 27.1 143.43 30.43 142.12 33.23 144.34 32.71 147.89 29.38 149.2"/><polygon class="i" points="34.64 142.19 31.83 139.97 32.36 136.42 35.69 135.11 38.49 137.33 37.97 140.87 34.64 142.19"/><polygon class="i" points="41.65 143.95 38.84 141.72 39.37 138.18 42.7 136.86 45.51 139.08 44.98 142.63 41.65 143.95"/><polygon class="i" points="50.41 142.19 47.61 139.97 48.13 136.42 51.46 135.11 54.27 137.33 53.75 140.87 50.41 142.19"/><polygon class="i" points="45.16 135.18 42.35 132.96 42.87 129.41 46.2 128.09 49.01 130.32 48.49 133.86 45.16 135.18"/><polygon class="i" points="52.17 129.92 49.36 127.7 49.89 124.15 53.22 122.84 56.02 125.06 55.5 128.6 52.17 129.92"/><polygon class="i" points="59.18 136.93 56.37 134.71 56.9 131.16 60.23 129.85 63.03 132.07 62.51 135.62 59.18 136.93"/><polygon class="i" points="59.18 122.91 56.37 120.68 56.9 117.14 60.23 115.82 63.03 118.05 62.51 121.59 59.18 122.91"/><polygon class="i" points="64.44 129.92 61.63 127.7 62.16 124.15 65.49 122.84 68.29 125.06 67.77 128.6 64.44 129.92"/><polygon class="i" points="40.04 152.38 37.23 150.15 37.75 146.61 41.09 145.29 43.89 147.52 43.37 151.06 40.04 152.38"/><polygon class="i" points="48.63 150.67 45.83 148.44 46.35 144.9 49.68 143.58 52.49 145.81 51.96 149.35 48.63 150.67"/><polygon class="i" points="53.09 160.57 50.28 158.35 50.81 154.8 54.14 153.49 56.94 155.71 56.42 159.26 53.09 160.57"/><polygon class="i" points="58.35 155.32 55.54 153.09 56.06 149.55 59.39 148.23 62.2 150.45 61.68 154 58.35 155.32"/><polygon class="i" points="56.59 148.3 53.79 146.08 54.31 142.53 57.64 141.22 60.45 143.44 59.92 146.99 56.59 148.3"/><polygon class="i" points="105.68 160.63 102.87 158.4 103.4 154.86 106.73 153.54 109.53 155.77 109.01 159.31 105.68 160.63"/><polygon class="i" points="100.57 154.81 97.76 152.58 98.28 149.04 101.61 147.72 104.42 149.95 103.9 153.49 100.57 154.81"/><polygon class="i" points="93.7 147.24 90.89 145.01 91.42 141.47 94.75 140.15 97.55 142.38 97.03 145.92 93.7 147.24"/><polygon class="i" points="104.36 146.91 101.55 144.68 102.07 141.14 105.4 139.82 108.21 142.05 107.69 145.59 104.36 146.91"/><polygon class="i" points="97.49 139.34 94.68 137.11 95.21 133.57 98.54 132.25 101.34 134.48 100.82 138.02 97.49 139.34"/><polygon class="i" points="107.86 139.9 105.05 137.67 105.58 134.13 108.91 132.81 111.72 135.03 111.19 138.58 107.86 139.9"/><polygon class="i" points="100.99 132.33 98.19 130.1 98.71 126.56 102.04 125.24 104.85 127.46 104.33 131.01 100.99 132.33"/><polygon class="i" points="113.12 132.88 110.31 130.66 110.84 127.11 114.17 125.8 116.98 128.02 116.45 131.57 113.12 132.88"/><polygon class="i" points="106.25 125.31 103.45 123.09 103.97 119.54 107.3 118.23 110.11 120.45 109.58 124 106.25 125.31"/><polygon class="i" points="121.61 179.4 118.3 178.03 117.82 174.48 120.66 172.3 123.97 173.66 124.45 177.21 121.61 179.4"/><polygon class="i" points="130.3 184.77 126.99 183.41 126.51 179.86 129.35 177.67 132.66 179.03 133.14 182.58 130.3 184.77"/><polygon class="i" points="98.75 174.25 95.44 172.89 94.96 169.34 97.8 167.15 101.11 168.52 101.59 172.07 98.75 174.25"/><polygon class="i" points="127.09 196.92 123.78 195.56 123.3 192.01 126.14 189.82 129.45 191.18 129.93 194.73 127.09 196.92"/><polygon class="i" points="123.59 189.91 120.27 188.55 119.8 185 122.63 182.81 125.95 184.17 126.42 187.72 123.59 189.91"/><polygon class="i" points="136.63 194.65 133.32 193.29 132.84 189.74 135.68 187.55 138.99 188.91 139.47 192.46 136.63 194.65"/><polygon class="i" points="140.14 187.64 136.83 186.28 136.35 182.73 139.19 180.54 142.5 181.9 142.98 185.45 140.14 187.64"/><polygon class="i" points="146.98 192.19 143.67 190.83 143.19 187.28 146.03 185.09 149.34 186.45 149.81 190 146.98 192.19"/><polygon class="i" points="138.09 180.75 134.78 179.39 134.3 175.84 137.14 173.65 140.45 175.01 140.93 178.56 138.09 180.75"/><polygon class="i" points="114.6 186.41 111.28 185.04 110.81 181.49 113.64 179.31 116.96 180.67 117.43 184.22 114.6 186.41"/><polygon class="i" points="113.69 177.01 110.38 175.65 109.9 172.1 112.74 169.91 116.05 171.27 116.53 174.82 113.69 177.01"/><polygon class="i" points="105.83 189.91 102.52 188.55 102.04 185 104.88 182.81 108.19 184.18 108.67 187.73 105.83 189.91"/><polygon class="i" points="104.93 180.52 101.61 179.15 101.14 175.6 103.97 173.42 107.29 174.78 107.76 178.33 104.93 180.52"/><polygon class="i" points="95.32 189.91 92 188.55 91.53 185 94.36 182.81 97.68 184.18 98.15 187.73 95.32 189.91"/><polygon class="i" points="94.41 180.52 91.1 179.15 90.62 175.6 93.46 173.42 96.77 174.78 97.25 178.33 94.41 180.52"/><polygon class="i" points="130.85 164.98 127.54 163.62 127.06 160.07 129.9 157.88 133.21 159.24 133.69 162.79 130.85 164.98"/><polygon class="i" points="138.64 162.71 135.33 161.35 134.85 157.8 137.69 155.61 141 156.97 141.48 160.52 138.64 162.71"/><polygon class="i" points="122.16 161.36 118.85 159.99 118.37 156.44 121.21 154.26 124.52 155.62 125 159.17 122.16 161.36"/><polygon class="i" points="123.47 144.46 120.15 143.1 119.68 139.55 122.51 137.36 125.83 138.72 126.3 142.27 123.47 144.46"/><polygon class="i" points="118.21 139.2 114.89 137.84 114.42 134.29 117.25 132.1 120.57 133.47 121.04 137.02 118.21 139.2"/><polygon class="i" points="132.16 146.33 128.85 144.97 128.37 141.42 131.21 139.23 134.52 140.59 134.99 144.14 132.16 146.33"/><polygon class="i" points="121.81 152.3 118.5 150.94 118.02 147.39 120.86 145.2 124.17 146.56 124.65 150.11 121.81 152.3"/><polygon class="i" points="114.8 148.8 111.49 147.43 111.01 143.88 113.85 141.69 117.16 143.06 117.64 146.61 114.8 148.8"/><polygon class="i" points="114.8 157.56 111.49 156.2 111.01 152.65 113.85 150.46 117.16 151.82 117.64 155.37 114.8 157.56"/><polygon class="i" points="130.7 154.97 127.39 153.61 126.91 150.06 129.75 147.87 133.06 149.24 133.54 152.79 130.7 154.97"/><polygon class="i" points="138.49 150.95 135.18 149.59 134.7 146.04 137.54 143.85 140.85 145.22 141.33 148.77 138.49 150.95"/><polygon class="i" points="139.95 142.31 136.63 140.95 136.16 137.4 138.99 135.21 142.31 136.57 142.78 140.12 139.95 142.31"/><polygon class="i" points="139.85 134.47 136.53 133.11 136.06 129.56 138.89 127.37 142.21 128.74 142.68 132.29 139.85 134.47"/><polygon class="i" points="139.85 125.71 136.53 124.35 136.06 120.8 138.89 118.61 142.21 119.97 142.68 123.52 139.85 125.71"/><polygon class="i" points="150.36 139.73 147.05 138.37 146.57 134.82 149.41 132.63 152.72 133.99 153.2 137.54 150.36 139.73"/><polygon class="i" points="146.96 131.79 143.64 130.43 143.17 126.88 146.01 124.69 149.32 126.06 149.79 129.61 146.96 131.79"/><polygon class="i" points="141.6 116.94 138.29 115.58 137.81 112.03 140.65 109.84 143.96 111.21 144.43 114.76 141.6 116.94"/><polygon class="i" points="132.93 119.52 129.62 118.16 129.15 114.61 131.98 112.42 135.29 113.79 135.77 117.34 132.93 119.52"/><polygon class="i" points="132.83 111.69 129.52 110.32 129.04 106.77 131.88 104.59 135.19 105.95 135.67 109.5 132.83 111.69"/><polygon class="i" points="141.7 109.01 138.39 107.64 137.91 104.09 140.75 101.91 144.06 103.27 144.54 106.82 141.7 109.01"/><polygon class="i" points="141.6 101.17 138.29 99.81 137.81 96.26 140.65 94.07 143.96 95.43 144.43 98.98 141.6 101.17"/><polygon class="i" points="132.83 99.42 129.52 98.05 129.04 94.5 131.88 92.32 135.19 93.68 135.67 97.23 132.83 99.42"/><polygon class="i" points="143.45 93.23 140.14 91.87 139.66 88.32 142.5 86.13 145.81 87.49 146.29 91.04 143.45 93.23"/><polygon class="i" points="134.69 91.48 131.37 90.12 130.9 86.57 133.73 84.38 137.05 85.74 137.52 89.29 134.69 91.48"/><polygon class="i" points="145.1 85.39 141.79 84.03 141.31 80.48 144.15 78.29 147.46 79.65 147.94 83.2 145.1 85.39"/><polygon class="i" points="129.32 77.04 126.51 74.82 127.04 71.27 130.37 69.95 133.17 72.18 132.65 75.72 129.32 77.04"/><polygon class="i" points="136.44 82.71 133.13 81.35 132.65 77.8 135.49 75.61 138.8 76.98 139.28 80.53 136.44 82.71"/><polygon class="i" points="148.61 78.38 145.3 77.02 144.82 73.47 147.66 71.28 150.97 72.64 151.45 76.19 148.61 78.38"/><polygon class="i" points="139.85 74.88 136.53 73.51 136.06 69.96 138.89 67.77 142.21 69.14 142.68 72.69 139.85 74.88"/><polygon class="i" points="145.1 67.86 141.79 66.5 141.31 62.95 144.15 60.76 147.46 62.13 147.94 65.68 145.1 67.86"/><polygon class="i" points="153.87 71.37 150.56 70.01 150.08 66.46 152.92 64.27 156.23 65.63 156.7 69.18 153.87 71.37"/><polygon class="i" points="153.87 62.6 150.56 61.24 150.08 57.69 152.92 55.5 156.23 56.87 156.7 60.42 153.87 62.6"/><polygon class="i" points="162.63 59.1 159.32 57.74 158.84 54.19 161.68 52 164.99 53.36 165.47 56.91 162.63 59.1"/><polygon class="i" points="169.64 55.59 166.33 54.23 165.86 50.68 168.69 48.49 172 49.86 172.48 53.41 169.64 55.59"/><polygon class="i" points="176.66 52.09 173.34 50.72 172.87 47.17 175.7 44.99 179.02 46.35 179.49 49.9 176.66 52.09"/><polygon class="i" points="183.67 48.58 180.35 47.22 179.88 43.67 182.71 41.48 186.03 42.84 186.5 46.39 183.67 48.58"/><polygon class="i" points="192.43 46.83 189.12 45.47 188.64 41.92 191.48 39.73 194.79 41.09 195.27 44.64 192.43 46.83"/><polygon class="i" points="201.2 45.08 197.88 43.71 197.41 40.16 200.24 37.98 203.56 39.34 204.03 42.89 201.2 45.08"/><polygon class="i" points="211.71 45.08 208.4 43.71 207.92 40.16 210.76 37.98 214.07 39.34 214.55 42.89 211.71 45.08"/><polygon class="i" points="223.98 46.83 220.67 45.47 220.19 41.92 223.03 39.73 226.34 41.09 226.82 44.64 223.98 46.83"/><polygon class="i" points="222.23 39.82 218.92 38.45 218.44 34.9 221.28 32.72 224.59 34.08 225.07 37.63 222.23 39.82"/><polygon class="i" points="223.98 31.05 220.67 29.69 220.19 26.14 223.03 23.95 226.34 25.31 226.82 28.87 223.98 31.05"/><polygon class="i" points="232.75 27.55 229.44 26.18 228.96 22.63 231.8 20.45 235.11 21.81 235.58 25.36 232.75 27.55"/><polygon class="i" points="239.76 24.04 236.45 22.68 235.97 19.13 238.81 16.94 242.12 18.3 242.6 21.85 239.76 24.04"/><polygon class="i" points="232.75 36.31 229.44 34.95 228.96 31.4 231.8 29.21 235.11 30.57 235.58 34.12 232.75 36.31"/><polygon class="i" points="231 45.08 227.68 43.71 227.21 40.16 230.04 37.98 233.36 39.34 233.83 42.89 231 45.08"/><polygon class="i" points="236.25 52.09 232.94 50.72 232.47 47.17 235.3 44.99 238.61 46.35 239.09 49.9 236.25 52.09"/><polygon class="i" points="243.27 57.35 239.95 55.98 239.48 52.43 242.31 50.25 245.63 51.61 246.1 55.16 243.27 57.35"/><polygon class="i" points="250.28 62.6 246.96 61.24 246.49 57.69 249.32 55.5 252.64 56.87 253.11 60.42 250.28 62.6"/><polygon class="i" points="238.01 41.57 234.69 40.21 234.22 36.66 237.05 34.47 240.37 35.83 240.84 39.38 238.01 41.57"/><polygon class="i" points="239.76 34.56 236.45 33.2 235.97 29.65 238.81 27.46 242.12 28.82 242.6 32.37 239.76 34.56"/><polygon class="i" points="246.77 46.83 243.46 45.47 242.98 41.92 245.82 39.73 249.13 41.09 249.61 44.64 246.77 46.83"/><polygon class="i" points="253.78 52.09 250.47 50.72 249.99 47.17 252.83 44.99 256.14 46.35 256.62 49.9 253.78 52.09"/><polygon class="i" points="260.79 57.35 257.48 55.98 257.01 52.43 259.84 50.25 263.15 51.61 263.63 55.16 260.79 57.35"/><polygon class="i" points="269.56 55.59 266.25 54.23 265.77 50.68 268.61 48.49 271.92 49.86 272.4 53.41 269.56 55.59"/><polygon class="i" points="246.77 31.05 243.46 29.69 242.98 26.14 245.82 23.95 249.13 25.31 249.61 28.87 246.77 31.05"/><polygon class="i" points="252.03 38.06 248.72 36.7 248.24 33.15 251.08 30.96 254.39 32.33 254.87 35.88 252.03 38.06"/><polygon class="i" points="259.04 43.32 255.73 41.96 255.25 38.41 258.09 36.22 261.4 37.59 261.88 41.14 259.04 43.32"/><polygon class="i" points="266.05 48.58 262.74 47.22 262.26 43.67 265.1 41.48 268.41 42.84 268.89 46.39 266.05 48.58"/><polygon class="i" points="250.28 22.29 246.96 20.93 246.49 17.38 249.32 15.19 252.64 16.55 253.11 20.1 250.28 22.29"/><polygon class="i" points="255.54 29.3 252.22 27.94 251.75 24.39 254.58 22.2 257.9 23.56 258.37 27.11 255.54 29.3"/><polygon class="i" points="262.55 34.56 259.23 33.2 258.76 29.65 261.59 27.46 264.91 28.82 265.38 32.37 262.55 34.56"/><polygon class="i" points="269.56 39.82 266.25 38.45 265.77 34.9 268.61 32.72 271.92 34.08 272.4 37.63 269.56 39.82"/><polygon class="i" points="260.79 18.78 257.48 17.42 257.01 13.87 259.84 11.68 263.15 13.04 263.63 16.59 260.79 18.78"/><polygon class="i" points="267.81 15.28 264.49 13.91 264.02 10.36 266.85 8.18 270.17 9.54 270.64 13.09 267.81 15.28"/><polygon class="i" points="266.05 25.79 262.74 24.43 262.26 20.88 265.1 18.69 268.41 20.06 268.89 23.61 266.05 25.79"/><polygon class="i" points="273.07 31.05 269.75 29.69 269.28 26.14 272.11 23.95 275.43 25.31 275.9 28.87 273.07 31.05"/><polygon class="i" points="278.32 38.06 275.01 36.7 274.53 33.15 277.37 30.96 280.68 32.33 281.16 35.88 278.32 38.06"/><polygon class="i" points="274.82 46.83 271.51 45.47 271.03 41.92 273.87 39.73 277.18 41.09 277.65 44.64 274.82 46.83"/><polygon class="i" points="287.09 43.32 283.78 41.96 283.3 38.41 286.14 36.22 289.45 37.59 289.92 41.14 287.09 43.32"/><polygon class="i" points="283.58 50.33 280.27 48.97 279.79 45.42 282.63 43.23 285.94 44.6 286.42 48.15 283.58 50.33"/><polygon class="i" points="287.09 64.36 283.78 63 283.3 59.44 286.14 57.26 289.45 58.62 289.92 62.17 287.09 64.36"/><polygon class="i" points="288.84 57.35 285.53 55.98 285.05 52.43 287.89 50.25 291.2 51.61 291.68 55.16 288.84 57.35"/><polygon class="i" points="283.58 71.37 280.27 70.01 279.79 66.46 282.63 64.27 285.94 65.63 286.42 69.18 283.58 71.37"/><polygon class="i" points="287.09 80.13 283.78 78.77 283.3 75.22 286.14 73.03 289.45 74.4 289.92 77.95 287.09 80.13"/><polygon class="i" points="283.58 88.9 280.27 87.54 279.79 83.99 282.63 81.8 285.94 83.16 286.42 86.71 283.58 88.9"/><polygon class="i" points="276.57 78.38 273.26 77.02 272.78 73.47 275.62 71.28 278.93 72.64 279.41 76.19 276.57 78.38"/><polygon class="i" points="273.07 87.15 269.75 85.78 269.28 82.23 272.11 80.04 275.43 81.41 275.9 84.96 273.07 87.15"/><polygon class="i" points="266.05 83.64 262.74 82.28 262.26 78.73 265.1 76.54 268.41 77.9 268.89 81.45 266.05 83.64"/><polygon class="i" points="264.3 92.4 260.99 91.04 260.51 87.49 263.35 85.3 266.66 86.67 267.14 90.22 264.3 92.4"/><polygon class="i" points="273.07 95.91 269.75 94.55 269.28 91 272.11 88.81 275.43 90.17 275.9 93.72 273.07 95.91"/><polygon class="i" points="281.83 97.66 278.52 96.3 278.04 92.75 280.88 90.56 284.19 91.92 284.67 95.48 281.83 97.66"/><polygon class="i" points="285.34 106.43 282.02 105.06 281.55 101.51 284.38 99.33 287.7 100.69 288.17 104.24 285.34 106.43"/><polygon class="i" points="281.83 115.19 278.52 113.83 278.04 110.28 280.88 108.09 284.19 109.45 284.67 113 281.83 115.19"/><polygon class="i" points="283.58 123.96 280.27 122.59 279.79 119.04 282.63 116.86 285.94 118.22 286.42 121.77 283.58 123.96"/><polygon class="i" points="266.05 102.92 262.74 101.56 262.26 98.01 265.1 95.82 268.41 97.18 268.89 100.73 266.05 102.92"/><polygon class="i" points="266.05 111.69 262.74 110.32 262.26 106.77 265.1 104.59 268.41 105.95 268.89 109.5 266.05 111.69"/><polygon class="i" points="264.3 122.2 260.99 120.84 260.51 117.29 263.35 115.1 266.66 116.47 267.14 120.02 264.3 122.2"/><polygon class="i" points="276.57 106.43 273.26 105.06 272.78 101.51 275.62 99.33 278.93 100.69 279.41 104.24 276.57 106.43"/><polygon class="i" points="273.07 115.19 269.75 113.83 269.28 110.28 272.11 108.09 275.43 109.45 275.9 113 273.07 115.19"/><polygon class="i" points="273.07 125.71 269.75 124.35 269.28 120.8 272.11 118.61 275.43 119.97 275.9 123.52 273.07 125.71"/><polygon class="i" points="281.83 134.47 278.52 133.11 278.04 129.56 280.88 127.37 284.19 128.74 284.67 132.29 281.83 134.47"/><polygon class="i" points="278.32 143.24 275.01 141.88 274.53 138.33 277.37 136.14 280.68 137.5 281.16 141.05 278.32 143.24"/><polygon class="i" points="280.08 152 276.76 150.64 276.29 147.09 279.12 144.9 282.44 146.26 282.91 149.81 280.08 152"/><polygon class="i" points="262.55 139.73 259.23 138.37 258.76 134.82 261.59 132.63 264.91 133.99 265.38 137.54 262.55 139.73"/><polygon class="i" points="253.78 143.24 250.47 141.88 249.99 138.33 252.83 136.14 256.14 137.5 256.62 141.05 253.78 143.24"/><polygon class="i" points="262.55 130.97 259.23 129.61 258.76 126.05 261.59 123.87 264.91 125.23 265.38 128.78 262.55 130.97"/><polygon class="i" points="260.79 150.25 257.48 148.89 257.01 145.34 259.84 143.15 263.15 144.51 263.63 148.06 260.79 150.25"/><polygon class="i" points="273.07 134.47 269.75 133.11 269.28 129.56 272.11 127.37 275.43 128.74 275.9 132.29 273.07 134.47"/><polygon class="i" points="269.56 143.24 266.25 141.88 265.77 138.33 268.61 136.14 271.92 137.5 272.4 141.05 269.56 143.24"/><polygon class="i" points="269.56 153.76 266.25 152.39 265.77 148.84 268.61 146.65 271.92 148.02 272.4 151.57 269.56 153.76"/><polygon class="i" points="276.57 162.52 273.26 161.16 272.78 157.61 275.62 155.42 278.93 156.78 279.41 160.33 276.57 162.52"/><polygon class="i" points="273.07 171.28 269.75 169.92 269.28 166.37 272.11 164.18 275.43 165.55 275.9 169.1 273.07 171.28"/><polygon class="i" points="274.82 180.05 271.51 178.69 271.03 175.14 273.87 172.95 277.18 174.31 277.65 177.86 274.82 180.05"/><polygon class="i" points="257.29 167.78 253.98 166.42 253.5 162.87 256.34 160.68 259.65 162.04 260.13 165.59 257.29 167.78"/><polygon class="i" points="259.04 159.01 255.73 157.65 255.25 154.1 258.09 151.91 261.4 153.28 261.88 156.83 259.04 159.01"/><polygon class="i" points="250.28 171.28 246.96 169.92 246.49 166.37 249.32 164.18 252.64 165.55 253.11 169.1 250.28 171.28"/><polygon class="i" points="255.54 178.3 252.22 176.93 251.75 173.38 254.58 171.2 257.9 172.56 258.37 176.11 255.54 178.3"/><polygon class="i" points="267.81 162.52 264.49 161.16 264.02 157.61 266.85 155.42 270.17 156.78 270.64 160.33 267.81 162.52"/><polygon class="i" points="264.3 171.28 260.99 169.92 260.51 166.37 263.35 164.18 266.66 165.55 267.14 169.1 264.3 171.28"/><polygon class="i" points="264.3 181.8 260.99 180.44 260.51 176.89 263.35 174.7 266.66 176.06 267.14 179.61 264.3 181.8"/><polygon class="i" points="280.08 64.36 276.76 63 276.29 59.44 279.12 57.26 282.44 58.62 282.91 62.17 280.08 64.36"/><polygon class="i" points="278.32 55.59 275.01 54.23 274.53 50.68 277.37 48.49 280.68 49.86 281.16 53.41 278.32 55.59"/><polygon class="i" points="274.82 69.62 271.51 68.25 271.03 64.7 273.87 62.52 277.18 63.88 277.65 67.43 274.82 69.62"/><polygon class="i" points="267.81 74.88 264.49 73.51 264.02 69.96 266.85 67.77 270.17 69.14 270.64 72.69 267.81 74.88"/><polygon class="i" points="266.05 64.36 262.74 63 262.26 59.44 265.1 57.26 268.41 58.62 268.89 62.17 266.05 64.36"/><polygon class="i" points="257.29 67.86 253.98 66.5 253.5 62.95 256.34 60.76 259.65 62.13 260.13 65.68 257.29 67.86"/><polygon class="i" points="259.04 76.63 255.73 75.27 255.25 71.72 258.09 69.53 261.4 70.89 261.88 74.44 259.04 76.63"/><polygon class="i" points="287.09 25.79 283.78 24.43 283.3 20.88 286.14 18.69 289.45 20.06 289.92 23.61 287.09 25.79"/><polygon class="i" points="287.09 34.56 283.78 33.2 283.3 29.65 286.14 27.46 289.45 28.82 289.92 32.37 287.09 34.56"/><polygon class="i" points="280.08 31.05 276.76 29.69 276.29 26.14 279.12 23.95 282.44 25.31 282.91 28.87 280.08 31.05"/><polygon class="i" points="280.08 24.04 276.76 22.68 276.29 19.13 279.12 16.94 282.44 18.3 282.91 21.85 280.08 24.04"/><polygon class="i" points="273.07 22.29 269.75 20.93 269.28 17.38 272.11 15.19 275.43 16.55 275.9 20.1 273.07 22.29"/><polygon class="i" points="276.57 13.52 273.26 12.16 272.78 8.61 275.62 6.42 278.93 7.79 279.41 11.34 276.57 13.52"/><polygon class="i" points="283.58 17.03 280.27 15.67 279.79 12.12 282.63 9.93 285.94 11.29 286.42 14.84 283.58 17.03"/><polygon class="i" points="204.7 38.06 201.39 36.7 200.91 33.15 203.75 30.96 207.06 32.33 207.54 35.88 204.7 38.06"/><polygon class="i" points="213.47 36.31 210.15 34.95 209.68 31.4 212.51 29.21 215.83 30.57 216.3 34.12 213.47 36.31"/><polygon class="i" points="131.25 136.94 127.94 135.57 127.46 132.02 130.3 129.84 133.61 131.2 134.09 134.75 131.25 136.94"/><polygon class="i" points="122.56 131.56 119.25 130.2 118.77 126.65 121.61 124.46 124.92 125.82 125.4 129.37 122.56 131.56"/><polygon class="i" points="132.71 128.29 129.4 126.93 128.92 123.38 131.76 121.19 135.07 122.56 135.55 126.11 132.71 128.29"/><polygon class="i" points="124.02 122.92 120.7 121.56 120.23 118 123.06 115.82 126.38 117.18 126.85 120.73 124.02 122.92"/><polygon class="i" points="144.78 168.28 141.46 166.92 140.99 163.37 143.82 161.18 147.14 162.55 147.61 166.1 144.78 168.28"/><polygon class="i" points="158.73 171.91 155.42 170.54 154.94 166.99 157.78 164.81 161.09 166.17 161.57 169.72 158.73 171.91"/><polygon class="i" points="148.21 184.18 144.9 182.81 144.42 179.26 147.26 177.08 150.57 178.44 151.05 181.99 148.21 184.18"/><polygon class="i" points="155.52 189.31 152.21 187.95 151.73 184.4 154.57 182.21 157.88 183.58 158.36 187.13 155.52 189.31"/><polygon class="i" points="165.06 187.05 161.75 185.68 161.27 182.13 164.11 179.95 167.42 181.31 167.9 184.86 165.06 187.05"/><polygon class="i" points="191.06 176.65 187.74 175.29 187.27 171.74 190.11 169.55 193.42 170.91 193.89 174.46 191.06 176.65"/><polygon class="i" points="203.94 162.15 204.41 165.7 201.58 167.89 198.26 166.52 197.79 162.97 200.62 160.79 203.94 162.15"/><polygon class="i" points="202.18 170.91 202.66 174.46 199.82 176.65 196.51 175.29 196.03 171.74 198.87 169.55 202.18 170.91"/><polygon class="i" points="209.19 174.42 209.67 177.97 206.83 180.16 203.52 178.79 203.04 175.24 205.88 173.06 209.19 174.42"/><polygon class="i" points="192.81 167.89 189.5 166.52 189.02 162.97 191.86 160.79 195.17 162.15 195.65 165.7 192.81 167.89"/><polygon class="i" points="182.29 166.13 178.98 164.77 178.5 161.22 181.34 159.03 184.65 160.4 185.13 163.95 182.29 166.13"/><polygon class="i" points="175.28 162.63 171.97 161.26 171.49 157.71 174.33 155.53 177.64 156.89 178.12 160.44 175.28 162.63"/><polygon class="i" points="177.03 173.14 173.72 171.78 173.25 168.23 176.08 166.04 179.39 167.41 179.87 170.96 177.03 173.14"/><polygon class="i" points="168.27 169.64 164.96 168.28 164.48 164.73 167.32 162.54 170.63 163.9 171.11 167.45 168.27 169.64"/><polygon class="i" points="168.27 157.37 164.96 156.01 164.48 152.46 167.32 150.27 170.63 151.63 171.11 155.18 168.27 157.37"/><polygon class="i" points="161.26 164.38 157.95 163.02 157.47 159.47 160.31 157.28 163.62 158.64 164.09 162.19 161.26 164.38"/><polygon class="i" points="210.34 169.64 207.03 168.28 206.55 164.73 209.39 162.54 212.7 163.9 213.18 167.45 210.34 169.64"/><polygon class="i" points="152.57 164.26 149.25 162.9 148.78 159.35 151.61 157.16 154.93 158.53 155.4 162.08 152.57 164.26"/><polygon class="i" points="154.32 157.25 151.01 155.89 150.53 152.34 153.37 150.15 156.68 151.51 157.15 155.06 154.32 157.25"/><polygon class="i" points="145.63 157.13 142.31 155.77 141.84 152.22 144.67 150.03 147.99 151.4 148.46 154.95 145.63 157.13"/><polygon class="i" points="161.03 153.87 157.72 152.51 157.24 148.95 160.08 146.77 163.39 148.13 163.87 151.68 161.03 153.87"/><polygon class="i" points="155.77 148.61 152.46 147.25 151.99 143.7 154.82 141.51 158.13 142.87 158.61 146.42 155.77 148.61"/><polygon class="i" points="147.08 148.49 143.77 147.13 143.29 143.58 146.13 141.39 149.44 142.75 149.92 146.3 147.08 148.49"/><polygon class="i" points="139.65 246.83 139.47 243.25 142.47 241.3 145.66 242.93 145.85 246.51 142.84 248.46 139.65 246.83"/><polygon class="i" points="144.91 239.82 144.72 236.24 147.73 234.29 150.92 235.92 151.1 239.5 148.1 241.45 144.91 239.82"/><polygon class="i" points="158.3 240.83 155.57 243.15 152.2 241.94 151.55 238.42 154.28 236.1 157.66 237.3 158.3 240.83"/><polygon class="i" points="154.79 249.59 152.06 251.91 148.69 250.71 148.05 247.18 150.78 244.86 154.15 246.07 154.79 249.59"/><polygon class="i" points="163.56 246.09 160.83 248.4 157.45 247.2 156.81 243.68 159.54 241.36 162.91 242.56 163.56 246.09"/><polygon class="i" points="168.82 239.07 166.09 241.39 162.71 240.19 162.07 236.66 164.8 234.35 168.17 235.55 168.82 239.07"/><polygon class="i" points="161.8 233.82 159.07 236.13 155.7 234.93 155.06 231.41 157.79 229.09 161.16 230.29 161.8 233.82"/><polygon class="i" points="175.83 233.82 173.1 236.13 169.72 234.93 169.08 231.41 171.81 229.09 175.18 230.29 175.83 233.82"/><polygon class="i" points="177.58 240.83 174.85 243.15 171.48 241.94 170.83 238.42 173.56 236.1 176.94 237.3 177.58 240.83"/><polygon class="i" points="163.56 225.05 160.83 227.37 157.45 226.16 156.81 222.64 159.54 220.32 162.91 221.53 163.56 225.05"/><polygon class="i" points="168.82 230.31 166.09 232.63 162.71 231.42 162.07 227.9 164.8 225.58 168.17 226.79 168.82 230.31"/><polygon class="i" points="154.79 228.56 152.06 230.88 148.69 229.67 148.05 226.15 150.78 223.83 154.15 225.03 154.79 228.56"/><polygon class="i" points="147.78 225.05 145.05 227.37 141.68 226.16 141.03 222.64 143.77 220.32 147.14 221.53 147.78 225.05"/><polygon class="i" points="146.03 233.82 143.3 236.13 139.92 234.93 139.28 231.41 142.01 229.09 145.39 230.29 146.03 233.82"/><polygon class="i" points="137.26 239.07 134.53 241.39 131.16 240.19 130.52 236.66 133.25 234.35 136.62 235.55 137.26 239.07"/><polygon class="i" points="139.02 228.56 136.29 230.88 132.91 229.67 132.27 226.15 135 223.83 138.37 225.03 139.02 228.56"/><polygon class="i" points="156.55 211.03 153.82 213.35 150.44 212.14 149.8 208.62 152.53 206.3 155.9 207.5 156.55 211.03"/><polygon class="i" points="158.3 202.26 155.57 204.58 152.2 203.38 151.55 199.85 154.28 197.53 157.66 198.74 158.3 202.26"/><polygon class="i" points="151.29 197 148.56 199.32 145.18 198.12 144.54 194.59 147.27 192.28 150.64 193.48 151.29 197"/><polygon class="i" points="160.05 195.25 157.32 197.57 153.95 196.37 153.31 192.84 156.04 190.52 159.41 191.73 160.05 195.25"/><polygon class="i" points="154.79 219.79 152.06 222.11 148.69 220.91 148.05 217.38 150.78 215.06 154.15 216.27 154.79 219.79"/><polygon class="i" points="147.78 214.53 145.05 216.85 141.68 215.65 141.03 212.12 143.77 209.8 147.14 211.01 147.78 214.53"/><polygon class="i" points="139.02 212.78 136.29 215.1 132.91 213.89 132.27 210.37 135 208.05 138.37 209.26 139.02 212.78"/><polygon class="i" points="132.01 209.28 129.27 211.59 125.9 210.39 125.26 206.86 127.99 204.55 131.36 205.75 132.01 209.28"/><polygon class="i" points="149.53 205.77 146.8 208.09 143.43 206.88 142.79 203.36 145.52 201.04 148.89 202.25 149.53 205.77"/><polygon class="i" points="142.52 198.76 139.79 201.08 136.42 199.87 135.78 196.35 138.51 194.03 141.88 195.23 142.52 198.76"/><polygon class="i" points="140.77 205.77 138.04 208.09 134.67 206.88 134.02 203.36 136.75 201.04 140.13 202.25 140.77 205.77"/><polygon class="i" points="133.76 200.51 131.03 202.83 127.65 201.62 127.01 198.1 129.74 195.78 133.12 196.99 133.76 200.51"/><polygon class="i" points="124.99 202.26 122.26 204.58 118.89 203.38 118.25 199.85 120.98 197.53 124.35 198.74 124.99 202.26"/><polygon class="i" points="137.26 221.55 134.53 223.86 131.16 222.66 130.52 219.13 133.25 216.82 136.62 218.02 137.26 221.55"/><polygon class="i" points="130.25 216.29 127.52 218.61 124.15 217.4 123.51 213.88 126.24 211.56 129.61 212.76 130.25 216.29"/><polygon class="i" points="123.24 212.78 120.51 215.1 117.14 213.89 116.49 210.37 119.22 208.05 122.6 209.26 123.24 212.78"/><polygon class="i" points="117.98 207.52 115.25 209.84 111.88 208.64 111.24 205.11 113.97 202.79 117.34 204 117.98 207.52"/><polygon class="i" points="112.72 202.26 109.99 204.58 106.62 203.38 105.98 199.85 108.71 197.53 112.08 198.74 112.72 202.26"/><polygon class="i" points="103.96 204.02 101.23 206.34 97.86 205.13 97.21 201.61 99.94 199.29 103.32 200.49 103.96 204.02"/><polygon class="i" points="130.25 233.82 127.52 236.13 124.15 234.93 123.51 231.41 126.24 229.09 129.61 230.29 130.25 233.82"/><polygon class="i" points="130.25 225.05 127.52 227.37 124.15 226.16 123.51 222.64 126.24 220.32 129.61 221.53 130.25 225.05"/><polygon class="i" points="202.12 242.58 199.39 244.9 196.02 243.69 195.37 240.17 198.11 237.85 201.48 239.06 202.12 242.58"/><polygon class="i" points="210.89 237.32 208.16 239.64 204.78 238.43 204.14 234.91 206.87 232.59 210.24 233.8 210.89 237.32"/><polygon class="i" points="209.13 246.09 206.4 248.4 203.03 247.2 202.39 243.68 205.12 241.36 208.49 242.56 209.13 246.09"/><polygon class="i" points="217.9 242.58 215.17 244.9 211.79 243.69 211.15 240.17 213.88 237.85 217.25 239.06 217.9 242.58"/><polygon class="i" points="224.91 239.07 222.18 241.39 218.81 240.19 218.16 236.66 220.89 234.35 224.27 235.55 224.91 239.07"/><polygon class="i" points="217.9 233.82 215.17 236.13 211.79 234.93 211.15 231.41 213.88 229.09 217.25 230.29 217.9 233.82"/><polygon class="i" points="231.92 233.82 229.19 236.13 225.82 234.93 225.17 231.41 227.9 229.09 231.28 230.29 231.92 233.82"/><polygon class="i" points="223.16 221.55 220.43 223.86 217.05 222.66 216.41 219.13 219.14 216.82 222.51 218.02 223.16 221.55"/><polygon class="i" points="224.91 230.31 222.18 232.63 218.81 231.42 218.16 227.9 220.89 225.58 224.27 226.79 224.91 230.31"/><polygon class="i" points="210.89 228.56 208.16 230.88 204.78 229.67 204.14 226.15 206.87 223.83 210.24 225.03 210.89 228.56"/><polygon class="i" points="203.87 225.05 201.14 227.37 197.77 226.16 197.13 222.64 199.86 220.32 203.23 221.53 203.87 225.05"/><polygon class="i" points="202.12 233.82 199.39 236.13 196.02 234.93 195.37 231.41 198.11 229.09 201.48 230.29 202.12 233.82"/><polygon class="i" points="196.86 239.07 194.13 241.39 190.76 240.19 190.12 236.66 192.85 234.35 196.22 235.55 196.86 239.07"/><polygon class="i" points="188.1 237.32 185.37 239.64 181.99 238.43 181.35 234.91 184.08 232.59 187.46 233.8 188.1 237.32"/><polygon class="i" points="181.09 247.84 178.36 250.16 174.98 248.95 174.34 245.43 177.07 243.11 180.44 244.31 181.09 247.84"/><polygon class="i" points="190.03 245.38 187.82 248.2 184.27 247.71 182.93 244.39 185.13 241.56 188.68 242.06 190.03 245.38"/><polygon class="i" points="194.62 227.25 191.11 226.52 189.98 223.12 192.36 220.45 195.87 221.17 197 224.57 194.62 227.25"/><polygon class="i" points="189.36 232.5 185.85 231.78 184.72 228.38 187.1 225.7 190.61 226.43 191.74 229.83 189.36 232.5"/><polygon class="i" points="172.32 219.79 169.59 222.11 166.22 220.91 165.58 217.38 168.31 215.06 171.68 216.27 172.32 219.79"/><polygon class="i" points="181.09 214.53 178.36 216.85 174.98 215.65 174.34 212.12 177.07 209.8 180.44 211.01 181.09 214.53"/><polygon class="i" points="179.33 223.3 176.6 225.62 173.23 224.41 172.59 220.89 175.32 218.57 178.69 219.77 179.33 223.3"/><polygon class="i" points="188.1 219.79 185.37 222.11 181.99 220.91 181.35 217.38 184.08 215.06 187.46 216.27 188.1 219.79"/><polygon class="i" points="196.86 218.04 194.13 220.36 190.76 219.15 190.12 215.63 192.85 213.31 196.22 214.52 196.86 218.04"/><polygon class="i" points="188.1 211.03 185.37 213.35 181.99 212.14 181.35 208.62 184.08 206.3 187.46 207.5 188.1 211.03"/><polygon class="i" points="202.12 211.03 199.39 213.35 196.02 212.14 195.37 208.62 198.11 206.3 201.48 207.5 202.12 211.03"/><polygon class="i" points="189.85 202.26 187.12 204.58 183.75 203.38 183.1 199.85 185.83 197.53 189.21 198.74 189.85 202.26"/><polygon class="i" points="182.84 197 180.11 199.32 176.74 198.12 176.09 194.59 178.82 192.28 182.2 193.48 182.84 197"/><polygon class="i" points="175.83 189.99 173.1 192.31 169.72 191.11 169.08 187.58 171.81 185.26 175.18 186.47 175.83 189.99"/><polygon class="i" points="195.11 209.28 192.38 211.59 189.01 210.39 188.36 206.86 191.09 204.55 194.47 205.75 195.11 209.28"/><polygon class="i" points="181.09 205.77 178.36 208.09 174.98 206.88 174.34 203.36 177.07 201.04 180.44 202.25 181.09 205.77"/><polygon class="i" points="174.07 202.26 171.34 204.58 167.97 203.38 167.33 199.85 170.06 197.53 173.43 198.74 174.07 202.26"/><polygon class="i" points="168.82 197 166.09 199.32 162.71 198.12 162.07 194.59 164.8 192.28 168.17 193.48 168.82 197"/><polygon class="i" points="172.32 211.03 169.59 213.35 166.22 212.14 165.58 208.62 168.31 206.3 171.68 207.5 172.32 211.03"/><polygon class="i" points="163.56 216.29 160.83 218.61 157.45 217.4 156.81 213.88 159.54 211.56 162.91 212.76 163.56 216.29"/><polygon class="i" points="165.31 205.77 162.58 208.09 159.21 206.88 158.56 203.36 161.29 201.04 164.67 202.25 165.31 205.77"/><polygon class="i" points="182.84 230.31 180.11 232.63 176.74 231.42 176.09 227.9 178.82 225.58 182.2 226.79 182.84 230.31"/><polygon class="i" points="256.46 251.22 257.59 254.62 255.2 257.29 251.7 256.57 250.57 253.17 252.95 250.49 256.46 251.22"/><polygon class="i" points="258.21 261.73 259.34 265.13 256.96 267.81 253.45 267.08 252.32 263.68 254.7 261.01 258.21 261.73"/><polygon class="i" points="256.46 270.5 257.59 273.9 255.2 276.57 251.7 275.85 250.57 272.45 252.95 269.77 256.46 270.5"/><polygon class="i" points="254.87 241.12 256 244.52 253.61 247.2 250.11 246.47 248.98 243.07 251.36 240.4 254.87 241.12"/><polygon class="i" points="262.34 246.03 263.46 249.43 261.08 252.11 257.57 251.38 256.45 247.98 258.83 245.31 262.34 246.03"/><polygon class="i" points="262.37 236.59 263.5 239.99 261.12 242.67 257.61 241.94 256.48 238.54 258.86 235.87 262.37 236.59"/><polygon class="i" points="261.75 228.78 262.88 232.18 260.49 234.85 256.99 234.13 255.86 230.73 258.24 228.05 261.75 228.78"/><polygon class="i" points="254.25 233.31 255.37 236.71 252.99 239.38 249.48 238.66 248.36 235.26 250.74 232.58 254.25 233.31"/><polygon class="i" points="259.5 220.3 260.63 223.7 258.25 226.38 254.74 225.66 253.61 222.26 255.99 219.58 259.5 220.3"/><polygon class="i" points="267.01 220.01 268.13 223.41 265.75 226.09 262.25 225.36 261.12 221.96 263.5 219.29 267.01 220.01"/><polygon class="i" points="264.76 211.54 265.89 214.94 263.51 217.62 260 216.89 258.87 213.49 261.25 210.82 264.76 211.54"/><polygon class="i" points="271.77 208.03 272.9 211.43 270.52 214.11 267.01 213.39 265.88 209.99 268.26 207.31 271.77 208.03"/><polygon class="i" points="246.78 228.4 247.9 231.8 245.52 234.47 242.01 233.75 240.89 230.35 243.27 227.67 246.78 228.4"/><polygon class="i" points="253.62 225.49 254.75 228.89 252.37 231.57 248.86 230.84 247.73 227.44 250.12 224.77 253.62 225.49"/><polygon class="i" points="246.74 237.83 247.87 241.24 245.49 243.91 241.98 243.19 240.85 239.79 243.24 237.11 246.74 237.83"/><polygon class="i" points="240.87 243.02 241.99 246.42 239.61 249.1 236.1 248.37 234.98 244.97 237.36 242.3 240.87 243.02"/><polygon class="i" points="248.33 247.93 249.46 251.33 247.08 254.01 243.57 253.28 242.44 249.88 244.83 247.21 248.33 247.93"/><polygon class="i" points="249.92 258.03 251.05 261.43 248.67 264.1 245.16 263.38 244.03 259.98 246.42 257.3 249.92 258.03"/><polygon class="i" points="249.92 266.79 251.05 270.19 248.67 272.87 245.16 272.14 244.03 268.74 246.42 266.07 249.92 266.79"/><polygon class="i" points="255.18 279.06 256.31 282.46 253.93 285.14 250.42 284.41 249.29 281.01 251.67 278.34 255.18 279.06"/><polygon class="i" points="248.17 273.8 249.3 277.2 246.92 279.88 243.41 279.16 242.28 275.75 244.66 273.08 248.17 273.8"/><polygon class="i" points="240.83 252.46 241.96 255.86 239.57 258.54 236.07 257.81 234.94 254.41 237.32 251.74 240.83 252.46"/><polygon class="i" points="232.1 237.76 233.23 241.16 230.85 243.84 227.34 243.11 226.21 239.71 228.59 237.04 232.1 237.76"/><polygon class="i" points="239.11 234.26 240.24 237.66 237.86 240.33 234.35 239.61 233.22 236.21 235.6 233.53 239.11 234.26"/><polygon class="i" points="232.07 252.46 233.19 255.86 230.81 258.54 227.3 257.81 226.18 254.41 228.56 251.74 232.07 252.46"/><polygon class="i" points="228.56 245.45 229.69 248.85 227.3 251.53 223.8 250.8 222.67 247.4 225.05 244.72 228.56 245.45"/><polygon class="i" points="219.8 245.45 220.92 248.85 218.54 251.53 215.03 250.8 213.91 247.4 216.29 244.72 219.8 245.45"/><polygon class="i" points="238.91 260.8 240.04 264.2 237.66 266.88 234.15 266.16 233.03 262.76 235.41 260.08 238.91 260.8"/><polygon class="i" points="240.67 271.32 241.79 274.72 239.41 277.4 235.9 276.67 234.78 273.27 237.16 270.6 240.67 271.32"/><polygon class="i" points="242.44 305.56 243.56 308.96 241.18 311.63 237.67 310.91 236.55 307.51 238.93 304.83 242.44 305.56"/><polygon class="i" points="244.19 310.81 245.32 314.22 242.93 316.89 239.43 316.17 238.3 312.77 240.68 310.09 244.19 310.81"/><polygon class="i" points="240.85 295.46 241.97 298.86 239.59 301.54 236.08 300.81 234.96 297.41 237.34 294.73 240.85 295.46"/><polygon class="i" points="248.31 300.37 249.44 303.77 247.06 306.45 243.55 305.72 242.42 302.32 244.81 299.64 248.31 300.37"/><polygon class="i" points="248.35 290.93 249.48 294.33 247.09 297.01 243.59 296.28 242.46 292.88 244.84 290.21 248.35 290.93"/><polygon class="i" points="247.73 283.12 248.85 286.52 246.47 289.19 242.96 288.47 241.84 285.07 244.22 282.39 247.73 283.12"/><polygon class="i" points="240.22 287.65 241.35 291.05 238.97 293.72 235.46 293 234.33 289.6 236.72 286.92 240.22 287.65"/><polygon class="i" points="232.75 282.73 233.88 286.14 231.5 288.81 227.99 288.09 226.87 284.69 229.25 282.01 232.75 282.73"/><polygon class="i" points="239.6 279.83 240.73 283.23 238.35 285.91 234.84 285.18 233.71 281.78 236.09 279.11 239.6 279.83"/><polygon class="i" points="232.72 292.17 233.85 295.57 231.46 298.25 227.96 297.53 226.83 294.13 229.21 291.45 232.72 292.17"/><polygon class="i" points="226.84 304.37 227.97 307.77 225.59 310.45 222.08 309.72 220.95 306.32 223.33 303.65 226.84 304.37"/><polygon class="i" points="226.84 297.36 227.97 300.76 225.59 303.44 222.08 302.71 220.95 299.31 223.33 296.64 226.84 297.36"/><polygon class="i" points="226.84 288.6 227.97 292 225.59 294.67 222.08 293.95 220.95 290.55 223.33 287.87 226.84 288.6"/><polygon class="i" points="234.31 302.27 235.44 305.67 233.05 308.35 229.55 307.62 228.42 304.22 230.8 301.55 234.31 302.27"/><polygon class="i" points="235.9 312.37 237.03 315.77 234.65 318.44 231.14 317.72 230.01 314.32 232.39 311.64 235.9 312.37"/><polygon class="i" points="241.16 319.38 242.29 322.78 239.9 325.46 236.4 324.73 235.27 321.33 237.65 318.65 241.16 319.38"/><polygon class="i" points="223.3 312.06 224.43 315.46 222.05 318.14 218.54 317.41 217.41 314.01 219.79 311.33 223.3 312.06"/><polygon class="i" points="228.4 316.9 229.52 320.3 227.14 322.97 223.63 322.25 222.51 318.85 224.89 316.17 228.4 316.9"/><polygon class="i" points="252.95 210.9 254.08 214.3 251.7 216.98 248.19 216.25 247.06 212.85 249.45 210.18 252.95 210.9"/><polygon class="i" points="251.36 202.56 252.49 205.96 250.11 208.63 246.6 207.91 245.47 204.51 247.86 201.83 251.36 202.56"/><polygon class="i" points="258.83 205.71 259.96 209.11 257.58 211.79 254.07 211.06 252.94 207.66 255.32 204.99 258.83 205.71"/><polygon class="i" points="258.24 188.46 259.37 191.86 256.99 194.54 253.48 193.81 252.35 190.41 254.74 187.73 258.24 188.46"/><polygon class="i" points="265.88 192.77 267 196.17 264.62 198.84 261.11 198.12 259.99 194.72 262.37 192.04 265.88 192.77"/><polygon class="i" points="267.01 183.2 268.13 186.6 265.75 189.28 262.25 188.55 261.12 185.15 263.5 182.48 267.01 183.2"/><polygon class="i" points="272.85 200.45 273.98 203.86 271.6 206.53 268.09 205.81 266.97 202.41 269.35 199.73 272.85 200.45"/><polygon class="i" points="274.64 192.77 275.77 196.17 273.39 198.84 269.88 198.12 268.75 194.72 271.13 192.04 274.64 192.77"/><polygon class="i" points="275.77 183.2 276.9 186.6 274.52 189.28 271.01 188.55 269.88 185.15 272.27 182.48 275.77 183.2"/><polygon class="i" points="256 179.99 257.12 183.39 254.74 186.06 251.23 185.34 250.11 181.94 252.49 179.26 256 179.99"/><polygon class="i" points="241.52 186.33 242.65 189.73 240.26 192.4 236.76 191.68 235.63 188.28 238.01 185.6 241.52 186.33"/><polygon class="i" points="250.12 185.17 251.24 188.57 248.86 191.25 245.36 190.53 244.23 187.13 246.61 184.45 250.12 185.17"/><polygon class="i" points="237.36 202.7 238.49 206.11 236.1 208.78 232.6 208.06 231.47 204.66 233.85 201.98 237.36 202.7"/><polygon class="i" points="244.83 207.61 245.95 211.02 243.57 213.69 240.06 212.97 238.94 209.57 241.32 206.89 244.83 207.61"/><polygon class="i" points="246.42 217.71 247.54 221.11 245.16 223.79 241.65 223.06 240.53 219.66 242.91 216.99 246.42 217.71"/><polygon class="i" points="237.32 212.14 238.45 215.54 236.07 218.22 232.56 217.5 231.43 214.09 233.82 211.42 237.32 212.14"/><polygon class="i" points="238.91 222.24 240.04 225.64 237.66 228.32 234.15 227.59 233.03 224.19 235.41 221.52 238.91 222.24"/><polygon class="i" points="234.51 184.57 235.63 187.97 233.25 190.65 229.74 189.92 228.62 186.52 231 183.85 234.51 184.57"/><polygon class="i" points="228.59 199.2 229.72 202.6 227.34 205.27 223.83 204.55 222.71 201.15 225.09 198.47 228.59 199.2"/><polygon class="i" points="228.56 208.64 229.69 212.04 227.3 214.71 223.8 213.99 222.67 210.59 225.05 207.91 228.56 208.64"/><polygon class="i" points="230.15 218.74 231.28 222.14 228.89 224.81 225.39 224.09 224.26 220.69 226.64 218.01 230.15 218.74"/><polygon class="i" points="223.99 179.31 225.12 182.71 222.74 185.39 219.23 184.67 218.1 181.26 220.48 178.59 223.99 179.31"/><polygon class="i" points="223.99 170.55 225.12 173.95 222.74 176.63 219.23 175.9 218.1 172.5 220.48 169.82 223.99 170.55"/><polygon class="i" points="223.99 161.79 225.12 165.19 222.74 167.86 219.23 167.14 218.1 163.74 220.48 161.06 223.99 161.79"/><polygon class="i" points="232.75 158.28 233.88 161.68 231.5 164.36 227.99 163.63 226.87 160.23 229.25 157.55 232.75 158.28"/><polygon class="i" points="239.77 151.27 240.89 154.67 238.51 157.34 235 156.62 233.88 153.22 236.26 150.54 239.77 151.27"/><polygon class="i" points="234.51 167.04 235.63 170.44 233.25 173.12 229.74 172.4 228.62 168.99 231 166.32 234.51 167.04"/><polygon class="i" points="238.01 175.81 239.14 179.21 236.76 181.88 233.25 181.16 232.12 177.76 234.51 175.08 238.01 175.81"/><polygon class="i" points="231 175.81 232.13 179.21 229.75 181.88 226.24 181.16 225.11 177.76 227.49 175.08 231 175.81"/><polygon class="i" points="218.08 193.94 219.2 197.34 216.82 200.02 213.31 199.29 212.19 195.89 214.57 193.22 218.08 193.94"/><polygon class="i" points="221.55 201.63 222.67 205.03 220.29 207.7 216.78 206.98 215.66 203.58 218.04 200.9 221.55 201.63"/><polygon class="i" points="209.31 190.43 210.44 193.83 208.06 196.51 204.55 195.79 203.42 192.39 205.8 189.71 209.31 190.43"/><polygon class="i" points="209.28 199.87 210.4 203.27 208.02 205.95 204.51 205.23 203.39 201.82 205.77 199.15 209.28 199.87"/><polygon class="i" points="214.54 205.13 215.66 208.53 213.28 211.21 209.77 210.48 208.65 207.08 211.03 204.41 214.54 205.13"/><polygon class="i" points="212.78 212.14 213.91 215.54 211.53 218.22 208.02 217.5 206.89 214.09 209.28 211.42 212.78 212.14"/><polygon class="i" points="205.77 213.9 206.9 217.3 204.52 219.97 201.01 219.25 199.88 215.85 202.26 213.17 205.77 213.9"/><polygon class="i" points="214.54 219.16 215.66 222.56 213.28 225.23 209.77 224.51 208.65 221.11 211.03 218.43 214.54 219.16"/><polygon class="i" points="200.55 188.68 201.67 192.08 199.29 194.76 195.79 194.03 194.66 190.63 197.04 187.96 200.55 188.68"/><polygon class="i" points="193.54 190.43 194.66 193.83 192.28 196.51 188.77 195.79 187.65 192.39 190.03 189.71 193.54 190.43"/><polygon class="i" points="184.77 185.18 185.9 188.58 183.52 191.25 180.01 190.53 178.88 187.13 181.26 184.45 184.77 185.18"/><polygon class="i" points="200.51 198.12 201.64 201.52 199.26 204.2 195.75 203.47 194.62 200.07 197.01 197.4 200.51 198.12"/><polygon class="i" points="216.32 174.66 217.45 178.06 215.07 180.73 211.56 180.01 210.43 176.61 212.82 173.93 216.32 174.66"/><polygon class="i" points="221.39 209.97 222.51 213.37 220.13 216.05 216.62 215.32 215.5 211.92 217.88 209.25 221.39 209.97"/><polygon class="i" points="250.28 144.26 251.41 147.66 249.03 150.33 245.52 149.61 244.39 146.21 246.78 143.53 250.28 144.26"/><polygon class="i" points="250.25 153.7 251.38 157.1 248.99 159.77 245.49 159.05 244.36 155.65 246.74 152.97 250.25 153.7"/><polygon class="i" points="244.37 158.88 245.5 162.28 243.12 164.96 239.61 164.23 238.48 160.83 240.86 158.16 244.37 158.88"/><polygon class="i" points="244.34 168.32 245.46 171.72 243.08 174.4 239.57 173.67 238.45 170.27 240.83 167.6 244.34 168.32"/><polygon class="i" points="245.93 178.42 247.05 181.82 244.67 184.49 241.16 183.77 240.04 180.37 242.42 177.69 245.93 178.42"/></g></g></g></svg>