<?xml version="1.0" encoding="UTF-8"?><svg xmlns="http://www.w3.org/2000/svg" viewBox="0 0 622.61 821.5"><defs><style>.d,.e,.f,.g,.h,.i,.j,.k,.l,.m,.n,.o,.p{stroke-miterlimit:10;}.d,.e,.h,.i,.l,.m,.n,.o{stroke:#000;}.d,.j,.k{fill:none;}.d,.l,.m,.n,.o{stroke-width:3px;}.q,.h,.o{fill:#00b100;}.e,.j{stroke-width:2px;}.e,.l{fill:#a9f6a3;}.f{stroke:#b9c5b9;stroke-width:.25px;}.f,.g{fill:#b5d7b5;}.g{stroke-width:.5px;}.g,.p{stroke:#0e0f0e;}.i,.p{fill:#f8e88b;}.j{stroke:#097f09;}.k{stroke:#00b100;stroke-width:11px;}.m{fill:#cd8632;}.n{fill:#fff;}.p{stroke-width:.75px;}</style></defs><g id="a"/><g id="b"><g id="c"><g><path class="k" d="M217.97,636.65c58.33,91.41,157.73,137.58,246,116.78,72-16.97,163.44-84.84,152.19-170.38-7.68-58.36-62.02-116.3-132.09-119.65-81.65-3.91-133.29,68.74-146.45,121.56-3.38,13.55-14.81,59.44,11.49,88.06,28.65,31.18,83.8,21.97,115.82,5.74,26.68-13.52,70.29-48.64,59.35-81.36-7.63-22.82-39.73-38.33-77.53-36.37"/><g><g><g><polygon class="g" points="8.29 185.82 .64 200.26 13.97 192.31 8.29 185.82"/><polygon class="g" points="13.55 191.08 5.9 205.52 19.23 197.57 13.55 191.08"/><polygon class="g" points="18.81 196.34 11.16 210.77 24.48 202.83 18.81 196.34"/><polygon class="g" points="24.07 201.6 16.42 216.03 29.74 208.09 24.07 201.6"/><polygon class="g" points="29.44 206.4 20.2 219.87 34.34 213.49 29.44 206.4"/><polygon class="g" points="34.07 212.22 24.83 225.69 38.97 219.31 34.07 212.22"/><polygon class="g" points="38.7 218.04 29.45 231.51 43.6 225.13 38.7 218.04"/><polygon class="g" points="43.32 223.86 34.08 237.33 48.23 230.95 43.32 223.86"/><polygon class="g" points="48.38 230.65 36.78 242.15 51.87 238.53 48.38 230.65"/><polygon class="g" points="51.84 237.23 40.24 248.74 55.32 245.12 51.84 237.23"/><polygon class="g" points="55.29 243.81 43.69 255.32 58.78 251.7 55.29 243.81"/><polygon class="g" points="58.75 250.4 47.15 261.91 62.24 258.28 58.75 250.4"/><polygon class="g" points="62.4 256.94 50.8 268.45 65.89 264.82 62.4 256.94"/><polygon class="g" points="65.86 263.52 54.26 275.03 69.35 271.41 65.86 263.52"/><polygon class="g" points="69.32 270.11 57.72 281.62 72.81 277.99 69.32 270.11"/><polygon class="g" points="72.77 276.69 61.18 288.2 76.26 284.58 72.77 276.69"/><polygon class="g" points="76.43 283.23 64.83 294.74 79.91 291.12 76.43 283.23"/><polygon class="g" points="79.88 289.82 68.28 301.33 83.37 297.7 79.88 289.82"/><polygon class="g" points="83.34 296.4 71.74 307.91 86.83 304.29 83.34 296.4"/><polygon class="g" points="86.8 302.99 75.2 314.49 90.29 310.87 86.8 302.99"/><polygon class="g" points="90.45 309.53 78.85 321.04 93.94 317.41 90.45 309.53"/><polygon class="g" points="93.91 316.11 82.31 327.62 97.39 324 93.91 316.11"/><polygon class="g" points="97.36 322.7 85.76 334.2 100.85 330.58 97.36 322.7"/><polygon class="g" points="100.82 329.28 89.22 340.79 104.31 337.16 100.82 329.28"/><polygon class="g" points="104.91 335.87 94.24 348.24 109 343.46 104.91 335.87"/><polygon class="g" points="108.87 342.16 98.2 354.54 112.96 349.75 108.87 342.16"/><polygon class="g" points="112.83 348.46 102.16 360.83 116.92 356.05 112.83 348.46"/><polygon class="g" points="116.79 354.75 106.12 367.13 120.88 362.34 116.79 354.75"/><polygon class="g" points="120.53 360.66 111.34 374.17 125.46 367.74 120.53 360.66"/><polygon class="g" points="125.18 366.47 115.99 379.97 130.11 373.54 125.18 366.47"/><polygon class="g" points="129.83 372.27 120.64 385.78 134.76 379.34 129.83 372.27"/><polygon class="g" points="134.48 378.07 125.29 391.58 139.41 385.15 134.48 378.07"/><polygon class="g" points="139.38 382.43 131.81 396.91 145.09 388.89 139.38 382.43"/><polygon class="g" points="144.67 387.66 137.1 402.14 150.38 394.12 144.67 387.66"/><polygon class="g" points="149.96 392.89 142.38 407.37 155.67 399.35 149.96 392.89"/></g><path class="q" d="M215.85,423.13c15.94,18.43,33.25,35.43,50.93,52.11l3.31,3.11c1.56,1.43,1.65,4.26-.21,5.4-2.45,1.79-4.91,3.55-7.34,5.36-9.82,7.16-19.41,14.55-28.12,23.08-4.35,4.29-8.61,8.72-12.37,13.8l-7.2-9.6c20.13-7.8,37.06-21.06,53.94-34.1,.96-.56,.63-1.91,0-2.49-10.36-8.85-20.86-17.59-31.59-26.02-9.55-7.49-19.22-14.85-29.34-21.72l8-8.95h0Z"/><path class="q" d="M197.06,428.2c-21.47,13.72-41.62,29.15-61.51,44.97l-.85,.69c-1,.82-1.28,2.6-.29,3.53l1.61,1.55c9.69,9.31,19.41,18.61,30.4,26.43,4.91,3.48,9.94,6.84,15.53,9.59l-8.2,8.76c-10.12-16.96-24.53-30.31-38.96-43.46l-1.66-1.5c-1.88-1.66-1.6-4.83,.22-6.43l.86-.75c10.1-8.83,20.09-17.83,29.82-27.09,8.65-8.24,17.2-16.62,25.32-25.49l7.7,9.21h0Z"/><path class="q" d="M248.29,821.48c-5.86,.81-14.89-29.46-20.17-67.61-5.28-38.15-4.82-69.74,1.04-70.55,5.86-.81,24.99,137.35,19.14,138.16Z"/><path class="q" d="M179.92,821.48c-5.86,.81-14.89-29.46-20.17-67.61-5.28-38.15-4.82-69.74,1.04-70.55s24.99,137.35,19.14,138.16Z"/><path class="h" d="M181.83,414.01l-47.96,303.5c-1.91,12.11,7.45,23.06,19.71,23.06h89.23c12.09,0,21.4-10.66,19.77-22.64l-41.26-303.5c-3.1-22.77-35.89-23.12-39.47-.43Z"/><path class="i" d="M178.4,443.03l-54.04,276.54c-2.16,11.03,8.39,21.02,22.2,21.02h100.53c13.62,0,24.11-9.71,22.27-20.63l-46.49-276.54c-3.49-20.74-40.43-21.07-44.47-.39Z"/><g><circle class="j" cx="230.63" cy="512.97" r="1.21"/><circle class="j" cx="228.44" cy="508.34" r="1.9"/><circle class="j" cx="228.56" cy="502.24" r="1.9"/><line class="j" x1="231.79" y1="512.6" x2="241.26" y2="504.33"/><line class="j" x1="230.27" y1="507.83" x2="241.26" y2="504.33"/><line class="j" x1="230.39" y1="501.74" x2="241.26" y2="504.33"/><circle class="j" cx="233.02" cy="517.47" r="1.37"/><line class="j" x1="241.26" y1="504.33" x2="233.61" y2="516.8"/></g><g><circle class="j" cx="169" cy="511.32" r="1.21"/><circle class="j" cx="171.19" cy="506.68" r="1.9"/><circle class="j" cx="171.06" cy="500.59" r="1.9"/><line class="j" x1="167.84" y1="510.95" x2="158.37" y2="502.67"/><line class="j" x1="169.36" y1="506.18" x2="158.37" y2="502.67"/><line class="j" x1="169.23" y1="500.08" x2="158.37" y2="502.67"/><circle class="j" cx="166.61" cy="515.82" r="1.37"/><line class="j" x1="158.37" y1="502.67" x2="166.02" y2="515.15"/></g><rect class="m" x="202.09" y="2.61" width="145.49" height="466.27" rx="71.56" ry="71.56"/><path class="o" d="M11.23,194.15C-55.23,144.67,256.48-17.14,284.11,3.27c27.63,20.41-9.52,327.12-82.88,391.08C127.86,458.31,77.69,243.63,11.23,194.15Z"/><circle class="n" cx="201.81" cy="101.92" r="54.34"/><circle class="l" cx="202.11" cy="102.3" r="24.44"/><path class="n" d="M114.67,69.66s-1.5-60.48,53.36-29.54"/><path class="e" d="M147.6,34.27c-.14,17.64-27.9,15.67-27.9,15.67,0,0,4.31-12.28,9.7-15.67,11.34-7.12,18.21,0,18.21,0Z"/><path class="p" d="M209.1,460.11l-8.59-.76c-7.45-.98-10.68-9.32-5.61-14.49l8.26-8.41"/><path class="p" d="M187.04,459.61l-5.28-.6c-7.95-.9-11.39-8.59-5.98-13.36l10.45-9.21"/><path class="d" d="M1.22,180.52s48.13,13.85,90.33,19.78c42.2,5.93,116.68-28.54,116.68-28.54"/></g><g><polygon class="f" points="170.9 396.83 168.17 399.15 164.8 397.95 164.15 394.42 166.88 392.11 170.26 393.31 170.9 396.83"/><polygon class="f" points="179.67 391.58 176.93 393.89 173.56 392.69 172.92 389.17 175.65 386.85 179.02 388.05 179.67 391.58"/><polygon class="f" points="177.91 400.34 175.18 402.66 171.81 401.45 171.17 397.93 173.9 395.61 177.27 396.82 177.91 400.34"/><polygon class="f" points="186.68 396.83 183.95 399.15 180.57 397.95 179.93 394.42 182.66 392.11 186.03 393.31 186.68 396.83"/><polygon class="f" points="193.69 393.33 190.96 395.65 187.58 394.44 186.94 390.92 189.67 388.6 193.05 389.8 193.69 393.33"/><polygon class="f" points="186.68 388.07 183.95 390.39 180.57 389.18 179.93 385.66 182.66 383.34 186.03 384.55 186.68 388.07"/><polygon class="f" points="200.7 388.07 197.97 390.39 194.6 389.18 193.95 385.66 196.68 383.34 200.06 384.55 200.7 388.07"/><polygon class="f" points="188.43 379.31 185.7 381.62 182.33 380.42 181.68 376.89 184.41 374.58 187.79 375.78 188.43 379.31"/><polygon class="f" points="193.69 384.56 190.96 386.88 187.58 385.68 186.94 382.15 189.67 379.83 193.05 381.04 193.69 384.56"/><polygon class="f" points="198.95 381.06 196.22 383.38 192.84 382.17 192.2 378.65 194.93 376.33 198.3 377.53 198.95 381.06"/><polygon class="f" points="179.67 382.81 176.93 385.13 173.56 383.92 172.92 380.4 175.65 378.08 179.02 379.29 179.67 382.81"/><polygon class="f" points="172.65 379.31 169.92 381.62 166.55 380.42 165.91 376.89 168.64 374.58 172.01 375.78 172.65 379.31"/><polygon class="f" points="170.9 388.07 168.17 390.39 164.8 389.18 164.15 385.66 166.88 383.34 170.26 384.55 170.9 388.07"/><polygon class="f" points="162.14 393.33 159.41 395.65 156.03 394.44 155.39 390.92 158.12 388.6 161.49 389.8 162.14 393.33"/><polygon class="f" points="163.89 382.81 161.16 385.13 157.79 383.92 157.14 380.4 159.87 378.08 163.25 379.29 163.89 382.81"/><polygon class="f" points="155.12 388.07 152.39 390.39 149.02 389.18 148.38 385.66 151.11 383.34 154.48 384.55 155.12 388.07"/><polygon class="f" points="160.38 375.8 157.65 378.12 154.28 376.91 153.64 373.39 156.37 371.07 159.74 372.28 160.38 375.8"/><polygon class="f" points="169.15 370.54 166.42 372.86 163.04 371.65 162.4 368.13 165.13 365.81 168.5 367.02 169.15 370.54"/><polygon class="f" points="169.15 361.78 166.42 364.1 163.04 362.89 162.4 359.37 165.13 357.05 168.5 358.25 169.15 361.78"/><polygon class="f" points="162.14 358.27 159.41 360.59 156.03 359.38 155.39 355.86 158.12 353.54 161.49 354.75 162.14 358.27"/><polygon class="f" points="160.38 367.04 157.65 369.35 154.28 368.15 153.64 364.62 156.37 362.31 159.74 363.51 160.38 367.04"/><polygon class="f" points="151.62 372.29 148.89 374.61 145.52 373.41 144.87 369.88 147.6 367.56 150.98 368.77 151.62 372.29"/><polygon class="f" points="153.37 361.78 150.64 364.1 147.27 362.89 146.63 359.37 149.36 357.05 152.73 358.25 153.37 361.78"/><polygon class="f" points="144.61 367.04 141.88 369.35 138.5 368.15 137.86 364.62 140.59 362.31 143.96 363.51 144.61 367.04"/><polygon class="f" points="130.58 363.53 127.85 365.85 124.48 364.64 123.84 361.12 126.57 358.8 129.94 360.01 130.58 363.53"/><polygon class="f" points="191.94 368.79 189.2 371.11 185.83 369.9 185.19 366.38 187.92 364.06 191.29 365.26 191.94 368.79"/><polygon class="f" points="200.7 363.53 197.97 365.85 194.6 364.64 193.95 361.12 196.68 358.8 200.06 360.01 200.7 363.53"/><polygon class="f" points="198.95 372.29 196.22 374.61 192.84 373.41 192.2 369.88 194.93 367.56 198.3 368.77 198.95 372.29"/><polygon class="f" points="207.71 368.79 204.98 371.11 201.61 369.9 200.96 366.38 203.7 364.06 207.07 365.26 207.71 368.79"/><polygon class="f" points="207.71 379.31 204.98 381.62 201.61 380.42 200.96 376.89 203.7 374.58 207.07 375.78 207.71 379.31"/><polygon class="f" points="214.72 365.28 211.99 367.6 208.62 366.4 207.98 362.87 210.71 360.55 214.08 361.76 214.72 365.28"/><polygon class="f" points="214.72 374.05 211.99 376.37 208.62 375.16 207.98 371.64 210.71 369.32 214.08 370.52 214.72 374.05"/><polygon class="f" points="207.71 360.02 204.98 362.34 201.61 361.14 200.96 357.61 203.7 355.29 207.07 356.5 207.71 360.02"/><polygon class="f" points="221.73 360.02 219 362.34 215.63 361.14 214.99 357.61 217.72 355.29 221.09 356.5 221.73 360.02"/><polygon class="f" points="209.46 351.26 206.73 353.58 203.36 352.37 202.72 348.85 205.45 346.53 208.82 347.74 209.46 351.26"/><polygon class="f" points="212.97 344.25 210.24 346.57 206.87 345.36 206.22 341.84 208.95 339.52 212.33 340.72 212.97 344.25"/><polygon class="f" points="216.48 349.51 213.75 351.82 210.37 350.62 209.73 347.1 212.46 344.78 215.83 345.98 216.48 349.51"/><polygon class="f" points="214.72 356.52 211.99 358.84 208.62 357.63 207.98 354.11 210.71 351.79 214.08 352.99 214.72 356.52"/><polygon class="f" points="200.7 354.76 197.97 357.08 194.6 355.88 193.95 352.35 196.68 350.04 200.06 351.24 200.7 354.76"/><polygon class="f" points="193.69 351.26 190.96 353.58 187.58 352.37 186.94 348.85 189.67 346.53 193.05 347.74 193.69 351.26"/><polygon class="f" points="191.94 360.02 189.2 362.34 185.83 361.14 185.19 357.61 187.92 355.29 191.29 356.5 191.94 360.02"/><polygon class="f" points="183.17 365.28 180.44 367.6 177.07 366.4 176.42 362.87 179.15 360.55 182.53 361.76 183.17 365.28"/><polygon class="f" points="176.16 368.79 173.43 371.11 170.06 369.9 169.41 366.38 172.14 364.06 175.52 365.26 176.16 368.79"/><polygon class="f" points="181.42 374.05 178.69 376.37 175.31 375.16 174.67 371.64 177.4 369.32 180.78 370.52 181.42 374.05"/><polygon class="f" points="184.92 354.76 182.19 357.08 178.82 355.88 178.18 352.35 180.91 350.04 184.28 351.24 184.92 354.76"/><polygon class="f" points="176.16 360.02 173.43 362.34 170.06 361.14 169.41 357.61 172.14 355.29 175.52 356.5 176.16 360.02"/><polygon class="f" points="160.38 349.51 157.65 351.82 154.28 350.62 153.64 347.1 156.37 344.78 159.74 345.98 160.38 349.51"/><polygon class="f" points="169.15 344.25 166.42 346.57 163.04 345.36 162.4 341.84 165.13 339.52 168.5 340.72 169.15 344.25"/><polygon class="f" points="167.39 353.01 164.66 355.33 161.29 354.13 160.65 350.6 163.38 348.28 166.75 349.49 167.39 353.01"/><polygon class="f" points="176.16 349.51 173.43 351.82 170.06 350.62 169.41 347.1 172.14 344.78 175.52 345.98 176.16 349.51"/><polygon class="f" points="183.17 346 180.44 348.32 177.07 347.11 176.42 343.59 179.15 341.27 182.53 342.48 183.17 346"/><polygon class="f" points="176.16 340.74 173.43 343.06 170.06 341.86 169.41 338.33 172.14 336.01 175.52 337.22 176.16 340.74"/><polygon class="f" points="190.18 340.74 187.45 343.06 184.08 341.86 183.44 338.33 186.17 336.01 189.54 337.22 190.18 340.74"/><polygon class="f" points="197.19 344.25 194.46 346.57 191.09 345.36 190.45 341.84 193.18 339.52 196.55 340.72 197.19 344.25"/><polygon class="f" points="177.91 331.98 175.18 334.3 171.81 333.09 171.17 329.57 173.9 327.25 177.27 328.45 177.91 331.98"/><polygon class="f" points="183.17 337.24 180.44 339.55 177.07 338.35 176.42 334.83 179.15 332.51 182.53 333.71 183.17 337.24"/><polygon class="f" points="169.15 335.48 166.42 337.8 163.04 336.6 162.4 333.07 165.13 330.75 168.5 331.96 169.15 335.48"/><polygon class="f" points="162.14 331.98 159.41 334.3 156.03 333.09 155.39 329.57 158.12 327.25 161.49 328.45 162.14 331.98"/><polygon class="f" points="160.38 340.74 157.65 343.06 154.28 341.86 153.64 338.33 156.37 336.01 159.74 337.22 160.38 340.74"/><polygon class="f" points="151.62 346 148.89 348.32 145.52 347.11 144.87 343.59 147.6 341.27 150.98 342.48 151.62 346"/><polygon class="f" points="153.37 335.48 150.64 337.8 147.27 336.6 146.63 333.07 149.36 330.75 152.73 331.96 153.37 335.48"/><polygon class="f" points="144.61 340.74 141.88 343.06 138.5 341.86 137.86 338.33 140.59 336.01 143.96 337.22 144.61 340.74"/><polygon class="f" points="200.7 335.48 197.97 337.8 194.6 336.6 193.95 333.07 196.68 330.75 200.06 331.96 200.7 335.48"/><polygon class="f" points="209.46 330.22 206.73 332.54 203.36 331.34 202.72 327.81 205.45 325.5 208.82 326.7 209.46 330.22"/><polygon class="f" points="207.71 338.99 204.98 341.31 201.61 340.1 200.96 336.58 203.7 334.26 207.07 335.46 207.71 338.99"/><polygon class="f" points="216.48 335.48 213.75 337.8 210.37 336.6 209.73 333.07 212.46 330.75 215.83 331.96 216.48 335.48"/><polygon class="f" points="223.49 331.98 220.76 334.3 217.38 333.09 216.74 329.57 219.47 327.25 222.84 328.45 223.49 331.98"/><polygon class="f" points="216.48 326.72 213.75 329.04 210.37 327.83 209.73 324.31 212.46 321.99 215.83 323.19 216.48 326.72"/><polygon class="f" points="230.5 326.72 227.77 329.04 224.4 327.83 223.75 324.31 226.48 321.99 229.86 323.19 230.5 326.72"/><polygon class="f" points="218.23 317.95 215.5 320.27 212.13 319.07 211.48 315.54 214.21 313.22 217.59 314.43 218.23 317.95"/><polygon class="f" points="223.49 323.21 220.76 325.53 217.38 324.33 216.74 320.8 219.47 318.48 222.84 319.69 223.49 323.21"/><polygon class="f" points="225.37 350.12 223.88 353.38 220.31 353.71 218.24 350.79 219.74 347.53 223.3 347.2 225.37 350.12"/><polygon class="f" points="230.25 343.99 228.75 347.24 225.19 347.57 223.11 344.65 224.61 341.4 228.18 341.06 230.25 343.99"/><polygon class="f" points="221.67 342.18 220.18 345.44 216.61 345.77 214.54 342.84 216.03 339.59 219.6 339.26 221.67 342.18"/><polygon class="f" points="234.38 336.26 232.89 339.51 229.32 339.85 227.25 336.92 228.75 333.67 232.31 333.34 234.38 336.26"/><polygon class="f" points="226.55 336.04 225.05 339.3 221.48 339.63 219.41 336.71 220.91 333.45 224.48 333.12 226.55 336.04"/><polygon class="f" points="237.06 327.28 235.57 330.53 232 330.86 229.93 327.94 231.43 324.69 234.99 324.35 237.06 327.28"/><polygon class="f" points="209.46 321.46 206.73 323.78 203.36 322.57 202.72 319.05 205.45 316.73 208.82 317.94 209.46 321.46"/><polygon class="f" points="202.45 317.95 199.72 320.27 196.35 319.07 195.71 315.54 198.44 313.22 201.81 314.43 202.45 317.95"/><polygon class="f" points="200.7 326.72 197.97 329.04 194.6 327.83 193.95 324.31 196.68 321.99 200.06 323.19 200.7 326.72"/><polygon class="f" points="191.94 331.98 189.2 334.3 185.83 333.09 185.19 329.57 187.92 327.25 191.29 328.45 191.94 331.98"/><polygon class="f" points="193.69 321.46 190.96 323.78 187.58 322.57 186.94 319.05 189.67 316.73 193.05 317.94 193.69 321.46"/><polygon class="f" points="184.92 326.72 182.19 329.04 178.82 327.83 178.18 324.31 180.91 321.99 184.28 323.19 184.92 326.72"/><polygon class="f" points="163.89 321.46 161.16 323.78 157.79 322.57 157.14 319.05 159.87 316.73 163.25 317.94 163.89 321.46"/><polygon class="f" points="172.65 316.2 169.92 318.52 166.55 317.31 165.91 313.79 168.64 311.47 172.01 312.68 172.65 316.2"/><polygon class="f" points="170.9 324.97 168.17 327.28 164.8 326.08 164.15 322.56 166.88 320.24 170.26 321.44 170.9 324.97"/><polygon class="f" points="179.67 321.46 176.93 323.78 173.56 322.57 172.92 319.05 175.65 316.73 179.02 317.94 179.67 321.46"/><polygon class="f" points="186.68 317.95 183.95 320.27 180.57 319.07 179.93 315.54 182.66 313.22 186.03 314.43 186.68 317.95"/><polygon class="f" points="179.67 312.7 176.93 315.01 173.56 313.81 172.92 310.28 175.65 307.97 179.02 309.17 179.67 312.7"/><polygon class="f" points="193.69 312.7 190.96 315.01 187.58 313.81 186.94 310.28 189.67 307.97 193.05 309.17 193.69 312.7"/><polygon class="f" points="181.42 303.93 178.69 306.25 175.31 305.04 174.67 301.52 177.4 299.2 180.78 300.41 181.42 303.93"/><polygon class="f" points="186.68 309.19 183.95 311.51 180.57 310.3 179.93 306.78 182.66 304.46 186.03 305.67 186.68 309.19"/><polygon class="f" points="172.65 307.44 169.92 309.76 166.55 308.55 165.91 305.03 168.64 302.71 172.01 303.91 172.65 307.44"/><polygon class="f" points="165.64 303.93 162.91 306.25 159.54 305.04 158.9 301.52 161.63 299.2 165 300.41 165.64 303.93"/><polygon class="f" points="163.89 312.7 161.16 315.01 157.79 313.81 157.14 310.28 159.87 307.97 163.25 309.17 163.89 312.7"/><polygon class="f" points="155.12 317.95 152.39 320.27 149.02 319.07 148.38 315.54 151.11 313.22 154.48 314.43 155.12 317.95"/><polygon class="f" points="156.88 307.44 154.15 309.76 150.77 308.55 150.13 305.03 152.86 302.71 156.23 303.91 156.88 307.44"/><polygon class="f" points="148.11 312.7 145.38 315.01 142.01 313.81 141.37 310.28 144.1 307.97 147.47 309.17 148.11 312.7"/><polygon class="f" points="139.35 300.43 136.62 302.74 133.24 301.54 132.6 298.01 135.33 295.7 138.71 296.9 139.35 300.43"/><polygon class="f" points="148.11 295.17 145.38 297.49 142.01 296.28 141.37 292.76 144.1 290.44 147.47 291.64 148.11 295.17"/><polygon class="f" points="146.36 303.93 143.63 306.25 140.26 305.04 139.61 301.52 142.34 299.2 145.72 300.41 146.36 303.93"/><polygon class="f" points="155.12 300.43 152.39 302.74 149.02 301.54 148.38 298.01 151.11 295.7 154.48 296.9 155.12 300.43"/><polygon class="f" points="162.14 296.92 159.41 299.24 156.03 298.03 155.39 294.51 158.12 292.19 161.49 293.4 162.14 296.92"/><polygon class="f" points="155.12 291.66 152.39 293.98 149.02 292.77 148.38 289.25 151.11 286.93 154.48 288.14 155.12 291.66"/><polygon class="f" points="169.15 291.66 166.42 293.98 163.04 292.77 162.4 289.25 165.13 286.93 168.5 288.14 169.15 291.66"/><polygon class="f" points="170.9 284.65 168.17 286.97 164.8 285.76 164.15 282.24 166.88 279.92 170.26 281.13 170.9 284.65"/><polygon class="f" points="176.16 296.92 173.43 299.24 170.06 298.03 169.41 294.51 172.14 292.19 175.52 293.4 176.16 296.92"/><polygon class="f" points="156.88 282.9 154.15 285.21 150.77 284.01 150.13 280.49 152.86 278.17 156.23 279.37 156.88 282.9"/><polygon class="f" points="162.14 288.15 159.41 290.47 156.03 289.27 155.39 285.74 158.12 283.43 161.49 284.63 162.14 288.15"/><polygon class="f" points="148.11 286.4 145.38 288.72 142.01 287.52 141.37 283.99 144.1 281.67 147.47 282.88 148.11 286.4"/><polygon class="f" points="165.64 277.64 162.91 279.96 159.54 278.75 158.9 275.23 161.63 272.91 165 274.11 165.64 277.64"/><polygon class="f" points="139.35 291.66 136.62 293.98 133.24 292.77 132.6 289.25 135.33 286.93 138.71 288.14 139.35 291.66"/><polygon class="f" points="130.58 296.92 127.85 299.24 124.48 298.03 123.84 294.51 126.57 292.19 129.94 293.4 130.58 296.92"/><polygon class="f" points="132.34 286.4 129.61 288.72 126.23 287.52 125.59 283.99 128.32 281.67 131.69 282.88 132.34 286.4"/><polygon class="f" points="123.57 291.66 120.84 293.98 117.47 292.77 116.83 289.25 119.56 286.93 122.93 288.14 123.57 291.66"/><polygon class="f" points="114.81 288.15 112.08 290.47 108.7 289.27 108.06 285.74 110.79 283.43 114.17 284.63 114.81 288.15"/><polygon class="f" points="195.44 298.67 192.71 300.99 189.34 299.79 188.69 296.26 191.43 293.94 194.8 295.15 195.44 298.67"/><polygon class="f" points="204.21 293.41 201.48 295.73 198.1 294.53 197.46 291 200.19 288.68 203.56 289.89 204.21 293.41"/><polygon class="f" points="202.45 302.18 199.72 304.5 196.35 303.29 195.71 299.77 198.44 297.45 201.81 298.65 202.45 302.18"/><polygon class="f" points="202.45 309.19 199.72 311.51 196.35 310.3 195.71 306.78 198.44 304.46 201.81 305.67 202.45 309.19"/><polygon class="f" points="211.22 298.67 208.49 300.99 205.11 299.79 204.47 296.26 207.2 293.94 210.57 295.15 211.22 298.67"/><polygon class="f" points="211.22 307.44 208.49 309.76 205.11 308.55 204.47 305.03 207.2 302.71 210.57 303.91 211.22 307.44"/><polygon class="f" points="218.23 303.93 215.5 306.25 212.13 305.04 211.48 301.52 214.21 299.2 217.59 300.41 218.23 303.93"/><polygon class="f" points="218.23 295.17 215.5 297.49 212.13 296.28 211.48 292.76 214.21 290.44 217.59 291.64 218.23 295.17"/><polygon class="f" points="211.22 289.91 208.49 292.23 205.11 291.02 204.47 287.5 207.2 285.18 210.57 286.38 211.22 289.91"/><polygon class="f" points="225.24 281.14 222.51 283.46 219.14 282.26 218.49 278.73 221.22 276.41 224.6 277.62 225.24 281.14"/><polygon class="f" points="212.97 281.14 210.24 283.46 206.87 282.26 206.22 278.73 208.95 276.41 212.33 277.62 212.97 281.14"/><polygon class="f" points="218.23 286.4 215.5 288.72 212.13 287.52 211.48 283.99 214.21 281.67 217.59 282.88 218.23 286.4"/><polygon class="f" points="204.21 284.65 201.48 286.97 198.1 285.76 197.46 282.24 200.19 279.92 203.56 281.13 204.21 284.65"/><polygon class="f" points="197.19 281.14 194.46 283.46 191.09 282.26 190.45 278.73 193.18 276.41 196.55 277.62 197.19 281.14"/><polygon class="f" points="195.44 289.91 192.71 292.23 189.34 291.02 188.69 287.5 191.43 285.18 194.8 286.38 195.44 289.91"/><polygon class="f" points="186.68 295.17 183.95 297.49 180.57 296.28 179.93 292.76 182.66 290.44 186.03 291.64 186.68 295.17"/><polygon class="f" points="188.43 284.65 185.7 286.97 182.33 285.76 181.68 282.24 184.41 279.92 187.79 281.13 188.43 284.65"/><polygon class="f" points="179.67 289.91 176.93 292.23 173.56 291.02 172.92 287.5 175.65 285.18 179.02 286.38 179.67 289.91"/><polygon class="f" points="179.67 281.14 176.93 283.46 173.56 282.26 172.92 278.73 175.65 276.41 179.02 277.62 179.67 281.14"/><polygon class="f" points="188.43 275.88 185.7 278.2 182.33 277 181.68 273.47 184.41 271.16 187.79 272.36 188.43 275.88"/><polygon class="f" points="181.42 270.63 178.69 272.94 175.31 271.74 174.67 268.22 177.4 265.9 180.78 267.1 181.42 270.63"/><polygon class="f" points="172.65 275.88 169.92 278.2 166.55 277 165.91 273.47 168.64 271.16 172.01 272.36 172.65 275.88"/><polygon class="f" points="198.95 272.38 196.22 274.7 192.84 273.49 192.2 269.97 194.93 267.65 198.3 268.85 198.95 272.38"/><polygon class="f" points="207.71 267.12 204.98 269.44 201.61 268.23 200.96 264.71 203.7 262.39 207.07 263.6 207.71 267.12"/><polygon class="f" points="205.96 275.88 203.23 278.2 199.85 277 199.21 273.47 201.94 271.16 205.32 272.36 205.96 275.88"/><polygon class="f" points="214.72 272.38 211.99 274.7 208.62 273.49 207.98 269.97 210.71 267.65 214.08 268.85 214.72 272.38"/><polygon class="f" points="221.73 268.87 219 271.19 215.63 269.99 214.99 266.46 217.72 264.14 221.09 265.35 221.73 268.87"/><polygon class="f" points="214.72 263.61 211.99 265.93 208.62 264.73 207.98 261.2 210.71 258.89 214.08 260.09 214.72 263.61"/><polygon class="f" points="228.75 263.61 226.02 265.93 222.64 264.73 222 261.2 224.73 258.89 228.1 260.09 228.75 263.61"/><polygon class="f" points="234 268.87 231.27 271.19 227.9 269.99 227.26 266.46 229.99 264.14 233.36 265.35 234 268.87"/><polygon class="f" points="232.25 277.64 229.52 279.96 226.15 278.75 225.51 275.23 228.24 272.91 231.61 274.11 232.25 277.64"/><polygon class="f" points="216.48 254.85 213.75 257.17 210.37 255.96 209.73 252.44 212.46 250.12 215.83 251.33 216.48 254.85"/><polygon class="f" points="221.73 260.11 219 262.43 215.63 261.22 214.99 257.7 217.72 255.38 221.09 256.58 221.73 260.11"/><polygon class="f" points="207.71 258.36 204.98 260.67 201.61 259.47 200.96 255.95 203.7 253.63 207.07 254.83 207.71 258.36"/><polygon class="f" points="209.46 251.34 206.73 253.66 203.36 252.46 202.72 248.93 205.45 246.61 208.82 247.82 209.46 251.34"/><polygon class="f" points="200.7 254.85 197.97 257.17 194.6 255.96 193.95 252.44 196.68 250.12 200.06 251.33 200.7 254.85"/><polygon class="f" points="193.69 247.84 190.96 250.16 187.58 248.95 186.94 245.43 189.67 243.11 193.05 244.31 193.69 247.84"/><polygon class="f" points="198.95 263.61 196.22 265.93 192.84 264.73 192.2 261.2 194.93 258.89 198.3 260.09 198.95 263.61"/><polygon class="f" points="190.18 268.87 187.45 271.19 184.08 269.99 183.44 266.46 186.17 264.14 189.54 265.35 190.18 268.87"/><polygon class="f" points="191.94 258.36 189.2 260.67 185.83 259.47 185.19 255.95 187.92 253.63 191.29 254.83 191.94 258.36"/><polygon class="f" points="186.68 251.34 183.95 253.66 180.57 252.46 179.93 248.93 182.66 246.61 186.03 247.82 186.68 251.34"/><polygon class="f" points="183.17 263.61 180.44 265.93 177.07 264.73 176.42 261.2 179.15 258.89 182.53 260.09 183.17 263.61"/><polygon class="f" points="179.67 254.85 176.93 257.17 173.56 255.96 172.92 252.44 175.65 250.12 179.02 251.33 179.67 254.85"/><polygon class="f" points="169.15 251.34 166.42 253.66 163.04 252.46 162.4 248.93 165.13 246.61 168.5 247.82 169.15 251.34"/><polygon class="f" points="170.9 244.33 168.17 246.65 164.8 245.45 164.15 241.92 166.88 239.6 170.26 240.81 170.9 244.33"/><polygon class="f" points="142.85 270.63 140.12 272.94 136.75 271.74 136.11 268.22 138.84 265.9 142.21 267.1 142.85 270.63"/><polygon class="f" points="151.62 265.37 148.89 267.69 145.52 266.48 144.87 262.96 147.6 260.64 150.98 261.84 151.62 265.37"/><polygon class="f" points="149.87 274.13 147.14 276.45 143.76 275.25 143.12 271.72 145.85 269.4 149.22 270.61 149.87 274.13"/><polygon class="f" points="135.84 277.64 133.11 279.96 129.74 278.75 129.1 275.23 131.83 272.91 135.2 274.11 135.84 277.64"/><polygon class="f" points="144.61 279.39 141.88 281.71 138.5 280.5 137.86 276.98 140.59 274.66 143.96 275.87 144.61 279.39"/><polygon class="f" points="158.63 270.63 155.9 272.94 152.53 271.74 151.88 268.22 154.61 265.9 157.99 267.1 158.63 270.63"/><polygon class="f" points="165.64 267.12 162.91 269.44 159.54 268.23 158.9 264.71 161.63 262.39 165 263.6 165.64 267.12"/><polygon class="f" points="158.63 261.86 155.9 264.18 152.53 262.97 151.88 259.45 154.61 257.13 157.99 258.34 158.63 261.86"/><polygon class="f" points="170.81 263.9 167.24 263.6 165.71 260.36 167.75 257.42 171.32 257.71 172.85 260.95 170.81 263.9"/><polygon class="f" points="160.38 253.1 157.65 255.42 154.28 254.21 153.64 250.69 156.37 248.37 159.74 249.57 160.38 253.1"/><polygon class="f" points="165.64 258.36 162.91 260.67 159.54 259.47 158.9 255.95 161.63 253.63 165 254.83 165.64 258.36"/><polygon class="f" points="151.62 256.6 148.89 258.92 145.52 257.72 144.87 254.19 147.6 251.87 150.98 253.08 151.62 256.6"/><polygon class="f" points="144.61 253.1 141.88 255.42 138.5 254.21 137.86 250.69 140.59 248.37 143.96 249.57 144.61 253.1"/><polygon class="f" points="142.85 261.86 140.12 264.18 136.75 262.97 136.11 259.45 138.84 257.13 142.21 258.34 142.85 261.86"/><polygon class="f" points="134.09 267.12 131.36 269.44 127.99 268.23 127.34 264.71 130.07 262.39 133.45 263.6 134.09 267.12"/><polygon class="f" points="135.84 256.6 133.11 258.92 129.74 257.72 129.1 254.19 131.83 251.87 135.2 253.08 135.84 256.6"/><polygon class="f" points="127.08 261.86 124.35 264.18 120.97 262.97 120.33 259.45 123.06 257.13 126.44 258.34 127.08 261.86"/><polygon class="f" points="106.04 256.6 103.31 258.92 99.94 257.72 99.3 254.19 102.03 251.87 105.4 253.08 106.04 256.6"/><polygon class="f" points="114.81 251.34 112.08 253.66 108.7 252.46 108.06 248.93 110.79 246.61 114.17 247.82 114.81 251.34"/><polygon class="f" points="113.06 260.11 110.32 262.43 106.95 261.22 106.31 257.7 109.04 255.38 112.41 256.58 113.06 260.11"/><polygon class="f" points="121.82 256.6 119.09 258.92 115.72 257.72 115.07 254.19 117.8 251.87 121.18 253.08 121.82 256.6"/><polygon class="f" points="128.83 253.1 126.1 255.42 122.73 254.21 122.08 250.69 124.82 248.37 128.19 249.57 128.83 253.1"/><polygon class="f" points="121.82 247.84 119.09 250.16 115.72 248.95 115.07 245.43 117.8 243.11 121.18 244.31 121.82 247.84"/><polygon class="f" points="135.84 247.84 133.11 250.16 129.74 248.95 129.1 245.43 131.83 243.11 135.2 244.31 135.84 247.84"/><polygon class="f" points="123.57 239.07 120.84 241.39 117.47 240.19 116.83 236.66 119.56 234.34 122.93 235.55 123.57 239.07"/><polygon class="f" points="128.83 244.33 126.1 246.65 122.73 245.45 122.08 241.92 124.82 239.6 128.19 240.81 128.83 244.33"/><polygon class="f" points="114.81 242.58 112.08 244.9 108.7 243.69 108.06 240.17 110.79 237.85 114.17 239.06 114.81 242.58"/><polygon class="f" points="107.8 239.07 105.07 241.39 101.69 240.19 101.05 236.66 103.78 234.34 107.15 235.55 107.8 239.07"/><polygon class="f" points="106.04 247.84 103.31 250.16 99.94 248.95 99.3 245.43 102.03 243.11 105.4 244.31 106.04 247.84"/><polygon class="f" points="97.28 253.1 94.55 255.42 91.18 254.21 90.53 250.69 93.26 248.37 96.64 249.57 97.28 253.1"/><polygon class="f" points="99.03 242.58 96.3 244.9 92.93 243.69 92.29 240.17 95.02 237.85 98.39 239.06 99.03 242.58"/><polygon class="f" points="99.03 233.82 96.3 236.13 92.93 234.93 92.29 231.4 95.02 229.09 98.39 230.29 99.03 233.82"/><polygon class="f" points="90.27 247.84 87.54 250.16 84.16 248.95 83.52 245.43 86.25 243.11 89.62 244.31 90.27 247.84"/><polygon class="f" points="104.29 275.88 101.56 278.2 98.19 277 97.54 273.47 100.27 271.16 103.65 272.36 104.29 275.88"/><polygon class="f" points="113.06 270.63 110.32 272.94 106.95 271.74 106.31 268.22 109.04 265.9 112.41 267.1 113.06 270.63"/><polygon class="f" points="111.3 279.39 108.57 281.71 105.2 280.5 104.56 276.98 107.29 274.66 110.66 275.87 111.3 279.39"/><polygon class="f" points="120.07 275.88 117.34 278.2 113.96 277 113.32 273.47 116.05 271.16 119.42 272.36 120.07 275.88"/><polygon class="f" points="123.57 282.9 120.84 285.21 117.47 284.01 116.83 280.49 119.56 278.17 122.93 279.37 123.57 282.9"/><polygon class="f" points="128.83 274.13 126.1 276.45 122.73 275.25 122.08 271.72 124.82 269.4 128.19 270.61 128.83 274.13"/><polygon class="f" points="120.07 267.12 117.34 269.44 113.96 268.23 113.32 264.71 116.05 262.39 119.42 263.6 120.07 267.12"/><polygon class="f" points="104.29 267.12 101.56 269.44 98.19 268.23 97.54 264.71 100.27 262.39 103.65 263.6 104.29 267.12"/><polygon class="f" points="95.53 272.38 92.8 274.7 89.42 273.49 88.78 269.97 91.51 267.65 94.88 268.85 95.53 272.38"/><polygon class="f" points="84.25 277.39 80.85 278.52 78.17 276.14 78.89 272.63 82.29 271.5 84.97 273.88 84.25 277.39"/><polygon class="f" points="89.44 283.26 86.04 284.39 83.36 282.01 84.09 278.5 87.49 277.37 90.16 279.75 89.44 283.26"/><polygon class="f" points="77.43 270.86 74.03 271.99 71.36 269.61 72.08 266.1 75.48 264.97 78.15 267.35 77.43 270.86"/><polygon class="f" points="107.04 293.16 103.64 294.29 100.96 291.91 101.68 288.4 105.08 287.27 107.76 289.65 107.04 293.16"/><polygon class="f" points="112.23 299.04 108.83 300.17 106.15 297.79 106.87 294.28 110.27 293.15 112.95 295.53 112.23 299.04"/><polygon class="f" points="120.99 300.79 117.59 301.92 114.92 299.54 115.64 296.03 119.04 294.9 121.71 297.28 120.99 300.79"/><polygon class="f" points="100.22 286.63 96.82 287.76 94.14 285.38 94.87 281.87 98.26 280.74 100.94 283.12 100.22 286.63"/><polygon class="f" points="100.41 299.6 97.22 301.24 94.21 299.31 94.37 295.73 97.55 294.09 100.57 296.02 100.41 299.6"/><polygon class="f" points="106.45 304.59 103.27 306.23 100.25 304.3 100.42 300.72 103.6 299.08 106.62 301.01 106.45 304.59"/><polygon class="f" points="92.65 294.21 89.47 295.86 86.45 293.92 86.62 290.35 89.8 288.7 92.82 290.63 92.65 294.21"/><polygon class="f" points="109.17 320.63 105.99 322.28 102.97 320.34 103.14 316.77 106.32 315.12 109.34 317.05 109.17 320.63"/><polygon class="f" points="115.21 325.62 112.03 327.27 109.02 325.34 109.18 321.76 112.36 320.11 115.38 322.04 115.21 325.62"/><polygon class="f" points="123.98 329.13 120.8 330.77 117.78 328.84 117.95 325.26 121.13 323.62 124.14 325.55 123.98 329.13"/><polygon class="f" points="111.71 332.63 108.53 334.28 105.51 332.35 105.68 328.77 108.86 327.12 111.87 329.06 111.71 332.63"/><polygon class="f" points="101.42 315.25 98.24 316.89 95.22 314.96 95.38 311.38 98.57 309.74 101.58 311.67 101.42 315.25"/><polygon class="f" points="121.44 317.12 118.26 318.77 115.24 316.84 115.41 313.26 118.59 311.61 121.61 313.55 121.44 317.12"/><polygon class="f" points="127.49 322.12 124.3 323.76 121.29 321.83 121.45 318.25 124.63 316.61 127.65 318.54 127.49 322.12"/><polygon class="f" points="113.69 311.74 110.51 313.39 107.49 311.45 107.65 307.88 110.84 306.23 113.85 308.16 113.69 311.74"/><polygon class="f" points="130.2 311.87 127.02 313.51 124.01 311.58 124.17 308 127.35 306.36 130.37 308.29 130.2 311.87"/><polygon class="f" points="136.25 316.86 133.07 318.5 130.05 316.57 130.22 312.99 133.4 311.35 136.41 313.28 136.25 316.86"/><polygon class="f" points="139.76 309.85 136.57 311.49 133.56 309.56 133.72 305.98 136.9 304.34 139.92 306.27 139.76 309.85"/><polygon class="f" points="134.5 327.37 131.32 329.02 128.3 327.09 128.46 323.51 131.65 321.86 134.66 323.8 134.5 327.37"/><polygon class="f" points="139.76 334.39 136.57 336.03 133.56 334.1 133.72 330.52 136.9 328.88 139.92 330.81 139.76 334.39"/><polygon class="f" points="143.26 323.87 140.08 325.52 137.06 323.58 137.23 320 140.41 318.36 143.43 320.29 143.26 323.87"/><polygon class="f" points="146.77 332.63 143.59 334.28 140.57 332.35 140.73 328.77 143.92 327.12 146.93 329.06 146.77 332.63"/><polygon class="f" points="153.78 327.37 150.6 329.02 147.58 327.09 147.75 323.51 150.93 321.86 153.94 323.8 153.78 327.37"/><polygon class="f" points="122.45 306.48 119.27 308.13 116.25 306.2 116.42 302.62 119.6 300.97 122.62 302.9 122.45 306.48"/><polygon class="f" points="130.2 341.67 127.02 343.31 124.01 341.38 124.17 337.8 127.35 336.16 130.37 338.09 130.2 341.67"/><polygon class="f" points="136.25 346.66 133.07 348.3 130.05 346.37 130.22 342.79 133.4 341.15 136.41 343.08 136.25 346.66"/><polygon class="f" points="130.99 334.39 127.81 336.03 124.79 334.1 124.96 330.52 128.14 328.88 131.16 330.81 130.99 334.39"/><polygon class="f" points="122.45 336.28 119.27 337.93 116.25 335.99 116.42 332.42 119.6 330.77 122.62 332.7 122.45 336.28"/><polygon class="f" points="130.2 352.18 127.02 353.83 124.01 351.9 124.17 348.32 127.35 346.67 130.37 348.6 130.2 352.18"/><polygon class="f" points="136.25 357.17 133.07 358.82 130.05 356.89 130.22 353.31 133.4 351.66 136.41 353.6 136.25 357.17"/><polygon class="f" points="145.01 353.67 141.83 355.31 138.82 353.38 138.98 349.8 142.16 348.16 145.18 350.09 145.01 353.67"/><polygon class="f" points="122.45 346.8 119.27 348.44 116.25 346.51 116.42 342.93 119.6 341.29 122.62 343.22 122.45 346.8"/><polygon class="f" points="142.09 379.05 138.7 380.18 136.02 377.8 136.74 374.3 140.14 373.17 142.82 375.55 142.09 379.05"/><polygon class="f" points="147.29 384.93 143.89 386.06 141.21 383.68 141.93 380.17 145.33 379.04 148.01 381.42 147.29 384.93"/><polygon class="f" points="135.28 372.52 131.88 373.65 129.2 371.27 129.92 367.77 133.32 366.64 136 369.02 135.28 372.52"/><polygon class="f" points="88.51 267.12 85.78 269.44 82.41 268.23 81.77 264.71 84.5 262.39 87.87 263.6 88.51 267.12"/><polygon class="f" points="76.24 249.59 73.51 251.91 70.14 250.7 69.5 247.18 72.23 244.86 75.6 246.07 76.24 249.59"/><polygon class="f" points="69.23 244.33 66.5 246.65 63.13 245.45 62.49 241.92 65.22 239.6 68.59 240.81 69.23 244.33"/><polygon class="f" points="76.24 260.11 73.51 262.43 70.14 261.22 69.5 257.7 72.23 255.38 75.6 256.58 76.24 260.11"/><polygon class="f" points="69.23 254.85 66.5 257.17 63.13 255.96 62.49 252.44 65.22 250.12 68.59 251.33 69.23 254.85"/><polygon class="f" points="90.27 260.11 87.54 262.43 84.16 261.22 83.52 257.7 86.25 255.38 89.62 256.58 90.27 260.11"/><polygon class="f" points="83.26 254.85 80.53 257.17 77.15 255.96 76.51 252.44 79.24 250.12 82.61 251.33 83.26 254.85"/><polygon class="f" points="72.74 237.32 70.01 239.64 66.63 238.43 65.99 234.91 68.72 232.59 72.1 233.8 72.74 237.32"/><polygon class="f" points="81.5 232.06 78.77 234.38 75.4 233.18 74.76 229.65 77.49 227.33 80.86 228.54 81.5 232.06"/><polygon class="f" points="79.75 240.83 77.02 243.15 73.65 241.94 73 238.42 75.73 236.1 79.11 237.3 79.75 240.83"/><polygon class="f" points="88.51 237.32 85.78 239.64 82.41 238.43 81.77 234.91 84.5 232.59 87.87 233.8 88.51 237.32"/><polygon class="f" points="88.51 228.56 85.78 230.88 82.41 229.67 81.77 226.15 84.5 223.83 87.87 225.03 88.51 228.56"/><polygon class="f" points="81.5 223.3 78.77 225.62 75.4 224.41 74.76 220.89 77.49 218.57 80.86 219.77 81.5 223.3"/><polygon class="f" points="74.49 219.79 71.76 222.11 68.39 220.91 67.74 217.38 70.48 215.06 73.85 216.27 74.49 219.79"/><polygon class="f" points="72.74 228.56 70.01 230.88 66.63 229.67 65.99 226.15 68.72 223.83 72.1 225.03 72.74 228.56"/><polygon class="f" points="63.97 233.82 61.24 236.13 57.87 234.93 57.23 231.4 59.96 229.09 63.33 230.29 63.97 233.82"/><polygon class="f" points="65.73 223.3 63 225.62 59.62 224.41 58.98 220.89 61.71 218.57 65.08 219.77 65.73 223.3"/><polygon class="f" points="92.02 209.27 89.29 211.59 85.92 210.39 85.27 206.86 88 204.55 91.38 205.75 92.02 209.27"/><polygon class="f" points="83.26 212.78 80.53 215.1 77.15 213.89 76.51 210.37 79.24 208.05 82.61 209.26 83.26 212.78"/><polygon class="f" points="76.24 207.52 73.51 209.84 70.14 208.64 69.5 205.11 72.23 202.79 75.6 204 76.24 207.52"/><polygon class="f" points="67.48 211.03 64.75 213.35 61.38 212.14 60.73 208.62 63.46 206.3 66.84 207.5 67.48 211.03"/><polygon class="f" points="62.22 204.02 59.49 206.33 56.12 205.13 55.47 201.61 58.21 199.29 61.58 200.49 62.22 204.02"/><polygon class="f" points="53.46 207.52 50.73 209.84 47.35 208.64 46.71 205.11 49.44 202.79 52.81 204 53.46 207.52"/><polygon class="f" points="60.47 216.29 57.74 218.6 54.36 217.4 53.72 213.88 56.45 211.56 59.83 212.76 60.47 216.29"/><polygon class="f" points="51.7 219.79 48.97 222.11 45.6 220.91 44.96 217.38 47.69 215.06 51.06 216.27 51.7 219.79"/><polygon class="f" points="48.2 200.51 45.47 202.83 42.09 201.62 41.45 198.1 44.18 195.78 47.56 196.99 48.2 200.51"/><polygon class="f" points="39.43 204.02 36.7 206.33 33.33 205.13 32.69 201.61 35.42 199.29 38.79 200.49 39.43 204.02"/><polygon class="f" points="44.69 211.03 41.96 213.35 38.59 212.14 37.95 208.62 40.68 206.3 44.05 207.5 44.69 211.03"/><polygon class="f" points="60.47 240.83 57.74 243.15 54.36 241.94 53.72 238.42 56.45 236.1 59.83 237.3 60.47 240.83"/><polygon class="f" points="30.67 195.25 27.94 197.57 24.57 196.36 23.92 192.84 26.65 190.52 30.03 191.73 30.67 195.25"/><polygon class="f" points="32.42 202.26 29.69 204.58 26.32 203.38 25.68 199.85 28.41 197.53 31.78 198.74 32.42 202.26"/><polygon class="f" points="23.66 193.5 20.93 195.82 17.55 194.61 16.91 191.09 19.64 188.77 23.01 189.97 23.66 193.5"/><polygon class="f" points="56.96 228.56 54.23 230.88 50.86 229.67 50.22 226.15 52.95 223.83 56.32 225.03 56.96 228.56"/><polygon class="f" points="106.04 228.56 103.31 230.88 99.94 229.67 99.3 226.15 102.03 223.83 105.4 225.03 106.04 228.56"/><polygon class="f" points="114.81 223.3 112.08 225.62 108.7 224.41 108.06 220.89 110.79 218.57 114.17 219.77 114.81 223.3"/><polygon class="f" points="113.06 232.06 110.32 234.38 106.95 233.18 106.31 229.65 109.04 227.33 112.41 228.54 113.06 232.06"/><polygon class="f" points="121.82 228.56 119.09 230.88 115.72 229.67 115.07 226.15 117.8 223.83 121.18 225.03 121.82 228.56"/><polygon class="f" points="121.82 219.79 119.09 222.11 115.72 220.91 115.07 217.38 117.8 215.06 121.18 216.27 121.82 219.79"/><polygon class="f" points="114.81 214.53 112.08 216.85 108.7 215.65 108.06 212.12 110.79 209.8 114.17 211.01 114.81 214.53"/><polygon class="f" points="107.8 211.03 105.07 213.35 101.69 212.14 101.05 208.62 103.78 206.3 107.15 207.5 107.8 211.03"/><polygon class="f" points="106.04 219.79 103.31 222.11 99.94 220.91 99.3 217.38 102.03 215.06 105.4 216.27 106.04 219.79"/><polygon class="f" points="97.28 225.05 94.55 227.37 91.18 226.16 90.53 222.64 93.26 220.32 96.64 221.53 97.28 225.05"/><polygon class="f" points="99.03 214.53 96.3 216.85 92.93 215.65 92.29 212.12 95.02 209.8 98.39 211.01 99.03 214.53"/><polygon class="f" points="90.27 219.79 87.54 222.11 84.16 220.91 83.52 217.38 86.25 215.06 89.62 216.27 90.27 219.79"/><polygon class="f" points="63.04 160.24 60.23 158.01 60.76 154.47 64.09 153.15 66.9 155.37 66.37 158.92 63.04 160.24"/><polygon class="f" points="69.91 167.81 67.1 165.58 67.63 162.04 70.96 160.72 73.76 162.95 73.24 166.49 69.91 167.81"/><polygon class="f" points="66.12 175.71 63.31 173.48 63.84 169.94 67.17 168.62 69.97 170.85 69.45 174.39 66.12 175.71"/><polygon class="f" points="60.86 168.7 58.05 166.47 58.58 162.93 61.91 161.61 64.71 163.84 64.19 167.38 60.86 168.7"/><polygon class="f" points="59.11 182.72 56.3 180.5 56.82 176.95 60.15 175.63 62.96 177.86 62.44 181.4 59.11 182.72"/><polygon class="f" points="55.6 175.71 52.79 173.48 53.32 169.94 56.65 168.62 59.46 170.85 58.93 174.39 55.6 175.71"/><polygon class="f" points="69.62 184.47 66.82 182.25 67.34 178.7 70.67 177.39 73.48 179.61 72.95 183.16 69.62 184.47"/><polygon class="f" points="74.71 174 71.91 171.77 72.43 168.23 75.76 166.91 78.57 169.14 78.04 172.68 74.71 174"/><polygon class="f" points="83.65 174.01 80.85 171.78 81.37 168.24 84.7 166.92 87.51 169.15 86.98 172.69 83.65 174.01"/><polygon class="f" points="78.39 181.02 75.59 178.8 76.11 175.25 79.44 173.93 82.25 176.16 81.72 179.7 78.39 181.02"/><polygon class="f" points="85.4 186.28 82.6 184.05 83.12 180.51 86.45 179.19 89.26 181.42 88.74 184.96 85.4 186.28"/><polygon class="f" points="78.5 166.1 75.7 163.87 76.22 160.33 79.55 159.01 82.36 161.24 81.83 164.78 78.5 166.1"/><polygon class="f" points="80.57 158.54 77.77 156.31 78.29 152.77 81.62 151.45 84.43 153.68 83.91 157.22 80.57 158.54"/><polygon class="f" points="71.64 158.53 68.83 156.3 69.35 152.76 72.68 151.44 75.49 153.67 74.97 157.21 71.64 158.53"/><polygon class="f" points="64.77 150.96 61.96 148.73 62.49 145.19 65.82 143.87 68.62 146.1 68.1 149.64 64.77 150.96"/><polygon class="f" points="61.26 142.19 58.46 139.97 58.98 136.42 62.31 135.1 65.12 137.33 64.59 140.87 61.26 142.19"/><polygon class="f" points="75.43 150.62 72.62 148.4 73.14 144.85 76.47 143.54 79.28 145.76 78.76 149.31 75.43 150.62"/><polygon class="f" points="84.02 148.91 81.22 146.69 81.74 143.15 85.07 141.83 87.88 144.05 87.35 147.6 84.02 148.91"/><polygon class="f" points="70.31 143.05 67.51 140.83 68.03 137.28 71.36 135.97 74.17 138.19 73.64 141.74 70.31 143.05"/><polygon class="f" points="73.7 132.57 70.9 130.35 71.42 126.81 74.75 125.49 77.56 127.71 77.03 131.26 73.7 132.57"/><polygon class="f" points="68.44 118.55 65.64 116.33 66.16 112.78 69.49 111.46 72.3 113.69 71.77 117.23 68.44 118.55"/><polygon class="f" points="75.46 123.81 72.65 121.58 73.17 118.04 76.5 116.72 79.31 118.95 78.79 122.49 75.46 123.81"/><polygon class="f" points="82.32 131.38 79.52 129.15 80.04 125.61 83.37 124.29 86.18 126.52 85.65 130.06 82.32 131.38"/><polygon class="f" points="99.85 117.36 97.05 115.13 97.57 111.59 100.9 110.27 103.71 112.5 103.18 116.04 99.85 117.36"/><polygon class="f" points="66.37 134.88 63.57 132.65 64.09 129.11 67.42 127.79 70.23 130.02 69.7 133.56 66.37 134.88"/><polygon class="f" points="78.53 139.28 75.73 137.06 76.25 133.51 79.58 132.2 82.39 134.42 81.86 137.97 78.53 139.28"/><polygon class="f" points="87.13 137.57 84.32 135.35 84.85 131.8 88.18 130.49 90.98 132.71 90.46 136.26 87.13 137.57"/><polygon class="f" points="90.92 129.67 88.11 127.45 88.64 123.9 91.97 122.58 94.77 124.81 94.25 128.35 90.92 129.67"/><polygon class="f" points="92.99 122.11 90.18 119.88 90.71 116.34 94.04 115.02 96.84 117.25 96.32 120.79 92.99 122.11"/><polygon class="f" points="80.55 118.59 77.74 116.37 78.26 112.83 81.59 111.51 84.4 113.73 83.88 117.28 80.55 118.59"/><polygon class="f" points="73.68 111.02 70.87 108.8 71.4 105.26 74.73 103.94 77.53 106.16 77.01 109.71 73.68 111.02"/><polygon class="f" points="87.84 114.2 85.04 111.97 85.56 108.43 88.89 107.11 91.7 109.34 91.17 112.88 87.84 114.2"/><polygon class="f" points="94.85 108.94 92.05 106.71 92.57 103.17 95.9 101.85 98.71 104.08 98.18 107.62 94.85 108.94"/><polygon class="f" points="105.11 96.32 102.3 94.1 102.83 90.55 106.16 89.24 108.97 91.46 108.44 95 105.11 96.32"/><polygon class="f" points="101.75 104.58 98.95 102.36 99.47 98.81 102.8 97.49 105.61 99.72 105.09 103.26 101.75 104.58"/><polygon class="f" points="89.31 101.07 86.5 98.84 87.03 95.3 90.36 93.98 93.17 96.2 92.64 99.75 89.31 101.07"/><polygon class="f" points="96.61 96.67 93.8 94.44 94.32 90.9 97.65 89.58 100.46 91.81 99.94 95.35 96.61 96.67"/><polygon class="f" points="115.89 96.67 113.08 94.44 113.61 90.9 116.94 89.58 119.74 91.81 119.22 95.35 115.89 96.67"/><polygon class="f" points="126.15 84.05 123.34 81.83 123.86 78.28 127.19 76.97 130 79.19 129.48 82.73 126.15 84.05"/><polygon class="f" points="122.79 92.31 119.98 90.09 120.51 86.54 123.84 85.22 126.64 87.45 126.12 90.99 122.79 92.31"/><polygon class="f" points="110.35 88.8 107.54 86.57 108.06 83.03 111.39 81.71 114.2 83.93 113.68 87.48 110.35 88.8"/><polygon class="f" points="117.64 84.4 114.83 82.17 115.36 78.63 118.69 77.31 121.5 79.54 120.97 83.08 117.64 84.4"/><polygon class="f" points="114.14 117.7 111.33 115.48 111.85 111.93 115.18 110.62 117.99 112.84 117.47 116.39 114.14 117.7"/><polygon class="f" points="124.39 105.09 121.59 102.86 122.11 99.32 125.44 98 128.25 100.23 127.72 103.77 124.39 105.09"/><polygon class="f" points="121.04 113.35 118.23 111.12 118.75 107.58 122.08 106.26 124.89 108.48 124.37 112.03 121.04 113.35"/><polygon class="f" points="108.59 109.83 105.79 107.6 106.31 104.06 109.64 102.74 112.45 104.97 111.92 108.51 108.59 109.83"/><polygon class="f" points="115.89 105.43 113.08 103.21 113.61 99.66 116.94 98.35 119.74 100.57 119.22 104.12 115.89 105.43"/><polygon class="f" points="80.97 106.63 78.17 104.4 78.69 100.86 82.02 99.54 84.83 101.77 84.31 105.31 80.97 106.63"/><polygon class="f" points="90.55 154.77 87.74 152.54 88.27 149 91.6 147.68 94.4 149.9 93.88 153.45 90.55 154.77"/><polygon class="f" points="97.42 162.34 94.61 160.11 95.13 156.57 98.46 155.25 101.27 157.47 100.75 161.02 97.42 162.34"/><polygon class="f" points="88.48 162.33 85.67 160.1 86.19 156.56 89.53 155.24 92.33 157.47 91.81 161.01 88.48 162.33"/><polygon class="f" points="26.23 160.24 23.42 158.01 23.95 154.47 27.28 153.15 30.08 155.37 29.56 158.92 26.23 160.24"/><polygon class="f" points="22.72 169 19.92 166.78 20.44 163.23 23.77 161.91 26.58 164.14 26.05 167.68 22.72 169"/><polygon class="f" points="17.47 176.01 14.66 173.79 15.18 170.24 18.51 168.93 21.32 171.15 20.8 174.69 17.47 176.01"/><polygon class="f" points="8.7 177.77 5.89 175.54 6.42 172 9.75 170.68 12.56 172.9 12.03 176.45 8.7 177.77"/><polygon class="f" points="17.47 161.99 14.66 159.76 15.18 156.22 18.51 154.9 21.32 157.13 20.8 160.67 17.47 161.99"/><polygon class="f" points="12.21 169 9.4 166.78 9.92 163.23 13.25 161.91 16.06 164.14 15.54 167.68 12.21 169"/><polygon class="f" points="33.1 167.81 30.29 165.58 30.81 162.04 34.15 160.72 36.95 162.95 36.43 166.49 33.1 167.81"/><polygon class="f" points="29.31 175.71 26.5 173.48 27.02 169.94 30.36 168.62 33.16 170.85 32.64 174.39 29.31 175.71"/><polygon class="f" points="31.06 184.47 28.25 182.25 28.78 178.7 32.11 177.39 34.91 179.61 34.39 183.16 31.06 184.47"/><polygon class="f" points="24.05 182.72 21.24 180.5 21.77 176.95 25.1 175.63 27.9 177.86 27.38 181.4 24.05 182.72"/><polygon class="f" points="52.09 189.73 49.29 187.51 49.81 183.96 53.14 182.65 55.95 184.87 55.43 188.41 52.09 189.73"/><polygon class="f" points="43.33 187.98 40.52 185.75 41.05 182.21 44.38 180.89 47.19 183.12 46.66 186.66 43.33 187.98"/><polygon class="f" points="50.34 182.72 47.53 180.5 48.06 176.95 51.39 175.63 54.2 177.86 53.67 181.4 50.34 182.72"/><polygon class="f" points="41.58 180.97 38.77 178.74 39.29 175.2 42.63 173.88 45.43 176.11 44.91 179.65 41.58 180.97"/><polygon class="f" points="73.13 191.49 70.32 189.26 70.85 185.72 74.18 184.4 76.98 186.62 76.46 190.17 73.13 191.49"/><polygon class="f" points="62.61 189.73 59.81 187.51 60.33 183.96 63.66 182.65 66.47 184.87 65.94 188.41 62.61 189.73"/><polygon class="f" points="92.41 196.74 89.6 194.52 90.13 190.97 93.46 189.66 96.27 191.88 95.74 195.43 92.41 196.74"/><polygon class="f" points="81.89 194.99 79.09 192.77 79.61 189.22 82.94 187.9 85.75 190.13 85.22 193.67 81.89 194.99"/><polygon class="f" points="114.61 195 111.24 193.79 110.6 190.26 113.34 187.95 116.71 189.16 117.35 192.69 114.61 195"/><polygon class="f" points="104.08 196.7 100.71 195.49 100.08 191.96 102.81 189.65 106.18 190.86 106.82 194.39 104.08 196.7"/><polygon class="f" points="37.9 174 35.1 171.77 35.62 168.23 38.95 166.91 41.76 169.14 41.23 172.68 37.9 174"/><polygon class="f" points="46.84 174.01 44.03 171.78 44.56 168.24 47.89 166.92 50.7 169.15 50.17 172.69 46.84 174.01"/><polygon class="f" points="41.69 166.1 38.89 163.87 39.41 160.33 42.74 159.01 45.55 161.24 45.02 164.78 41.69 166.1"/><polygon class="f" points="43.76 158.54 40.96 156.31 41.48 152.77 44.81 151.45 47.62 153.68 47.09 157.22 43.76 158.54"/><polygon class="f" points="34.83 158.53 32.02 156.3 32.54 152.76 35.87 151.44 38.68 153.67 38.16 157.21 34.83 158.53"/><polygon class="f" points="29.71 152.71 26.9 150.48 27.43 146.94 30.76 145.62 33.57 147.85 33.04 151.39 29.71 152.71"/><polygon class="f" points="31.46 143.94 28.66 141.72 29.18 138.18 32.51 136.86 35.32 139.08 34.8 142.63 31.46 143.94"/><polygon class="f" points="40.23 142.19 37.42 139.97 37.95 136.42 41.28 135.1 44.08 137.33 43.56 140.87 40.23 142.19"/><polygon class="f" points="48.99 140.44 46.19 138.21 46.71 134.67 50.04 133.35 52.85 135.58 52.32 139.12 48.99 140.44"/><polygon class="f" points="43.73 133.43 40.93 131.2 41.45 127.66 44.78 126.34 47.59 128.57 47.07 132.11 43.73 133.43"/><polygon class="f" points="50.75 128.17 47.94 125.94 48.46 122.4 51.79 121.08 54.6 123.31 54.08 126.85 50.75 128.17"/><polygon class="f" points="57.76 135.18 54.95 132.95 55.48 129.41 58.81 128.09 61.61 130.32 61.09 133.86 57.76 135.18"/><polygon class="f" points="57.76 121.16 54.95 118.93 55.48 115.39 58.81 114.07 61.61 116.3 61.09 119.84 57.76 121.16"/><polygon class="f" points="63.02 128.17 60.21 125.94 60.73 122.4 64.06 121.08 66.87 123.31 66.35 126.85 63.02 128.17"/><polygon class="f" points="38.62 150.62 35.81 148.4 36.33 144.85 39.66 143.54 42.47 145.76 41.95 149.31 38.62 150.62"/><polygon class="f" points="47.21 148.91 44.41 146.69 44.93 143.15 48.26 141.83 51.07 144.05 50.54 147.6 47.21 148.91"/><polygon class="f" points="51.67 167.59 48.86 165.36 49.38 161.82 52.71 160.5 55.52 162.72 55 166.27 51.67 167.59"/><polygon class="f" points="51.67 158.82 48.86 156.6 49.38 153.05 52.71 151.73 55.52 153.96 55 157.5 51.67 158.82"/><polygon class="f" points="56.93 153.56 54.12 151.34 54.64 147.79 57.97 146.48 60.78 148.7 60.26 152.24 56.93 153.56"/><polygon class="f" points="55.17 146.55 52.37 144.32 52.89 140.78 56.22 139.46 59.03 141.69 58.5 145.23 55.17 146.55"/><polygon class="f" points="93.63 170.24 90.82 168.01 91.34 164.47 94.67 163.15 97.48 165.38 96.96 168.92 93.63 170.24"/><polygon class="f" points="102.22 168.53 99.41 166.3 99.94 162.76 103.27 161.44 106.08 163.67 105.55 167.21 102.22 168.53"/><polygon class="f" points="106.01 160.63 103.2 158.4 103.73 154.86 107.06 153.54 109.87 155.77 109.34 159.31 106.01 160.63"/><polygon class="f" points="99.14 153.06 96.34 150.83 96.86 147.29 100.19 145.97 103 148.19 102.48 151.74 99.14 153.06"/><polygon class="f" points="92.28 145.49 89.47 143.26 89.99 139.72 93.33 138.4 96.13 140.62 95.61 144.17 92.28 145.49"/><polygon class="f" points="102.93 145.15 100.13 142.93 100.65 139.38 103.98 138.07 106.79 140.29 106.27 143.84 102.93 145.15"/><polygon class="f" points="96.07 137.58 93.26 135.36 93.78 131.81 97.12 130.5 99.92 132.72 99.4 136.27 96.07 137.58"/><polygon class="f" points="106.44 138.14 103.63 135.92 104.16 132.37 107.49 131.06 110.3 133.28 109.77 136.82 106.44 138.14"/><polygon class="f" points="99.57 130.57 96.77 128.35 97.29 124.8 100.62 123.48 103.43 125.71 102.9 129.25 99.57 130.57"/><polygon class="f" points="111.7 131.13 108.89 128.9 109.42 125.36 112.75 124.04 115.55 126.27 115.03 129.81 111.7 131.13"/><polygon class="f" points="104.83 123.56 102.02 121.33 102.55 117.79 105.88 116.47 108.69 118.7 108.16 122.24 104.83 123.56"/><polygon class="f" points="120.19 177.64 116.87 176.28 116.4 172.73 119.23 170.54 122.55 171.9 123.02 175.45 120.19 177.64"/><polygon class="f" points="128.88 183.02 125.57 181.66 125.09 178.11 127.93 175.92 131.24 177.28 131.72 180.83 128.88 183.02"/><polygon class="f" points="125.67 195.17 122.36 193.8 121.88 190.25 124.72 188.07 128.03 189.43 128.51 192.98 125.67 195.17"/><polygon class="f" points="135.21 192.9 131.9 191.54 131.42 187.99 134.26 185.8 137.57 187.16 138.05 190.71 135.21 192.9"/><polygon class="f" points="145.56 190.44 142.24 189.07 141.77 185.52 144.6 183.34 147.92 184.7 148.39 188.25 145.56 190.44"/><polygon class="f" points="136.67 179 133.36 177.64 132.88 174.08 135.72 171.9 139.03 173.26 139.5 176.81 136.67 179"/><polygon class="f" points="136.57 171.16 133.25 169.8 132.78 166.25 135.61 164.06 138.93 165.42 139.4 168.97 136.57 171.16"/><polygon class="f" points="127.98 173.62 124.66 172.26 124.19 168.71 127.02 166.52 130.34 167.88 130.81 171.43 127.98 173.62"/><polygon class="f" points="119.28 168.25 115.97 166.88 115.49 163.33 118.33 161.15 121.64 162.51 122.12 166.06 119.28 168.25"/><polygon class="f" points="113.18 184.65 109.86 183.29 109.39 179.74 112.22 177.55 115.54 178.92 116.01 182.47 113.18 184.65"/><polygon class="f" points="112.27 175.26 108.96 173.9 108.48 170.34 111.32 168.16 114.63 169.52 115.11 173.07 112.27 175.26"/><polygon class="f" points="104.41 188.16 101.1 186.8 100.62 183.25 103.46 181.06 106.77 182.42 107.25 185.97 104.41 188.16"/><polygon class="f" points="103.51 178.76 100.19 177.4 99.72 173.85 102.55 171.66 105.87 173.03 106.34 176.58 103.51 178.76"/><polygon class="f" points="93.89 188.16 90.58 186.8 90.1 183.25 92.94 181.06 96.25 182.42 96.73 185.97 93.89 188.16"/><polygon class="f" points="92.99 178.76 89.68 177.4 89.2 173.85 92.04 171.66 95.35 173.03 95.83 176.58 92.99 178.76"/><polygon class="f" points="129.43 164.98 126.12 163.62 125.64 160.07 128.48 157.88 131.79 159.24 132.27 162.79 129.43 164.98"/><polygon class="f" points="137.22 160.96 133.91 159.6 133.43 156.05 136.27 153.86 139.58 155.22 140.06 158.77 137.22 160.96"/><polygon class="f" points="120.74 159.6 117.43 158.24 116.95 154.69 119.79 152.5 123.1 153.87 123.58 157.42 120.74 159.6"/><polygon class="f" points="122.04 142.71 118.73 141.35 118.25 137.8 121.09 135.61 124.4 136.97 124.88 140.52 122.04 142.71"/><polygon class="f" points="116.79 137.45 113.47 136.09 113 132.54 115.83 130.35 119.15 131.71 119.62 135.26 116.79 137.45"/><polygon class="f" points="130.74 144.58 127.42 143.22 126.95 139.67 129.78 137.48 133.1 138.84 133.57 142.39 130.74 144.58"/><polygon class="f" points="120.39 150.55 117.08 149.18 116.6 145.63 119.44 143.45 122.75 144.81 123.23 148.36 120.39 150.55"/><polygon class="f" points="113.38 147.04 110.07 145.68 109.59 142.13 112.43 139.94 115.74 141.3 116.22 144.85 113.38 147.04"/><polygon class="f" points="113.38 155.81 110.07 154.44 109.59 150.89 112.43 148.71 115.74 150.07 116.22 153.62 113.38 155.81"/><polygon class="f" points="129.28 153.22 125.97 151.86 125.49 148.31 128.33 146.12 131.64 147.48 132.12 151.03 129.28 153.22"/><polygon class="f" points="137.07 149.2 133.76 147.84 133.28 144.29 136.12 142.1 139.43 143.46 139.9 147.01 137.07 149.2"/><polygon class="f" points="138.52 140.56 135.21 139.2 134.74 135.65 137.57 133.46 140.88 134.82 141.36 138.37 138.52 140.56"/><polygon class="f" points="138.42 132.72 135.11 131.36 134.63 127.81 137.47 125.62 140.78 126.98 141.26 130.53 138.42 132.72"/><polygon class="f" points="138.42 123.96 135.11 122.59 134.63 119.04 137.47 116.86 140.78 118.22 141.26 121.77 138.42 123.96"/><polygon class="f" points="148.94 137.98 145.63 136.62 145.15 133.07 147.99 130.88 151.3 132.24 151.78 135.79 148.94 137.98"/><polygon class="f" points="145.54 130.04 142.22 128.68 141.75 125.13 144.58 122.94 147.9 124.3 148.37 127.85 145.54 130.04"/><polygon class="f" points="140.18 115.19 136.86 113.83 136.39 110.28 139.22 108.09 142.54 109.45 143.01 113 140.18 115.19"/><polygon class="f" points="131.51 117.77 128.2 116.41 127.72 112.86 130.56 110.67 133.87 112.03 134.35 115.58 131.51 117.77"/><polygon class="f" points="131.41 109.93 128.1 108.57 127.62 105.02 130.46 102.83 133.77 104.19 134.25 107.74 131.41 109.93"/><polygon class="f" points="140.28 107.25 136.96 105.89 136.49 102.34 139.33 100.15 142.64 101.52 143.11 105.07 140.28 107.25"/><polygon class="f" points="140.18 99.42 136.86 98.05 136.39 94.5 139.22 92.31 142.54 93.68 143.01 97.23 140.18 99.42"/><polygon class="f" points="131.41 97.66 128.1 96.3 127.62 92.75 130.46 90.56 133.77 91.92 134.25 95.47 131.41 97.66"/><polygon class="f" points="142.03 91.48 138.72 90.11 138.24 86.56 141.08 84.38 144.39 85.74 144.87 89.29 142.03 91.48"/><polygon class="f" points="133.27 89.72 129.95 88.36 129.48 84.81 132.31 82.62 135.63 83.99 136.1 87.54 133.27 89.72"/><polygon class="f" points="143.68 83.64 140.37 82.28 139.89 78.73 142.73 76.54 146.04 77.9 146.52 81.45 143.68 83.64"/><polygon class="f" points="127.9 75.29 125.09 73.06 125.62 69.52 128.95 68.2 131.75 70.43 131.23 73.97 127.9 75.29"/><polygon class="f" points="135.02 80.96 131.71 79.6 131.23 76.05 134.07 73.86 137.38 75.22 137.86 78.77 135.02 80.96"/><polygon class="f" points="147.19 76.63 143.88 75.26 143.4 71.71 146.24 69.53 149.55 70.89 150.02 74.44 147.19 76.63"/><polygon class="f" points="138.42 73.12 135.11 71.76 134.63 68.21 137.47 66.02 140.78 67.38 141.26 70.93 138.42 73.12"/><polygon class="f" points="143.68 66.11 140.37 64.75 139.89 61.2 142.73 59.01 146.04 60.37 146.52 63.92 143.68 66.11"/><polygon class="f" points="152.45 69.62 149.13 68.25 148.66 64.7 151.49 62.52 154.81 63.88 155.28 67.43 152.45 69.62"/><polygon class="f" points="152.45 60.85 149.13 59.49 148.66 55.94 151.49 53.75 154.81 55.11 155.28 58.66 152.45 60.85"/><polygon class="f" points="161.21 57.35 157.9 55.98 157.42 52.43 160.26 50.25 163.57 51.61 164.05 55.16 161.21 57.35"/><polygon class="f" points="168.22 53.84 164.91 52.48 164.43 48.93 167.27 46.74 170.58 48.1 171.06 51.65 168.22 53.84"/><polygon class="f" points="175.23 50.33 171.92 48.97 171.45 45.42 174.28 43.23 177.59 44.6 178.07 48.15 175.23 50.33"/><polygon class="f" points="182.25 46.83 178.93 45.47 178.46 41.92 181.29 39.73 184.61 41.09 185.08 44.64 182.25 46.83"/><polygon class="f" points="191.01 45.08 187.7 43.71 187.22 40.16 190.06 37.97 193.37 39.34 193.85 42.89 191.01 45.08"/><polygon class="f" points="199.78 43.32 196.46 41.96 195.99 38.41 198.82 36.22 202.14 37.58 202.61 41.13 199.78 43.32"/><polygon class="f" points="210.29 43.32 206.98 41.96 206.5 38.41 209.34 36.22 212.65 37.58 213.13 41.13 210.29 43.32"/><polygon class="f" points="219.06 46.83 215.74 45.47 215.27 41.92 218.1 39.73 221.42 41.09 221.89 44.64 219.06 46.83"/><polygon class="f" points="220.81 38.06 217.5 36.7 217.02 33.15 219.86 30.96 223.17 32.33 223.65 35.88 220.81 38.06"/><polygon class="f" points="222.56 29.3 219.25 27.94 218.77 24.39 221.61 22.2 224.92 23.56 225.4 27.11 222.56 29.3"/><polygon class="f" points="231.33 25.79 228.01 24.43 227.54 20.88 230.37 18.69 233.69 20.06 234.16 23.61 231.33 25.79"/><polygon class="f" points="231.33 34.56 228.01 33.2 227.54 29.65 230.37 27.46 233.69 28.82 234.16 32.37 231.33 34.56"/><polygon class="f" points="229.57 43.32 226.26 41.96 225.79 38.41 228.62 36.22 231.93 37.58 232.41 41.13 229.57 43.32"/><polygon class="f" points="234.83 50.33 231.52 48.97 231.04 45.42 233.88 43.23 237.19 44.6 237.67 48.15 234.83 50.33"/><polygon class="f" points="241.84 55.59 238.53 54.23 238.06 50.68 240.89 48.49 244.2 49.85 244.68 53.41 241.84 55.59"/><polygon class="f" points="248.86 60.85 245.54 59.49 245.07 55.94 247.9 53.75 251.22 55.11 251.69 58.66 248.86 60.85"/><polygon class="f" points="240.09 38.06 236.78 36.7 236.3 33.15 239.14 30.96 242.45 32.33 242.93 35.88 240.09 38.06"/><polygon class="f" points="245.35 45.08 242.04 43.71 241.56 40.16 244.4 37.97 247.71 39.34 248.19 42.89 245.35 45.08"/><polygon class="f" points="252.36 50.33 249.05 48.97 248.57 45.42 251.41 43.23 254.72 44.6 255.2 48.15 252.36 50.33"/><polygon class="f" points="259.37 55.59 256.06 54.23 255.58 50.68 258.42 48.49 261.73 49.85 262.21 53.41 259.37 55.59"/><polygon class="f" points="268.14 53.84 264.83 52.48 264.35 48.93 267.19 46.74 270.5 48.1 270.97 51.65 268.14 53.84"/><polygon class="f" points="245.35 29.3 242.04 27.94 241.56 24.39 244.4 22.2 247.71 23.56 248.19 27.11 245.35 29.3"/><polygon class="f" points="250.61 36.31 247.3 34.95 246.82 31.4 249.66 29.21 252.97 30.57 253.45 34.12 250.61 36.31"/><polygon class="f" points="257.62 41.57 254.31 40.21 253.83 36.66 256.67 34.47 259.98 35.83 260.46 39.38 257.62 41.57"/><polygon class="f" points="264.63 46.83 261.32 45.47 260.84 41.92 263.68 39.73 266.99 41.09 267.47 44.64 264.63 46.83"/><polygon class="f" points="248.86 20.53 245.54 19.17 245.07 15.62 247.9 13.43 251.22 14.8 251.69 18.35 248.86 20.53"/><polygon class="f" points="254.11 27.55 250.8 26.18 250.33 22.63 253.16 20.45 256.47 21.81 256.95 25.36 254.11 27.55"/><polygon class="f" points="261.13 32.81 257.81 31.44 257.34 27.89 260.17 25.7 263.49 27.07 263.96 30.62 261.13 32.81"/><polygon class="f" points="268.14 38.06 264.83 36.7 264.35 33.15 267.19 30.96 270.5 32.33 270.97 35.88 268.14 38.06"/><polygon class="f" points="259.37 17.03 256.06 15.67 255.58 12.12 258.42 9.93 261.73 11.29 262.21 14.84 259.37 17.03"/><polygon class="f" points="264.63 24.04 261.32 22.68 260.84 19.13 263.68 16.94 266.99 18.3 267.47 21.85 264.63 24.04"/><polygon class="f" points="271.64 29.3 268.33 27.94 267.85 24.39 270.69 22.2 274 23.56 274.48 27.11 271.64 29.3"/><polygon class="f" points="276.9 36.31 273.59 34.95 273.11 31.4 275.95 29.21 279.26 30.57 279.74 34.12 276.9 36.31"/><polygon class="f" points="273.4 45.08 270.08 43.71 269.61 40.16 272.44 37.97 275.76 39.34 276.23 42.89 273.4 45.08"/><polygon class="f" points="285.67 41.57 282.35 40.21 281.88 36.66 284.71 34.47 288.03 35.83 288.5 39.38 285.67 41.57"/><polygon class="f" points="282.16 50.33 278.85 48.97 278.37 45.42 281.21 43.23 284.52 44.6 285 48.15 282.16 50.33"/><polygon class="f" points="285.67 60.85 282.35 59.49 281.88 55.94 284.71 53.75 288.03 55.11 288.5 58.66 285.67 60.85"/><polygon class="f" points="282.16 69.62 278.85 68.25 278.37 64.7 281.21 62.52 284.52 63.88 285 67.43 282.16 69.62"/><polygon class="f" points="285.67 78.38 282.35 77.02 281.88 73.47 284.71 71.28 288.03 72.64 288.5 76.19 285.67 78.38"/><polygon class="f" points="282.16 87.14 278.85 85.78 278.37 82.23 281.21 80.04 284.52 81.41 285 84.96 282.16 87.14"/><polygon class="f" points="275.15 76.63 271.84 75.26 271.36 71.71 274.2 69.53 277.51 70.89 277.99 74.44 275.15 76.63"/><polygon class="f" points="271.64 85.39 268.33 84.03 267.85 80.48 270.69 78.29 274 79.65 274.48 83.2 271.64 85.39"/><polygon class="f" points="264.63 81.89 261.32 80.52 260.84 76.97 263.68 74.79 266.99 76.15 267.47 79.7 264.63 81.89"/><polygon class="f" points="262.88 90.65 259.57 89.29 259.09 85.74 261.93 83.55 265.24 84.91 265.72 88.46 262.88 90.65"/><polygon class="f" points="271.64 94.16 268.33 92.79 267.85 89.24 270.69 87.06 274 88.42 274.48 91.97 271.64 94.16"/><polygon class="f" points="280.41 95.91 277.1 94.55 276.62 91 279.46 88.81 282.77 90.17 283.24 93.72 280.41 95.91"/><polygon class="f" points="283.91 104.67 280.6 103.31 280.12 99.76 282.96 97.57 286.27 98.94 286.75 102.49 283.91 104.67"/><polygon class="f" points="280.41 113.44 277.1 112.08 276.62 108.53 279.46 106.34 282.77 107.7 283.24 111.25 280.41 113.44"/><polygon class="f" points="282.16 122.2 278.85 120.84 278.37 117.29 281.21 115.1 284.52 116.46 285 120.02 282.16 122.2"/><polygon class="f" points="264.63 101.17 261.32 99.81 260.84 96.26 263.68 94.07 266.99 95.43 267.47 98.98 264.63 101.17"/><polygon class="f" points="264.63 109.93 261.32 108.57 260.84 105.02 263.68 102.83 266.99 104.19 267.47 107.74 264.63 109.93"/><polygon class="f" points="262.88 120.45 259.57 119.09 259.09 115.54 261.93 113.35 265.24 114.71 265.72 118.26 262.88 120.45"/><polygon class="f" points="275.15 104.67 271.84 103.31 271.36 99.76 274.2 97.57 277.51 98.94 277.99 102.49 275.15 104.67"/><polygon class="f" points="271.64 113.44 268.33 112.08 267.85 108.53 270.69 106.34 274 107.7 274.48 111.25 271.64 113.44"/><polygon class="f" points="271.64 123.96 268.33 122.59 267.85 119.04 270.69 116.86 274 118.22 274.48 121.77 271.64 123.96"/><polygon class="f" points="280.41 132.72 277.1 131.36 276.62 127.81 279.46 125.62 282.77 126.98 283.24 130.53 280.41 132.72"/><polygon class="f" points="276.9 141.48 273.59 140.12 273.11 136.57 275.95 134.38 279.26 135.75 279.74 139.3 276.9 141.48"/><polygon class="f" points="278.66 150.25 275.34 148.89 274.87 145.34 277.7 143.15 281.02 144.51 281.49 148.06 278.66 150.25"/><polygon class="f" points="261.13 137.98 257.81 136.62 257.34 133.07 260.17 130.88 263.49 132.24 263.96 135.79 261.13 137.98"/><polygon class="f" points="252.36 141.48 249.05 140.12 248.57 136.57 251.41 134.38 254.72 135.75 255.2 139.3 252.36 141.48"/><polygon class="f" points="261.13 129.21 257.81 127.85 257.34 124.3 260.17 122.11 263.49 123.48 263.96 127.03 261.13 129.21"/><polygon class="f" points="259.37 148.5 256.06 147.13 255.58 143.58 258.42 141.4 261.73 142.76 262.21 146.31 259.37 148.5"/><polygon class="f" points="271.64 132.72 268.33 131.36 267.85 127.81 270.69 125.62 274 126.98 274.48 130.53 271.64 132.72"/><polygon class="f" points="268.14 141.48 264.83 140.12 264.35 136.57 267.19 134.38 270.5 135.75 270.97 139.3 268.14 141.48"/><polygon class="f" points="268.14 152 264.83 150.64 264.35 147.09 267.19 144.9 270.5 146.26 270.97 149.81 268.14 152"/><polygon class="f" points="275.15 160.77 271.84 159.4 271.36 155.85 274.2 153.67 277.51 155.03 277.99 158.58 275.15 160.77"/><polygon class="f" points="271.64 169.53 268.33 168.17 267.85 164.62 270.69 162.43 274 163.79 274.48 167.34 271.64 169.53"/><polygon class="f" points="273.4 178.3 270.08 176.93 269.61 173.38 272.44 171.19 275.76 172.56 276.23 176.11 273.4 178.3"/><polygon class="f" points="255.87 166.03 252.55 164.66 252.08 161.11 254.91 158.92 258.23 160.29 258.7 163.84 255.87 166.03"/><polygon class="f" points="257.62 157.26 254.31 155.9 253.83 152.35 256.67 150.16 259.98 151.52 260.46 155.07 257.62 157.26"/><polygon class="f" points="248.86 169.53 245.54 168.17 245.07 164.62 247.9 162.43 251.22 163.79 251.69 167.34 248.86 169.53"/><polygon class="f" points="254.11 176.54 250.8 175.18 250.33 171.63 253.16 169.44 256.47 170.8 256.95 174.35 254.11 176.54"/><polygon class="f" points="266.39 160.77 263.07 159.4 262.6 155.85 265.43 153.67 268.75 155.03 269.22 158.58 266.39 160.77"/><polygon class="f" points="262.88 169.53 259.57 168.17 259.09 164.62 261.93 162.43 265.24 163.79 265.72 167.34 262.88 169.53"/><polygon class="f" points="262.88 180.05 259.57 178.69 259.09 175.14 261.93 172.95 265.24 174.31 265.72 177.86 262.88 180.05"/><polygon class="f" points="275.15 57.35 271.84 55.98 271.36 52.43 274.2 50.25 277.51 51.61 277.99 55.16 275.15 57.35"/><polygon class="f" points="271.64 66.11 268.33 64.75 267.85 61.2 270.69 59.01 274 60.37 274.48 63.92 271.64 66.11"/><polygon class="f" points="266.39 73.12 263.07 71.76 262.6 68.21 265.43 66.02 268.75 67.38 269.22 70.93 266.39 73.12"/><polygon class="f" points="264.63 62.6 261.32 61.24 260.84 57.69 263.68 55.5 266.99 56.87 267.47 60.42 264.63 62.6"/><polygon class="f" points="255.87 66.11 252.55 64.75 252.08 61.2 254.91 59.01 258.23 60.37 258.7 63.92 255.87 66.11"/><polygon class="f" points="257.62 74.87 254.31 73.51 253.83 69.96 256.67 67.77 259.98 69.14 260.46 72.69 257.62 74.87"/><polygon class="f" points="285.67 32.81 282.35 31.44 281.88 27.89 284.71 25.7 288.03 27.07 288.5 30.62 285.67 32.81"/><polygon class="f" points="280.41 25.79 277.1 24.43 276.62 20.88 279.46 18.69 282.77 20.06 283.24 23.61 280.41 25.79"/><polygon class="f" points="271.64 20.53 268.33 19.17 267.85 15.62 270.69 13.43 274 14.8 274.48 18.35 271.64 20.53"/><polygon class="f" points="275.15 11.77 271.84 10.41 271.36 6.86 274.2 4.67 277.51 6.03 277.99 9.58 275.15 11.77"/><polygon class="f" points="282.16 17.03 278.85 15.67 278.37 12.12 281.21 9.93 284.52 11.29 285 14.84 282.16 17.03"/><polygon class="f" points="203.28 36.31 199.97 34.95 199.49 31.4 202.33 29.21 205.64 30.57 206.12 34.12 203.28 36.31"/><polygon class="f" points="212.05 34.56 208.73 33.2 208.26 29.65 211.09 27.46 214.41 28.82 214.88 32.37 212.05 34.56"/><polygon class="f" points="129.83 135.18 126.52 133.82 126.04 130.27 128.88 128.08 132.19 129.44 132.67 133 129.83 135.18"/><polygon class="f" points="121.14 129.81 117.83 128.44 117.35 124.89 120.19 122.71 123.5 124.07 123.98 127.62 121.14 129.81"/><polygon class="f" points="131.29 126.54 127.98 125.18 127.5 121.63 130.34 119.44 133.65 120.8 134.12 124.35 131.29 126.54"/><polygon class="f" points="122.6 121.16 119.28 119.8 118.81 116.25 121.64 114.06 124.96 115.43 125.43 118.98 122.6 121.16"/><polygon class="f" points="145.11 168.28 141.8 166.92 141.32 163.37 144.16 161.18 147.47 162.55 147.95 166.1 145.11 168.28"/><polygon class="f" points="157.31 170.15 154 168.79 153.52 165.24 156.36 163.05 159.67 164.42 160.14 167.97 157.31 170.15"/><polygon class="f" points="146.79 182.42 143.48 181.06 143 177.51 145.84 175.32 149.15 176.69 149.63 180.24 146.79 182.42"/><polygon class="f" points="150.47 174.37 147.16 173.01 146.68 169.46 149.52 167.27 152.83 168.63 153.31 172.18 150.47 174.37"/><polygon class="f" points="154.1 187.56 150.79 186.2 150.31 182.65 153.15 180.46 156.46 181.82 156.93 185.37 154.1 187.56"/><polygon class="f" points="157.6 178.8 154.29 177.43 153.82 173.88 156.65 171.7 159.96 173.06 160.44 176.61 157.6 178.8"/><polygon class="f" points="163.64 185.29 160.33 183.93 159.85 180.38 162.69 178.19 166 179.55 166.48 183.1 163.64 185.29"/><polygon class="f" points="172.11 181.91 168.79 180.55 168.32 177 171.15 174.81 174.47 176.17 174.94 179.72 172.11 181.91"/><polygon class="f" points="166.85 176.65 163.54 175.29 163.06 171.74 165.9 169.55 169.21 170.91 169.69 174.46 166.85 176.65"/><polygon class="f" points="180.87 178.4 177.56 177.04 177.08 173.49 179.92 171.3 183.23 172.67 183.71 176.22 180.87 178.4"/><polygon class="f" points="189.64 174.9 186.32 173.53 185.85 169.98 188.68 167.8 192 169.16 192.47 172.71 189.64 174.9"/><polygon class="f" points="198.4 171.39 195.09 170.03 194.61 166.48 197.45 164.29 200.76 165.65 201.24 169.2 198.4 171.39"/><polygon class="f" points="191.39 166.13 188.08 164.77 187.6 161.22 190.44 159.03 193.75 160.39 194.23 163.95 191.39 166.13"/><polygon class="f" points="180.87 164.38 177.56 163.02 177.08 159.47 179.92 157.28 183.23 158.64 183.71 162.19 180.87 164.38"/><polygon class="f" points="173.86 160.87 170.55 159.51 170.07 155.96 172.91 153.77 176.22 155.14 176.7 158.69 173.86 160.87"/><polygon class="f" points="175.61 171.39 172.3 170.03 171.82 166.48 174.66 164.29 177.97 165.65 178.45 169.2 175.61 171.39"/><polygon class="f" points="166.85 167.89 163.54 166.52 163.06 162.97 165.9 160.79 169.21 162.15 169.69 165.7 166.85 167.89"/><polygon class="f" points="166.85 155.62 163.54 154.25 163.06 150.7 165.9 148.51 169.21 149.88 169.69 153.43 166.85 155.62"/><polygon class="f" points="159.84 162.63 156.52 161.26 156.05 157.71 158.88 155.53 162.2 156.89 162.67 160.44 159.84 162.63"/><polygon class="f" points="208.92 167.89 205.61 166.52 205.13 162.97 207.97 160.79 211.28 162.15 211.75 165.7 208.92 167.89"/><polygon class="f" points="151.14 162.51 147.83 161.15 147.35 157.6 150.19 155.41 153.5 156.77 153.98 160.32 151.14 162.51"/><polygon class="f" points="152.9 155.5 149.58 154.14 149.11 150.59 151.94 148.4 155.26 149.76 155.73 153.31 152.9 155.5"/><polygon class="f" points="144.2 155.38 140.89 154.02 140.41 150.47 143.25 148.28 146.56 149.64 147.04 153.19 144.2 155.38"/><polygon class="f" points="159.61 152.11 156.3 150.75 155.82 147.2 158.66 145.01 161.97 146.38 162.45 149.93 159.61 152.11"/><polygon class="f" points="154.35 146.86 151.04 145.49 150.56 141.94 153.4 139.76 156.71 141.12 157.19 144.67 154.35 146.86"/><polygon class="f" points="145.66 146.74 142.35 145.38 141.87 141.83 144.71 139.64 148.02 141 148.5 144.55 145.66 146.74"/><polygon class="f" points="144.61 240.83 141.88 243.15 138.5 241.94 137.86 238.42 140.59 236.1 143.96 237.3 144.61 240.83"/><polygon class="f" points="153.37 235.57 150.64 237.89 147.27 236.68 146.63 233.16 149.36 230.84 152.73 232.04 153.37 235.57"/><polygon class="f" points="151.62 244.33 148.89 246.65 145.52 245.45 144.87 241.92 147.6 239.6 150.98 240.81 151.62 244.33"/><polygon class="f" points="160.38 240.83 157.65 243.15 154.28 241.94 153.64 238.42 156.37 236.1 159.74 237.3 160.38 240.83"/><polygon class="f" points="167.39 237.32 164.66 239.64 161.29 238.43 160.65 234.91 163.38 232.59 166.75 233.8 167.39 237.32"/><polygon class="f" points="160.38 232.06 157.65 234.38 154.28 233.18 153.64 229.65 156.37 227.33 159.74 228.54 160.38 232.06"/><polygon class="f" points="174.41 232.06 171.68 234.38 168.3 233.18 167.66 229.65 170.39 227.33 173.76 228.54 174.41 232.06"/><polygon class="f" points="176.16 239.07 173.43 241.39 170.06 240.19 169.41 236.66 172.14 234.34 175.52 235.55 176.16 239.07"/><polygon class="f" points="162.14 223.3 159.41 225.62 156.03 224.41 155.39 220.89 158.12 218.57 161.49 219.77 162.14 223.3"/><polygon class="f" points="167.39 228.56 164.66 230.88 161.29 229.67 160.65 226.15 163.38 223.83 166.75 225.03 167.39 228.56"/><polygon class="f" points="153.37 226.8 150.64 229.12 147.27 227.92 146.63 224.39 149.36 222.07 152.73 223.28 153.37 226.8"/><polygon class="f" points="146.36 223.3 143.63 225.62 140.26 224.41 139.61 220.89 142.34 218.57 145.72 219.77 146.36 223.3"/><polygon class="f" points="144.61 232.06 141.88 234.38 138.5 233.18 137.86 229.65 140.59 227.33 143.96 228.54 144.61 232.06"/><polygon class="f" points="135.84 237.32 133.11 239.64 129.74 238.43 129.1 234.91 131.83 232.59 135.2 233.8 135.84 237.32"/><polygon class="f" points="137.6 226.8 134.87 229.12 131.49 227.92 130.85 224.39 133.58 222.07 136.95 223.28 137.6 226.8"/><polygon class="f" points="155.12 209.27 152.39 211.59 149.02 210.39 148.38 206.86 151.11 204.55 154.48 205.75 155.12 209.27"/><polygon class="f" points="156.88 200.51 154.15 202.83 150.77 201.62 150.13 198.1 152.86 195.78 156.23 196.99 156.88 200.51"/><polygon class="f" points="153.37 218.04 150.64 220.36 147.27 219.15 146.63 215.63 149.36 213.31 152.73 214.52 153.37 218.04"/><polygon class="f" points="146.36 212.78 143.63 215.1 140.26 213.89 139.61 210.37 142.34 208.05 145.72 209.26 146.36 212.78"/><polygon class="f" points="137.6 211.03 134.87 213.35 131.49 212.14 130.85 208.62 133.58 206.3 136.95 207.5 137.6 211.03"/><polygon class="f" points="130.58 207.52 127.85 209.84 124.48 208.64 123.84 205.11 126.57 202.79 129.94 204 130.58 207.52"/><polygon class="f" points="144.61 204.02 141.88 206.33 138.5 205.13 137.86 201.61 140.59 199.29 143.96 200.49 144.61 204.02"/><polygon class="f" points="135.84 219.79 133.11 222.11 129.74 220.91 129.1 217.38 131.83 215.06 135.2 216.27 135.84 219.79"/><polygon class="f" points="128.83 214.53 126.1 216.85 122.73 215.65 122.08 212.12 124.82 209.8 128.19 211.01 128.83 214.53"/><polygon class="f" points="121.82 211.03 119.09 213.35 115.72 212.14 115.07 208.62 117.8 206.3 121.18 207.5 121.82 211.03"/><polygon class="f" points="128.83 232.06 126.1 234.38 122.73 233.18 122.08 229.65 124.82 227.33 128.19 228.54 128.83 232.06"/><polygon class="f" points="128.83 223.3 126.1 225.62 122.73 224.41 122.08 220.89 124.82 218.57 128.19 219.77 128.83 223.3"/><polygon class="f" points="200.7 240.83 197.97 243.15 194.6 241.94 193.95 238.42 196.68 236.1 200.06 237.3 200.7 240.83"/><polygon class="f" points="209.46 235.57 206.73 237.89 203.36 236.68 202.72 233.16 205.45 230.84 208.82 232.04 209.46 235.57"/><polygon class="f" points="207.71 244.33 204.98 246.65 201.61 245.45 200.96 241.92 203.7 239.6 207.07 240.81 207.71 244.33"/><polygon class="f" points="216.48 240.83 213.75 243.15 210.37 241.94 209.73 238.42 212.46 236.1 215.83 237.3 216.48 240.83"/><polygon class="f" points="223.49 237.32 220.76 239.64 217.38 238.43 216.74 234.91 219.47 232.59 222.84 233.8 223.49 237.32"/><polygon class="f" points="216.48 232.06 213.75 234.38 210.37 233.18 209.73 229.65 212.46 227.33 215.83 228.54 216.48 232.06"/><polygon class="f" points="230.5 232.06 227.77 234.38 224.4 233.18 223.75 229.65 226.48 227.33 229.86 228.54 230.5 232.06"/><polygon class="f" points="218.23 223.3 215.5 225.62 212.13 224.41 211.48 220.89 214.21 218.57 217.59 219.77 218.23 223.3"/><polygon class="f" points="223.49 228.56 220.76 230.88 217.38 229.67 216.74 226.15 219.47 223.83 222.84 225.03 223.49 228.56"/><polygon class="f" points="209.46 226.8 206.73 229.12 203.36 227.92 202.72 224.39 205.45 222.07 208.82 223.28 209.46 226.8"/><polygon class="f" points="202.45 223.3 199.72 225.62 196.35 224.41 195.71 220.89 198.44 218.57 201.81 219.77 202.45 223.3"/><polygon class="f" points="200.7 232.06 197.97 234.38 194.6 233.18 193.95 229.65 196.68 227.33 200.06 228.54 200.7 232.06"/><polygon class="f" points="191.94 237.32 189.2 239.64 185.83 238.43 185.19 234.91 187.92 232.59 191.29 233.8 191.94 237.32"/><polygon class="f" points="183.17 242.58 180.44 244.9 177.07 243.69 176.42 240.17 179.15 237.85 182.53 239.06 183.17 242.58"/><polygon class="f" points="193.69 226.8 190.96 229.12 187.58 227.92 186.94 224.39 189.67 222.07 193.05 223.28 193.69 226.8"/><polygon class="f" points="170.9 218.04 168.17 220.36 164.8 219.15 164.15 215.63 166.88 213.31 170.26 214.52 170.9 218.04"/><polygon class="f" points="179.67 212.78 176.93 215.1 173.56 213.89 172.92 210.37 175.65 208.05 179.02 209.26 179.67 212.78"/><polygon class="f" points="177.91 221.54 175.18 223.86 171.81 222.66 171.17 219.13 173.9 216.82 177.27 218.02 177.91 221.54"/><polygon class="f" points="186.68 218.04 183.95 220.36 180.57 219.15 179.93 215.63 182.66 213.31 186.03 214.52 186.68 218.04"/><polygon class="f" points="193.69 214.53 190.96 216.85 187.58 215.65 186.94 212.12 189.67 209.8 193.05 211.01 193.69 214.53"/><polygon class="f" points="186.68 209.27 183.95 211.59 180.57 210.39 179.93 206.86 182.66 204.55 186.03 205.75 186.68 209.27"/><polygon class="f" points="200.7 209.27 197.97 211.59 194.6 210.39 193.95 206.86 196.68 204.55 200.06 205.75 200.7 209.27"/><polygon class="f" points="188.43 200.51 185.7 202.83 182.33 201.62 181.68 198.1 184.41 195.78 187.79 196.99 188.43 200.51"/><polygon class="f" points="181.42 195.25 178.69 197.57 175.31 196.36 174.67 192.84 177.4 190.52 180.78 191.73 181.42 195.25"/><polygon class="f" points="193.69 205.77 190.96 208.09 187.58 206.88 186.94 203.36 189.67 201.04 193.05 202.24 193.69 205.77"/><polygon class="f" points="179.67 204.02 176.93 206.33 173.56 205.13 172.92 201.61 175.65 199.29 179.02 200.49 179.67 204.02"/><polygon class="f" points="172.65 200.51 169.92 202.83 166.55 201.62 165.91 198.1 168.64 195.78 172.01 196.99 172.65 200.51"/><polygon class="f" points="170.9 209.27 168.17 211.59 164.8 210.39 164.15 206.86 166.88 204.55 170.26 205.75 170.9 209.27"/><polygon class="f" points="162.14 214.53 159.41 216.85 156.03 215.65 155.39 212.12 158.12 209.8 161.49 211.01 162.14 214.53"/><polygon class="f" points="163.89 204.02 161.16 206.33 157.79 205.13 157.14 201.61 159.87 199.29 163.25 200.49 163.89 204.02"/><polygon class="f" points="184.92 232.06 182.19 234.38 178.82 233.18 178.18 229.65 180.91 227.33 184.28 228.54 184.92 232.06"/><polygon class="f" points="255.04 249.46 256.16 252.86 253.78 255.54 250.27 254.81 249.15 251.41 251.53 248.74 255.04 249.46"/><polygon class="f" points="256.79 259.98 257.92 263.38 255.54 266.06 252.03 265.33 250.9 261.93 253.28 259.26 256.79 259.98"/><polygon class="f" points="255.04 268.74 256.16 272.15 253.78 274.82 250.27 274.1 249.15 270.7 251.53 268.02 255.04 268.74"/><polygon class="f" points="253.45 239.37 254.57 242.77 252.19 245.44 248.68 244.72 247.56 241.32 249.94 238.64 253.45 239.37"/><polygon class="f" points="260.92 244.28 262.04 247.68 259.66 250.35 256.15 249.63 255.03 246.23 257.41 243.55 260.92 244.28"/><polygon class="f" points="260.95 234.84 262.08 238.24 259.7 240.91 256.19 240.19 255.06 236.79 257.44 234.11 260.95 234.84"/><polygon class="f" points="260.33 227.02 261.45 230.42 259.07 233.1 255.57 232.37 254.44 228.97 256.82 226.3 260.33 227.02"/><polygon class="f" points="252.83 231.55 253.95 234.95 251.57 237.63 248.06 236.9 246.94 233.5 249.32 230.83 252.83 231.55"/><polygon class="f" points="258.08 218.55 259.21 221.95 256.83 224.63 253.32 223.9 252.19 220.5 254.57 217.83 258.08 218.55"/><polygon class="f" points="265.59 218.26 266.71 221.66 264.33 224.33 260.82 223.61 259.7 220.21 262.08 217.53 265.59 218.26"/><polygon class="f" points="263.34 209.79 264.47 213.19 262.08 215.86 258.58 215.14 257.45 211.74 259.83 209.06 263.34 209.79"/><polygon class="f" points="270.35 206.28 271.48 209.68 269.1 212.36 265.59 211.63 264.46 208.23 266.84 205.56 270.35 206.28"/><polygon class="f" points="245.36 226.64 246.48 230.04 244.1 232.72 240.59 231.99 239.47 228.59 241.85 225.92 245.36 226.64"/><polygon class="f" points="252.2 223.74 253.33 227.14 250.95 229.81 247.44 229.09 246.31 225.69 248.7 223.01 252.2 223.74"/><polygon class="f" points="245.32 236.08 246.45 239.48 244.07 242.16 240.56 241.43 239.43 238.03 241.81 235.36 245.32 236.08"/><polygon class="f" points="239.44 241.27 240.57 244.67 238.19 247.34 234.68 246.62 233.55 243.22 235.94 240.54 239.44 241.27"/><polygon class="f" points="246.91 246.18 248.04 249.58 245.66 252.25 242.15 251.53 241.02 248.13 243.4 245.45 246.91 246.18"/><polygon class="f" points="248.5 256.27 249.63 259.67 247.25 262.35 243.74 261.63 242.61 258.23 244.99 255.55 248.5 256.27"/><polygon class="f" points="248.5 265.04 249.63 268.44 247.25 271.11 243.74 270.39 242.61 266.99 244.99 264.31 248.5 265.04"/><polygon class="f" points="253.76 277.31 254.89 280.71 252.51 283.39 249 282.66 247.87 279.26 250.25 276.58 253.76 277.31"/><polygon class="f" points="246.75 272.05 247.88 275.45 245.49 278.13 241.99 277.4 240.86 274 243.24 271.33 246.75 272.05"/><polygon class="f" points="239.41 250.71 240.54 254.11 238.15 256.78 234.65 256.06 233.52 252.66 235.9 249.98 239.41 250.71"/><polygon class="f" points="230.68 239.51 231.81 242.92 229.42 245.59 225.92 244.87 224.79 241.47 227.17 238.79 230.68 239.51"/><polygon class="f" points="237.69 232.5 238.82 235.9 236.44 238.58 232.93 237.85 231.8 234.45 234.18 231.78 237.69 232.5"/><polygon class="f" points="230.64 248.95 231.77 252.35 229.39 255.03 225.88 254.31 224.75 250.91 227.14 248.23 230.64 248.95"/><polygon class="f" points="221.88 247.2 223.01 250.6 220.62 253.28 217.12 252.55 215.99 249.15 218.37 246.48 221.88 247.2"/><polygon class="f" points="241 260.8 242.13 264.2 239.74 266.88 236.24 266.16 235.11 262.75 237.49 260.08 241 260.8"/><polygon class="f" points="239.25 269.57 240.37 272.97 237.99 275.64 234.48 274.92 233.36 271.52 235.74 268.84 239.25 269.57"/><polygon class="f" points="241.01 303.8 242.14 307.2 239.76 309.88 236.25 309.15 235.12 305.75 237.51 303.08 241.01 303.8"/><polygon class="f" points="242.77 309.06 243.89 312.46 241.51 315.14 238 314.41 236.88 311.01 239.26 308.34 242.77 309.06"/><polygon class="f" points="239.42 293.71 240.55 297.11 238.17 299.78 234.66 299.06 233.53 295.66 235.92 292.98 239.42 293.71"/><polygon class="f" points="246.89 298.62 248.02 302.02 245.64 304.69 242.13 303.97 241 300.57 243.38 297.89 246.89 298.62"/><polygon class="f" points="246.93 289.18 248.05 292.58 245.67 295.25 242.16 294.53 241.04 291.13 243.42 288.45 246.93 289.18"/><polygon class="f" points="246.31 281.36 247.43 284.76 245.05 287.44 241.54 286.71 240.42 283.31 242.8 280.64 246.31 281.36"/><polygon class="f" points="238.8 285.89 239.93 289.29 237.55 291.97 234.04 291.24 232.91 287.84 235.29 285.17 238.8 285.89"/><polygon class="f" points="231.33 280.98 232.46 284.38 230.08 287.06 226.57 286.33 225.44 282.93 227.83 280.26 231.33 280.98"/><polygon class="f" points="238.18 278.08 239.31 281.48 236.92 284.15 233.42 283.43 232.29 280.03 234.67 277.35 238.18 278.08"/><polygon class="f" points="231.3 290.42 232.43 293.82 230.04 296.5 226.54 295.77 225.41 292.37 227.79 289.7 231.3 290.42"/><polygon class="f" points="225.42 295.61 226.55 299.01 224.17 301.68 220.66 300.96 219.53 297.56 221.91 294.88 225.42 295.61"/><polygon class="f" points="232.89 300.52 234.02 303.92 231.63 306.59 228.13 305.87 227 302.47 229.38 299.79 232.89 300.52"/><polygon class="f" points="234.48 310.61 235.61 314.01 233.22 316.69 229.72 315.97 228.59 312.57 230.97 309.89 234.48 310.61"/><polygon class="f" points="239.74 317.63 240.86 321.03 238.48 323.7 234.97 322.98 233.85 319.58 236.23 316.9 239.74 317.63"/><polygon class="f" points="225.39 305.05 226.51 308.45 224.13 311.12 220.62 310.4 219.5 307 221.88 304.32 225.39 305.05"/><polygon class="f" points="226.98 315.14 228.1 318.54 225.72 321.22 222.21 320.49 221.09 317.09 223.47 314.42 226.98 315.14"/><polygon class="f" points="251.53 209.15 252.66 212.55 250.28 215.22 246.77 214.5 245.64 211.1 248.02 208.42 251.53 209.15"/><polygon class="f" points="249.94 199.05 251.07 202.45 248.69 205.13 245.18 204.4 244.05 201 246.43 198.33 249.94 199.05"/><polygon class="f" points="257.41 203.96 258.54 207.36 256.15 210.04 252.65 209.31 251.52 205.91 253.9 203.24 257.41 203.96"/><polygon class="f" points="257.45 194.52 258.57 197.92 256.19 200.6 252.68 199.87 251.56 196.47 253.94 193.8 257.45 194.52"/><polygon class="f" points="256.82 186.71 257.95 190.11 255.57 192.78 252.06 192.06 250.93 188.66 253.31 185.98 256.82 186.71"/><polygon class="f" points="264.42 200.45 265.55 203.85 263.17 206.53 259.66 205.81 258.53 202.41 260.91 199.73 264.42 200.45"/><polygon class="f" points="264.46 191.01 265.58 194.42 263.2 197.09 259.69 196.37 258.57 192.97 260.95 190.29 264.46 191.01"/><polygon class="f" points="265.59 181.45 266.71 184.85 264.33 187.52 260.82 186.8 259.7 183.4 262.08 180.72 265.59 181.45"/><polygon class="f" points="271.43 198.7 272.56 202.1 270.18 204.78 266.67 204.05 265.54 200.65 267.93 197.98 271.43 198.7"/><polygon class="f" points="273.22 191.01 274.35 194.42 271.97 197.09 268.46 196.37 267.33 192.97 269.71 190.29 273.22 191.01"/><polygon class="f" points="274.35 181.45 275.48 184.85 273.1 187.52 269.59 186.8 268.46 183.4 270.84 180.72 274.35 181.45"/><polygon class="f" points="249.32 191.24 250.45 194.64 248.06 197.31 244.56 196.59 243.43 193.19 245.81 190.51 249.32 191.24"/><polygon class="f" points="254.58 178.23 255.7 181.64 253.32 184.31 249.81 183.59 248.69 180.19 251.07 177.51 254.58 178.23"/><polygon class="f" points="241.85 186.33 242.98 189.73 240.6 192.4 237.09 191.68 235.96 188.28 238.34 185.6 241.85 186.33"/><polygon class="f" points="248.7 183.42 249.82 186.82 247.44 189.5 243.93 188.77 242.81 185.37 245.19 182.7 248.7 183.42"/><polygon class="f" points="241.82 195.76 242.94 199.17 240.56 201.84 237.05 201.12 235.93 197.72 238.31 195.04 241.82 195.76"/><polygon class="f" points="235.94 200.95 237.06 204.35 234.68 207.03 231.17 206.3 230.05 202.9 232.43 200.23 235.94 200.95"/><polygon class="f" points="243.41 205.86 244.53 209.26 242.15 211.94 238.64 211.21 237.52 207.81 239.9 205.14 243.41 205.86"/><polygon class="f" points="245 215.96 246.12 219.36 243.74 222.03 240.23 221.31 239.11 217.91 241.49 215.23 245 215.96"/><polygon class="f" points="235.9 210.39 237.03 213.79 234.65 216.47 231.14 215.74 230.01 212.34 232.4 209.67 235.9 210.39"/><polygon class="f" points="237.49 220.49 238.62 223.89 236.24 226.56 232.73 225.84 231.6 222.44 233.99 219.76 237.49 220.49"/><polygon class="f" points="233.09 182.82 234.21 186.22 231.83 188.9 228.32 188.17 227.2 184.77 229.58 182.09 233.09 182.82"/><polygon class="f" points="233.05 192.26 234.18 195.66 231.8 198.34 228.29 197.61 227.16 194.21 229.54 191.53 233.05 192.26"/><polygon class="f" points="227.17 197.45 228.3 200.85 225.92 203.52 222.41 202.8 221.28 199.4 223.67 196.72 227.17 197.45"/><polygon class="f" points="227.14 206.89 228.26 210.29 225.88 212.96 222.38 212.24 221.25 208.84 223.63 206.16 227.14 206.89"/><polygon class="f" points="228.73 216.98 229.86 220.38 227.47 223.06 223.97 222.33 222.84 218.93 225.22 216.26 228.73 216.98"/><polygon class="f" points="222.57 177.56 223.7 180.96 221.31 183.64 217.81 182.91 216.68 179.51 219.06 176.84 222.57 177.56"/><polygon class="f" points="222.57 168.8 223.7 172.2 221.31 174.87 217.81 174.15 216.68 170.75 219.06 168.07 222.57 168.8"/><polygon class="f" points="222.57 160.03 223.7 163.43 221.31 166.11 217.81 165.38 216.68 161.98 219.06 159.31 222.57 160.03"/><polygon class="f" points="231.33 156.53 232.46 159.93 230.08 162.6 226.57 161.88 225.44 158.48 227.83 155.8 231.33 156.53"/><polygon class="f" points="238.35 149.51 239.47 152.91 237.09 155.59 233.58 154.87 232.46 151.47 234.84 148.79 238.35 149.51"/><polygon class="f" points="233.09 165.29 234.21 168.69 231.83 171.37 228.32 170.64 227.2 167.24 229.58 164.57 233.09 165.29"/><polygon class="f" points="236.59 174.06 237.72 177.46 235.34 180.13 231.83 179.41 230.7 176.01 233.08 173.33 236.59 174.06"/><polygon class="f" points="229.58 174.06 230.71 177.46 228.33 180.13 224.82 179.41 223.69 176.01 226.07 173.33 229.58 174.06"/><polygon class="f" points="222.53 187 223.66 190.4 221.28 193.08 217.77 192.35 216.64 188.95 219.03 186.28 222.53 187"/><polygon class="f" points="216.66 192.19 217.78 195.59 215.4 198.26 211.89 197.54 210.77 194.14 213.15 191.46 216.66 192.19"/><polygon class="f" points="216.62 201.63 217.75 205.03 215.37 207.7 211.86 206.98 210.73 203.58 213.11 200.9 216.62 201.63"/><polygon class="f" points="207.89 188.68 209.02 192.08 206.64 194.76 203.13 194.03 202 190.63 204.38 187.96 207.89 188.68"/><polygon class="f" points="207.86 198.12 208.98 201.52 206.6 204.2 203.09 203.47 201.97 200.07 204.35 197.4 207.86 198.12"/><polygon class="f" points="207.86 206.89 208.98 210.29 206.6 212.96 203.09 212.24 201.97 208.84 204.35 206.16 207.86 206.89"/><polygon class="f" points="211.36 213.9 212.49 217.3 210.11 219.97 206.6 219.25 205.47 215.85 207.85 213.17 211.36 213.9"/><polygon class="f" points="199.13 186.93 200.25 190.33 197.87 193 194.36 192.28 193.24 188.88 195.62 186.2 199.13 186.93"/><polygon class="f" points="206.14 181.67 207.26 185.07 204.88 187.75 201.38 187.02 200.25 183.62 202.63 180.94 206.14 181.67"/><polygon class="f" points="192.12 188.68 193.24 192.08 190.86 194.76 187.35 194.03 186.23 190.63 188.61 187.96 192.12 188.68"/><polygon class="f" points="199.09 196.37 200.22 199.77 197.84 202.44 194.33 201.72 193.2 198.32 195.58 195.64 199.09 196.37"/><polygon class="f" points="214.9 172.91 216.03 176.31 213.65 178.98 210.14 178.26 209.01 174.86 211.4 172.18 214.9 172.91"/><polygon class="f" points="214.87 182.34 215.99 185.74 213.61 188.42 210.1 187.7 208.98 184.3 211.36 181.62 214.87 182.34"/><polygon class="f" points="218.21 211.72 219.34 215.12 216.96 217.8 213.45 217.07 212.32 213.67 214.7 211 218.21 211.72"/><polygon class="f" points="248.86 142.5 249.99 145.9 247.61 148.58 244.1 147.85 242.97 144.45 245.35 141.78 248.86 142.5"/><polygon class="f" points="248.83 151.94 249.95 155.34 247.57 158.02 244.06 157.29 242.94 153.89 245.32 151.22 248.83 151.94"/><polygon class="f" points="242.95 157.13 244.08 160.53 241.69 163.2 238.19 162.48 237.06 159.08 239.44 156.4 242.95 157.13"/><polygon class="f" points="242.91 166.57 244.04 169.97 241.66 172.64 238.15 171.92 237.03 168.52 239.41 165.84 242.91 166.57"/><polygon class="f" points="244.5 176.67 245.63 180.07 243.25 182.74 239.74 182.02 238.62 178.62 241 175.94 244.5 176.67"/></g></g></g></g></g></svg>