<?xml version="1.0" encoding="UTF-8"?><svg xmlns="http://www.w3.org/2000/svg" viewBox="0 0 909.81 69.7"><defs><style>.d{fill:red;opacity:.11;}</style></defs><g id="a"/><g id="b"><g id="c"><g><path class="d" d="M905.25,54.06c-5.74-3.1-11.65-5.84-17.71-8.23-4-1.8-8.09-3.38-12.26-4.73-10.41-3.7-20.99-6.82-31.73-9.41-21.67-5.23-43.81-8.55-65.92-11.2-21.68-2.59-43.42-4.78-65.14-7.04-28.28-2.95-56.61-5.54-85.03-6.63-25.52-.98-51.05-.64-76.5,1.57-8.5,.72-16.95,1.78-25.36,3.17-8.48,1.17-16.9,2.69-25.25,4.58-6.67,1.54-13.3,3.25-19.92,5.01-16.57,4.41-32.97,9.42-49.52,13.88-16.05,4.32-32.35,8.38-48.85,10.58-14.24,1.89-28.56,2.71-42.88,1.37-7.82-.73-15.58-2.02-23.16-4.12-7.46-2.06-14.62-4.93-21.62-8.2-13.89-6.5-27.09-14.38-41.23-20.37-7.5-3.18-15.24-5.9-23.24-7.55-6.79-1.4-13.65-2.34-20.55-2.94-8.7-.76-17.53-.58-26.24-.12-8.86,.47-17.67,1.34-26.47,2.5-17.69,2.32-35.21,5.71-52.81,8.57-15.49,2.51-31.03,4.75-46.71,5.6-8.44,.46-16.92,.58-25.36,.01l-9.98-.95c-6.62-.82-13.16-2.1-19.61-3.84,.13,.54,.41,1,.84,1.39,1.28,1.54,2.6,3.05,3.94,4.53,1.32,1.5,2.68,2.98,4.05,4.43,.33,.47,.76,.8,1.28,.99,5.03,1.13,10.1,1.94,15.22,2.45,3.38,.5,6.78,.81,10.2,.93,8.54,.54,17.09,.56,25.65,.16,17.33-.81,34.57-3.23,51.72-5.8,32.13-4.83,64.64-10.67,97.25-8.01,14.94,1.22,29.46,4.45,43.51,9.66,14.74,5.46,28.65,12.96,43.18,18.94,14.91,6.14,30.56,10.05,46.65,11.3s32.58,.09,48.55-2.49c31.51-5.08,62.01-14.6,92.92-22.29,8.12-2.02,16.24-4.05,24.45-5.63,13.76-2.66,27.6-4.64,41.55-5.99,25.15-2.42,50.39-2.71,75.62-1.9,28.21,.91,56.41,3.58,84.46,6.63,13.32,1.45,26.61,3.14,39.91,4.7,10.87,1.27,21.74,2.55,32.57,4.08,19.45,2.75,38.82,6.02,57.9,10.72,10.5,2.59,20.91,5.54,31.12,9.12l12.13,4.55c7.81,3.16,15.36,6.85,22.64,11.07,.12-.56,.06-1.11-.16-1.66-.5-2-1.04-3.99-1.61-5.98-.55-1.99-1.14-3.97-1.76-5.93-.1-.58-.34-1.08-.73-1.5Z"/><path class="d" d="M906.04,56.41c-5.72-3.12-11.6-5.87-17.64-8.26-6.02-2.65-12.17-4.97-18.45-6.96-10.53-3.4-21.19-6.27-31.99-8.69-23.95-5.37-48.28-8.63-72.64-11.37-28.56-3.22-57.16-6.33-85.79-8.86-31.07-2.75-62.39-4.74-93.59-3.79-28.44,.86-56.73,3.63-84.57,9.61-20.11,4.32-39.81,10.58-59.61,16.07-16.21,4.49-32.47,8.73-49.03,11.75-9.47,1.73-19.29,3.04-28.91,3.46l-9.52,.25c-6.29,0-12.57-.37-18.81-1.13l.35,.05-9.63-1.52,.34,.06-9.54-2.2,.34,.08c-6-1.61-11.85-3.67-17.53-6.16-5.55-2.45-11.02-5.08-16.4-7.89-11.08-5.65-21.99-11.72-33.62-16.2-26.04-10.04-54.08-10.52-81.52-7.72-28.31,2.88-56.12,9.15-84.31,12.84-13.62,1.78-27.34,3.04-41.09,2.88-6.71-.05-13.39-.49-20.05-1.3-6.62-.81-13.16-2.07-19.61-3.78,.07,.43,.28,.79,.64,1.08,1.02,1.13,2.08,2.24,3.15,3.32,1.06,1.1,2.15,2.17,3.27,3.21,.28,.37,.64,.59,1.06,.66,5,1.15,10.05,1.98,15.16,2.5,3.37,.51,6.76,.83,10.16,.95,8.54,.56,17.05,.55,25.6,.21,17.34-.69,34.59-3.25,51.74-5.83,35.52-5.33,71.66-12.17,107.63-7.2,8.38,1.16,16.7,2.88,24.78,5.42,7.46,2.35,14.69,5.41,21.81,8.6,11.39,5.1,22.57,10.68,34.21,15.22,7.48,2.92,15.12,5.4,22.98,7.08,15.74,3.37,32.14,4.07,48.16,2.73,33.37-2.78,65.53-12.34,97.75-20.89,18.45-4.89,36.93-9.36,55.78-12.47,13.81-2.27,27.82-3.56,41.79-4.42,14.02-.87,28.04-1.15,42.08-1.05,28.24,.2,56.44,2.52,84.53,5.25,16.82,1.63,33.57,3.68,50.35,5.65,10.88,1.28,21.76,2.53,32.63,3.95,21.7,2.84,43.32,6.3,64.6,11.5,10.53,2.57,20.98,5.52,31.22,9.09l12.16,4.55c7.82,3.15,15.39,6.82,22.71,11.01,.15-.41,.14-.84-.04-1.27-.35-1.51-.73-3.01-1.15-4.5-.4-1.5-.83-2.99-1.3-4.46-.07-.46-.27-.83-.61-1.11Z"/><path class="d" d="M904.58,50.56c-9.49-4.57-13.81-6.9-23.76-10.62-10.37-3.88-20.91-7.16-31.62-9.93-21.67-5.61-43.78-9.17-65.98-11.96-26.67-3.36-53.47-6-80.21-8.68-11.24-1.13-23-2.27-34.26-3.16-48.21-3.79-96.76-5.07-144.71,2.27-11.91,1.82-23.7,4.11-35.38,7.07-8.37,2.12-16.68,4.44-24.98,6.8-18,5.12-35.95,10.58-54.19,14.77-15.93,3.66-31.97,6.5-48.31,7.42-15.62,.88-31.36-.71-46.47-4.77-16.2-4.36-30.81-13.12-45.58-20.79-11.29-5.87-22.77-11.05-35.1-14.25-36.33-9.44-74.45-2.87-110.74,3.36-20.76,3.56-41.51,7.31-62.53,8.96-9.99,.78-20.39,1.05-30.39,.26l-9.92-.97c-6.58-.84-13.07-2.13-19.47-3.89-.86-.2,.55,1.5,.46,1.39,.54,.69,1.1,1.37,1.68,2.02,.28,.38,.61,.69,1.01,.93,6.54,1.42,13.02,2.73,19.67,3.57,8.31,1.05,16.77,1.2,25.14,1.05,15.56-.28,31.03-2.1,46.41-4.38,29.91-4.44,59.64-10.74,89.94-11.85,15.54-.57,31.31,.2,46.51,3.69l18.64,5.7,8.58,3.59c7.03,3.06,13.86,6.65,20.7,10.1,12.32,6.22,24.79,12.24,38.21,15.68,13.72,3.52,27.97,4.62,42.09,4.13,28.15-.99,55.62-8.1,82.65-15.54,14.97-4.12,29.89-8.42,44.97-12.18,21.58-5.37,43.52-9,65.68-10.93,47.99-4.16,96.46-.91,144.23,3.85,25.18,2.51,50.36,5.24,75.48,8.29,19.87,2.41,39.75,5.25,59.33,9.48,10.8,2.33,21.48,5.12,32.02,8.42,4.22,1.22,8.38,2.62,12.47,4.22,10.14,3.49,19.93,7.82,29.38,12.98,.28,.14-.48-3.27-.45-3.16-.17-.66-.4-2.59-1.18-2.96Z"/><path class="d" d="M904.16,54.78c-11.93-4.83-23.74-10-35.99-14.02-4.24-1.39-8.52-2.66-12.81-3.86-17.24-4.82-34.9-8.25-52.6-10.87-17.66-2.62-35.4-4.59-53.16-6.46-29.9-3.14-59.79-6.45-89.78-8.66-31.19-2.3-62.54-3.4-93.79-1.54-17.15,1.02-34.18,3-51.12,5.86-39.39,6.66-76.75,21.74-115.86,29.62-15.85,3.19-31.81,5.37-48.01,5.36-17.1,0-34.29-3.23-50.07-9.82-15.41-6.45-29.46-15.62-44.71-22.39-7.33-3.25-14.75-6.02-22.52-8.03-5.06-1.31-10.12-2.37-15.31-3.1-15.81-2.22-31.92-1.79-47.77-.3-19.69,1.85-39.12,5.45-58.59,8.8-17.25,2.97-34.52,5.77-51.98,7.12-9.98,.77-20.38,1.02-30.38,.21l-9.91-1c-6.57-.86-13.05-2.18-19.44-3.95-.31-.07-.41,.24-.37,.47,.05,.29,.78,.76,1.04,.82,6.5,1.54,12.95,3.06,19.58,3.93,8.32,1.1,16.72,1.43,25.11,1.35,13.81-.13,27.53-1.55,41.19-3.51,29.97-4.3,59.63-11.19,89.88-13.43,8.78-.65,17.56-.85,26.36-.48,6.93,.06,13.75,1.04,20.48,2.94,6.83,.4,13.4,1.82,19.7,4.26,11.72,4.06,22.7,9.78,33.64,15.58,12.2,6.47,24.5,12.89,37.84,16.67,13.64,3.87,27.88,5.25,42.02,4.96,28.22-.59,55.83-7.67,82.86-15.26,13.22-3.71,26.38-7.65,39.64-11.22,6.6-1.78,13.24-3.49,19.9-5.04,8.36-1.9,16.78-3.45,25.27-4.63,11.17-1.93,22.44-3.02,33.81-3.25,11.26-1.42,22.55-2.1,33.87-2.06,5.68-.15,11.35-.14,17.03,.01,11.37,.16,22.71,.6,34.06,1.25,25.56,1.47,51.04,3.97,76.51,6.63,18.91,1.97,37.83,3.85,56.71,6.07,15.64,1.64,31.16,3.97,46.57,6.99,10.9,1.86,21.58,4.68,32.03,8.45,10.92,2.05,21.42,5.28,31.52,9.7,5.68,2.41,11.43,4.64,17.24,6.69,.55,.21,.77-.66,.3-.85Z"/><path class="d" d="M905.62,57.39c-5.72-3.1-11.59-5.85-17.63-8.25-6.01-2.66-12.16-4.98-18.43-6.97-10.52-3.41-21.18-6.29-31.97-8.72-23.94-5.4-48.26-8.68-72.62-11.44-28.56-3.24-57.16-6.36-85.79-8.9-31.07-2.76-62.39-4.76-93.6-3.83-28.44,.85-56.73,3.61-84.58,9.56-20.11,4.3-39.83,10.54-59.64,16.02-16.21,4.49-32.48,8.72-49.03,11.75-9.46,1.73-19.28,3.05-28.9,3.47l-9.51,.26c-6.29,.02-12.56-.35-18.8-1.1l.39,.05-9.66-1.51,.38,.07-9.57-2.19,.38,.09c-6-1.6-11.84-3.63-17.53-6.12-5.56-2.43-11.03-5.04-16.41-7.84-11.11-5.63-22.03-11.67-33.67-16.16-24.36-9.39-50.45-10.48-76.21-8.29-26.63,2.27-52.8,7.78-79.19,11.73-13.71,2.05-27.5,3.75-41.36,4.23-6.75,.26-13.49,.18-20.23-.22-6.66-.4-13.27-1.22-19.83-2.45l.38,.09-10.12-2.3c.14,.47,.41,.85,.83,1.15,1.26,1.21,2.54,2.39,3.84,3.55,1.29,1.17,2.61,2.32,3.95,3.43,.34,.39,.75,.62,1.23,.7,5.03,1.12,10.11,1.92,15.23,2.41,3.38,.49,6.78,.79,10.2,.91,8.56,.52,17.09,.49,25.65,.13,17.34-.73,34.58-3.27,51.72-5.81,35.35-5.24,71.34-11.84,107.11-6.73,8.35,1.19,16.63,2.94,24.68,5.48,7.47,2.36,14.71,5.42,21.86,8.59,11.46,5.08,22.74,10.58,34.47,15.02,7.56,2.86,15.26,5.28,23.19,6.9,15.83,3.24,32.29,3.84,48.37,2.44,33.35-2.9,65.5-12.44,97.74-20.9,18.4-4.83,36.83-9.21,55.62-12.26,27.61-4.48,55.79-5.54,83.71-5.31s56.38,2.58,84.44,5.33c16.8,1.64,33.54,3.72,50.3,5.71,10.86,1.29,21.71,2.56,32.55,4,21.63,2.88,43.17,6.4,64.36,11.65,10.49,2.6,20.89,5.56,31.09,9.15l12.11,4.56c7.8,3.19,15.35,6.88,22.64,11.08,.12-.46,.07-.92-.15-1.38-.48-1.63-1-3.25-1.56-4.86-.53-1.62-1.1-3.22-1.71-4.81-.1-.49-.34-.89-.72-1.19Z"/><path class="d" d="M905.6,55.24c-5.73-3.09-11.63-5.84-17.68-8.23-4-1.8-8.08-3.38-12.25-4.74-10.4-3.7-20.98-6.83-31.71-9.43-21.65-5.25-43.78-8.59-65.88-11.24-21.68-2.6-43.4-4.81-65.12-7.08-28.28-2.96-56.6-5.55-85.02-6.66-25.52-.99-51.04-.66-76.49,1.54-8.5,.72-16.95,1.77-25.36,3.15-8.48,1.16-16.9,2.68-25.25,4.56-6.67,1.53-13.3,3.24-19.92,4.99-16.57,4.39-32.97,9.39-49.53,13.84-16.05,4.32-32.35,8.38-48.85,10.58-14.24,1.9-28.56,2.74-42.88,1.42-7.82-.72-15.58-1.99-23.17-4.07-7.46-2.04-14.64-4.89-21.64-8.15-13.91-6.47-27.13-14.32-41.27-20.3-7.5-3.17-15.24-5.9-23.23-7.55-6.78-1.4-13.63-2.35-20.53-2.96-8.69-.77-17.51-.6-26.22-.16-8.85,.45-17.66,1.31-26.45,2.45-17.68,2.3-35.2,5.66-52.8,8.5-15.49,2.5-31.03,4.74-46.71,5.6-8.44,.46-16.92,.59-25.36,.03l-9.98-.94c-6.63-.81-13.17-2.08-19.62-3.81,.13,.52,.4,.96,.83,1.33,1.27,1.45,2.57,2.88,3.89,4.29,1.31,1.42,2.64,2.81,4.01,4.18,.33,.45,.75,.76,1.27,.92,5.03,1.12,10.11,1.93,15.24,2.42,3.39,.49,6.79,.8,10.21,.91,8.55,.53,17.1,.55,25.66,.14,17.33-.82,34.57-3.23,51.72-5.8,32.09-4.8,64.56-10.59,97.12-7.89,14.93,1.24,29.44,4.49,43.48,9.7,14.75,5.47,28.7,12.94,43.26,18.89s30.62,9.98,46.74,11.2c16.16,1.22,32.61,.04,48.58-2.55,31.49-5.09,61.99-14.6,92.9-22.26,8.11-2.01,16.22-4.03,24.43-5.6,13.75-2.65,27.58-4.62,41.52-5.96,25.14-2.4,50.37-2.69,75.59-1.87,28.21,.92,56.4,3.59,84.44,6.65,13.31,1.45,26.6,3.15,39.9,4.71,10.86,1.28,21.73,2.56,32.55,4.1,19.43,2.76,38.78,6.05,57.84,10.76,10.49,2.59,20.89,5.55,31.09,9.14l12.12,4.56c7.79,3.17,15.33,6.86,22.61,11.07,.12-.53,.08-1.06-.14-1.59-.48-1.92-.99-3.82-1.53-5.72-.53-1.9-1.09-3.79-1.68-5.67-.09-.56-.33-1.04-.71-1.43Z"/><path class="d" d="M904.89,56.36c-5.71-3.11-11.59-5.85-17.63-8.22-4.01-1.8-8.11-3.38-12.28-4.74-10.43-3.71-21.03-6.83-31.79-9.43-21.71-5.25-43.9-8.57-66.06-11.21-21.71-2.58-43.46-4.78-65.2-7.04-28.31-2.93-56.64-5.53-85.09-6.62-25.55-.98-51.11-.64-76.59,1.57-8.51,.72-16.98,1.78-25.41,3.17-8.5,1.17-16.93,2.7-25.3,4.59-6.7,1.55-13.35,3.26-19.99,5.03-16.61,4.42-33.04,9.45-49.63,13.93-16.04,4.33-32.34,8.4-48.84,10.6-14.2,1.89-28.48,2.71-42.77,1.35-7.79-.74-15.51-2.04-23.06-4.14-7.42-2.07-14.55-4.94-21.5-8.23-13.82-6.53-26.95-14.41-41.03-20.39-7.49-3.18-15.23-5.9-23.23-7.55-6.8-1.4-13.68-2.35-20.6-2.95-8.73-.76-17.6-.59-26.35-.13-8.9,.46-17.75,1.34-26.58,2.5-17.74,2.33-35.31,5.74-52.96,8.62-15.49,2.52-31.03,4.78-46.72,5.64-8.43,.46-16.89,.58-25.32,.02l-9.95-.95c-6.6-.82-13.12-2.11-19.54-3.85-.95-.22,1.08,1.56,.8,1.32,.88,.76,2.24,2.25,3.43,2.51,4.92,1.28,9.9,2.23,14.93,2.84,3.33,.58,6.68,.96,10.05,1.14,8.46,.7,16.94,.84,25.43,.51,17.36-.68,34.63-3.16,51.76-5.94,32.71-5.3,65.73-12.11,99.04-10.19,8.5,.49,17.08,1.42,25.37,3.42,6.4,1.54,12.66,3.47,18.82,5.78,14.53,5.45,28.01,13.38,42.04,19.94,14.38,6.72,29.52,11.29,45.34,13.01,15.92,1.74,32.25,.89,48.07-1.53,31.69-4.83,62.25-14.68,93.15-22.91,8.19-2.18,16.4-4.39,24.7-6.12,13.85-2.89,27.82-5.01,41.89-6.5,25.29-2.68,50.69-3.17,76.1-2.5,28.33,.74,56.63,3.36,84.8,6.25,13.42,1.38,26.81,2.94,40.22,4.39,10.98,1.18,21.96,2.36,32.92,3.77,19.75,2.54,39.43,5.56,58.84,10.04,10.69,2.46,21.29,5.3,31.69,8.81l12.31,4.47c8.02,3.04,15.76,6.67,23.23,10.88,.74,.38,.01-1.45,.03-1.41-.28-.79-.58-1.58-.91-2.35-.13-.43-.35-.82-.64-1.16Z"/><path class="d" d="M905.64,52.21c-5.74-3-11.61-5.68-17.63-8.05-6.06-2.64-12.24-4.95-18.54-6.95-8.46-2.71-16.98-5.13-25.62-7.21s-17.6-3.88-26.48-5.45c-26.35-4.67-53-7.25-79.59-10.07-28.3-2.99-56.6-6.02-85-7.98-17.01-1.17-34.12-1.87-51.16-1.89-16.99-.03-34.18,.5-51.1,2.18-14.22,1.42-28.33,3.38-42.36,6.14-9.6,1.89-19.05,4.2-28.5,6.71-37.28,9.91-74.19,23.22-112.93,26.07-7.88,.58-15.74,.67-23.62,.23-4.67-.24-9.3-.8-13.89-1.68-4.63-.66-9.2-1.65-13.69-2.97-7.36-2.18-14.43-4.97-21.35-8.28-8.19-3.91-16.13-8.3-24.18-12.48-6.84-3.55-13.77-6.9-20.93-9.76-9.29-3.71-19.33-6.15-29.21-7.56-8.73-1.24-17.54-1.63-26.34-1.55-25.07,.22-49.84,4.56-74.47,8.82-19.05,3.3-38.16,6.67-57.47,8.07-10.02,.73-20.35,1.05-30.38,.27l-9.92-.97c-6.58-.84-13.06-2.13-19.46-3.88-.77-.18,.37,1.25,.3,1.16,.46,.59,1.39,2.09,2.21,2.26,6.53,1.44,13,2.77,19.64,3.62,8.3,1.07,16.77,1.23,25.13,1.09,13.81-.24,27.53-1.69,41.2-3.63,15.82-2.25,31.54-5.12,47.32-7.59,35.81-5.61,74.1-9.53,108.72,2.61,24.67,8.65,46.33,24.45,71.78,31.08,27.94,7.28,57.51,4.6,85.42-1.37,28.34-6.07,55.93-15.02,84.02-22.09,21.55-5.42,43.53-9.24,65.69-11.06s45.31-2.31,67.98-1.64c25.57,.76,51.08,2.88,76.53,5.4,22.9,2.28,45.79,4.75,68.65,7.41,17.7,2.05,35.42,4.34,52.95,7.62l38.86,9.03c6.36,1.77,12.62,3.83,18.79,6.18,4.16,1.39,8.23,2.99,12.23,4.79,5.88,2.33,11.61,5.01,17.18,8.04,.67,.33,.26-1.16,.24-1.29-.11-.58-.35-3.08-.99-3.38Z"/><path class="d" d="M905.55,57.59c-5.7-3.01-11.55-5.71-17.53-8.09-4-1.81-8.08-3.39-12.25-4.75-10.41-3.72-20.99-6.78-31.72-9.46-21.63-5.4-43.84-8.55-65.93-11.3-24.4-3.04-48.89-5.45-73.34-7.96-22.73-2.33-45.5-4.29-68.33-5.47-45.36-2.36-91.21-.7-135.72,8.86-16.79,3.61-33.29,8.63-49.8,13.32-17.79,5.05-35.62,10.02-53.79,13.55-15.82,3.07-31.83,5-47.96,4.53-15.71-.45-31.15-3.26-45.77-9.09s-27.31-13.42-41.04-19.98c-7.03-3.36-14.2-6.44-21.65-8.74-5.51-1.7-9.97-2.65-15.4-3.63-34.98-6.35-70.73,.08-105.31,5.99-20.63,3.52-41.32,7.08-62.24,8.25-8.44,.47-16.9,.6-25.34,.06l-9.96-.92c-6.61-.8-13.14-2.06-19.58-3.76-1.12-.26,1.6,1.98,1.24,1.68,.99,.83,2,1.64,3.03,2.43,.51,.45,1.07,.83,1.69,1.12l10.01,1.99c5.02,.86,10.07,1.43,15.16,1.7,6.8,.5,13.58,.62,20.4,.46,15.59-.38,31.07-2.19,46.48-4.44,31.12-4.54,62.1-10.87,93.66-11.26,8.49-.11,16.99,.46,25.41,1.56,3.37,.33,6.71,.88,10.01,1.66,4.87,.79,9.61,2.08,14.23,3.87,6.17,1.6,12.13,3.76,17.89,6.48l8.51,3.91c5.65,2.66,11.23,5.44,16.87,8.11,14.28,6.75,29.14,12.55,44.86,14.88,14.37,2.13,28.8,2.29,43.25,.95,30.08-2.78,59.25-11.28,88.27-19.23,14.65-4.01,29.35-8.04,44.23-11.13,11.01-2.29,22.19-4.05,33.36-5.39l16.77-1.69c16.8-1.5,33.63-1.78,50.49-.85,14.07-.52,28.12-.26,42.14,.78,5.65,.31,11.3,.71,16.94,1.21,14.12,1.12,28.23,2.46,42.32,3.94,22.21,2.34,44.42,4.88,66.58,7.67,19.64,2.48,39.27,5.41,58.6,9.71,8.53,1.9,16.99,4.1,25.38,6.54,6.27,1.81,12.45,3.89,18.54,6.24,10,3.5,19.64,7.85,28.91,13.07,.15-.27,.16-.56,.01-.87-.28-.99-.59-1.96-.94-2.93-.27-.77-.73-3.11-1.65-3.55Z"/><path class="d" d="M905.46,56.33c-5.73-3.1-11.61-5.85-17.66-8.24-6.02-2.65-12.17-4.97-18.44-6.96-12.55-4.16-25.53-7.52-38.49-10.16-24.05-4.9-48.39-8-72.77-10.66-29.2-3.19-58.41-6.44-87.68-8.9-16.98-1.43-34.03-2.48-51.07-2.95-16.96-.47-34.09-.47-51.02,.59-16.99,1.06-34,2.64-50.77,5.65-10.69,1.92-21.26,4.22-31.77,6.95-18.26,4.74-36.33,10.17-54.54,15.1-19.15,5.18-38.69,9.95-58.49,11.76-9.47,.87-19.03,1.38-28.54,.71l-9.36-.85c-6.24-.76-12.4-1.96-18.47-3.6l.39,.12-9.48-2.96,.38,.14-8.81-3.49,.38,.16-8.61-3.97,.37,.18c-11.06-5.56-21.93-11.6-33.22-16.67-8.91-4-18.03-7.14-27.53-9.37-13.5-3.17-27.66-3.82-41.47-3.45-12.41,.33-24.75,1.69-37.04,3.41-24.6,3.44-48.94,8.51-73.61,11.46-11.92,1.43-23.89,2.4-35.9,2.25-6.71-.05-13.39-.49-20.05-1.29-6.62-.81-13.16-2.06-19.61-3.77,.14,.5,.42,.91,.86,1.24,1.29,1.34,2.61,2.65,3.95,3.94,1.33,1.3,2.68,2.58,4.06,3.83,.34,.42,.77,.69,1.27,.82,5.03,1.12,10.11,1.92,15.23,2.42,3.38,.49,6.79,.79,10.2,.91,8.55,.52,17.1,.54,25.66,.13,17.33-.83,34.57-3.24,51.72-5.81,32.09-4.8,64.56-10.58,97.12-7.86,14.93,1.25,29.43,4.51,43.47,9.72,14.75,5.47,28.7,12.94,43.27,18.88,14.94,6.1,30.62,9.96,46.73,11.17,16.16,1.21,32.6,.03,48.58-2.56,31.49-5.1,61.99-14.61,92.9-22.27,8.1-2.01,16.21-4.02,24.42-5.6,13.75-2.64,27.58-4.62,41.53-5.95,25.14-2.4,50.37-2.68,75.59-1.86,28.21,.92,56.4,3.6,84.44,6.66,13.32,1.45,26.61,3.15,39.91,4.72,10.86,1.28,21.73,2.56,32.55,4.1,19.43,2.77,38.78,6.05,57.84,10.77,10.49,2.6,20.89,5.56,31.09,9.15l12.11,4.56c7.8,3.18,15.34,6.87,22.63,11.09,.11-.5,.06-1-.16-1.49-.5-1.78-1.04-3.55-1.62-5.31-.55-1.76-1.14-3.52-1.77-5.26-.1-.53-.35-.97-.73-1.31Z"/><path class="d" d="M905.86,56.67l-11.51-5.56c-5.97-2.76-12.07-5.19-18.3-7.28-10.4-3.71-20.98-6.91-31.73-9.45-19.55-4.63-39.38-7.87-59.3-10.42-23.87-3.06-47.85-5.44-71.79-7.94-25.46-2.66-50.96-5-76.53-6.33-28.29-1.47-56.83-1.41-85.06,1.19-23.91,2.2-47.46,6.47-70.64,12.7-14.93,4.01-29.76,8.4-44.66,12.5-19.17,5.28-38.56,10.08-58.32,12.48-14.14,1.72-28.5,2.22-42.67,.45-7.81-.98-15.47-2.68-22.97-5.03-7.29-2.28-14.29-5.22-21.15-8.59-12.38-6.08-24.35-12.95-37.07-18.34-4.41-1.87-8.86-3.62-13.44-5.02-8.28-2.55-16.82-4.1-25.41-5.04-33.62-3.69-67.3,2.84-100.33,8.44-8.73,1.48-17.46,2.93-26.22,4.18-5.12,.79-10.26,1.4-15.42,1.82-6.79,.89-13.6,1.44-20.44,1.65-6.74,.18-13.48,.14-20.22-.23-5-.25-9.96-.82-14.89-1.7-4.95-.66-9.83-1.66-14.65-3-1.08-.25,1.38,2,1.1,1.73,.92,.88,1.86,1.73,2.82,2.57,.47,.48,1,.88,1.59,1.2,4.95,1.21,9.96,2.1,15.02,2.66,3.35,.54,6.71,.89,10.1,1.04,8.49,.63,16.99,.72,25.5,.35,13.93-.6,27.85-2.3,41.64-4.34,17.38-2.57,34.68-5.73,52.1-7.98,17.08-2.2,34.44-3.99,51.69-3.08,6.78,.36,13.54,1.01,20.25,2.04,5.06,.77,10.04,1.88,14.94,3.34,4.68,1.09,9.2,2.64,13.57,4.66,5.85,2.04,11.55,4.45,17.1,7.21l8.42,4.05c7,3.37,13.99,6.73,21.17,9.7,7.31,3.02,14.77,5.6,22.48,7.4,7.81,1.82,15.77,2.86,23.77,3.37,16.18,1.03,32.32-.38,48.28-3.07,28.34-4.77,55.87-13.29,83.61-20.64,8.17-2.17,16.38-4.24,24.63-6.08,12.65-2.81,25.46-4.95,38.32-6.5,27.91-3.37,56.25-4.08,84.34-3.05,28.3,1.04,56.54,3.43,84.69,6.45,11.19,1.2,22.37,2.52,33.56,3.82,13.12,1.52,26.25,2.9,39.34,4.67,19.64,2.65,39.2,5.81,58.49,10.42,10.61,2.54,21.14,5.44,31.46,9l12.23,4.52c7.83,3.12,15.43,6.72,22.81,10.81,.17-.28,.18-.57,.05-.9-.24-1.04-.52-2.07-.83-3.09-.21-.73-.61-3.34-1.51-3.77Z"/><path class="d" d="M904.71,55.1c-9.9-4-19.71-8.22-29.78-11.78-8.37-2.96-16.84-5.5-25.44-7.72-19.54-5.03-39.41-8.37-59.39-11.09-23.32-3.17-46.81-5.32-70.22-7.75-25.5-2.65-51.01-5.16-76.61-6.63-25.54-1.46-51.19-1.94-76.74-.41s-49.01,4.58-72.84,10.42c-31.54,7.73-62.3,18.66-94.16,25.08-14.29,2.88-28.68,4.99-43.27,5.27-6.28,.12-12.51-.11-18.76-.75-4.65-.37-9.27-1.05-13.83-2.05l-42.44-16.8c-5.42-2.77-10.71-5.77-16.14-8.53-6.93-3.52-14-6.65-21.34-9.2-14.77-5.12-30.21-7.08-45.79-7.46-8.87-.21-17.8,.4-26.63,1.22-8.94,.83-17.84,1.99-26.71,3.38-15.92,2.5-31.76,5.5-47.68,8.05-15.42,2.47-30.96,4.57-46.59,5.05-6.71,.21-13.45,.08-20.15-.34-4.98-.29-9.91-.89-14.8-1.82-4.92-.7-9.76-1.75-14.54-3.14-.63-.15-.18,.89,.31,1,4.81,1.39,9.68,2.44,14.63,3.14,3.27,.65,6.57,1.09,9.9,1.31,8.39,.84,16.77,1.03,25.19,.83,17.38-.41,34.68-3.08,51.8-5.89,36.6-6.01,73.67-14.69,110.98-10.87,8.62,.88,17.19,2.39,25.5,4.91,7.47,2.27,14.66,5.35,21.67,8.74,10.98,5.3,21.53,11.41,32.51,16.7,6.98,3.36,14.13,6.31,21.6,8.45,15.08,4.3,31.08,5.77,46.72,4.93,33.46-1.81,65.68-11.59,97.7-20.77,8.27-2.37,16.54-4.72,24.85-6.92,10.51-2.78,21.08-5.14,31.78-7.11,13.97-2.57,28.17-4.1,42.33-5.19,14.16-1.08,28.33-1.54,42.53-1.6,28.43-.11,56.85,2.03,85.15,4.58,28.05,2.53,56.09,5.53,84.07,8.69,22.22,2.51,44.37,5.56,66.22,10.36,10.83,2.38,21.59,5.13,32.13,8.58,12.18,3.99,23.94,9.12,35.89,13.74,.36,.14,.87-.45,.4-.64Z"/></g></g></g></svg>