<?xml version="1.0" encoding="UTF-8"?><svg xmlns="http://www.w3.org/2000/svg" viewBox="0 0 1503 1002.41"><defs><style>.d{stroke-width:3px;}.d,.e{fill:none;stroke:#fff;stroke-miterlimit:10;}.f{letter-spacing:0em;}.g{letter-spacing:-.02em;}.h{letter-spacing:.04em;}.e{stroke-width:5px;}.i{letter-spacing:0em;}.j{fill:#fff;font-family:Cortado, Cortado;font-size:121px;}.k{letter-spacing:0em;}.l{letter-spacing:0em;}.m{letter-spacing:.03em;}.n{letter-spacing:.03em;}.o{letter-spacing:.02em;}.p{letter-spacing:0em;}</style></defs><g id="a"/><g id="b"><g id="c"><g><text class="j" transform="translate(477.97 313.96)"><tspan class="k" x="0" y="0">T</tspan><tspan x="66.55" y="0">IM</tspan><tspan class="h" x="191.78" y="0">E</tspan><tspan x="258.94" y="0">’S UP!</tspan><tspan class="n" x="-178.77" y="145.2">C</tspan><tspan class="k" x="-111.62" y="145.2">A</tspan><tspan x="-39.63" y="145.2">RO</tspan><tspan class="m" x="103.15" y="145.2">L</tspan><tspan x="166.07" y="145.2">INE DIDN</tspan><tspan class="p" x="616.79" y="145.2">’</tspan><tspan x="640.62" y="145.2">T</tspan><tspan x="-328.09" y="290.4">H</tspan><tspan class="g" x="-251.86" y="290.4">A</tspan><tspan class="m" x="-183.49" y="290.4">V</tspan><tspan x="-116.34" y="290.4">E </tspan><tspan class="h" x="-35.87" y="290.4">E</tspan><tspan class="f" x="31.28" y="290.4">NOU</tspan><tspan class="l" x="253.92" y="290.4">G</tspan><tspan x="325.3" y="290.4">H DR</tspan><tspan class="l" x="561.85" y="290.4">E</tspan><tspan x="625.38" y="290.4">S</tspan><tspan class="h" x="679.22" y="290.4">S</tspan><tspan class="l" x="737.91" y="290.4">E</tspan><tspan class="i" x="801.43" y="290.4">S</tspan><tspan class="o" x="-120.58" y="435.6">F</tspan><tspan x="-61.89" y="435.6">OR </tspan><tspan class="k" x="99.04" y="435.6">T</tspan><tspan x="165.58" y="435.6">HE </tspan><tspan class="o" x="322.28" y="435.6">S</tspan><tspan class="f" x="378.54" y="435.6">H</tspan><tspan class="p" x="454.77" y="435.6">O</tspan><tspan x="528.58" y="435.6">W!</tspan></text><rect class="e" x="2.5" y="2.5" width="1498" height="997.41"/><line class="d" x1="498.22" y1="333.25" x2="1046.72" y2="334.77"/></g></g></g></svg>